G04 EAGLE Gerber RS-274X export*
G75*
%MOMM*%
%FSLAX34Y34*%
%LPD*%
%INBottom Copper*%
%IPPOS*%
%AMOC8*
5,1,8,0,0,1.08239X$1,22.5*%
G01*
%ADD10R,1.500000X1.400000*%
%ADD11R,2.975000X1.400000*%
%ADD12R,2.975000X1.460000*%
%ADD13R,4.700000X0.760000*%
%ADD14R,1.400000X1.600000*%
%ADD15R,1.000000X1.100000*%
%ADD16R,1.600000X1.400000*%
%ADD17R,1.350000X0.400000*%
%ADD18R,1.900000X1.400000*%
%ADD19R,1.900000X1.600000*%
%ADD20R,1.400000X1.000000*%
%ADD21C,0.812800*%
%ADD22C,0.152400*%
%ADD23C,0.756400*%

G36*
X344571Y-2409D02*
X344571Y-2409D01*
X344590Y-2411D01*
X344692Y-2389D01*
X344794Y-2373D01*
X344811Y-2363D01*
X344831Y-2359D01*
X344920Y-2306D01*
X345011Y-2257D01*
X345025Y-2243D01*
X345042Y-2233D01*
X345109Y-2154D01*
X345181Y-2079D01*
X345189Y-2061D01*
X345202Y-2046D01*
X345241Y-1950D01*
X345284Y-1856D01*
X345286Y-1836D01*
X345294Y-1818D01*
X345312Y-1651D01*
X345312Y2599D01*
X345297Y2693D01*
X345288Y2788D01*
X345277Y2814D01*
X345273Y2842D01*
X345228Y2926D01*
X345190Y3013D01*
X345171Y3034D01*
X345157Y3059D01*
X345088Y3125D01*
X345024Y3195D01*
X345000Y3209D01*
X344979Y3228D01*
X344893Y3268D01*
X344809Y3315D01*
X344782Y3320D01*
X344756Y3332D01*
X344661Y3342D01*
X344568Y3360D01*
X344540Y3356D01*
X344512Y3359D01*
X344418Y3339D01*
X344324Y3325D01*
X344292Y3311D01*
X344271Y3307D01*
X344243Y3290D01*
X344170Y3258D01*
X340298Y1022D01*
X333644Y-761D01*
X326756Y-761D01*
X320102Y1022D01*
X314137Y4466D01*
X309266Y9337D01*
X306593Y13968D01*
X306549Y14021D01*
X306523Y14065D01*
X306492Y14091D01*
X306443Y14152D01*
X306440Y14155D01*
X306437Y14158D01*
X306351Y14212D01*
X306336Y14225D01*
X306321Y14231D01*
X306236Y14285D01*
X306232Y14286D01*
X306229Y14289D01*
X306113Y14316D01*
X305998Y14345D01*
X305994Y14345D01*
X305989Y14346D01*
X305870Y14336D01*
X305752Y14326D01*
X305749Y14325D01*
X305744Y14324D01*
X305679Y14296D01*
X305678Y14296D01*
X305674Y14293D01*
X305634Y14276D01*
X305526Y14230D01*
X305522Y14227D01*
X305519Y14226D01*
X305509Y14216D01*
X305472Y14186D01*
X305460Y14180D01*
X305448Y14168D01*
X305395Y14125D01*
X296603Y5333D01*
X82873Y5333D01*
X51053Y37153D01*
X51053Y66914D01*
X51050Y66934D01*
X51052Y66953D01*
X51030Y67055D01*
X51014Y67157D01*
X51004Y67174D01*
X51000Y67194D01*
X50947Y67283D01*
X50898Y67374D01*
X50884Y67388D01*
X50874Y67405D01*
X50795Y67472D01*
X50720Y67544D01*
X50702Y67552D01*
X50687Y67565D01*
X50591Y67604D01*
X50497Y67647D01*
X50477Y67649D01*
X50459Y67657D01*
X50292Y67675D01*
X44468Y67675D01*
X43575Y68568D01*
X43575Y83832D01*
X44468Y84725D01*
X47244Y84725D01*
X47264Y84728D01*
X47283Y84726D01*
X47385Y84748D01*
X47487Y84764D01*
X47504Y84774D01*
X47524Y84778D01*
X47613Y84831D01*
X47704Y84880D01*
X47718Y84894D01*
X47735Y84904D01*
X47802Y84983D01*
X47874Y85058D01*
X47882Y85076D01*
X47895Y85091D01*
X47934Y85187D01*
X47977Y85281D01*
X47979Y85301D01*
X47987Y85319D01*
X48005Y85486D01*
X48005Y107014D01*
X48002Y107034D01*
X48004Y107053D01*
X47982Y107155D01*
X47966Y107257D01*
X47956Y107274D01*
X47952Y107294D01*
X47899Y107383D01*
X47850Y107474D01*
X47836Y107488D01*
X47826Y107505D01*
X47747Y107572D01*
X47672Y107644D01*
X47654Y107652D01*
X47639Y107665D01*
X47543Y107704D01*
X47449Y107747D01*
X47429Y107749D01*
X47411Y107757D01*
X47244Y107775D01*
X41468Y107775D01*
X40575Y108668D01*
X40575Y119932D01*
X41468Y120825D01*
X56732Y120825D01*
X57625Y119932D01*
X57625Y112776D01*
X57628Y112756D01*
X57626Y112737D01*
X57648Y112635D01*
X57664Y112533D01*
X57674Y112516D01*
X57678Y112496D01*
X57731Y112407D01*
X57780Y112316D01*
X57794Y112302D01*
X57804Y112285D01*
X57883Y112218D01*
X57958Y112146D01*
X57976Y112138D01*
X57991Y112125D01*
X58087Y112086D01*
X58181Y112043D01*
X58201Y112041D01*
X58219Y112033D01*
X58386Y112015D01*
X64571Y112015D01*
X64661Y112029D01*
X64752Y112037D01*
X64781Y112049D01*
X64813Y112054D01*
X64894Y112097D01*
X64978Y112133D01*
X65010Y112159D01*
X65031Y112170D01*
X65053Y112193D01*
X65109Y112238D01*
X67906Y115035D01*
X72302Y115035D01*
X75411Y111926D01*
X75411Y109438D01*
X75422Y109368D01*
X75424Y109296D01*
X75442Y109247D01*
X75450Y109196D01*
X75484Y109132D01*
X75509Y109065D01*
X75541Y109024D01*
X75566Y108978D01*
X75618Y108929D01*
X75662Y108873D01*
X75706Y108845D01*
X75744Y108809D01*
X75809Y108779D01*
X75869Y108740D01*
X75920Y108727D01*
X75967Y108705D01*
X76038Y108697D01*
X76108Y108680D01*
X76160Y108684D01*
X76211Y108678D01*
X76282Y108693D01*
X76353Y108699D01*
X76401Y108719D01*
X76452Y108730D01*
X76513Y108767D01*
X76579Y108795D01*
X76635Y108840D01*
X76663Y108857D01*
X76678Y108874D01*
X76710Y108900D01*
X78301Y110491D01*
X78814Y110491D01*
X78834Y110494D01*
X78853Y110492D01*
X78955Y110514D01*
X79057Y110530D01*
X79074Y110540D01*
X79094Y110544D01*
X79183Y110597D01*
X79274Y110646D01*
X79288Y110660D01*
X79305Y110670D01*
X79372Y110749D01*
X79444Y110824D01*
X79452Y110842D01*
X79465Y110857D01*
X79504Y110953D01*
X79547Y111047D01*
X79549Y111067D01*
X79557Y111085D01*
X79575Y111252D01*
X79575Y124032D01*
X80405Y124862D01*
X80417Y124878D01*
X80433Y124890D01*
X80489Y124978D01*
X80549Y125061D01*
X80555Y125080D01*
X80566Y125097D01*
X80591Y125198D01*
X80621Y125297D01*
X80621Y125316D01*
X80626Y125336D01*
X80618Y125439D01*
X80615Y125542D01*
X80608Y125561D01*
X80607Y125581D01*
X80566Y125676D01*
X80531Y125773D01*
X80518Y125789D01*
X80510Y125807D01*
X80405Y125938D01*
X79575Y126768D01*
X79575Y142032D01*
X80405Y142862D01*
X80417Y142878D01*
X80433Y142890D01*
X80489Y142978D01*
X80549Y143061D01*
X80555Y143080D01*
X80566Y143097D01*
X80591Y143198D01*
X80621Y143297D01*
X80621Y143316D01*
X80626Y143336D01*
X80618Y143439D01*
X80615Y143542D01*
X80608Y143561D01*
X80607Y143581D01*
X80566Y143676D01*
X80531Y143773D01*
X80518Y143789D01*
X80510Y143807D01*
X80405Y143938D01*
X79575Y144768D01*
X79575Y160032D01*
X80468Y160925D01*
X96732Y160925D01*
X97625Y160032D01*
X97625Y148241D01*
X97639Y148151D01*
X97647Y148060D01*
X97659Y148030D01*
X97664Y147998D01*
X97707Y147917D01*
X97743Y147833D01*
X97769Y147801D01*
X97780Y147780D01*
X97803Y147758D01*
X97848Y147702D01*
X97910Y147640D01*
X97926Y147628D01*
X97939Y147612D01*
X98026Y147557D01*
X98110Y147496D01*
X98129Y147490D01*
X98146Y147479D01*
X98246Y147454D01*
X98345Y147424D01*
X98365Y147424D01*
X98384Y147419D01*
X98487Y147427D01*
X98591Y147430D01*
X98610Y147437D01*
X98630Y147439D01*
X98724Y147479D01*
X98822Y147515D01*
X98837Y147527D01*
X98856Y147535D01*
X98987Y147640D01*
X99910Y148563D01*
X104306Y148563D01*
X107515Y145354D01*
X107531Y145342D01*
X107544Y145326D01*
X107631Y145270D01*
X107715Y145210D01*
X107734Y145204D01*
X107751Y145193D01*
X107851Y145168D01*
X107950Y145138D01*
X107970Y145138D01*
X107989Y145133D01*
X108092Y145141D01*
X108196Y145144D01*
X108215Y145151D01*
X108234Y145153D01*
X108329Y145193D01*
X108427Y145229D01*
X108443Y145241D01*
X108461Y145249D01*
X108592Y145354D01*
X128554Y165316D01*
X128601Y165381D01*
X128615Y165396D01*
X128618Y165403D01*
X128667Y165460D01*
X128679Y165490D01*
X128698Y165516D01*
X128725Y165603D01*
X128759Y165688D01*
X128763Y165729D01*
X128770Y165751D01*
X128769Y165783D01*
X128777Y165855D01*
X128777Y168203D01*
X128763Y168293D01*
X128755Y168384D01*
X128743Y168413D01*
X128738Y168445D01*
X128695Y168526D01*
X128659Y168610D01*
X128633Y168642D01*
X128622Y168663D01*
X128599Y168685D01*
X128554Y168741D01*
X125757Y171538D01*
X125757Y175934D01*
X128866Y179043D01*
X133262Y179043D01*
X136371Y175934D01*
X136371Y171538D01*
X133574Y168741D01*
X133521Y168667D01*
X133461Y168597D01*
X133449Y168567D01*
X133430Y168541D01*
X133403Y168454D01*
X133369Y168369D01*
X133365Y168328D01*
X133358Y168306D01*
X133359Y168274D01*
X133351Y168203D01*
X133351Y167378D01*
X133362Y167308D01*
X133364Y167236D01*
X133382Y167187D01*
X133390Y167136D01*
X133424Y167072D01*
X133449Y167005D01*
X133481Y166964D01*
X133506Y166918D01*
X133557Y166869D01*
X133602Y166813D01*
X133646Y166785D01*
X133684Y166749D01*
X133749Y166719D01*
X133809Y166680D01*
X133860Y166667D01*
X133907Y166645D01*
X133978Y166637D01*
X134048Y166620D01*
X134100Y166624D01*
X134151Y166618D01*
X134222Y166633D01*
X134293Y166639D01*
X134341Y166659D01*
X134392Y166670D01*
X134453Y166707D01*
X134519Y166735D01*
X134575Y166780D01*
X134603Y166797D01*
X134618Y166814D01*
X134650Y166840D01*
X147254Y179444D01*
X147266Y179460D01*
X147282Y179473D01*
X147338Y179560D01*
X147398Y179644D01*
X147404Y179663D01*
X147415Y179680D01*
X147440Y179780D01*
X147470Y179879D01*
X147470Y179899D01*
X147475Y179918D01*
X147467Y180021D01*
X147464Y180125D01*
X147457Y180144D01*
X147455Y180164D01*
X147415Y180258D01*
X147379Y180356D01*
X147367Y180372D01*
X147359Y180390D01*
X147254Y180521D01*
X145569Y182206D01*
X145569Y186602D01*
X148678Y189711D01*
X153074Y189711D01*
X156183Y186602D01*
X156183Y182206D01*
X153386Y179409D01*
X153333Y179335D01*
X153273Y179265D01*
X153261Y179235D01*
X153242Y179209D01*
X153215Y179122D01*
X153181Y179037D01*
X153177Y178996D01*
X153170Y178974D01*
X153171Y178942D01*
X153165Y178887D01*
X113762Y139484D01*
X113709Y139410D01*
X113649Y139340D01*
X113637Y139310D01*
X113618Y139284D01*
X113591Y139197D01*
X113557Y139112D01*
X113553Y139071D01*
X113546Y139049D01*
X113547Y139017D01*
X113539Y138945D01*
X113539Y128977D01*
X113550Y128907D01*
X113552Y128835D01*
X113570Y128786D01*
X113578Y128735D01*
X113612Y128671D01*
X113637Y128604D01*
X113669Y128563D01*
X113694Y128517D01*
X113746Y128468D01*
X113790Y128412D01*
X113834Y128384D01*
X113872Y128348D01*
X113937Y128318D01*
X113997Y128279D01*
X114048Y128266D01*
X114095Y128244D01*
X114166Y128236D01*
X114236Y128219D01*
X114288Y128223D01*
X114339Y128217D01*
X114410Y128232D01*
X114481Y128238D01*
X114529Y128258D01*
X114580Y128269D01*
X114641Y128306D01*
X114707Y128334D01*
X114763Y128379D01*
X114791Y128396D01*
X114806Y128413D01*
X114838Y128439D01*
X115150Y128751D01*
X119546Y128751D01*
X122343Y125954D01*
X122417Y125901D01*
X122487Y125841D01*
X122517Y125829D01*
X122543Y125810D01*
X122630Y125783D01*
X122715Y125749D01*
X122756Y125745D01*
X122778Y125738D01*
X122810Y125739D01*
X122881Y125731D01*
X123705Y125731D01*
X123796Y125745D01*
X123886Y125753D01*
X123916Y125765D01*
X123948Y125770D01*
X124029Y125813D01*
X124113Y125849D01*
X124145Y125875D01*
X124166Y125886D01*
X124188Y125909D01*
X124244Y125954D01*
X157510Y159220D01*
X157556Y159284D01*
X157577Y159306D01*
X157581Y159315D01*
X157623Y159364D01*
X157635Y159394D01*
X157654Y159420D01*
X157681Y159507D01*
X157715Y159592D01*
X157719Y159633D01*
X157726Y159655D01*
X157725Y159687D01*
X157733Y159759D01*
X157733Y187713D01*
X157719Y187804D01*
X157711Y187894D01*
X157699Y187924D01*
X157694Y187956D01*
X157651Y188037D01*
X157615Y188121D01*
X157589Y188153D01*
X157578Y188174D01*
X157555Y188196D01*
X157510Y188252D01*
X154696Y191066D01*
X154622Y191119D01*
X154552Y191179D01*
X154522Y191191D01*
X154496Y191210D01*
X154409Y191237D01*
X154324Y191271D01*
X154283Y191275D01*
X154261Y191282D01*
X154229Y191281D01*
X154158Y191289D01*
X153250Y191289D01*
X150141Y194398D01*
X150141Y198794D01*
X153250Y201903D01*
X157646Y201903D01*
X160755Y198794D01*
X160755Y194398D01*
X159832Y193475D01*
X159820Y193459D01*
X159804Y193446D01*
X159748Y193359D01*
X159688Y193275D01*
X159682Y193256D01*
X159671Y193239D01*
X159646Y193139D01*
X159616Y193040D01*
X159616Y193020D01*
X159611Y193001D01*
X159619Y192898D01*
X159622Y192794D01*
X159629Y192775D01*
X159631Y192756D01*
X159671Y192661D01*
X159707Y192563D01*
X159719Y192547D01*
X159727Y192529D01*
X159832Y192398D01*
X160744Y191486D01*
X162307Y189923D01*
X162307Y157549D01*
X159192Y154434D01*
X159150Y154376D01*
X159101Y154324D01*
X159079Y154277D01*
X159049Y154235D01*
X159028Y154166D01*
X158997Y154101D01*
X158992Y154049D01*
X158976Y153999D01*
X158978Y153928D01*
X158970Y153857D01*
X158981Y153806D01*
X158983Y153754D01*
X159007Y153686D01*
X159022Y153616D01*
X159049Y153571D01*
X159067Y153523D01*
X159112Y153467D01*
X159149Y153405D01*
X159188Y153371D01*
X159221Y153331D01*
X159281Y153292D01*
X159336Y153245D01*
X159384Y153226D01*
X159428Y153198D01*
X159497Y153180D01*
X159564Y153153D01*
X159635Y153145D01*
X159666Y153137D01*
X159690Y153139D01*
X159730Y153135D01*
X160694Y153135D01*
X163803Y150026D01*
X163803Y145630D01*
X160694Y142521D01*
X156738Y142521D01*
X156648Y142507D01*
X156557Y142499D01*
X156528Y142487D01*
X156496Y142482D01*
X156415Y142439D01*
X156331Y142403D01*
X156299Y142377D01*
X156278Y142366D01*
X156256Y142343D01*
X156200Y142298D01*
X133546Y119644D01*
X133493Y119570D01*
X133433Y119500D01*
X133421Y119470D01*
X133402Y119444D01*
X133375Y119357D01*
X133341Y119272D01*
X133337Y119231D01*
X133330Y119209D01*
X133331Y119177D01*
X133323Y119106D01*
X133323Y115150D01*
X130214Y112041D01*
X125818Y112041D01*
X122709Y115150D01*
X122709Y119463D01*
X122698Y119533D01*
X122696Y119605D01*
X122678Y119654D01*
X122670Y119705D01*
X122636Y119769D01*
X122611Y119836D01*
X122579Y119877D01*
X122554Y119923D01*
X122502Y119972D01*
X122458Y120028D01*
X122414Y120056D01*
X122376Y120092D01*
X122311Y120122D01*
X122251Y120161D01*
X122200Y120174D01*
X122153Y120196D01*
X122082Y120204D01*
X122012Y120221D01*
X121960Y120217D01*
X121909Y120223D01*
X121838Y120208D01*
X121767Y120202D01*
X121719Y120182D01*
X121668Y120171D01*
X121607Y120134D01*
X121541Y120106D01*
X121485Y120061D01*
X121457Y120044D01*
X121442Y120027D01*
X121410Y120001D01*
X119546Y118137D01*
X115150Y118137D01*
X114838Y118449D01*
X114780Y118491D01*
X114728Y118540D01*
X114681Y118562D01*
X114639Y118592D01*
X114570Y118614D01*
X114505Y118644D01*
X114453Y118649D01*
X114403Y118665D01*
X114332Y118663D01*
X114261Y118671D01*
X114210Y118660D01*
X114158Y118658D01*
X114090Y118634D01*
X114020Y118619D01*
X113975Y118592D01*
X113927Y118574D01*
X113871Y118529D01*
X113809Y118492D01*
X113775Y118453D01*
X113735Y118420D01*
X113696Y118360D01*
X113649Y118305D01*
X113630Y118257D01*
X113602Y118213D01*
X113584Y118144D01*
X113557Y118077D01*
X113549Y118006D01*
X113541Y117975D01*
X113543Y117952D01*
X113539Y117911D01*
X113539Y82873D01*
X97848Y67182D01*
X97795Y67108D01*
X97735Y67038D01*
X97723Y67008D01*
X97704Y66982D01*
X97677Y66895D01*
X97643Y66810D01*
X97639Y66769D01*
X97632Y66747D01*
X97633Y66715D01*
X97625Y66643D01*
X97625Y54768D01*
X96795Y53938D01*
X96783Y53922D01*
X96767Y53910D01*
X96711Y53822D01*
X96651Y53739D01*
X96645Y53720D01*
X96634Y53703D01*
X96609Y53602D01*
X96579Y53503D01*
X96579Y53484D01*
X96574Y53464D01*
X96582Y53361D01*
X96585Y53258D01*
X96592Y53239D01*
X96593Y53219D01*
X96634Y53124D01*
X96669Y53027D01*
X96682Y53011D01*
X96690Y52993D01*
X96795Y52862D01*
X97625Y52032D01*
X97625Y36768D01*
X96795Y35938D01*
X96783Y35922D01*
X96767Y35910D01*
X96711Y35822D01*
X96651Y35739D01*
X96645Y35720D01*
X96634Y35703D01*
X96609Y35602D01*
X96579Y35503D01*
X96579Y35484D01*
X96574Y35464D01*
X96582Y35361D01*
X96585Y35258D01*
X96592Y35239D01*
X96593Y35219D01*
X96634Y35124D01*
X96669Y35027D01*
X96682Y35011D01*
X96690Y34993D01*
X96795Y34862D01*
X97625Y34032D01*
X97625Y19812D01*
X97628Y19792D01*
X97626Y19773D01*
X97648Y19671D01*
X97664Y19569D01*
X97674Y19552D01*
X97678Y19532D01*
X97731Y19443D01*
X97780Y19352D01*
X97794Y19338D01*
X97804Y19321D01*
X97883Y19254D01*
X97958Y19182D01*
X97976Y19174D01*
X97991Y19161D01*
X98087Y19122D01*
X98181Y19079D01*
X98201Y19077D01*
X98219Y19069D01*
X98386Y19051D01*
X108465Y19051D01*
X108556Y19065D01*
X108646Y19073D01*
X108676Y19085D01*
X108708Y19090D01*
X108789Y19133D01*
X108873Y19169D01*
X108905Y19195D01*
X108926Y19206D01*
X108948Y19229D01*
X109004Y19274D01*
X136464Y46734D01*
X136506Y46792D01*
X136555Y46844D01*
X136577Y46891D01*
X136607Y46933D01*
X136628Y47002D01*
X136659Y47067D01*
X136664Y47119D01*
X136680Y47169D01*
X136678Y47240D01*
X136686Y47311D01*
X136675Y47362D01*
X136673Y47414D01*
X136649Y47482D01*
X136634Y47552D01*
X136607Y47597D01*
X136589Y47645D01*
X136544Y47701D01*
X136507Y47763D01*
X136468Y47797D01*
X136435Y47837D01*
X136375Y47876D01*
X136320Y47923D01*
X136272Y47942D01*
X136228Y47970D01*
X136159Y47988D01*
X136092Y48015D01*
X136021Y48023D01*
X135990Y48031D01*
X135966Y48029D01*
X135926Y48033D01*
X134962Y48033D01*
X131853Y51142D01*
X131853Y52106D01*
X131842Y52176D01*
X131840Y52248D01*
X131822Y52297D01*
X131814Y52348D01*
X131780Y52412D01*
X131755Y52479D01*
X131723Y52520D01*
X131698Y52566D01*
X131646Y52615D01*
X131602Y52671D01*
X131558Y52699D01*
X131520Y52735D01*
X131455Y52765D01*
X131395Y52804D01*
X131344Y52817D01*
X131297Y52839D01*
X131226Y52847D01*
X131156Y52864D01*
X131104Y52860D01*
X131053Y52866D01*
X130982Y52851D01*
X130911Y52845D01*
X130863Y52825D01*
X130812Y52814D01*
X130751Y52777D01*
X130685Y52749D01*
X130629Y52704D01*
X130601Y52687D01*
X130586Y52670D01*
X130554Y52644D01*
X125926Y48016D01*
X125873Y47942D01*
X125813Y47872D01*
X125801Y47842D01*
X125782Y47816D01*
X125755Y47729D01*
X125721Y47644D01*
X125717Y47603D01*
X125710Y47581D01*
X125711Y47549D01*
X125703Y47477D01*
X125703Y43522D01*
X122594Y40413D01*
X118198Y40413D01*
X115089Y43522D01*
X115089Y47918D01*
X118198Y51027D01*
X122153Y51027D01*
X122244Y51041D01*
X122334Y51049D01*
X122364Y51061D01*
X122396Y51066D01*
X122477Y51109D01*
X122561Y51145D01*
X122593Y51171D01*
X122614Y51182D01*
X122636Y51205D01*
X122692Y51250D01*
X178846Y107404D01*
X178899Y107478D01*
X178959Y107548D01*
X178971Y107578D01*
X178990Y107604D01*
X179017Y107691D01*
X179051Y107776D01*
X179055Y107817D01*
X179062Y107839D01*
X179061Y107871D01*
X179069Y107943D01*
X179069Y148391D01*
X179058Y148460D01*
X179056Y148531D01*
X179038Y148581D01*
X179030Y148633D01*
X178997Y148696D01*
X178972Y148762D01*
X178939Y148804D01*
X178914Y148851D01*
X178863Y148899D01*
X178819Y148955D01*
X178775Y148984D01*
X178736Y149020D01*
X178672Y149050D01*
X178613Y149088D01*
X178561Y149101D01*
X178513Y149124D01*
X178443Y149132D01*
X178374Y149149D01*
X178321Y149145D01*
X178269Y149151D01*
X178199Y149136D01*
X178129Y149131D01*
X178080Y149110D01*
X178028Y149099D01*
X177968Y149062D01*
X177902Y149035D01*
X177863Y149000D01*
X177817Y148972D01*
X177771Y148919D01*
X177718Y148872D01*
X177678Y148810D01*
X177657Y148785D01*
X177654Y148779D01*
X177649Y148764D01*
X177627Y148731D01*
X177600Y148643D01*
X177565Y148557D01*
X177561Y148518D01*
X177554Y148496D01*
X177555Y148464D01*
X177547Y148391D01*
X177547Y116401D01*
X151834Y90688D01*
X151781Y90614D01*
X151721Y90544D01*
X151709Y90514D01*
X151690Y90488D01*
X151663Y90401D01*
X151629Y90316D01*
X151625Y90275D01*
X151618Y90253D01*
X151619Y90221D01*
X151611Y90150D01*
X151611Y86194D01*
X148502Y83085D01*
X144106Y83085D01*
X140997Y86194D01*
X140997Y90590D01*
X144106Y93699D01*
X148062Y93699D01*
X148152Y93713D01*
X148243Y93721D01*
X148272Y93733D01*
X148304Y93738D01*
X148385Y93781D01*
X148469Y93817D01*
X148501Y93843D01*
X148522Y93854D01*
X148544Y93877D01*
X148600Y93922D01*
X172750Y118072D01*
X172803Y118146D01*
X172863Y118216D01*
X172875Y118246D01*
X172894Y118272D01*
X172921Y118359D01*
X172955Y118444D01*
X172959Y118485D01*
X172966Y118507D01*
X172965Y118539D01*
X172973Y118611D01*
X172973Y148391D01*
X172959Y148481D01*
X172951Y148572D01*
X172939Y148601D01*
X172934Y148633D01*
X172891Y148714D01*
X172855Y148798D01*
X172829Y148830D01*
X172818Y148851D01*
X172795Y148873D01*
X172750Y148929D01*
X169953Y151726D01*
X169953Y156122D01*
X173062Y159231D01*
X177458Y159231D01*
X177770Y158919D01*
X177828Y158877D01*
X177880Y158828D01*
X177927Y158806D01*
X177969Y158776D01*
X178038Y158754D01*
X178103Y158724D01*
X178155Y158719D01*
X178205Y158703D01*
X178276Y158705D01*
X178347Y158697D01*
X178398Y158708D01*
X178450Y158710D01*
X178518Y158734D01*
X178588Y158749D01*
X178633Y158776D01*
X178681Y158794D01*
X178737Y158839D01*
X178799Y158876D01*
X178833Y158915D01*
X178873Y158948D01*
X178912Y159008D01*
X178959Y159063D01*
X178978Y159111D01*
X179006Y159155D01*
X179024Y159224D01*
X179051Y159291D01*
X179059Y159362D01*
X179067Y159393D01*
X179065Y159416D01*
X179069Y159457D01*
X179069Y175823D01*
X179055Y175913D01*
X179047Y176004D01*
X179035Y176033D01*
X179030Y176065D01*
X178987Y176146D01*
X178951Y176230D01*
X178925Y176262D01*
X178914Y176283D01*
X178891Y176305D01*
X178846Y176361D01*
X176049Y179158D01*
X176049Y183554D01*
X179158Y186663D01*
X183554Y186663D01*
X186663Y183554D01*
X186663Y179158D01*
X183866Y176361D01*
X183813Y176287D01*
X183753Y176217D01*
X183741Y176187D01*
X183722Y176161D01*
X183695Y176074D01*
X183661Y175989D01*
X183657Y175948D01*
X183650Y175926D01*
X183651Y175894D01*
X183643Y175823D01*
X183643Y157933D01*
X183654Y157863D01*
X183656Y157791D01*
X183674Y157742D01*
X183682Y157691D01*
X183716Y157627D01*
X183741Y157560D01*
X183773Y157519D01*
X183798Y157473D01*
X183850Y157424D01*
X183894Y157368D01*
X183938Y157340D01*
X183976Y157304D01*
X184041Y157274D01*
X184101Y157235D01*
X184152Y157222D01*
X184199Y157200D01*
X184270Y157192D01*
X184340Y157175D01*
X184392Y157179D01*
X184443Y157173D01*
X184514Y157188D01*
X184585Y157194D01*
X184633Y157214D01*
X184684Y157225D01*
X184745Y157262D01*
X184811Y157290D01*
X184867Y157335D01*
X184895Y157352D01*
X184910Y157369D01*
X184942Y157395D01*
X186778Y159231D01*
X191174Y159231D01*
X193010Y157395D01*
X193026Y157384D01*
X193038Y157368D01*
X193126Y157312D01*
X193209Y157252D01*
X193228Y157246D01*
X193245Y157235D01*
X193346Y157210D01*
X193445Y157179D01*
X193464Y157180D01*
X193484Y157175D01*
X193587Y157183D01*
X193690Y157186D01*
X193709Y157192D01*
X193729Y157194D01*
X193824Y157234D01*
X193921Y157270D01*
X193937Y157283D01*
X193955Y157290D01*
X194086Y157395D01*
X195922Y159231D01*
X200318Y159231D01*
X200630Y158919D01*
X200688Y158877D01*
X200740Y158828D01*
X200787Y158806D01*
X200829Y158776D01*
X200898Y158754D01*
X200963Y158724D01*
X201015Y158719D01*
X201065Y158703D01*
X201136Y158705D01*
X201207Y158697D01*
X201258Y158708D01*
X201310Y158710D01*
X201378Y158734D01*
X201448Y158749D01*
X201493Y158776D01*
X201541Y158794D01*
X201597Y158839D01*
X201659Y158876D01*
X201693Y158915D01*
X201733Y158948D01*
X201772Y159008D01*
X201819Y159063D01*
X201838Y159111D01*
X201866Y159155D01*
X201884Y159224D01*
X201911Y159291D01*
X201919Y159362D01*
X201927Y159393D01*
X201925Y159416D01*
X201929Y159457D01*
X201929Y168587D01*
X212402Y179060D01*
X212455Y179134D01*
X212515Y179204D01*
X212527Y179234D01*
X212546Y179260D01*
X212573Y179347D01*
X212607Y179432D01*
X212611Y179473D01*
X212618Y179495D01*
X212617Y179527D01*
X212625Y179599D01*
X212625Y181947D01*
X212614Y182017D01*
X212612Y182089D01*
X212594Y182138D01*
X212586Y182189D01*
X212552Y182253D01*
X212527Y182320D01*
X212495Y182361D01*
X212470Y182407D01*
X212418Y182456D01*
X212374Y182512D01*
X212330Y182540D01*
X212292Y182576D01*
X212227Y182606D01*
X212167Y182645D01*
X212116Y182658D01*
X212069Y182680D01*
X211998Y182688D01*
X211928Y182705D01*
X211876Y182701D01*
X211825Y182707D01*
X211754Y182692D01*
X211683Y182686D01*
X211635Y182666D01*
X211584Y182655D01*
X211523Y182618D01*
X211457Y182590D01*
X211401Y182545D01*
X211373Y182528D01*
X211358Y182511D01*
X211326Y182485D01*
X210986Y182145D01*
X206590Y182145D01*
X203481Y185254D01*
X203481Y187960D01*
X203478Y187980D01*
X203480Y187999D01*
X203458Y188101D01*
X203442Y188203D01*
X203432Y188220D01*
X203428Y188240D01*
X203375Y188329D01*
X203326Y188420D01*
X203312Y188434D01*
X203302Y188451D01*
X203223Y188518D01*
X203148Y188590D01*
X203130Y188598D01*
X203115Y188611D01*
X203019Y188650D01*
X202925Y188693D01*
X202905Y188695D01*
X202887Y188703D01*
X202720Y188721D01*
X179901Y188721D01*
X158495Y210127D01*
X158495Y227310D01*
X158484Y227380D01*
X158482Y227452D01*
X158464Y227501D01*
X158456Y227552D01*
X158422Y227616D01*
X158397Y227683D01*
X158365Y227724D01*
X158340Y227770D01*
X158288Y227819D01*
X158244Y227875D01*
X158200Y227903D01*
X158162Y227939D01*
X158097Y227969D01*
X158037Y228008D01*
X157986Y228021D01*
X157939Y228043D01*
X157868Y228051D01*
X157798Y228068D01*
X157746Y228064D01*
X157695Y228070D01*
X157624Y228055D01*
X157553Y228049D01*
X157505Y228029D01*
X157454Y228018D01*
X157393Y227981D01*
X157327Y227953D01*
X157271Y227908D01*
X157243Y227891D01*
X157228Y227874D01*
X157196Y227848D01*
X155164Y225816D01*
X155111Y225742D01*
X155051Y225672D01*
X155039Y225642D01*
X155020Y225616D01*
X154993Y225529D01*
X154959Y225444D01*
X154955Y225403D01*
X154948Y225381D01*
X154949Y225349D01*
X154941Y225277D01*
X154941Y221322D01*
X151832Y218213D01*
X147436Y218213D01*
X144327Y221322D01*
X144327Y225718D01*
X144413Y225804D01*
X144455Y225862D01*
X144504Y225914D01*
X144526Y225961D01*
X144556Y226003D01*
X144578Y226072D01*
X144608Y226137D01*
X144613Y226189D01*
X144629Y226239D01*
X144627Y226310D01*
X144635Y226381D01*
X144624Y226432D01*
X144622Y226484D01*
X144598Y226552D01*
X144583Y226622D01*
X144556Y226667D01*
X144538Y226715D01*
X144493Y226771D01*
X144456Y226833D01*
X144417Y226867D01*
X144384Y226907D01*
X144324Y226946D01*
X144269Y226993D01*
X144221Y227012D01*
X144177Y227040D01*
X144108Y227058D01*
X144041Y227085D01*
X143970Y227093D01*
X143939Y227101D01*
X143916Y227099D01*
X143875Y227103D01*
X143090Y227103D01*
X139981Y230212D01*
X139981Y234168D01*
X139967Y234258D01*
X139959Y234349D01*
X139947Y234378D01*
X139942Y234410D01*
X139899Y234491D01*
X139863Y234575D01*
X139837Y234607D01*
X139826Y234628D01*
X139803Y234650D01*
X139758Y234706D01*
X137921Y236543D01*
X137921Y248203D01*
X137913Y248251D01*
X137915Y248299D01*
X137894Y248372D01*
X137882Y248446D01*
X137859Y248489D01*
X137845Y248535D01*
X137802Y248597D01*
X137766Y248663D01*
X137732Y248697D01*
X137704Y248736D01*
X137643Y248781D01*
X137588Y248833D01*
X137544Y248853D01*
X137506Y248882D01*
X137433Y248905D01*
X137365Y248936D01*
X137317Y248942D01*
X137271Y248956D01*
X137196Y248955D01*
X137121Y248964D01*
X137073Y248953D01*
X137025Y248953D01*
X136954Y248927D01*
X136880Y248911D01*
X136839Y248887D01*
X136793Y248871D01*
X136734Y248824D01*
X136669Y248785D01*
X136638Y248749D01*
X136600Y248719D01*
X136566Y248673D01*
X136060Y248167D01*
X136050Y248161D01*
X135959Y248086D01*
X135865Y248012D01*
X135863Y248008D01*
X135860Y248005D01*
X135797Y247906D01*
X135732Y247805D01*
X135731Y247801D01*
X135729Y247797D01*
X135701Y247682D01*
X135672Y247566D01*
X135673Y247562D01*
X135672Y247558D01*
X135682Y247439D01*
X135691Y247321D01*
X135693Y247317D01*
X135693Y247313D01*
X135741Y247205D01*
X135788Y247095D01*
X135791Y247091D01*
X135792Y247088D01*
X135801Y247078D01*
X135893Y246964D01*
X136025Y246832D01*
X136025Y231568D01*
X135893Y231436D01*
X135824Y231341D01*
X135753Y231244D01*
X135751Y231240D01*
X135749Y231237D01*
X135714Y231123D01*
X135678Y231010D01*
X135678Y231005D01*
X135677Y231002D01*
X135680Y230883D01*
X135682Y230764D01*
X135683Y230760D01*
X135683Y230756D01*
X135724Y230644D01*
X135763Y230532D01*
X135766Y230529D01*
X135767Y230525D01*
X135842Y230432D01*
X135915Y230338D01*
X135919Y230335D01*
X135921Y230333D01*
X135933Y230325D01*
X136050Y230239D01*
X136060Y230233D01*
X136533Y229760D01*
X136868Y229181D01*
X137041Y228534D01*
X137041Y222723D01*
X127762Y222723D01*
X127742Y222720D01*
X127723Y222722D01*
X127621Y222700D01*
X127519Y222683D01*
X127502Y222674D01*
X127482Y222670D01*
X127393Y222617D01*
X127302Y222568D01*
X127288Y222554D01*
X127271Y222544D01*
X127204Y222465D01*
X127133Y222390D01*
X127124Y222372D01*
X127111Y222357D01*
X127072Y222261D01*
X127029Y222167D01*
X127027Y222147D01*
X127019Y222129D01*
X127001Y221962D01*
X127001Y220438D01*
X127004Y220418D01*
X127002Y220399D01*
X127024Y220297D01*
X127041Y220195D01*
X127050Y220178D01*
X127054Y220158D01*
X127107Y220069D01*
X127156Y219978D01*
X127170Y219964D01*
X127180Y219947D01*
X127259Y219880D01*
X127334Y219809D01*
X127352Y219800D01*
X127367Y219787D01*
X127463Y219748D01*
X127557Y219705D01*
X127577Y219703D01*
X127595Y219695D01*
X127762Y219677D01*
X137041Y219677D01*
X137041Y213866D01*
X136868Y213219D01*
X136533Y212640D01*
X136060Y212167D01*
X136050Y212161D01*
X135997Y212118D01*
X135974Y212105D01*
X135946Y212076D01*
X135865Y212012D01*
X135863Y212008D01*
X135860Y212005D01*
X135823Y211947D01*
X135804Y211927D01*
X135787Y211890D01*
X135732Y211805D01*
X135731Y211801D01*
X135729Y211797D01*
X135713Y211731D01*
X135701Y211704D01*
X135696Y211659D01*
X135672Y211566D01*
X135673Y211562D01*
X135672Y211558D01*
X135677Y211494D01*
X135674Y211460D01*
X135685Y211409D01*
X135691Y211321D01*
X135693Y211317D01*
X135693Y211313D01*
X135717Y211258D01*
X135726Y211219D01*
X135757Y211168D01*
X135788Y211095D01*
X135791Y211091D01*
X135792Y211088D01*
X135801Y211078D01*
X135837Y211033D01*
X135852Y211008D01*
X135868Y210995D01*
X135893Y210964D01*
X136025Y210832D01*
X136025Y195568D01*
X135132Y194675D01*
X118868Y194675D01*
X117975Y195568D01*
X117975Y196850D01*
X117972Y196870D01*
X117974Y196889D01*
X117952Y196991D01*
X117936Y197093D01*
X117926Y197110D01*
X117922Y197130D01*
X117869Y197219D01*
X117820Y197310D01*
X117806Y197324D01*
X117796Y197341D01*
X117717Y197408D01*
X117642Y197480D01*
X117624Y197488D01*
X117609Y197501D01*
X117513Y197540D01*
X117419Y197583D01*
X117399Y197585D01*
X117381Y197593D01*
X117214Y197611D01*
X79931Y197611D01*
X79911Y197608D01*
X79892Y197610D01*
X79790Y197588D01*
X79688Y197572D01*
X79671Y197562D01*
X79651Y197558D01*
X79562Y197505D01*
X79471Y197456D01*
X79457Y197442D01*
X79440Y197432D01*
X79373Y197353D01*
X79301Y197278D01*
X79293Y197260D01*
X79280Y197245D01*
X79241Y197149D01*
X79198Y197055D01*
X79196Y197035D01*
X79188Y197017D01*
X79170Y196850D01*
X79170Y195568D01*
X79083Y195482D01*
X79071Y195465D01*
X79056Y195453D01*
X79000Y195366D01*
X78939Y195282D01*
X78934Y195263D01*
X78923Y195246D01*
X78898Y195146D01*
X78867Y195047D01*
X78868Y195027D01*
X78863Y195008D01*
X78871Y194905D01*
X78873Y194801D01*
X78880Y194782D01*
X78882Y194762D01*
X78922Y194667D01*
X78958Y194570D01*
X78970Y194554D01*
X78978Y194536D01*
X79083Y194405D01*
X79553Y193935D01*
X79888Y193356D01*
X80061Y192709D01*
X80061Y186598D01*
X63407Y186598D01*
X63387Y186595D01*
X63368Y186597D01*
X63266Y186575D01*
X63164Y186558D01*
X63147Y186549D01*
X63127Y186545D01*
X63038Y186492D01*
X62947Y186443D01*
X62933Y186429D01*
X62916Y186419D01*
X62849Y186340D01*
X62778Y186265D01*
X62769Y186247D01*
X62756Y186232D01*
X62717Y186136D01*
X62674Y186042D01*
X62672Y186022D01*
X62664Y186004D01*
X62646Y185837D01*
X62646Y185074D01*
X61883Y185074D01*
X61863Y185071D01*
X61844Y185073D01*
X61742Y185051D01*
X61640Y185034D01*
X61623Y185025D01*
X61603Y185021D01*
X61514Y184968D01*
X61423Y184919D01*
X61409Y184905D01*
X61392Y184895D01*
X61325Y184816D01*
X61254Y184741D01*
X61245Y184723D01*
X61232Y184708D01*
X61193Y184612D01*
X61150Y184518D01*
X61148Y184498D01*
X61140Y184480D01*
X61122Y184313D01*
X61122Y175234D01*
X48705Y175234D01*
X26283Y175234D01*
X26270Y175294D01*
X26253Y175396D01*
X26244Y175413D01*
X26240Y175433D01*
X26187Y175522D01*
X26138Y175613D01*
X26124Y175627D01*
X26114Y175644D01*
X26035Y175711D01*
X25960Y175783D01*
X25942Y175791D01*
X25927Y175804D01*
X25831Y175843D01*
X25737Y175886D01*
X25717Y175888D01*
X25699Y175896D01*
X25532Y175914D01*
X24008Y175914D01*
X23988Y175911D01*
X23969Y175913D01*
X23867Y175891D01*
X23765Y175875D01*
X23748Y175865D01*
X23728Y175861D01*
X23639Y175808D01*
X23548Y175759D01*
X23534Y175745D01*
X23517Y175735D01*
X23450Y175656D01*
X23379Y175581D01*
X23370Y175563D01*
X23357Y175548D01*
X23318Y175452D01*
X23275Y175358D01*
X23273Y175338D01*
X23265Y175320D01*
X23256Y175234D01*
X11049Y175234D01*
X11029Y175231D01*
X11010Y175233D01*
X10908Y175211D01*
X10806Y175195D01*
X10789Y175185D01*
X10769Y175181D01*
X10680Y175128D01*
X10589Y175079D01*
X10575Y175065D01*
X10558Y175055D01*
X10491Y174976D01*
X10419Y174901D01*
X10411Y174883D01*
X10398Y174868D01*
X10359Y174772D01*
X10316Y174678D01*
X10314Y174658D01*
X10306Y174640D01*
X10288Y174473D01*
X10288Y48201D01*
X10303Y48107D01*
X10312Y48012D01*
X10323Y47986D01*
X10327Y47958D01*
X10372Y47874D01*
X10410Y47787D01*
X10429Y47766D01*
X10443Y47741D01*
X10512Y47675D01*
X10576Y47605D01*
X10600Y47591D01*
X10621Y47572D01*
X10707Y47532D01*
X10791Y47485D01*
X10818Y47480D01*
X10844Y47468D01*
X10939Y47458D01*
X11032Y47440D01*
X11060Y47444D01*
X11088Y47441D01*
X11182Y47461D01*
X11276Y47475D01*
X11308Y47489D01*
X11329Y47493D01*
X11357Y47510D01*
X11430Y47542D01*
X15302Y49778D01*
X21956Y51561D01*
X28844Y51561D01*
X35498Y49778D01*
X41463Y46334D01*
X46334Y41463D01*
X49778Y35498D01*
X51561Y28844D01*
X51561Y21956D01*
X49778Y15302D01*
X46334Y9337D01*
X41463Y4466D01*
X35498Y1022D01*
X28844Y-761D01*
X21956Y-761D01*
X15302Y1022D01*
X11430Y3258D01*
X11341Y3292D01*
X11254Y3332D01*
X11226Y3335D01*
X11200Y3345D01*
X11104Y3349D01*
X11010Y3359D01*
X10982Y3353D01*
X10954Y3354D01*
X10862Y3327D01*
X10769Y3307D01*
X10745Y3292D01*
X10718Y3284D01*
X10640Y3229D01*
X10558Y3181D01*
X10540Y3159D01*
X10517Y3143D01*
X10460Y3066D01*
X10398Y2994D01*
X10388Y2967D01*
X10371Y2945D01*
X10342Y2854D01*
X10306Y2765D01*
X10302Y2730D01*
X10296Y2710D01*
X10296Y2677D01*
X10288Y2599D01*
X10288Y-1651D01*
X10291Y-1671D01*
X10289Y-1690D01*
X10311Y-1792D01*
X10327Y-1894D01*
X10337Y-1911D01*
X10341Y-1931D01*
X10394Y-2020D01*
X10443Y-2111D01*
X10457Y-2125D01*
X10467Y-2142D01*
X10546Y-2209D01*
X10621Y-2281D01*
X10639Y-2289D01*
X10654Y-2302D01*
X10750Y-2341D01*
X10844Y-2384D01*
X10864Y-2386D01*
X10882Y-2394D01*
X11049Y-2412D01*
X344551Y-2412D01*
X344571Y-2409D01*
G37*
G36*
X117234Y208792D02*
X117234Y208792D01*
X117253Y208790D01*
X117355Y208812D01*
X117457Y208828D01*
X117474Y208838D01*
X117494Y208842D01*
X117583Y208895D01*
X117674Y208944D01*
X117688Y208958D01*
X117705Y208968D01*
X117772Y209047D01*
X117844Y209122D01*
X117852Y209140D01*
X117865Y209155D01*
X117904Y209251D01*
X117947Y209345D01*
X117949Y209365D01*
X117957Y209383D01*
X117975Y209550D01*
X117975Y210832D01*
X118107Y210964D01*
X118150Y211023D01*
X118196Y211071D01*
X118215Y211112D01*
X118247Y211156D01*
X118249Y211160D01*
X118251Y211163D01*
X118275Y211242D01*
X118299Y211294D01*
X118304Y211332D01*
X118322Y211390D01*
X118322Y211395D01*
X118323Y211398D01*
X118321Y211490D01*
X118326Y211538D01*
X118319Y211570D01*
X118318Y211636D01*
X118317Y211640D01*
X118317Y211644D01*
X118283Y211736D01*
X118274Y211779D01*
X118259Y211804D01*
X118237Y211868D01*
X118234Y211871D01*
X118233Y211875D01*
X118169Y211955D01*
X118148Y211990D01*
X118128Y212007D01*
X118085Y212062D01*
X118081Y212065D01*
X118079Y212067D01*
X118067Y212075D01*
X117950Y212161D01*
X117940Y212167D01*
X117467Y212640D01*
X117132Y213219D01*
X116959Y213866D01*
X116959Y219677D01*
X126238Y219677D01*
X126258Y219680D01*
X126277Y219678D01*
X126379Y219700D01*
X126481Y219717D01*
X126498Y219726D01*
X126518Y219730D01*
X126607Y219783D01*
X126698Y219832D01*
X126712Y219846D01*
X126729Y219856D01*
X126796Y219935D01*
X126867Y220010D01*
X126876Y220028D01*
X126889Y220043D01*
X126928Y220139D01*
X126971Y220233D01*
X126973Y220253D01*
X126981Y220271D01*
X126999Y220438D01*
X126999Y221962D01*
X126996Y221982D01*
X126998Y222001D01*
X126976Y222103D01*
X126959Y222205D01*
X126950Y222222D01*
X126946Y222242D01*
X126893Y222331D01*
X126844Y222422D01*
X126830Y222436D01*
X126820Y222453D01*
X126741Y222520D01*
X126666Y222591D01*
X126648Y222600D01*
X126633Y222613D01*
X126537Y222652D01*
X126443Y222695D01*
X126423Y222697D01*
X126405Y222705D01*
X126238Y222723D01*
X116959Y222723D01*
X116959Y228534D01*
X117132Y229181D01*
X117467Y229760D01*
X117940Y230233D01*
X117950Y230239D01*
X118041Y230314D01*
X118135Y230388D01*
X118137Y230392D01*
X118140Y230395D01*
X118203Y230494D01*
X118268Y230595D01*
X118269Y230599D01*
X118271Y230603D01*
X118299Y230718D01*
X118328Y230834D01*
X118327Y230838D01*
X118328Y230842D01*
X118318Y230961D01*
X118309Y231079D01*
X118307Y231083D01*
X118307Y231087D01*
X118259Y231195D01*
X118212Y231305D01*
X118209Y231309D01*
X118208Y231312D01*
X118199Y231322D01*
X118107Y231436D01*
X117975Y231568D01*
X117975Y236220D01*
X117972Y236240D01*
X117974Y236259D01*
X117952Y236361D01*
X117936Y236463D01*
X117926Y236480D01*
X117922Y236500D01*
X117869Y236589D01*
X117820Y236680D01*
X117806Y236694D01*
X117796Y236711D01*
X117717Y236778D01*
X117642Y236850D01*
X117624Y236858D01*
X117609Y236871D01*
X117513Y236910D01*
X117419Y236953D01*
X117399Y236955D01*
X117381Y236963D01*
X117214Y236981D01*
X109543Y236981D01*
X108203Y238321D01*
X108203Y317047D01*
X108192Y317117D01*
X108190Y317189D01*
X108172Y317238D01*
X108164Y317289D01*
X108130Y317353D01*
X108105Y317420D01*
X108073Y317461D01*
X108048Y317507D01*
X107996Y317556D01*
X107952Y317612D01*
X107908Y317640D01*
X107870Y317676D01*
X107805Y317706D01*
X107745Y317745D01*
X107694Y317758D01*
X107647Y317780D01*
X107576Y317788D01*
X107506Y317805D01*
X107454Y317801D01*
X107403Y317807D01*
X107332Y317792D01*
X107261Y317786D01*
X107213Y317766D01*
X107162Y317755D01*
X107101Y317718D01*
X107035Y317690D01*
X106979Y317645D01*
X106951Y317628D01*
X106936Y317611D01*
X106904Y317585D01*
X106142Y316823D01*
X106089Y316749D01*
X106029Y316679D01*
X106017Y316649D01*
X105998Y316623D01*
X105971Y316536D01*
X105937Y316451D01*
X105933Y316410D01*
X105926Y316388D01*
X105927Y316356D01*
X105919Y316285D01*
X105919Y296233D01*
X90902Y281216D01*
X90849Y281142D01*
X90789Y281072D01*
X90777Y281042D01*
X90758Y281016D01*
X90731Y280929D01*
X90697Y280844D01*
X90693Y280803D01*
X90686Y280781D01*
X90687Y280749D01*
X90679Y280677D01*
X90679Y273986D01*
X90682Y273966D01*
X90680Y273947D01*
X90702Y273845D01*
X90718Y273743D01*
X90728Y273726D01*
X90732Y273706D01*
X90785Y273617D01*
X90834Y273526D01*
X90848Y273512D01*
X90858Y273495D01*
X90937Y273428D01*
X91012Y273356D01*
X91030Y273348D01*
X91045Y273335D01*
X91141Y273296D01*
X91235Y273253D01*
X91255Y273251D01*
X91273Y273243D01*
X91440Y273225D01*
X94832Y273225D01*
X95725Y272332D01*
X95725Y261068D01*
X94832Y260175D01*
X79568Y260175D01*
X78675Y261068D01*
X78675Y272332D01*
X79568Y273225D01*
X85344Y273225D01*
X85364Y273228D01*
X85383Y273226D01*
X85485Y273248D01*
X85587Y273264D01*
X85604Y273274D01*
X85624Y273278D01*
X85713Y273331D01*
X85804Y273380D01*
X85818Y273394D01*
X85835Y273404D01*
X85902Y273483D01*
X85974Y273558D01*
X85982Y273576D01*
X85995Y273591D01*
X86034Y273687D01*
X86077Y273781D01*
X86079Y273801D01*
X86087Y273819D01*
X86105Y273986D01*
X86105Y282887D01*
X101122Y297904D01*
X101175Y297978D01*
X101235Y298048D01*
X101247Y298078D01*
X101266Y298104D01*
X101293Y298191D01*
X101327Y298276D01*
X101331Y298317D01*
X101338Y298339D01*
X101337Y298371D01*
X101345Y298443D01*
X101345Y316285D01*
X101331Y316375D01*
X101323Y316466D01*
X101311Y316495D01*
X101306Y316527D01*
X101263Y316608D01*
X101227Y316692D01*
X101201Y316724D01*
X101190Y316745D01*
X101167Y316767D01*
X101122Y316823D01*
X98325Y319620D01*
X98325Y324016D01*
X99907Y325598D01*
X99949Y325656D01*
X99998Y325708D01*
X100020Y325755D01*
X100050Y325797D01*
X100072Y325866D01*
X100102Y325931D01*
X100107Y325983D01*
X100123Y326033D01*
X100121Y326104D01*
X100129Y326175D01*
X100118Y326226D01*
X100116Y326278D01*
X100092Y326346D01*
X100077Y326416D01*
X100050Y326461D01*
X100032Y326509D01*
X99987Y326565D01*
X99950Y326627D01*
X99911Y326661D01*
X99878Y326701D01*
X99818Y326740D01*
X99763Y326787D01*
X99715Y326806D01*
X99671Y326834D01*
X99602Y326852D01*
X99535Y326879D01*
X99464Y326887D01*
X99433Y326895D01*
X99410Y326893D01*
X99369Y326897D01*
X96186Y326897D01*
X96166Y326894D01*
X96147Y326896D01*
X96045Y326874D01*
X95943Y326858D01*
X95926Y326848D01*
X95906Y326844D01*
X95817Y326791D01*
X95726Y326742D01*
X95712Y326728D01*
X95695Y326718D01*
X95628Y326639D01*
X95556Y326564D01*
X95548Y326546D01*
X95535Y326531D01*
X95496Y326435D01*
X95453Y326341D01*
X95451Y326321D01*
X95443Y326303D01*
X95425Y326136D01*
X95425Y319868D01*
X94532Y318975D01*
X83268Y318975D01*
X82375Y319868D01*
X82375Y323088D01*
X82372Y323108D01*
X82374Y323127D01*
X82352Y323229D01*
X82336Y323331D01*
X82326Y323348D01*
X82322Y323368D01*
X82269Y323457D01*
X82220Y323548D01*
X82206Y323562D01*
X82196Y323579D01*
X82117Y323646D01*
X82042Y323718D01*
X82024Y323726D01*
X82009Y323739D01*
X81913Y323778D01*
X81819Y323821D01*
X81799Y323823D01*
X81781Y323831D01*
X81614Y323849D01*
X76200Y323849D01*
X76180Y323846D01*
X76161Y323848D01*
X76059Y323826D01*
X75957Y323810D01*
X75940Y323800D01*
X75920Y323796D01*
X75831Y323743D01*
X75740Y323694D01*
X75726Y323680D01*
X75709Y323670D01*
X75642Y323591D01*
X75570Y323516D01*
X75562Y323498D01*
X75549Y323483D01*
X75510Y323387D01*
X75467Y323293D01*
X75465Y323273D01*
X75457Y323255D01*
X75439Y323088D01*
X75439Y291661D01*
X73876Y290098D01*
X67802Y284024D01*
X67760Y283966D01*
X67711Y283914D01*
X67689Y283867D01*
X67659Y283825D01*
X67638Y283756D01*
X67607Y283691D01*
X67602Y283639D01*
X67586Y283589D01*
X67588Y283518D01*
X67580Y283447D01*
X67591Y283396D01*
X67593Y283344D01*
X67617Y283276D01*
X67632Y283206D01*
X67659Y283161D01*
X67677Y283113D01*
X67722Y283057D01*
X67759Y282995D01*
X67798Y282961D01*
X67831Y282921D01*
X67891Y282882D01*
X67946Y282835D01*
X67994Y282816D01*
X68038Y282788D01*
X68107Y282770D01*
X68174Y282743D01*
X68245Y282735D01*
X68276Y282727D01*
X68300Y282729D01*
X68340Y282725D01*
X72832Y282725D01*
X73725Y281832D01*
X73725Y270568D01*
X72832Y269675D01*
X57568Y269675D01*
X56675Y270568D01*
X56675Y281832D01*
X57568Y282725D01*
X61936Y282725D01*
X61974Y282731D01*
X62012Y282728D01*
X62095Y282751D01*
X62179Y282764D01*
X62213Y282782D01*
X62250Y282792D01*
X62321Y282840D01*
X62396Y282880D01*
X62423Y282907D01*
X62454Y282928D01*
X62507Y282996D01*
X62566Y283058D01*
X62582Y283093D01*
X62605Y283123D01*
X62669Y283278D01*
X62884Y284037D01*
X62887Y284058D01*
X62895Y284078D01*
X62913Y284245D01*
X62913Y284767D01*
X63022Y284876D01*
X63075Y284950D01*
X63135Y285020D01*
X63147Y285050D01*
X63166Y285076D01*
X63193Y285163D01*
X63227Y285248D01*
X63231Y285289D01*
X63238Y285311D01*
X63237Y285343D01*
X63245Y285414D01*
X63245Y285935D01*
X63355Y286045D01*
X63419Y286133D01*
X63486Y286220D01*
X63492Y286236D01*
X63499Y286245D01*
X63507Y286272D01*
X63549Y286375D01*
X63591Y286524D01*
X64048Y286779D01*
X64065Y286792D01*
X64084Y286800D01*
X64215Y286905D01*
X67970Y290660D01*
X68012Y290718D01*
X68061Y290770D01*
X68083Y290817D01*
X68113Y290859D01*
X68134Y290928D01*
X68165Y290993D01*
X68170Y291045D01*
X68186Y291095D01*
X68184Y291166D01*
X68192Y291237D01*
X68181Y291288D01*
X68179Y291340D01*
X68155Y291408D01*
X68140Y291478D01*
X68113Y291523D01*
X68095Y291571D01*
X68050Y291627D01*
X68013Y291689D01*
X67974Y291723D01*
X67941Y291763D01*
X67881Y291802D01*
X67826Y291849D01*
X67778Y291868D01*
X67734Y291896D01*
X67665Y291914D01*
X67598Y291941D01*
X67527Y291949D01*
X67496Y291957D01*
X67472Y291955D01*
X67432Y291959D01*
X65023Y291959D01*
X65023Y301738D01*
X65020Y301758D01*
X65022Y301777D01*
X65000Y301879D01*
X64983Y301981D01*
X64974Y301998D01*
X64970Y302018D01*
X64917Y302107D01*
X64868Y302198D01*
X64854Y302212D01*
X64844Y302229D01*
X64765Y302296D01*
X64690Y302367D01*
X64672Y302376D01*
X64657Y302389D01*
X64561Y302428D01*
X64467Y302471D01*
X64447Y302473D01*
X64429Y302481D01*
X64262Y302499D01*
X63499Y302499D01*
X63499Y302501D01*
X64262Y302501D01*
X64282Y302504D01*
X64301Y302502D01*
X64403Y302524D01*
X64505Y302541D01*
X64522Y302550D01*
X64542Y302554D01*
X64631Y302607D01*
X64722Y302656D01*
X64736Y302670D01*
X64753Y302680D01*
X64820Y302759D01*
X64891Y302834D01*
X64900Y302852D01*
X64913Y302867D01*
X64952Y302963D01*
X64995Y303057D01*
X64997Y303077D01*
X65005Y303095D01*
X65023Y303262D01*
X65023Y313041D01*
X70104Y313041D01*
X70124Y313044D01*
X70143Y313042D01*
X70245Y313064D01*
X70347Y313080D01*
X70364Y313090D01*
X70384Y313094D01*
X70473Y313147D01*
X70564Y313196D01*
X70578Y313210D01*
X70595Y313220D01*
X70662Y313299D01*
X70734Y313374D01*
X70742Y313392D01*
X70755Y313407D01*
X70794Y313503D01*
X70837Y313597D01*
X70839Y313617D01*
X70847Y313635D01*
X70865Y313802D01*
X70865Y322214D01*
X70862Y322234D01*
X70864Y322253D01*
X70842Y322355D01*
X70826Y322457D01*
X70816Y322474D01*
X70812Y322494D01*
X70759Y322583D01*
X70710Y322674D01*
X70696Y322688D01*
X70686Y322705D01*
X70607Y322772D01*
X70532Y322844D01*
X70514Y322852D01*
X70499Y322865D01*
X70403Y322904D01*
X70309Y322947D01*
X70289Y322949D01*
X70271Y322957D01*
X70104Y322975D01*
X55868Y322975D01*
X54975Y323868D01*
X54975Y341132D01*
X55868Y342025D01*
X58589Y342025D01*
X58659Y342036D01*
X58731Y342038D01*
X58780Y342056D01*
X58831Y342064D01*
X58895Y342098D01*
X58962Y342123D01*
X59003Y342155D01*
X59049Y342180D01*
X59098Y342231D01*
X59154Y342276D01*
X59182Y342320D01*
X59218Y342358D01*
X59248Y342423D01*
X59287Y342483D01*
X59300Y342534D01*
X59322Y342581D01*
X59330Y342652D01*
X59347Y342722D01*
X59343Y342774D01*
X59349Y342825D01*
X59334Y342896D01*
X59328Y342967D01*
X59308Y343015D01*
X59297Y343066D01*
X59260Y343127D01*
X59232Y343193D01*
X59187Y343249D01*
X59170Y343277D01*
X59153Y343292D01*
X59127Y343324D01*
X58701Y343750D01*
X58701Y348146D01*
X61810Y351255D01*
X65765Y351255D01*
X65856Y351269D01*
X65946Y351277D01*
X65976Y351289D01*
X66008Y351294D01*
X66089Y351337D01*
X66173Y351373D01*
X66205Y351399D01*
X66226Y351410D01*
X66248Y351433D01*
X66304Y351478D01*
X69157Y354331D01*
X132011Y354331D01*
X143980Y342362D01*
X144054Y342309D01*
X144124Y342249D01*
X144154Y342237D01*
X144180Y342218D01*
X144267Y342191D01*
X144352Y342157D01*
X144393Y342153D01*
X144415Y342146D01*
X144447Y342147D01*
X144519Y342139D01*
X159059Y342139D01*
X159149Y342153D01*
X159240Y342161D01*
X159269Y342173D01*
X159301Y342178D01*
X159382Y342221D01*
X159466Y342257D01*
X159498Y342283D01*
X159519Y342294D01*
X159541Y342317D01*
X159597Y342362D01*
X162394Y345159D01*
X166790Y345159D01*
X169899Y342050D01*
X169899Y337654D01*
X166790Y334545D01*
X162394Y334545D01*
X159597Y337342D01*
X159523Y337395D01*
X159453Y337455D01*
X159423Y337467D01*
X159397Y337486D01*
X159310Y337513D01*
X159225Y337547D01*
X159184Y337551D01*
X159162Y337558D01*
X159130Y337557D01*
X159059Y337565D01*
X142309Y337565D01*
X130340Y349534D01*
X130266Y349587D01*
X130196Y349647D01*
X130166Y349659D01*
X130140Y349678D01*
X130053Y349705D01*
X129968Y349739D01*
X129927Y349743D01*
X129905Y349750D01*
X129873Y349749D01*
X129801Y349757D01*
X71367Y349757D01*
X71276Y349743D01*
X71186Y349735D01*
X71156Y349723D01*
X71124Y349718D01*
X71043Y349675D01*
X70959Y349639D01*
X70927Y349613D01*
X70906Y349602D01*
X70884Y349579D01*
X70828Y349534D01*
X69538Y348244D01*
X69485Y348170D01*
X69425Y348100D01*
X69413Y348070D01*
X69394Y348044D01*
X69367Y347957D01*
X69333Y347872D01*
X69329Y347831D01*
X69322Y347809D01*
X69323Y347777D01*
X69315Y347705D01*
X69315Y343750D01*
X68889Y343324D01*
X68847Y343266D01*
X68798Y343214D01*
X68776Y343167D01*
X68746Y343125D01*
X68724Y343056D01*
X68694Y342991D01*
X68689Y342939D01*
X68673Y342889D01*
X68675Y342818D01*
X68667Y342747D01*
X68678Y342696D01*
X68680Y342644D01*
X68704Y342576D01*
X68719Y342506D01*
X68746Y342461D01*
X68764Y342413D01*
X68809Y342357D01*
X68846Y342295D01*
X68885Y342261D01*
X68918Y342221D01*
X68978Y342182D01*
X69033Y342135D01*
X69081Y342116D01*
X69125Y342088D01*
X69194Y342070D01*
X69261Y342043D01*
X69332Y342035D01*
X69363Y342027D01*
X69386Y342029D01*
X69427Y342025D01*
X71132Y342025D01*
X72025Y341132D01*
X72025Y329184D01*
X72028Y329164D01*
X72026Y329145D01*
X72048Y329043D01*
X72064Y328941D01*
X72074Y328924D01*
X72078Y328904D01*
X72131Y328815D01*
X72180Y328724D01*
X72194Y328710D01*
X72204Y328693D01*
X72283Y328626D01*
X72358Y328554D01*
X72376Y328546D01*
X72391Y328533D01*
X72487Y328494D01*
X72581Y328451D01*
X72601Y328449D01*
X72619Y328441D01*
X72786Y328423D01*
X81614Y328423D01*
X81634Y328426D01*
X81653Y328424D01*
X81755Y328446D01*
X81857Y328462D01*
X81874Y328472D01*
X81894Y328476D01*
X81983Y328529D01*
X82074Y328578D01*
X82088Y328592D01*
X82105Y328602D01*
X82172Y328681D01*
X82244Y328756D01*
X82252Y328774D01*
X82265Y328789D01*
X82304Y328885D01*
X82347Y328979D01*
X82349Y328999D01*
X82357Y329017D01*
X82375Y329184D01*
X82375Y332132D01*
X83268Y333025D01*
X94532Y333025D01*
X95443Y332113D01*
X95448Y332091D01*
X95464Y331989D01*
X95474Y331972D01*
X95478Y331952D01*
X95531Y331863D01*
X95580Y331772D01*
X95594Y331758D01*
X95604Y331741D01*
X95683Y331674D01*
X95758Y331602D01*
X95776Y331594D01*
X95791Y331581D01*
X95887Y331542D01*
X95981Y331499D01*
X96001Y331497D01*
X96019Y331489D01*
X96186Y331471D01*
X117214Y331471D01*
X117234Y331474D01*
X117253Y331472D01*
X117355Y331494D01*
X117457Y331510D01*
X117474Y331520D01*
X117494Y331524D01*
X117583Y331577D01*
X117674Y331626D01*
X117688Y331640D01*
X117705Y331650D01*
X117772Y331729D01*
X117844Y331804D01*
X117852Y331822D01*
X117865Y331837D01*
X117904Y331933D01*
X117947Y332027D01*
X117949Y332047D01*
X117957Y332065D01*
X117975Y332232D01*
X117975Y336832D01*
X118868Y337725D01*
X131168Y337725D01*
X131238Y337736D01*
X131310Y337738D01*
X131359Y337756D01*
X131410Y337764D01*
X131474Y337798D01*
X131541Y337823D01*
X131582Y337855D01*
X131628Y337880D01*
X131677Y337931D01*
X131733Y337976D01*
X131761Y338020D01*
X131797Y338058D01*
X131827Y338123D01*
X131866Y338183D01*
X131879Y338234D01*
X131901Y338281D01*
X131909Y338352D01*
X131926Y338422D01*
X131922Y338474D01*
X131928Y338525D01*
X131913Y338596D01*
X131907Y338667D01*
X131887Y338715D01*
X131876Y338766D01*
X131839Y338827D01*
X131811Y338893D01*
X131766Y338949D01*
X131749Y338977D01*
X131732Y338992D01*
X131706Y339024D01*
X130340Y340390D01*
X130266Y340443D01*
X130196Y340503D01*
X130166Y340515D01*
X130140Y340534D01*
X130053Y340561D01*
X129968Y340595D01*
X129927Y340599D01*
X129905Y340606D01*
X129873Y340605D01*
X129802Y340613D01*
X109927Y340613D01*
X109837Y340599D01*
X109746Y340591D01*
X109717Y340579D01*
X109685Y340574D01*
X109604Y340531D01*
X109520Y340495D01*
X109488Y340469D01*
X109467Y340458D01*
X109445Y340435D01*
X109389Y340390D01*
X106592Y337593D01*
X102196Y337593D01*
X99087Y340702D01*
X99087Y345098D01*
X102196Y348207D01*
X106592Y348207D01*
X109389Y345410D01*
X109463Y345357D01*
X109533Y345297D01*
X109563Y345285D01*
X109589Y345266D01*
X109676Y345239D01*
X109761Y345205D01*
X109802Y345201D01*
X109824Y345194D01*
X109856Y345195D01*
X109927Y345187D01*
X132011Y345187D01*
X133574Y343624D01*
X140932Y336266D01*
X142495Y334703D01*
X142495Y333756D01*
X142498Y333736D01*
X142496Y333717D01*
X142518Y333615D01*
X142534Y333513D01*
X142544Y333496D01*
X142548Y333476D01*
X142601Y333387D01*
X142650Y333296D01*
X142664Y333282D01*
X142674Y333265D01*
X142753Y333198D01*
X142828Y333126D01*
X142846Y333118D01*
X142861Y333105D01*
X142957Y333066D01*
X143051Y333023D01*
X143071Y333021D01*
X143089Y333013D01*
X143256Y332995D01*
X206001Y332995D01*
X206092Y333009D01*
X206182Y333017D01*
X206212Y333029D01*
X206244Y333034D01*
X206325Y333077D01*
X206409Y333113D01*
X206441Y333139D01*
X206462Y333150D01*
X206484Y333173D01*
X206540Y333218D01*
X224605Y351283D01*
X270695Y351283D01*
X285751Y336227D01*
X285751Y325319D01*
X285765Y325229D01*
X285773Y325138D01*
X285785Y325109D01*
X285790Y325077D01*
X285833Y324996D01*
X285869Y324912D01*
X285895Y324880D01*
X285906Y324859D01*
X285929Y324837D01*
X285974Y324781D01*
X288771Y321984D01*
X288771Y317588D01*
X285662Y314479D01*
X284136Y314479D01*
X284065Y314468D01*
X283994Y314466D01*
X283945Y314448D01*
X283893Y314440D01*
X283830Y314406D01*
X283763Y314381D01*
X283722Y314349D01*
X283676Y314324D01*
X283626Y314272D01*
X283570Y314228D01*
X283542Y314184D01*
X283506Y314146D01*
X283476Y314081D01*
X283437Y314021D01*
X283425Y313970D01*
X283403Y313923D01*
X283395Y313852D01*
X283377Y313782D01*
X283381Y313730D01*
X283376Y313679D01*
X283391Y313608D01*
X283397Y313537D01*
X283417Y313489D01*
X283428Y313438D01*
X283465Y313377D01*
X283493Y313311D01*
X283538Y313255D01*
X283554Y313227D01*
X283572Y313212D01*
X283598Y313180D01*
X300991Y295787D01*
X300991Y280155D01*
X301005Y280064D01*
X301013Y279974D01*
X301025Y279944D01*
X301030Y279912D01*
X301073Y279831D01*
X301109Y279747D01*
X301135Y279715D01*
X301146Y279694D01*
X301169Y279672D01*
X301214Y279616D01*
X302515Y278315D01*
X302515Y262128D01*
X302518Y262108D01*
X302516Y262089D01*
X302538Y261987D01*
X302554Y261885D01*
X302564Y261868D01*
X302568Y261848D01*
X302621Y261759D01*
X302670Y261668D01*
X302684Y261654D01*
X302694Y261637D01*
X302773Y261570D01*
X302848Y261498D01*
X302866Y261490D01*
X302881Y261477D01*
X302977Y261438D01*
X303071Y261395D01*
X303091Y261393D01*
X303109Y261385D01*
X303276Y261367D01*
X311843Y261367D01*
X313406Y259804D01*
X316860Y256350D01*
X316918Y256308D01*
X316970Y256259D01*
X317017Y256237D01*
X317059Y256207D01*
X317128Y256186D01*
X317193Y256155D01*
X317245Y256150D01*
X317295Y256134D01*
X317366Y256136D01*
X317437Y256128D01*
X317488Y256139D01*
X317540Y256141D01*
X317608Y256165D01*
X317678Y256180D01*
X317723Y256207D01*
X317771Y256225D01*
X317827Y256270D01*
X317889Y256307D01*
X317923Y256346D01*
X317963Y256379D01*
X318002Y256439D01*
X318049Y256494D01*
X318068Y256542D01*
X318096Y256586D01*
X318114Y256655D01*
X318141Y256722D01*
X318149Y256793D01*
X318157Y256824D01*
X318155Y256848D01*
X318159Y256888D01*
X318159Y258134D01*
X318332Y258781D01*
X318667Y259360D01*
X319140Y259833D01*
X319719Y260168D01*
X320366Y260341D01*
X328677Y260341D01*
X328677Y252323D01*
X320040Y252323D01*
X320020Y252320D01*
X320001Y252322D01*
X319899Y252300D01*
X319797Y252283D01*
X319780Y252274D01*
X319760Y252270D01*
X319671Y252217D01*
X319580Y252168D01*
X319566Y252154D01*
X319549Y252144D01*
X319482Y252065D01*
X319410Y251990D01*
X319402Y251972D01*
X319389Y251957D01*
X319350Y251861D01*
X319307Y251767D01*
X319305Y251747D01*
X319297Y251729D01*
X319279Y251562D01*
X319279Y250038D01*
X319282Y250018D01*
X319280Y249999D01*
X319302Y249897D01*
X319318Y249795D01*
X319328Y249778D01*
X319332Y249758D01*
X319385Y249669D01*
X319434Y249578D01*
X319448Y249564D01*
X319458Y249547D01*
X319537Y249480D01*
X319612Y249409D01*
X319630Y249400D01*
X319645Y249387D01*
X319741Y249348D01*
X319835Y249305D01*
X319855Y249303D01*
X319873Y249295D01*
X320040Y249277D01*
X328677Y249277D01*
X328677Y232562D01*
X328680Y232542D01*
X328678Y232523D01*
X328700Y232421D01*
X328717Y232319D01*
X328726Y232302D01*
X328730Y232282D01*
X328783Y232193D01*
X328832Y232102D01*
X328846Y232088D01*
X328856Y232071D01*
X328935Y232004D01*
X329010Y231933D01*
X329028Y231924D01*
X329043Y231911D01*
X329139Y231872D01*
X329233Y231829D01*
X329253Y231827D01*
X329271Y231819D01*
X329438Y231801D01*
X330962Y231801D01*
X330982Y231804D01*
X331001Y231802D01*
X331103Y231824D01*
X331205Y231841D01*
X331222Y231850D01*
X331242Y231854D01*
X331331Y231907D01*
X331422Y231956D01*
X331436Y231970D01*
X331453Y231980D01*
X331520Y232059D01*
X331591Y232134D01*
X331600Y232152D01*
X331613Y232167D01*
X331652Y232263D01*
X331695Y232357D01*
X331697Y232377D01*
X331705Y232395D01*
X331723Y232562D01*
X331723Y250038D01*
X331720Y250058D01*
X331722Y250077D01*
X331700Y250179D01*
X331683Y250281D01*
X331674Y250298D01*
X331670Y250318D01*
X331617Y250407D01*
X331568Y250498D01*
X331554Y250512D01*
X331544Y250529D01*
X331465Y250596D01*
X331390Y250667D01*
X331372Y250676D01*
X331357Y250689D01*
X331261Y250728D01*
X331167Y250771D01*
X331147Y250773D01*
X331129Y250781D01*
X330962Y250799D01*
X330199Y250799D01*
X330199Y250801D01*
X330962Y250801D01*
X330982Y250804D01*
X331001Y250802D01*
X331103Y250824D01*
X331205Y250841D01*
X331222Y250850D01*
X331242Y250854D01*
X331331Y250907D01*
X331422Y250956D01*
X331436Y250970D01*
X331453Y250980D01*
X331520Y251059D01*
X331591Y251134D01*
X331600Y251152D01*
X331613Y251167D01*
X331652Y251263D01*
X331695Y251357D01*
X331697Y251377D01*
X331705Y251395D01*
X331723Y251562D01*
X331723Y260341D01*
X332297Y260341D01*
X332367Y260352D01*
X332439Y260354D01*
X332488Y260372D01*
X332539Y260380D01*
X332603Y260414D01*
X332670Y260439D01*
X332711Y260471D01*
X332757Y260496D01*
X332806Y260547D01*
X332862Y260592D01*
X332890Y260636D01*
X332926Y260674D01*
X332956Y260739D01*
X332995Y260799D01*
X333008Y260850D01*
X333030Y260897D01*
X333038Y260968D01*
X333055Y261038D01*
X333051Y261090D01*
X333057Y261141D01*
X333042Y261212D01*
X333036Y261283D01*
X333016Y261331D01*
X333005Y261382D01*
X332968Y261443D01*
X332940Y261509D01*
X332895Y261565D01*
X332878Y261593D01*
X332861Y261608D01*
X332835Y261640D01*
X329973Y264502D01*
X329973Y268898D01*
X332535Y271460D01*
X332577Y271518D01*
X332626Y271570D01*
X332648Y271617D01*
X332678Y271659D01*
X332699Y271728D01*
X332730Y271793D01*
X332735Y271845D01*
X332751Y271895D01*
X332749Y271966D01*
X332757Y272038D01*
X332746Y272088D01*
X332744Y272140D01*
X332720Y272208D01*
X332705Y272278D01*
X332678Y272322D01*
X332660Y272371D01*
X332615Y272428D01*
X332578Y272489D01*
X332539Y272523D01*
X332506Y272563D01*
X332446Y272602D01*
X332391Y272649D01*
X332343Y272668D01*
X332299Y272696D01*
X332230Y272714D01*
X332163Y272741D01*
X332092Y272749D01*
X332061Y272757D01*
X332037Y272755D01*
X331997Y272759D01*
X331723Y272759D01*
X331723Y281777D01*
X342241Y281777D01*
X342241Y274966D01*
X342068Y274319D01*
X341733Y273740D01*
X341260Y273267D01*
X340681Y272932D01*
X340034Y272759D01*
X338563Y272759D01*
X338493Y272748D01*
X338421Y272746D01*
X338372Y272728D01*
X338321Y272720D01*
X338257Y272686D01*
X338190Y272661D01*
X338149Y272629D01*
X338103Y272604D01*
X338054Y272552D01*
X337998Y272508D01*
X337970Y272464D01*
X337934Y272426D01*
X337904Y272361D01*
X337865Y272301D01*
X337852Y272250D01*
X337830Y272203D01*
X337822Y272132D01*
X337805Y272062D01*
X337809Y272010D01*
X337803Y271959D01*
X337818Y271888D01*
X337824Y271817D01*
X337844Y271769D01*
X337855Y271718D01*
X337892Y271657D01*
X337920Y271591D01*
X337965Y271535D01*
X337982Y271507D01*
X337999Y271492D01*
X338025Y271460D01*
X340587Y268898D01*
X340587Y264942D01*
X340601Y264852D01*
X340609Y264761D01*
X340621Y264732D01*
X340626Y264700D01*
X340669Y264619D01*
X340705Y264535D01*
X340731Y264503D01*
X340742Y264482D01*
X340765Y264460D01*
X340810Y264404D01*
X343624Y261590D01*
X344013Y261201D01*
X344071Y261159D01*
X344123Y261110D01*
X344142Y261101D01*
X344154Y261091D01*
X344182Y261079D01*
X344212Y261058D01*
X344281Y261037D01*
X344346Y261006D01*
X344370Y261004D01*
X344382Y260999D01*
X344416Y260995D01*
X344448Y260985D01*
X344493Y260986D01*
X344549Y260980D01*
X344551Y260980D01*
X344563Y260982D01*
X344590Y260979D01*
X344641Y260990D01*
X344693Y260992D01*
X344753Y261013D01*
X344794Y261020D01*
X344805Y261026D01*
X344831Y261031D01*
X344876Y261058D01*
X344924Y261076D01*
X344973Y261115D01*
X345011Y261135D01*
X345020Y261145D01*
X345042Y261158D01*
X345076Y261197D01*
X345116Y261230D01*
X345149Y261280D01*
X345181Y261313D01*
X345187Y261327D01*
X345202Y261345D01*
X345221Y261393D01*
X345249Y261437D01*
X345263Y261492D01*
X345284Y261537D01*
X345286Y261553D01*
X345294Y261573D01*
X345302Y261644D01*
X345310Y261675D01*
X345308Y261699D01*
X345312Y261739D01*
X345312Y307399D01*
X345297Y307493D01*
X345288Y307588D01*
X345277Y307614D01*
X345273Y307642D01*
X345228Y307726D01*
X345190Y307813D01*
X345171Y307834D01*
X345157Y307859D01*
X345088Y307925D01*
X345024Y307995D01*
X345000Y308009D01*
X344979Y308028D01*
X344893Y308068D01*
X344809Y308115D01*
X344782Y308120D01*
X344756Y308132D01*
X344661Y308142D01*
X344568Y308160D01*
X344540Y308156D01*
X344512Y308159D01*
X344418Y308139D01*
X344324Y308125D01*
X344292Y308111D01*
X344271Y308107D01*
X344243Y308090D01*
X344170Y308058D01*
X340298Y305822D01*
X333644Y304039D01*
X326756Y304039D01*
X320102Y305822D01*
X314137Y309266D01*
X309266Y314137D01*
X305822Y320102D01*
X304039Y326756D01*
X304039Y333644D01*
X305822Y340298D01*
X309266Y346263D01*
X314137Y351134D01*
X320102Y354578D01*
X326756Y356361D01*
X333644Y356361D01*
X340298Y354578D01*
X344170Y352342D01*
X344259Y352308D01*
X344346Y352268D01*
X344374Y352265D01*
X344400Y352255D01*
X344496Y352251D01*
X344590Y352241D01*
X344618Y352247D01*
X344646Y352246D01*
X344738Y352273D01*
X344831Y352293D01*
X344855Y352308D01*
X344882Y352316D01*
X344960Y352371D01*
X345042Y352419D01*
X345060Y352441D01*
X345083Y352457D01*
X345140Y352534D01*
X345202Y352606D01*
X345212Y352633D01*
X345229Y352655D01*
X345258Y352746D01*
X345294Y352835D01*
X345298Y352870D01*
X345304Y352890D01*
X345304Y352923D01*
X345312Y353001D01*
X345312Y357251D01*
X345309Y357271D01*
X345311Y357290D01*
X345289Y357392D01*
X345273Y357494D01*
X345263Y357511D01*
X345259Y357531D01*
X345206Y357620D01*
X345157Y357711D01*
X345143Y357725D01*
X345133Y357742D01*
X345054Y357809D01*
X344979Y357881D01*
X344961Y357889D01*
X344946Y357902D01*
X344850Y357941D01*
X344756Y357984D01*
X344736Y357986D01*
X344718Y357994D01*
X344551Y358012D01*
X11049Y358012D01*
X11029Y358009D01*
X11010Y358011D01*
X10908Y357989D01*
X10806Y357973D01*
X10789Y357963D01*
X10769Y357959D01*
X10680Y357906D01*
X10589Y357857D01*
X10575Y357843D01*
X10558Y357833D01*
X10491Y357754D01*
X10419Y357679D01*
X10411Y357661D01*
X10398Y357646D01*
X10359Y357550D01*
X10316Y357456D01*
X10314Y357436D01*
X10306Y357418D01*
X10288Y357251D01*
X10288Y353001D01*
X10303Y352907D01*
X10312Y352812D01*
X10323Y352786D01*
X10327Y352758D01*
X10372Y352674D01*
X10410Y352587D01*
X10429Y352566D01*
X10443Y352541D01*
X10512Y352475D01*
X10576Y352405D01*
X10600Y352391D01*
X10621Y352372D01*
X10707Y352332D01*
X10791Y352285D01*
X10818Y352280D01*
X10844Y352268D01*
X10939Y352258D01*
X11032Y352240D01*
X11060Y352244D01*
X11088Y352241D01*
X11182Y352261D01*
X11276Y352275D01*
X11308Y352289D01*
X11329Y352293D01*
X11357Y352310D01*
X11430Y352342D01*
X15302Y354578D01*
X21956Y356361D01*
X28844Y356361D01*
X35498Y354578D01*
X41463Y351134D01*
X46334Y346263D01*
X49778Y340298D01*
X51561Y333644D01*
X51561Y326756D01*
X49778Y320102D01*
X46334Y314137D01*
X41463Y309266D01*
X35498Y305822D01*
X28844Y304039D01*
X21956Y304039D01*
X15302Y305822D01*
X11430Y308058D01*
X11341Y308092D01*
X11254Y308132D01*
X11226Y308135D01*
X11200Y308145D01*
X11104Y308149D01*
X11010Y308159D01*
X10982Y308153D01*
X10954Y308154D01*
X10862Y308127D01*
X10769Y308107D01*
X10745Y308092D01*
X10718Y308084D01*
X10640Y308029D01*
X10558Y307981D01*
X10540Y307959D01*
X10517Y307943D01*
X10460Y307866D01*
X10398Y307794D01*
X10388Y307767D01*
X10371Y307745D01*
X10342Y307654D01*
X10306Y307565D01*
X10302Y307530D01*
X10296Y307510D01*
X10296Y307477D01*
X10288Y307399D01*
X10288Y231927D01*
X10291Y231907D01*
X10289Y231888D01*
X10311Y231786D01*
X10327Y231684D01*
X10337Y231667D01*
X10341Y231647D01*
X10394Y231558D01*
X10443Y231467D01*
X10457Y231453D01*
X10467Y231436D01*
X10546Y231369D01*
X10621Y231297D01*
X10639Y231289D01*
X10654Y231276D01*
X10750Y231237D01*
X10844Y231194D01*
X10864Y231192D01*
X10882Y231184D01*
X11049Y231166D01*
X23257Y231166D01*
X23270Y231106D01*
X23287Y231004D01*
X23296Y230987D01*
X23300Y230967D01*
X23353Y230878D01*
X23402Y230787D01*
X23416Y230773D01*
X23426Y230756D01*
X23505Y230689D01*
X23580Y230617D01*
X23598Y230609D01*
X23613Y230596D01*
X23709Y230557D01*
X23803Y230514D01*
X23823Y230512D01*
X23841Y230504D01*
X24008Y230486D01*
X25532Y230486D01*
X25552Y230489D01*
X25571Y230487D01*
X25673Y230509D01*
X25775Y230525D01*
X25792Y230535D01*
X25812Y230539D01*
X25901Y230592D01*
X25992Y230641D01*
X26006Y230655D01*
X26023Y230665D01*
X26090Y230744D01*
X26161Y230819D01*
X26170Y230837D01*
X26183Y230852D01*
X26222Y230948D01*
X26265Y231042D01*
X26267Y231062D01*
X26275Y231080D01*
X26284Y231166D01*
X60997Y231166D01*
X60997Y222087D01*
X61000Y222067D01*
X60998Y222048D01*
X61020Y221946D01*
X61037Y221844D01*
X61046Y221827D01*
X61050Y221807D01*
X61103Y221718D01*
X61152Y221627D01*
X61166Y221613D01*
X61176Y221596D01*
X61255Y221529D01*
X61330Y221458D01*
X61348Y221449D01*
X61363Y221436D01*
X61459Y221397D01*
X61553Y221354D01*
X61573Y221352D01*
X61591Y221344D01*
X61758Y221326D01*
X62521Y221326D01*
X62521Y220563D01*
X62524Y220543D01*
X62522Y220524D01*
X62544Y220422D01*
X62561Y220320D01*
X62570Y220303D01*
X62574Y220283D01*
X62627Y220194D01*
X62676Y220103D01*
X62690Y220089D01*
X62700Y220072D01*
X62779Y220005D01*
X62854Y219934D01*
X62872Y219925D01*
X62887Y219912D01*
X62983Y219873D01*
X63077Y219830D01*
X63097Y219828D01*
X63115Y219820D01*
X63282Y219802D01*
X79936Y219802D01*
X79936Y213691D01*
X79763Y213044D01*
X79428Y212465D01*
X79020Y212057D01*
X79009Y212041D01*
X78993Y212029D01*
X78937Y211942D01*
X78877Y211858D01*
X78871Y211839D01*
X78860Y211822D01*
X78835Y211722D01*
X78805Y211623D01*
X78805Y211603D01*
X78800Y211583D01*
X78808Y211480D01*
X78811Y211377D01*
X78818Y211358D01*
X78819Y211338D01*
X78860Y211243D01*
X78895Y211146D01*
X78908Y211130D01*
X78916Y211112D01*
X78992Y211016D01*
X78997Y211008D01*
X79002Y211004D01*
X79021Y210981D01*
X79170Y210832D01*
X79170Y209550D01*
X79173Y209530D01*
X79171Y209511D01*
X79193Y209409D01*
X79209Y209307D01*
X79219Y209290D01*
X79223Y209270D01*
X79276Y209181D01*
X79325Y209090D01*
X79339Y209076D01*
X79349Y209059D01*
X79428Y208992D01*
X79503Y208920D01*
X79521Y208912D01*
X79536Y208899D01*
X79632Y208860D01*
X79726Y208817D01*
X79746Y208815D01*
X79764Y208807D01*
X79931Y208789D01*
X117214Y208789D01*
X117234Y208792D01*
G37*
G36*
X218904Y20967D02*
X218904Y20967D01*
X218956Y20969D01*
X219024Y20993D01*
X219094Y21008D01*
X219139Y21035D01*
X219187Y21053D01*
X219243Y21098D01*
X219305Y21135D01*
X219339Y21174D01*
X219379Y21207D01*
X219418Y21267D01*
X219465Y21322D01*
X219484Y21370D01*
X219512Y21414D01*
X219530Y21483D01*
X219557Y21550D01*
X219565Y21621D01*
X219573Y21652D01*
X219571Y21676D01*
X219575Y21716D01*
X219575Y34032D01*
X219707Y34164D01*
X219776Y34259D01*
X219847Y34356D01*
X219849Y34360D01*
X219851Y34363D01*
X219886Y34477D01*
X219922Y34590D01*
X219922Y34595D01*
X219923Y34598D01*
X219920Y34717D01*
X219918Y34836D01*
X219917Y34840D01*
X219917Y34844D01*
X219876Y34955D01*
X219837Y35068D01*
X219834Y35071D01*
X219833Y35075D01*
X219758Y35168D01*
X219685Y35262D01*
X219681Y35265D01*
X219679Y35267D01*
X219667Y35275D01*
X219550Y35361D01*
X219540Y35367D01*
X219067Y35840D01*
X218732Y36419D01*
X218559Y37066D01*
X218559Y42877D01*
X227838Y42877D01*
X227858Y42880D01*
X227877Y42878D01*
X227979Y42900D01*
X228081Y42917D01*
X228098Y42926D01*
X228118Y42930D01*
X228207Y42983D01*
X228298Y43032D01*
X228312Y43046D01*
X228329Y43056D01*
X228396Y43135D01*
X228467Y43210D01*
X228476Y43228D01*
X228489Y43243D01*
X228528Y43339D01*
X228571Y43433D01*
X228573Y43453D01*
X228581Y43471D01*
X228599Y43638D01*
X228599Y44401D01*
X228601Y44401D01*
X228601Y43638D01*
X228604Y43618D01*
X228602Y43599D01*
X228624Y43497D01*
X228641Y43395D01*
X228650Y43378D01*
X228654Y43358D01*
X228707Y43269D01*
X228756Y43178D01*
X228770Y43164D01*
X228780Y43147D01*
X228859Y43080D01*
X228934Y43009D01*
X228952Y43000D01*
X228967Y42987D01*
X229063Y42948D01*
X229157Y42905D01*
X229177Y42903D01*
X229195Y42895D01*
X229362Y42877D01*
X238641Y42877D01*
X238641Y37066D01*
X238468Y36419D01*
X238133Y35840D01*
X237660Y35367D01*
X237650Y35361D01*
X237559Y35286D01*
X237465Y35212D01*
X237463Y35208D01*
X237460Y35205D01*
X237397Y35106D01*
X237332Y35005D01*
X237331Y35001D01*
X237329Y34997D01*
X237301Y34882D01*
X237272Y34766D01*
X237273Y34762D01*
X237272Y34758D01*
X237282Y34639D01*
X237291Y34521D01*
X237293Y34517D01*
X237293Y34513D01*
X237341Y34405D01*
X237388Y34295D01*
X237391Y34291D01*
X237392Y34288D01*
X237401Y34278D01*
X237493Y34164D01*
X237625Y34032D01*
X237625Y30480D01*
X237628Y30460D01*
X237626Y30441D01*
X237648Y30339D01*
X237664Y30237D01*
X237674Y30220D01*
X237678Y30200D01*
X237731Y30111D01*
X237780Y30020D01*
X237794Y30006D01*
X237804Y29989D01*
X237883Y29922D01*
X237958Y29850D01*
X237976Y29842D01*
X237991Y29829D01*
X238087Y29790D01*
X238181Y29747D01*
X238201Y29745D01*
X238219Y29737D01*
X238386Y29719D01*
X259414Y29719D01*
X259434Y29722D01*
X259453Y29720D01*
X259555Y29742D01*
X259657Y29758D01*
X259674Y29768D01*
X259694Y29772D01*
X259783Y29825D01*
X259874Y29874D01*
X259888Y29888D01*
X259905Y29898D01*
X259972Y29977D01*
X260044Y30052D01*
X260052Y30070D01*
X260065Y30085D01*
X260104Y30181D01*
X260147Y30275D01*
X260149Y30295D01*
X260157Y30313D01*
X260175Y30480D01*
X260175Y35732D01*
X261068Y36625D01*
X272332Y36625D01*
X273225Y35732D01*
X273225Y32004D01*
X273228Y31984D01*
X273226Y31965D01*
X273248Y31863D01*
X273264Y31761D01*
X273274Y31744D01*
X273278Y31724D01*
X273331Y31635D01*
X273380Y31544D01*
X273394Y31530D01*
X273404Y31513D01*
X273483Y31446D01*
X273558Y31374D01*
X273576Y31366D01*
X273591Y31353D01*
X273687Y31314D01*
X273781Y31271D01*
X273801Y31269D01*
X273819Y31261D01*
X273986Y31243D01*
X282814Y31243D01*
X282834Y31246D01*
X282853Y31244D01*
X282955Y31266D01*
X283057Y31282D01*
X283074Y31292D01*
X283094Y31296D01*
X283183Y31349D01*
X283274Y31398D01*
X283288Y31412D01*
X283305Y31422D01*
X283372Y31501D01*
X283444Y31576D01*
X283452Y31594D01*
X283465Y31609D01*
X283473Y31629D01*
X284468Y32625D01*
X286632Y32625D01*
X286722Y32639D01*
X286813Y32647D01*
X286842Y32659D01*
X286874Y32664D01*
X286955Y32707D01*
X287039Y32743D01*
X287071Y32769D01*
X287092Y32780D01*
X287114Y32803D01*
X287170Y32848D01*
X295582Y41260D01*
X295624Y41318D01*
X295673Y41370D01*
X295695Y41417D01*
X295725Y41459D01*
X295746Y41528D01*
X295777Y41593D01*
X295782Y41645D01*
X295798Y41695D01*
X295796Y41766D01*
X295804Y41837D01*
X295793Y41888D01*
X295791Y41940D01*
X295767Y42008D01*
X295752Y42078D01*
X295725Y42122D01*
X295707Y42171D01*
X295662Y42227D01*
X295625Y42289D01*
X295586Y42323D01*
X295553Y42363D01*
X295493Y42402D01*
X295438Y42449D01*
X295390Y42468D01*
X295346Y42496D01*
X295277Y42514D01*
X295210Y42541D01*
X295139Y42549D01*
X295108Y42557D01*
X295084Y42555D01*
X295044Y42559D01*
X293623Y42559D01*
X293623Y52338D01*
X293620Y52358D01*
X293622Y52377D01*
X293600Y52479D01*
X293583Y52581D01*
X293574Y52598D01*
X293570Y52618D01*
X293517Y52707D01*
X293468Y52798D01*
X293454Y52812D01*
X293444Y52829D01*
X293365Y52896D01*
X293290Y52967D01*
X293272Y52976D01*
X293257Y52989D01*
X293161Y53028D01*
X293067Y53071D01*
X293047Y53073D01*
X293029Y53081D01*
X292862Y53099D01*
X292099Y53099D01*
X292099Y53101D01*
X292862Y53101D01*
X292882Y53104D01*
X292901Y53102D01*
X293003Y53124D01*
X293105Y53141D01*
X293122Y53150D01*
X293142Y53154D01*
X293231Y53207D01*
X293322Y53256D01*
X293336Y53270D01*
X293353Y53280D01*
X293420Y53359D01*
X293491Y53434D01*
X293500Y53452D01*
X293513Y53467D01*
X293552Y53563D01*
X293595Y53657D01*
X293597Y53677D01*
X293605Y53695D01*
X293623Y53862D01*
X293623Y63641D01*
X295524Y63641D01*
X295594Y63652D01*
X295666Y63654D01*
X295715Y63672D01*
X295766Y63680D01*
X295830Y63714D01*
X295897Y63739D01*
X295938Y63771D01*
X295984Y63796D01*
X296033Y63847D01*
X296089Y63892D01*
X296117Y63936D01*
X296153Y63974D01*
X296183Y64039D01*
X296222Y64099D01*
X296235Y64150D01*
X296257Y64197D01*
X296265Y64268D01*
X296282Y64338D01*
X296278Y64390D01*
X296284Y64441D01*
X296269Y64512D01*
X296263Y64583D01*
X296243Y64631D01*
X296232Y64682D01*
X296195Y64743D01*
X296167Y64809D01*
X296122Y64865D01*
X296105Y64893D01*
X296088Y64908D01*
X296062Y64940D01*
X288782Y72220D01*
X288774Y72255D01*
X288758Y72357D01*
X288748Y72374D01*
X288744Y72394D01*
X288691Y72483D01*
X288642Y72574D01*
X288628Y72588D01*
X288618Y72605D01*
X288539Y72672D01*
X288464Y72744D01*
X288446Y72752D01*
X288431Y72765D01*
X288335Y72804D01*
X288241Y72847D01*
X288221Y72849D01*
X288203Y72857D01*
X288036Y72875D01*
X282768Y72875D01*
X281875Y73768D01*
X281875Y77724D01*
X281872Y77744D01*
X281874Y77763D01*
X281852Y77865D01*
X281836Y77967D01*
X281826Y77984D01*
X281822Y78004D01*
X281769Y78093D01*
X281720Y78184D01*
X281706Y78198D01*
X281696Y78215D01*
X281617Y78282D01*
X281542Y78354D01*
X281524Y78362D01*
X281509Y78375D01*
X281413Y78414D01*
X281319Y78457D01*
X281299Y78459D01*
X281281Y78467D01*
X281114Y78485D01*
X259657Y78485D01*
X256793Y81349D01*
X256793Y85605D01*
X256779Y85696D01*
X256771Y85786D01*
X256759Y85816D01*
X256754Y85848D01*
X256711Y85929D01*
X256675Y86013D01*
X256649Y86045D01*
X256638Y86066D01*
X256615Y86088D01*
X256570Y86144D01*
X239940Y102774D01*
X239882Y102816D01*
X239830Y102865D01*
X239783Y102887D01*
X239741Y102917D01*
X239672Y102938D01*
X239607Y102969D01*
X239555Y102974D01*
X239505Y102990D01*
X239434Y102988D01*
X239363Y102996D01*
X239312Y102985D01*
X239260Y102983D01*
X239192Y102959D01*
X239122Y102944D01*
X239077Y102917D01*
X239029Y102899D01*
X238973Y102854D01*
X238911Y102817D01*
X238877Y102778D01*
X238837Y102745D01*
X238798Y102685D01*
X238751Y102630D01*
X238732Y102582D01*
X238704Y102538D01*
X238686Y102469D01*
X238659Y102402D01*
X238651Y102331D01*
X238643Y102300D01*
X238645Y102276D01*
X238641Y102236D01*
X238641Y99923D01*
X229362Y99923D01*
X229342Y99920D01*
X229323Y99922D01*
X229221Y99900D01*
X229119Y99883D01*
X229102Y99874D01*
X229082Y99870D01*
X228993Y99817D01*
X228902Y99768D01*
X228888Y99754D01*
X228871Y99744D01*
X228804Y99665D01*
X228733Y99590D01*
X228724Y99572D01*
X228711Y99557D01*
X228672Y99461D01*
X228629Y99367D01*
X228627Y99347D01*
X228619Y99329D01*
X228601Y99162D01*
X228601Y98399D01*
X228599Y98399D01*
X228599Y99162D01*
X228596Y99182D01*
X228598Y99201D01*
X228576Y99303D01*
X228559Y99405D01*
X228550Y99422D01*
X228546Y99442D01*
X228493Y99531D01*
X228444Y99622D01*
X228430Y99636D01*
X228420Y99653D01*
X228341Y99720D01*
X228266Y99791D01*
X228248Y99800D01*
X228233Y99813D01*
X228137Y99852D01*
X228043Y99895D01*
X228023Y99897D01*
X228005Y99905D01*
X227838Y99923D01*
X218559Y99923D01*
X218559Y105734D01*
X218732Y106381D01*
X219067Y106960D01*
X219540Y107433D01*
X219550Y107439D01*
X219641Y107514D01*
X219735Y107588D01*
X219737Y107592D01*
X219740Y107595D01*
X219803Y107694D01*
X219868Y107795D01*
X219869Y107799D01*
X219871Y107803D01*
X219899Y107918D01*
X219928Y108034D01*
X219927Y108038D01*
X219928Y108042D01*
X219918Y108161D01*
X219909Y108279D01*
X219907Y108283D01*
X219907Y108287D01*
X219859Y108395D01*
X219812Y108505D01*
X219809Y108509D01*
X219808Y108512D01*
X219799Y108522D01*
X219707Y108636D01*
X219575Y108768D01*
X219575Y124032D01*
X219707Y124164D01*
X219776Y124259D01*
X219847Y124356D01*
X219849Y124360D01*
X219851Y124363D01*
X219886Y124477D01*
X219922Y124590D01*
X219922Y124595D01*
X219923Y124598D01*
X219920Y124717D01*
X219918Y124836D01*
X219917Y124840D01*
X219917Y124844D01*
X219876Y124955D01*
X219837Y125068D01*
X219834Y125071D01*
X219833Y125075D01*
X219758Y125168D01*
X219685Y125262D01*
X219681Y125265D01*
X219679Y125267D01*
X219667Y125275D01*
X219550Y125361D01*
X219540Y125367D01*
X219067Y125840D01*
X218732Y126419D01*
X218559Y127066D01*
X218559Y132877D01*
X227838Y132877D01*
X227858Y132880D01*
X227877Y132878D01*
X227979Y132900D01*
X228081Y132917D01*
X228098Y132926D01*
X228118Y132930D01*
X228207Y132983D01*
X228298Y133032D01*
X228312Y133046D01*
X228329Y133056D01*
X228396Y133135D01*
X228467Y133210D01*
X228476Y133228D01*
X228489Y133243D01*
X228528Y133339D01*
X228571Y133433D01*
X228573Y133453D01*
X228581Y133471D01*
X228599Y133638D01*
X228599Y135162D01*
X228596Y135182D01*
X228598Y135201D01*
X228576Y135303D01*
X228559Y135405D01*
X228550Y135422D01*
X228546Y135442D01*
X228493Y135531D01*
X228444Y135622D01*
X228430Y135636D01*
X228420Y135653D01*
X228341Y135720D01*
X228266Y135791D01*
X228248Y135800D01*
X228233Y135813D01*
X228137Y135852D01*
X228043Y135895D01*
X228023Y135897D01*
X228005Y135905D01*
X227838Y135923D01*
X218559Y135923D01*
X218559Y141734D01*
X218732Y142381D01*
X219067Y142960D01*
X219540Y143433D01*
X219550Y143439D01*
X219640Y143513D01*
X219735Y143588D01*
X219737Y143592D01*
X219740Y143595D01*
X219803Y143694D01*
X219868Y143795D01*
X219869Y143799D01*
X219871Y143803D01*
X219899Y143918D01*
X219928Y144034D01*
X219927Y144038D01*
X219928Y144042D01*
X219918Y144161D01*
X219909Y144279D01*
X219907Y144283D01*
X219907Y144287D01*
X219859Y144395D01*
X219812Y144505D01*
X219809Y144509D01*
X219808Y144512D01*
X219799Y144522D01*
X219707Y144636D01*
X219575Y144768D01*
X219575Y160032D01*
X220468Y160925D01*
X236732Y160925D01*
X237625Y160032D01*
X237625Y158750D01*
X237628Y158730D01*
X237626Y158711D01*
X237648Y158609D01*
X237664Y158507D01*
X237674Y158490D01*
X237678Y158470D01*
X237731Y158381D01*
X237780Y158290D01*
X237794Y158276D01*
X237804Y158259D01*
X237883Y158192D01*
X237958Y158120D01*
X237976Y158112D01*
X237991Y158099D01*
X238087Y158060D01*
X238181Y158017D01*
X238201Y158015D01*
X238219Y158007D01*
X238386Y157989D01*
X275509Y157989D01*
X275529Y157992D01*
X275548Y157990D01*
X275650Y158012D01*
X275752Y158028D01*
X275769Y158038D01*
X275789Y158042D01*
X275878Y158095D01*
X275969Y158144D01*
X275983Y158158D01*
X276000Y158168D01*
X276067Y158247D01*
X276139Y158322D01*
X276147Y158340D01*
X276160Y158355D01*
X276199Y158451D01*
X276242Y158545D01*
X276244Y158565D01*
X276252Y158583D01*
X276270Y158750D01*
X276270Y160032D01*
X276357Y160118D01*
X276369Y160135D01*
X276384Y160147D01*
X276440Y160234D01*
X276501Y160318D01*
X276506Y160337D01*
X276517Y160354D01*
X276542Y160454D01*
X276573Y160553D01*
X276572Y160573D01*
X276577Y160592D01*
X276569Y160695D01*
X276567Y160799D01*
X276560Y160818D01*
X276558Y160838D01*
X276518Y160933D01*
X276482Y161030D01*
X276470Y161046D01*
X276462Y161064D01*
X276357Y161195D01*
X275887Y161665D01*
X275552Y162244D01*
X275379Y162891D01*
X275379Y169002D01*
X292033Y169002D01*
X292053Y169005D01*
X292072Y169003D01*
X292174Y169025D01*
X292276Y169042D01*
X292293Y169051D01*
X292313Y169055D01*
X292402Y169108D01*
X292493Y169157D01*
X292507Y169171D01*
X292524Y169181D01*
X292591Y169260D01*
X292662Y169335D01*
X292671Y169353D01*
X292684Y169368D01*
X292723Y169464D01*
X292766Y169558D01*
X292768Y169578D01*
X292776Y169596D01*
X292794Y169763D01*
X292794Y170526D01*
X293557Y170526D01*
X293577Y170529D01*
X293596Y170527D01*
X293698Y170549D01*
X293800Y170566D01*
X293817Y170575D01*
X293837Y170579D01*
X293926Y170632D01*
X294017Y170681D01*
X294031Y170695D01*
X294048Y170705D01*
X294115Y170784D01*
X294186Y170859D01*
X294195Y170877D01*
X294208Y170892D01*
X294247Y170988D01*
X294290Y171082D01*
X294292Y171102D01*
X294300Y171120D01*
X294318Y171287D01*
X294318Y180366D01*
X329157Y180366D01*
X329170Y180306D01*
X329187Y180204D01*
X329196Y180187D01*
X329200Y180167D01*
X329253Y180078D01*
X329302Y179987D01*
X329316Y179973D01*
X329326Y179956D01*
X329405Y179889D01*
X329480Y179817D01*
X329498Y179809D01*
X329513Y179796D01*
X329609Y179757D01*
X329703Y179714D01*
X329723Y179712D01*
X329741Y179704D01*
X329908Y179686D01*
X331432Y179686D01*
X331452Y179689D01*
X331471Y179687D01*
X331573Y179709D01*
X331675Y179725D01*
X331692Y179735D01*
X331712Y179739D01*
X331801Y179792D01*
X331892Y179841D01*
X331906Y179855D01*
X331923Y179865D01*
X331990Y179944D01*
X332061Y180019D01*
X332070Y180037D01*
X332083Y180052D01*
X332122Y180148D01*
X332165Y180242D01*
X332167Y180262D01*
X332175Y180280D01*
X332184Y180366D01*
X344551Y180366D01*
X344571Y180369D01*
X344590Y180367D01*
X344692Y180389D01*
X344794Y180405D01*
X344811Y180415D01*
X344831Y180419D01*
X344920Y180472D01*
X345011Y180521D01*
X345025Y180535D01*
X345042Y180545D01*
X345109Y180624D01*
X345181Y180699D01*
X345189Y180717D01*
X345202Y180732D01*
X345241Y180828D01*
X345284Y180922D01*
X345286Y180942D01*
X345294Y180960D01*
X345312Y181127D01*
X345312Y221369D01*
X345301Y221439D01*
X345299Y221511D01*
X345281Y221560D01*
X345273Y221611D01*
X345239Y221675D01*
X345214Y221742D01*
X345182Y221783D01*
X345157Y221829D01*
X345106Y221878D01*
X345061Y221934D01*
X345017Y221962D01*
X344979Y221998D01*
X344914Y222028D01*
X344854Y222067D01*
X344803Y222080D01*
X344756Y222102D01*
X344685Y222110D01*
X344615Y222127D01*
X344563Y222123D01*
X344512Y222129D01*
X344441Y222114D01*
X344370Y222108D01*
X344322Y222088D01*
X344271Y222077D01*
X344210Y222040D01*
X344144Y222012D01*
X344088Y221967D01*
X344060Y221950D01*
X344045Y221933D01*
X344013Y221907D01*
X343624Y221518D01*
X342323Y220217D01*
X330447Y220217D01*
X330356Y220203D01*
X330266Y220195D01*
X330236Y220183D01*
X330204Y220178D01*
X330123Y220135D01*
X330039Y220099D01*
X330007Y220073D01*
X329986Y220062D01*
X329964Y220039D01*
X329908Y219994D01*
X321054Y211140D01*
X321012Y211082D01*
X320963Y211030D01*
X320941Y210983D01*
X320911Y210941D01*
X320890Y210872D01*
X320859Y210807D01*
X320854Y210755D01*
X320838Y210705D01*
X320840Y210634D01*
X320832Y210563D01*
X320843Y210512D01*
X320845Y210460D01*
X320869Y210392D01*
X320884Y210322D01*
X320911Y210277D01*
X320929Y210229D01*
X320974Y210173D01*
X321011Y210111D01*
X321050Y210077D01*
X321083Y210037D01*
X321143Y209998D01*
X321198Y209951D01*
X321246Y209932D01*
X321290Y209904D01*
X321359Y209886D01*
X321426Y209859D01*
X321497Y209851D01*
X321528Y209843D01*
X321552Y209845D01*
X321592Y209841D01*
X328677Y209841D01*
X328677Y200823D01*
X318159Y200823D01*
X318159Y206408D01*
X318148Y206478D01*
X318146Y206550D01*
X318128Y206599D01*
X318120Y206650D01*
X318086Y206714D01*
X318061Y206781D01*
X318029Y206822D01*
X318004Y206868D01*
X317952Y206917D01*
X317908Y206973D01*
X317864Y207001D01*
X317826Y207037D01*
X317761Y207067D01*
X317701Y207106D01*
X317650Y207119D01*
X317603Y207141D01*
X317532Y207149D01*
X317462Y207166D01*
X317410Y207162D01*
X317359Y207168D01*
X317288Y207153D01*
X317217Y207147D01*
X317169Y207127D01*
X317118Y207116D01*
X317057Y207079D01*
X316991Y207051D01*
X316935Y207006D01*
X316907Y206989D01*
X316892Y206972D01*
X316860Y206946D01*
X305744Y195830D01*
X305671Y195819D01*
X305580Y195811D01*
X305551Y195799D01*
X305519Y195794D01*
X305438Y195751D01*
X305354Y195715D01*
X305322Y195689D01*
X305301Y195678D01*
X305279Y195655D01*
X305223Y195610D01*
X302426Y192813D01*
X298030Y192813D01*
X294921Y195922D01*
X294921Y200318D01*
X298030Y203427D01*
X299295Y203427D01*
X299365Y203438D01*
X299437Y203440D01*
X299486Y203458D01*
X299537Y203466D01*
X299601Y203500D01*
X299668Y203525D01*
X299709Y203557D01*
X299755Y203582D01*
X299804Y203634D01*
X299860Y203678D01*
X299888Y203722D01*
X299924Y203760D01*
X299954Y203825D01*
X299993Y203885D01*
X300006Y203936D01*
X300028Y203983D01*
X300036Y204054D01*
X300053Y204124D01*
X300049Y204176D01*
X300055Y204227D01*
X300040Y204298D01*
X300034Y204369D01*
X300014Y204417D01*
X300003Y204468D01*
X299966Y204529D01*
X299938Y204595D01*
X299893Y204651D01*
X299876Y204679D01*
X299859Y204694D01*
X299833Y204726D01*
X299493Y205066D01*
X299493Y209462D01*
X302290Y212259D01*
X302343Y212333D01*
X302403Y212403D01*
X302415Y212433D01*
X302434Y212459D01*
X302461Y212546D01*
X302495Y212631D01*
X302499Y212672D01*
X302506Y212694D01*
X302505Y212726D01*
X302511Y212781D01*
X314482Y224752D01*
X314535Y224826D01*
X314595Y224896D01*
X314607Y224926D01*
X314626Y224952D01*
X314653Y225039D01*
X314687Y225124D01*
X314691Y225165D01*
X314698Y225187D01*
X314697Y225219D01*
X314705Y225291D01*
X314705Y251721D01*
X314691Y251811D01*
X314683Y251902D01*
X314671Y251932D01*
X314666Y251964D01*
X314623Y252045D01*
X314587Y252129D01*
X314561Y252161D01*
X314550Y252182D01*
X314527Y252204D01*
X314482Y252260D01*
X314040Y252702D01*
X313982Y252744D01*
X313930Y252793D01*
X313883Y252815D01*
X313841Y252845D01*
X313772Y252866D01*
X313707Y252897D01*
X313655Y252902D01*
X313605Y252918D01*
X313534Y252916D01*
X313463Y252924D01*
X313412Y252913D01*
X313360Y252911D01*
X313292Y252887D01*
X313222Y252872D01*
X313177Y252845D01*
X313129Y252827D01*
X313073Y252782D01*
X313011Y252745D01*
X312977Y252706D01*
X312937Y252673D01*
X312898Y252613D01*
X312851Y252558D01*
X312832Y252510D01*
X312804Y252466D01*
X312786Y252397D01*
X312759Y252330D01*
X312751Y252259D01*
X312743Y252228D01*
X312745Y252204D01*
X312741Y252164D01*
X312741Y251966D01*
X312568Y251319D01*
X312233Y250740D01*
X311948Y250455D01*
X311895Y250381D01*
X311835Y250311D01*
X311823Y250281D01*
X311804Y250255D01*
X311777Y250168D01*
X311743Y250083D01*
X311739Y250042D01*
X311732Y250020D01*
X311733Y249988D01*
X311725Y249916D01*
X311725Y245168D01*
X311645Y245088D01*
X311633Y245072D01*
X311617Y245060D01*
X311561Y244972D01*
X311501Y244889D01*
X311495Y244870D01*
X311484Y244853D01*
X311459Y244752D01*
X311429Y244653D01*
X311429Y244633D01*
X311424Y244614D01*
X311432Y244511D01*
X311435Y244408D01*
X311442Y244389D01*
X311443Y244369D01*
X311484Y244274D01*
X311519Y244177D01*
X311532Y244161D01*
X311540Y244143D01*
X311645Y244012D01*
X311725Y243932D01*
X311725Y238668D01*
X311645Y238588D01*
X311633Y238572D01*
X311617Y238560D01*
X311561Y238472D01*
X311501Y238389D01*
X311495Y238370D01*
X311484Y238353D01*
X311459Y238252D01*
X311429Y238153D01*
X311429Y238133D01*
X311424Y238114D01*
X311432Y238011D01*
X311435Y237908D01*
X311442Y237889D01*
X311443Y237869D01*
X311484Y237774D01*
X311519Y237677D01*
X311532Y237661D01*
X311540Y237643D01*
X311645Y237512D01*
X311725Y237432D01*
X311725Y232168D01*
X311645Y232088D01*
X311633Y232072D01*
X311617Y232060D01*
X311561Y231972D01*
X311501Y231889D01*
X311495Y231870D01*
X311484Y231853D01*
X311459Y231752D01*
X311429Y231653D01*
X311429Y231633D01*
X311424Y231614D01*
X311432Y231511D01*
X311435Y231408D01*
X311442Y231389D01*
X311443Y231369D01*
X311484Y231274D01*
X311519Y231177D01*
X311532Y231161D01*
X311540Y231143D01*
X311645Y231012D01*
X311725Y230932D01*
X311725Y225668D01*
X310832Y224775D01*
X306324Y224775D01*
X306304Y224772D01*
X306285Y224774D01*
X306183Y224752D01*
X306081Y224736D01*
X306064Y224726D01*
X306044Y224722D01*
X305955Y224669D01*
X305864Y224620D01*
X305850Y224606D01*
X305833Y224596D01*
X305766Y224517D01*
X305694Y224442D01*
X305686Y224424D01*
X305673Y224409D01*
X305634Y224313D01*
X305591Y224219D01*
X305589Y224199D01*
X305581Y224181D01*
X305563Y224014D01*
X305563Y220033D01*
X261551Y176021D01*
X229177Y176021D01*
X227614Y177584D01*
X224538Y180660D01*
X224480Y180702D01*
X224428Y180751D01*
X224381Y180773D01*
X224339Y180803D01*
X224270Y180824D01*
X224205Y180855D01*
X224153Y180860D01*
X224103Y180876D01*
X224032Y180874D01*
X223961Y180882D01*
X223910Y180871D01*
X223858Y180869D01*
X223790Y180845D01*
X223720Y180830D01*
X223676Y180803D01*
X223627Y180785D01*
X223571Y180740D01*
X223509Y180703D01*
X223475Y180664D01*
X223435Y180631D01*
X223396Y180571D01*
X223349Y180516D01*
X223330Y180468D01*
X223302Y180424D01*
X223284Y180355D01*
X223257Y180288D01*
X223249Y180217D01*
X223241Y180186D01*
X223243Y180162D01*
X223239Y180122D01*
X223239Y179158D01*
X220130Y176049D01*
X216175Y176049D01*
X216084Y176035D01*
X215994Y176027D01*
X215964Y176015D01*
X215932Y176010D01*
X215851Y175967D01*
X215767Y175931D01*
X215735Y175905D01*
X215714Y175894D01*
X215692Y175871D01*
X215636Y175826D01*
X206726Y166916D01*
X206673Y166842D01*
X206613Y166772D01*
X206601Y166742D01*
X206582Y166716D01*
X206555Y166629D01*
X206521Y166544D01*
X206517Y166503D01*
X206510Y166481D01*
X206511Y166449D01*
X206503Y166377D01*
X206503Y33267D01*
X206517Y33176D01*
X206525Y33086D01*
X206537Y33056D01*
X206542Y33024D01*
X206585Y32943D01*
X206621Y32859D01*
X206647Y32827D01*
X206658Y32806D01*
X206681Y32784D01*
X206726Y32728D01*
X218276Y21178D01*
X218334Y21136D01*
X218386Y21087D01*
X218433Y21065D01*
X218475Y21035D01*
X218544Y21014D01*
X218609Y20983D01*
X218661Y20978D01*
X218711Y20962D01*
X218782Y20964D01*
X218853Y20956D01*
X218904Y20967D01*
G37*
G36*
X182998Y197843D02*
X182998Y197843D01*
X183050Y197845D01*
X183118Y197869D01*
X183188Y197884D01*
X183233Y197911D01*
X183281Y197929D01*
X183337Y197974D01*
X183399Y198011D01*
X183433Y198050D01*
X183473Y198083D01*
X183512Y198143D01*
X183559Y198198D01*
X183578Y198246D01*
X183606Y198290D01*
X183624Y198359D01*
X183651Y198426D01*
X183659Y198497D01*
X183667Y198528D01*
X183665Y198552D01*
X183669Y198592D01*
X183669Y203112D01*
X186466Y205909D01*
X186519Y205983D01*
X186579Y206053D01*
X186591Y206083D01*
X186610Y206109D01*
X186637Y206196D01*
X186671Y206281D01*
X186675Y206322D01*
X186682Y206344D01*
X186681Y206376D01*
X186689Y206447D01*
X186689Y268917D01*
X195259Y277487D01*
X197549Y277487D01*
X197619Y277498D01*
X197691Y277500D01*
X197740Y277518D01*
X197791Y277526D01*
X197855Y277560D01*
X197922Y277585D01*
X197963Y277617D01*
X198009Y277642D01*
X198058Y277694D01*
X198114Y277738D01*
X198142Y277782D01*
X198178Y277820D01*
X198208Y277885D01*
X198247Y277945D01*
X198260Y277996D01*
X198282Y278043D01*
X198290Y278114D01*
X198307Y278184D01*
X198303Y278236D01*
X198309Y278287D01*
X198294Y278358D01*
X198288Y278429D01*
X198268Y278477D01*
X198257Y278528D01*
X198220Y278589D01*
X198192Y278655D01*
X198147Y278711D01*
X198130Y278739D01*
X198113Y278754D01*
X198087Y278786D01*
X197131Y279742D01*
X197131Y284138D01*
X200240Y287247D01*
X204636Y287247D01*
X207433Y284450D01*
X207507Y284397D01*
X207577Y284337D01*
X207607Y284325D01*
X207633Y284306D01*
X207720Y284279D01*
X207805Y284245D01*
X207846Y284241D01*
X207868Y284234D01*
X207900Y284235D01*
X207971Y284227D01*
X244911Y284227D01*
X245001Y284241D01*
X245092Y284249D01*
X245121Y284261D01*
X245153Y284266D01*
X245234Y284309D01*
X245318Y284345D01*
X245350Y284371D01*
X245371Y284382D01*
X245393Y284405D01*
X245449Y284450D01*
X248246Y287247D01*
X252642Y287247D01*
X255751Y284138D01*
X255751Y279742D01*
X254795Y278786D01*
X254753Y278728D01*
X254704Y278676D01*
X254682Y278629D01*
X254652Y278587D01*
X254630Y278518D01*
X254600Y278453D01*
X254595Y278401D01*
X254579Y278351D01*
X254581Y278280D01*
X254573Y278209D01*
X254584Y278158D01*
X254586Y278106D01*
X254610Y278038D01*
X254625Y277968D01*
X254652Y277923D01*
X254670Y277875D01*
X254715Y277819D01*
X254752Y277757D01*
X254791Y277723D01*
X254824Y277683D01*
X254884Y277644D01*
X254939Y277597D01*
X254987Y277578D01*
X255031Y277550D01*
X255100Y277532D01*
X255167Y277505D01*
X255238Y277497D01*
X255269Y277489D01*
X255292Y277491D01*
X255333Y277487D01*
X257214Y277487D01*
X257234Y277490D01*
X257253Y277488D01*
X257355Y277510D01*
X257457Y277526D01*
X257474Y277536D01*
X257494Y277540D01*
X257583Y277593D01*
X257674Y277642D01*
X257688Y277656D01*
X257705Y277666D01*
X257772Y277745D01*
X257844Y277820D01*
X257852Y277838D01*
X257865Y277853D01*
X257904Y277949D01*
X257947Y278043D01*
X257949Y278063D01*
X257957Y278081D01*
X257975Y278248D01*
X257975Y282832D01*
X258805Y283662D01*
X258817Y283678D01*
X258833Y283690D01*
X258889Y283778D01*
X258949Y283861D01*
X258955Y283880D01*
X258966Y283897D01*
X258991Y283998D01*
X259021Y284097D01*
X259021Y284116D01*
X259026Y284136D01*
X259018Y284239D01*
X259015Y284342D01*
X259008Y284361D01*
X259007Y284381D01*
X258966Y284476D01*
X258931Y284573D01*
X258918Y284589D01*
X258910Y284607D01*
X258805Y284738D01*
X257975Y285568D01*
X257975Y300832D01*
X258805Y301662D01*
X258817Y301678D01*
X258833Y301690D01*
X258889Y301778D01*
X258949Y301861D01*
X258955Y301880D01*
X258966Y301897D01*
X258991Y301998D01*
X259021Y302097D01*
X259021Y302116D01*
X259026Y302136D01*
X259018Y302239D01*
X259015Y302342D01*
X259008Y302361D01*
X259007Y302381D01*
X258966Y302476D01*
X258931Y302573D01*
X258918Y302589D01*
X258910Y302607D01*
X258805Y302738D01*
X257975Y303568D01*
X257975Y318832D01*
X258805Y319662D01*
X258817Y319678D01*
X258833Y319690D01*
X258889Y319778D01*
X258949Y319861D01*
X258955Y319880D01*
X258966Y319897D01*
X258991Y319998D01*
X259021Y320097D01*
X259021Y320116D01*
X259026Y320136D01*
X259018Y320239D01*
X259015Y320342D01*
X259008Y320361D01*
X259007Y320381D01*
X258966Y320476D01*
X258931Y320573D01*
X258918Y320589D01*
X258910Y320607D01*
X258805Y320738D01*
X257975Y321568D01*
X257975Y336804D01*
X257972Y336824D01*
X257974Y336843D01*
X257952Y336945D01*
X257936Y337047D01*
X257926Y337064D01*
X257922Y337084D01*
X257869Y337173D01*
X257820Y337264D01*
X257806Y337278D01*
X257796Y337295D01*
X257717Y337362D01*
X257642Y337434D01*
X257624Y337442D01*
X257609Y337455D01*
X257513Y337494D01*
X257419Y337537D01*
X257399Y337539D01*
X257381Y337547D01*
X257214Y337565D01*
X240531Y337565D01*
X240440Y337551D01*
X240350Y337543D01*
X240320Y337531D01*
X240288Y337526D01*
X240207Y337483D01*
X240123Y337447D01*
X240091Y337421D01*
X240070Y337410D01*
X240048Y337387D01*
X239992Y337342D01*
X223462Y320812D01*
X223409Y320738D01*
X223349Y320668D01*
X223337Y320638D01*
X223318Y320612D01*
X223291Y320525D01*
X223257Y320440D01*
X223253Y320399D01*
X223246Y320377D01*
X223247Y320345D01*
X223239Y320274D01*
X223239Y316318D01*
X220130Y313209D01*
X215734Y313209D01*
X212625Y316318D01*
X212625Y320714D01*
X215734Y323823D01*
X219690Y323823D01*
X219780Y323837D01*
X219871Y323845D01*
X219900Y323857D01*
X219932Y323862D01*
X220013Y323905D01*
X220097Y323941D01*
X220129Y323967D01*
X220150Y323978D01*
X220172Y324001D01*
X220228Y324046D01*
X236758Y340576D01*
X238321Y342139D01*
X271534Y342139D01*
X271604Y342150D01*
X271676Y342152D01*
X271725Y342170D01*
X271776Y342178D01*
X271840Y342212D01*
X271907Y342237D01*
X271948Y342269D01*
X271994Y342294D01*
X272043Y342346D01*
X272099Y342390D01*
X272127Y342434D01*
X272163Y342472D01*
X272193Y342537D01*
X272232Y342597D01*
X272245Y342648D01*
X272267Y342695D01*
X272275Y342766D01*
X272292Y342836D01*
X272288Y342888D01*
X272294Y342939D01*
X272279Y343010D01*
X272273Y343081D01*
X272253Y343129D01*
X272242Y343180D01*
X272205Y343241D01*
X272177Y343307D01*
X272132Y343363D01*
X272115Y343391D01*
X272098Y343406D01*
X272072Y343438D01*
X269024Y346486D01*
X268950Y346539D01*
X268880Y346599D01*
X268850Y346611D01*
X268824Y346630D01*
X268737Y346657D01*
X268652Y346691D01*
X268611Y346695D01*
X268589Y346702D01*
X268557Y346701D01*
X268485Y346709D01*
X226815Y346709D01*
X226724Y346695D01*
X226634Y346687D01*
X226604Y346675D01*
X226572Y346670D01*
X226491Y346627D01*
X226407Y346591D01*
X226375Y346565D01*
X226354Y346554D01*
X226332Y346531D01*
X226276Y346486D01*
X208211Y328421D01*
X143256Y328421D01*
X143236Y328418D01*
X143217Y328420D01*
X143115Y328398D01*
X143013Y328382D01*
X142996Y328372D01*
X142976Y328368D01*
X142887Y328315D01*
X142796Y328266D01*
X142782Y328252D01*
X142765Y328242D01*
X142698Y328163D01*
X142626Y328088D01*
X142618Y328070D01*
X142605Y328055D01*
X142566Y327959D01*
X142523Y327865D01*
X142521Y327845D01*
X142513Y327827D01*
X142495Y327660D01*
X142495Y324049D01*
X142509Y323959D01*
X142517Y323868D01*
X142529Y323839D01*
X142534Y323807D01*
X142577Y323726D01*
X142613Y323642D01*
X142639Y323610D01*
X142650Y323589D01*
X142673Y323567D01*
X142718Y323511D01*
X145515Y320714D01*
X145515Y316318D01*
X142406Y313209D01*
X137802Y313209D01*
X137782Y313206D01*
X137763Y313208D01*
X137661Y313186D01*
X137559Y313170D01*
X137542Y313160D01*
X137522Y313156D01*
X137433Y313103D01*
X137342Y313054D01*
X137328Y313040D01*
X137311Y313030D01*
X137244Y312951D01*
X137172Y312876D01*
X137164Y312858D01*
X137151Y312843D01*
X137112Y312747D01*
X137101Y312723D01*
X127762Y312723D01*
X127742Y312720D01*
X127723Y312722D01*
X127621Y312700D01*
X127519Y312683D01*
X127502Y312674D01*
X127482Y312670D01*
X127393Y312617D01*
X127302Y312568D01*
X127288Y312554D01*
X127271Y312544D01*
X127204Y312465D01*
X127133Y312390D01*
X127124Y312372D01*
X127111Y312357D01*
X127072Y312261D01*
X127029Y312167D01*
X127027Y312147D01*
X127019Y312129D01*
X127001Y311962D01*
X127001Y310438D01*
X127003Y310428D01*
X127002Y310422D01*
X127004Y310414D01*
X127002Y310399D01*
X127024Y310297D01*
X127041Y310195D01*
X127050Y310178D01*
X127054Y310158D01*
X127107Y310069D01*
X127156Y309978D01*
X127170Y309964D01*
X127180Y309947D01*
X127259Y309880D01*
X127334Y309809D01*
X127352Y309800D01*
X127367Y309787D01*
X127463Y309748D01*
X127557Y309705D01*
X127577Y309703D01*
X127595Y309695D01*
X127762Y309677D01*
X137041Y309677D01*
X137041Y303866D01*
X136868Y303219D01*
X136533Y302640D01*
X136060Y302167D01*
X136050Y302161D01*
X135959Y302086D01*
X135865Y302012D01*
X135863Y302008D01*
X135860Y302005D01*
X135797Y301905D01*
X135732Y301805D01*
X135731Y301801D01*
X135729Y301797D01*
X135701Y301682D01*
X135672Y301566D01*
X135673Y301562D01*
X135672Y301558D01*
X135682Y301437D01*
X135691Y301321D01*
X135693Y301317D01*
X135693Y301313D01*
X135741Y301204D01*
X135788Y301095D01*
X135791Y301091D01*
X135792Y301088D01*
X135801Y301078D01*
X135893Y300964D01*
X136025Y300832D01*
X136025Y285568D01*
X135893Y285436D01*
X135824Y285341D01*
X135753Y285244D01*
X135751Y285240D01*
X135749Y285237D01*
X135714Y285123D01*
X135678Y285010D01*
X135678Y285005D01*
X135677Y285002D01*
X135680Y284883D01*
X135682Y284764D01*
X135683Y284760D01*
X135683Y284756D01*
X135724Y284644D01*
X135763Y284532D01*
X135766Y284529D01*
X135767Y284525D01*
X135842Y284432D01*
X135915Y284338D01*
X135919Y284335D01*
X135921Y284333D01*
X135933Y284325D01*
X136050Y284239D01*
X136060Y284233D01*
X136550Y283743D01*
X136554Y283737D01*
X136608Y283685D01*
X136656Y283626D01*
X136697Y283600D01*
X136732Y283567D01*
X136800Y283535D01*
X136864Y283495D01*
X136911Y283484D01*
X136955Y283464D01*
X137030Y283455D01*
X137104Y283437D01*
X137152Y283442D01*
X137199Y283436D01*
X137273Y283452D01*
X137349Y283459D01*
X137393Y283478D01*
X137440Y283489D01*
X137505Y283527D01*
X137574Y283558D01*
X137610Y283590D01*
X137651Y283615D01*
X137700Y283672D01*
X137756Y283723D01*
X137779Y283765D01*
X137811Y283802D01*
X137839Y283872D01*
X137876Y283938D01*
X137885Y283985D01*
X137903Y284030D01*
X137917Y284157D01*
X137921Y284180D01*
X137920Y284186D01*
X137921Y284197D01*
X137921Y286189D01*
X161856Y310124D01*
X161909Y310198D01*
X161969Y310268D01*
X161981Y310298D01*
X162000Y310324D01*
X162027Y310411D01*
X162061Y310496D01*
X162065Y310537D01*
X162072Y310559D01*
X162071Y310591D01*
X162079Y310662D01*
X162079Y312078D01*
X165188Y315187D01*
X169584Y315187D01*
X172693Y312078D01*
X172693Y307682D01*
X169584Y304573D01*
X165188Y304573D01*
X164519Y305242D01*
X164503Y305254D01*
X164490Y305270D01*
X164403Y305326D01*
X164319Y305386D01*
X164300Y305392D01*
X164283Y305403D01*
X164183Y305428D01*
X164084Y305458D01*
X164064Y305458D01*
X164045Y305463D01*
X163942Y305455D01*
X163838Y305452D01*
X163819Y305445D01*
X163800Y305443D01*
X163705Y305403D01*
X163607Y305367D01*
X163591Y305355D01*
X163573Y305347D01*
X163442Y305242D01*
X152080Y293880D01*
X152038Y293822D01*
X151989Y293770D01*
X151967Y293723D01*
X151937Y293681D01*
X151916Y293612D01*
X151885Y293547D01*
X151880Y293495D01*
X151864Y293445D01*
X151866Y293374D01*
X151858Y293303D01*
X151869Y293252D01*
X151871Y293200D01*
X151895Y293132D01*
X151910Y293062D01*
X151937Y293018D01*
X151955Y292969D01*
X152000Y292913D01*
X152037Y292851D01*
X152076Y292817D01*
X152109Y292777D01*
X152169Y292738D01*
X152224Y292691D01*
X152272Y292672D01*
X152316Y292644D01*
X152385Y292626D01*
X152452Y292599D01*
X152523Y292591D01*
X152554Y292583D01*
X152578Y292585D01*
X152618Y292581D01*
X156122Y292581D01*
X159231Y289472D01*
X159231Y285517D01*
X159245Y285426D01*
X159253Y285336D01*
X159265Y285306D01*
X159270Y285274D01*
X159313Y285193D01*
X159349Y285109D01*
X159375Y285077D01*
X159386Y285056D01*
X159409Y285034D01*
X159454Y284978D01*
X163069Y281363D01*
X163069Y212337D01*
X163083Y212246D01*
X163091Y212156D01*
X163103Y212126D01*
X163108Y212094D01*
X163151Y212013D01*
X163187Y211929D01*
X163213Y211897D01*
X163224Y211876D01*
X163247Y211854D01*
X163292Y211798D01*
X168499Y206591D01*
X168557Y206549D01*
X168609Y206500D01*
X168656Y206478D01*
X168698Y206448D01*
X168767Y206427D01*
X168832Y206396D01*
X168884Y206391D01*
X168934Y206375D01*
X169005Y206377D01*
X169076Y206369D01*
X169127Y206380D01*
X169179Y206382D01*
X169247Y206406D01*
X169317Y206421D01*
X169362Y206448D01*
X169410Y206466D01*
X169466Y206511D01*
X169528Y206548D01*
X169562Y206587D01*
X169602Y206620D01*
X169641Y206680D01*
X169688Y206735D01*
X169707Y206783D01*
X169735Y206827D01*
X169753Y206896D01*
X169780Y206963D01*
X169788Y207034D01*
X169796Y207065D01*
X169794Y207089D01*
X169798Y207129D01*
X169798Y217352D01*
X169784Y217442D01*
X169776Y217533D01*
X169764Y217562D01*
X169759Y217594D01*
X169716Y217675D01*
X169680Y217759D01*
X169654Y217791D01*
X169643Y217812D01*
X169620Y217834D01*
X169575Y217890D01*
X166778Y220687D01*
X166778Y225083D01*
X169887Y228192D01*
X174283Y228192D01*
X177392Y225083D01*
X177392Y220687D01*
X174595Y217890D01*
X174542Y217816D01*
X174482Y217746D01*
X174470Y217716D01*
X174451Y217690D01*
X174424Y217603D01*
X174390Y217518D01*
X174386Y217477D01*
X174379Y217455D01*
X174380Y217423D01*
X174372Y217352D01*
X174372Y206368D01*
X174386Y206277D01*
X174394Y206187D01*
X174406Y206157D01*
X174411Y206125D01*
X174454Y206044D01*
X174490Y205960D01*
X174516Y205928D01*
X174527Y205907D01*
X174550Y205885D01*
X174595Y205829D01*
X182370Y198054D01*
X182428Y198012D01*
X182480Y197963D01*
X182527Y197941D01*
X182569Y197911D01*
X182638Y197890D01*
X182703Y197859D01*
X182755Y197854D01*
X182805Y197838D01*
X182876Y197840D01*
X182947Y197832D01*
X182998Y197843D01*
G37*
G36*
X306410Y37139D02*
X306410Y37139D01*
X306458Y37140D01*
X306530Y37165D01*
X306604Y37181D01*
X306645Y37206D01*
X306690Y37222D01*
X306750Y37269D01*
X306815Y37308D01*
X306846Y37344D01*
X306884Y37374D01*
X306960Y37477D01*
X306975Y37495D01*
X306977Y37501D01*
X306983Y37509D01*
X309266Y41463D01*
X314137Y46334D01*
X320102Y49778D01*
X326756Y51561D01*
X333644Y51561D01*
X340298Y49778D01*
X344170Y47542D01*
X344259Y47508D01*
X344346Y47468D01*
X344374Y47465D01*
X344400Y47455D01*
X344496Y47451D01*
X344590Y47441D01*
X344618Y47447D01*
X344646Y47446D01*
X344738Y47473D01*
X344831Y47493D01*
X344855Y47508D01*
X344882Y47516D01*
X344960Y47571D01*
X345042Y47619D01*
X345060Y47641D01*
X345083Y47657D01*
X345140Y47734D01*
X345202Y47806D01*
X345212Y47833D01*
X345229Y47855D01*
X345258Y47946D01*
X345294Y48035D01*
X345298Y48070D01*
X345304Y48090D01*
X345304Y48123D01*
X345312Y48201D01*
X345312Y123673D01*
X345309Y123693D01*
X345311Y123712D01*
X345289Y123814D01*
X345273Y123916D01*
X345263Y123933D01*
X345259Y123953D01*
X345206Y124042D01*
X345157Y124133D01*
X345143Y124147D01*
X345133Y124164D01*
X345054Y124231D01*
X344979Y124303D01*
X344961Y124311D01*
X344946Y124324D01*
X344850Y124363D01*
X344756Y124406D01*
X344736Y124408D01*
X344718Y124416D01*
X344551Y124434D01*
X332183Y124434D01*
X332170Y124494D01*
X332153Y124596D01*
X332144Y124613D01*
X332140Y124633D01*
X332087Y124722D01*
X332038Y124813D01*
X332024Y124827D01*
X332014Y124844D01*
X331935Y124911D01*
X331860Y124983D01*
X331842Y124991D01*
X331827Y125004D01*
X331731Y125043D01*
X331637Y125086D01*
X331617Y125088D01*
X331599Y125096D01*
X331432Y125114D01*
X329908Y125114D01*
X329888Y125111D01*
X329869Y125113D01*
X329767Y125091D01*
X329665Y125075D01*
X329648Y125065D01*
X329628Y125061D01*
X329539Y125008D01*
X329448Y124959D01*
X329434Y124945D01*
X329417Y124935D01*
X329350Y124856D01*
X329279Y124781D01*
X329270Y124763D01*
X329257Y124748D01*
X329218Y124652D01*
X329175Y124558D01*
X329173Y124538D01*
X329165Y124520D01*
X329156Y124434D01*
X306735Y124434D01*
X294443Y124434D01*
X294443Y133513D01*
X294440Y133533D01*
X294442Y133552D01*
X294420Y133654D01*
X294403Y133756D01*
X294394Y133773D01*
X294390Y133793D01*
X294337Y133882D01*
X294288Y133973D01*
X294274Y133987D01*
X294264Y134004D01*
X294185Y134071D01*
X294110Y134142D01*
X294092Y134151D01*
X294077Y134164D01*
X293981Y134203D01*
X293887Y134246D01*
X293867Y134248D01*
X293849Y134256D01*
X293682Y134274D01*
X292919Y134274D01*
X292919Y135037D01*
X292916Y135057D01*
X292918Y135076D01*
X292896Y135178D01*
X292879Y135280D01*
X292870Y135297D01*
X292866Y135317D01*
X292813Y135406D01*
X292764Y135497D01*
X292750Y135511D01*
X292740Y135528D01*
X292661Y135595D01*
X292586Y135666D01*
X292568Y135675D01*
X292553Y135688D01*
X292457Y135727D01*
X292363Y135770D01*
X292343Y135772D01*
X292325Y135780D01*
X292158Y135798D01*
X275504Y135798D01*
X275504Y141909D01*
X275677Y142556D01*
X276012Y143135D01*
X276420Y143543D01*
X276431Y143559D01*
X276447Y143571D01*
X276503Y143658D01*
X276563Y143742D01*
X276569Y143761D01*
X276580Y143778D01*
X276605Y143878D01*
X276635Y143977D01*
X276635Y143997D01*
X276640Y144017D01*
X276632Y144120D01*
X276629Y144223D01*
X276622Y144242D01*
X276621Y144262D01*
X276580Y144357D01*
X276545Y144454D01*
X276532Y144470D01*
X276524Y144488D01*
X276419Y144619D01*
X276270Y144768D01*
X276270Y146050D01*
X276268Y146062D01*
X276269Y146071D01*
X276268Y146077D01*
X276269Y146089D01*
X276247Y146191D01*
X276231Y146293D01*
X276221Y146310D01*
X276217Y146330D01*
X276164Y146419D01*
X276115Y146510D01*
X276101Y146524D01*
X276091Y146541D01*
X276012Y146608D01*
X275937Y146680D01*
X275919Y146688D01*
X275904Y146701D01*
X275808Y146740D01*
X275714Y146783D01*
X275694Y146785D01*
X275676Y146793D01*
X275509Y146811D01*
X238386Y146811D01*
X238366Y146808D01*
X238347Y146810D01*
X238245Y146788D01*
X238143Y146772D01*
X238126Y146762D01*
X238106Y146758D01*
X238017Y146705D01*
X237926Y146656D01*
X237912Y146642D01*
X237895Y146632D01*
X237828Y146553D01*
X237756Y146478D01*
X237748Y146460D01*
X237735Y146445D01*
X237696Y146349D01*
X237653Y146255D01*
X237651Y146235D01*
X237643Y146217D01*
X237625Y146050D01*
X237625Y144768D01*
X237493Y144636D01*
X237424Y144541D01*
X237353Y144444D01*
X237351Y144440D01*
X237349Y144437D01*
X237314Y144323D01*
X237278Y144210D01*
X237278Y144205D01*
X237277Y144202D01*
X237280Y144083D01*
X237282Y143964D01*
X237283Y143960D01*
X237283Y143956D01*
X237324Y143845D01*
X237363Y143732D01*
X237366Y143729D01*
X237367Y143725D01*
X237442Y143632D01*
X237515Y143538D01*
X237519Y143535D01*
X237521Y143533D01*
X237533Y143525D01*
X237650Y143439D01*
X237660Y143433D01*
X238133Y142960D01*
X238468Y142381D01*
X238641Y141734D01*
X238641Y135923D01*
X229362Y135923D01*
X229342Y135920D01*
X229323Y135922D01*
X229221Y135900D01*
X229119Y135883D01*
X229102Y135874D01*
X229082Y135870D01*
X228993Y135817D01*
X228902Y135768D01*
X228888Y135754D01*
X228871Y135744D01*
X228804Y135665D01*
X228733Y135590D01*
X228724Y135572D01*
X228711Y135557D01*
X228672Y135461D01*
X228629Y135367D01*
X228627Y135347D01*
X228619Y135329D01*
X228601Y135162D01*
X228601Y133638D01*
X228604Y133618D01*
X228602Y133599D01*
X228624Y133497D01*
X228641Y133395D01*
X228650Y133378D01*
X228654Y133358D01*
X228707Y133269D01*
X228756Y133178D01*
X228770Y133164D01*
X228780Y133147D01*
X228859Y133080D01*
X228934Y133009D01*
X228952Y133000D01*
X228967Y132987D01*
X229063Y132948D01*
X229157Y132905D01*
X229177Y132903D01*
X229195Y132895D01*
X229362Y132877D01*
X238641Y132877D01*
X238641Y127066D01*
X238468Y126419D01*
X238133Y125840D01*
X237660Y125367D01*
X237650Y125361D01*
X237617Y125334D01*
X237596Y125323D01*
X237570Y125295D01*
X237559Y125286D01*
X237465Y125212D01*
X237463Y125208D01*
X237460Y125205D01*
X237397Y125106D01*
X237332Y125005D01*
X237331Y125001D01*
X237329Y124997D01*
X237301Y124882D01*
X237272Y124766D01*
X237273Y124762D01*
X237272Y124758D01*
X237282Y124639D01*
X237291Y124521D01*
X237293Y124517D01*
X237293Y124513D01*
X237341Y124405D01*
X237388Y124295D01*
X237391Y124291D01*
X237392Y124288D01*
X237401Y124278D01*
X237493Y124164D01*
X237625Y124032D01*
X237625Y111252D01*
X237628Y111232D01*
X237626Y111213D01*
X237648Y111111D01*
X237664Y111009D01*
X237674Y110992D01*
X237678Y110972D01*
X237731Y110883D01*
X237780Y110792D01*
X237794Y110778D01*
X237804Y110761D01*
X237883Y110694D01*
X237958Y110622D01*
X237976Y110614D01*
X237991Y110601D01*
X238087Y110562D01*
X238181Y110519D01*
X238201Y110517D01*
X238219Y110509D01*
X238386Y110491D01*
X238691Y110491D01*
X258576Y90606D01*
X258634Y90564D01*
X258686Y90515D01*
X258733Y90493D01*
X258775Y90463D01*
X258844Y90442D01*
X258909Y90411D01*
X258961Y90406D01*
X259011Y90390D01*
X259082Y90392D01*
X259153Y90384D01*
X259204Y90395D01*
X259256Y90397D01*
X259324Y90421D01*
X259394Y90436D01*
X259439Y90463D01*
X259487Y90481D01*
X259543Y90526D01*
X259605Y90563D01*
X259639Y90602D01*
X259679Y90635D01*
X259718Y90695D01*
X259765Y90750D01*
X259784Y90798D01*
X259812Y90842D01*
X259830Y90911D01*
X259857Y90978D01*
X259865Y91049D01*
X259873Y91080D01*
X259871Y91104D01*
X259875Y91144D01*
X259875Y94516D01*
X259872Y94536D01*
X259874Y94555D01*
X259852Y94657D01*
X259836Y94759D01*
X259826Y94776D01*
X259822Y94796D01*
X259769Y94885D01*
X259720Y94976D01*
X259706Y94990D01*
X259696Y95007D01*
X259617Y95074D01*
X259542Y95146D01*
X259524Y95154D01*
X259509Y95167D01*
X259413Y95206D01*
X259319Y95249D01*
X259299Y95251D01*
X259281Y95259D01*
X259114Y95277D01*
X256882Y95277D01*
X253773Y98386D01*
X253773Y102782D01*
X256570Y105579D01*
X256623Y105653D01*
X256683Y105723D01*
X256695Y105753D01*
X256714Y105779D01*
X256741Y105866D01*
X256775Y105951D01*
X256779Y105992D01*
X256786Y106014D01*
X256785Y106046D01*
X256793Y106117D01*
X256793Y117911D01*
X256779Y118001D01*
X256771Y118092D01*
X256759Y118121D01*
X256754Y118153D01*
X256711Y118234D01*
X256675Y118318D01*
X256649Y118350D01*
X256638Y118371D01*
X256615Y118393D01*
X256570Y118449D01*
X253773Y121246D01*
X253773Y125642D01*
X256882Y128751D01*
X261278Y128751D01*
X264387Y125642D01*
X264387Y121246D01*
X261590Y118449D01*
X261537Y118375D01*
X261477Y118305D01*
X261465Y118275D01*
X261446Y118249D01*
X261419Y118162D01*
X261385Y118077D01*
X261381Y118036D01*
X261374Y118014D01*
X261375Y117982D01*
X261367Y117911D01*
X261367Y106117D01*
X261381Y106027D01*
X261389Y105936D01*
X261401Y105907D01*
X261406Y105875D01*
X261449Y105794D01*
X261485Y105710D01*
X261511Y105678D01*
X261522Y105657D01*
X261545Y105635D01*
X261590Y105579D01*
X264387Y102782D01*
X264387Y98386D01*
X262725Y96724D01*
X262683Y96666D01*
X262634Y96614D01*
X262612Y96567D01*
X262582Y96525D01*
X262560Y96456D01*
X262530Y96391D01*
X262525Y96339D01*
X262509Y96289D01*
X262511Y96218D01*
X262503Y96147D01*
X262514Y96096D01*
X262516Y96044D01*
X262540Y95976D01*
X262555Y95906D01*
X262582Y95861D01*
X262600Y95813D01*
X262645Y95757D01*
X262682Y95695D01*
X262721Y95661D01*
X262754Y95621D01*
X262814Y95582D01*
X262869Y95535D01*
X262917Y95516D01*
X262961Y95488D01*
X263030Y95470D01*
X263097Y95443D01*
X263168Y95435D01*
X263199Y95427D01*
X263222Y95429D01*
X263263Y95425D01*
X276032Y95425D01*
X276925Y94532D01*
X276925Y91440D01*
X276928Y91420D01*
X276926Y91401D01*
X276948Y91299D01*
X276964Y91197D01*
X276974Y91180D01*
X276978Y91160D01*
X277031Y91071D01*
X277080Y90980D01*
X277094Y90966D01*
X277104Y90949D01*
X277183Y90882D01*
X277258Y90810D01*
X277276Y90802D01*
X277291Y90789D01*
X277387Y90750D01*
X277481Y90707D01*
X277501Y90705D01*
X277519Y90697D01*
X277686Y90679D01*
X280719Y90679D01*
X280813Y90694D01*
X280908Y90703D01*
X280934Y90714D01*
X280962Y90718D01*
X281046Y90763D01*
X281133Y90801D01*
X281154Y90820D01*
X281179Y90834D01*
X281245Y90903D01*
X281315Y90967D01*
X281329Y90991D01*
X281348Y91012D01*
X281389Y91098D01*
X281435Y91182D01*
X281440Y91209D01*
X281452Y91235D01*
X281462Y91330D01*
X281480Y91423D01*
X281476Y91451D01*
X281479Y91479D01*
X281459Y91573D01*
X281445Y91667D01*
X281431Y91699D01*
X281427Y91720D01*
X281410Y91748D01*
X281378Y91821D01*
X281032Y92419D01*
X280859Y93066D01*
X280859Y96877D01*
X289638Y96877D01*
X289658Y96880D01*
X289677Y96878D01*
X289779Y96900D01*
X289881Y96917D01*
X289898Y96926D01*
X289918Y96930D01*
X290007Y96983D01*
X290098Y97032D01*
X290112Y97046D01*
X290129Y97056D01*
X290196Y97135D01*
X290267Y97210D01*
X290276Y97228D01*
X290289Y97243D01*
X290328Y97339D01*
X290371Y97433D01*
X290373Y97453D01*
X290381Y97471D01*
X290399Y97638D01*
X290399Y98401D01*
X290401Y98401D01*
X290401Y97638D01*
X290404Y97618D01*
X290402Y97599D01*
X290424Y97497D01*
X290441Y97395D01*
X290450Y97378D01*
X290454Y97358D01*
X290507Y97269D01*
X290556Y97178D01*
X290570Y97164D01*
X290580Y97147D01*
X290659Y97080D01*
X290734Y97009D01*
X290752Y97000D01*
X290767Y96987D01*
X290863Y96948D01*
X290957Y96905D01*
X290977Y96903D01*
X290995Y96895D01*
X291162Y96877D01*
X299941Y96877D01*
X299941Y94460D01*
X299944Y94440D01*
X299942Y94421D01*
X299964Y94319D01*
X299980Y94217D01*
X299990Y94200D01*
X299994Y94180D01*
X300047Y94091D01*
X300096Y94000D01*
X300110Y93986D01*
X300120Y93969D01*
X300199Y93902D01*
X300274Y93830D01*
X300292Y93822D01*
X300307Y93809D01*
X300403Y93770D01*
X300497Y93727D01*
X300517Y93725D01*
X300535Y93717D01*
X300702Y93699D01*
X303950Y93699D01*
X307059Y90590D01*
X307059Y86634D01*
X307061Y86623D01*
X307060Y86615D01*
X307069Y86573D01*
X307074Y86544D01*
X307081Y86453D01*
X307087Y86439D01*
X307087Y41725D01*
X305786Y40424D01*
X305733Y40350D01*
X305673Y40280D01*
X305661Y40250D01*
X305642Y40224D01*
X305615Y40137D01*
X305581Y40052D01*
X305577Y40011D01*
X305570Y39989D01*
X305571Y39957D01*
X305563Y39885D01*
X305563Y37889D01*
X305570Y37842D01*
X305569Y37794D01*
X305590Y37721D01*
X305602Y37647D01*
X305625Y37604D01*
X305639Y37558D01*
X305682Y37496D01*
X305718Y37429D01*
X305752Y37396D01*
X305780Y37357D01*
X305841Y37312D01*
X305896Y37260D01*
X305939Y37240D01*
X305978Y37211D01*
X306050Y37188D01*
X306119Y37156D01*
X306167Y37151D01*
X306212Y37136D01*
X306288Y37138D01*
X306363Y37129D01*
X306410Y37139D01*
G37*
G36*
X273428Y9918D02*
X273428Y9918D01*
X273499Y9920D01*
X273549Y9938D01*
X273601Y9946D01*
X273664Y9979D01*
X273730Y10004D01*
X273772Y10037D01*
X273819Y10062D01*
X273867Y10113D01*
X273923Y10157D01*
X273952Y10201D01*
X273988Y10240D01*
X274018Y10304D01*
X274056Y10363D01*
X274069Y10415D01*
X274092Y10463D01*
X274100Y10533D01*
X274117Y10602D01*
X274113Y10655D01*
X274119Y10707D01*
X274104Y10777D01*
X274099Y10847D01*
X274078Y10896D01*
X274067Y10948D01*
X274030Y11008D01*
X274003Y11074D01*
X273968Y11113D01*
X273940Y11159D01*
X273887Y11205D01*
X273840Y11258D01*
X273778Y11298D01*
X273753Y11319D01*
X273732Y11327D01*
X273699Y11349D01*
X273611Y11376D01*
X273525Y11411D01*
X273486Y11415D01*
X273464Y11422D01*
X273432Y11421D01*
X273359Y11429D01*
X221557Y11429D01*
X201929Y31057D01*
X201929Y148391D01*
X201918Y148461D01*
X201916Y148533D01*
X201898Y148582D01*
X201890Y148633D01*
X201856Y148697D01*
X201831Y148764D01*
X201799Y148805D01*
X201774Y148851D01*
X201723Y148900D01*
X201678Y148956D01*
X201634Y148984D01*
X201596Y149020D01*
X201531Y149050D01*
X201471Y149089D01*
X201420Y149102D01*
X201373Y149124D01*
X201302Y149132D01*
X201232Y149149D01*
X201180Y149145D01*
X201129Y149151D01*
X201058Y149136D01*
X200987Y149130D01*
X200939Y149110D01*
X200888Y149099D01*
X200827Y149062D01*
X200761Y149034D01*
X200705Y148989D01*
X200677Y148972D01*
X200662Y148955D01*
X200630Y148929D01*
X200577Y148855D01*
X200517Y148785D01*
X200505Y148755D01*
X200486Y148729D01*
X200459Y148642D01*
X200425Y148557D01*
X200421Y148516D01*
X200414Y148494D01*
X200415Y148462D01*
X200407Y148391D01*
X200407Y104209D01*
X110675Y14477D01*
X82034Y14477D01*
X81964Y14466D01*
X81892Y14464D01*
X81843Y14446D01*
X81792Y14438D01*
X81728Y14404D01*
X81661Y14379D01*
X81620Y14347D01*
X81574Y14322D01*
X81525Y14270D01*
X81469Y14226D01*
X81441Y14182D01*
X81405Y14144D01*
X81375Y14079D01*
X81336Y14019D01*
X81323Y13968D01*
X81301Y13921D01*
X81293Y13850D01*
X81276Y13780D01*
X81280Y13728D01*
X81274Y13677D01*
X81289Y13606D01*
X81295Y13535D01*
X81315Y13487D01*
X81326Y13436D01*
X81363Y13375D01*
X81391Y13309D01*
X81436Y13253D01*
X81453Y13225D01*
X81470Y13210D01*
X81496Y13178D01*
X84544Y10130D01*
X84618Y10077D01*
X84688Y10017D01*
X84718Y10005D01*
X84744Y9986D01*
X84831Y9959D01*
X84916Y9925D01*
X84957Y9921D01*
X84979Y9914D01*
X85011Y9915D01*
X85083Y9907D01*
X273359Y9907D01*
X273428Y9918D01*
G37*
G36*
X117234Y241558D02*
X117234Y241558D01*
X117253Y241556D01*
X117355Y241578D01*
X117457Y241594D01*
X117474Y241604D01*
X117494Y241608D01*
X117583Y241661D01*
X117674Y241710D01*
X117688Y241724D01*
X117705Y241734D01*
X117772Y241813D01*
X117844Y241888D01*
X117852Y241906D01*
X117865Y241921D01*
X117904Y242017D01*
X117947Y242111D01*
X117949Y242131D01*
X117957Y242149D01*
X117975Y242316D01*
X117975Y246832D01*
X118107Y246964D01*
X118175Y247058D01*
X118247Y247156D01*
X118249Y247160D01*
X118251Y247163D01*
X118286Y247277D01*
X118322Y247390D01*
X118322Y247395D01*
X118323Y247398D01*
X118320Y247517D01*
X118318Y247636D01*
X118317Y247640D01*
X118317Y247644D01*
X118276Y247755D01*
X118237Y247868D01*
X118234Y247871D01*
X118233Y247875D01*
X118158Y247968D01*
X118085Y248062D01*
X118081Y248065D01*
X118079Y248067D01*
X118067Y248075D01*
X117950Y248161D01*
X117940Y248167D01*
X117467Y248640D01*
X117132Y249219D01*
X116959Y249866D01*
X116959Y255677D01*
X126238Y255677D01*
X126258Y255680D01*
X126277Y255678D01*
X126379Y255700D01*
X126481Y255717D01*
X126498Y255726D01*
X126518Y255730D01*
X126607Y255783D01*
X126698Y255832D01*
X126712Y255846D01*
X126729Y255856D01*
X126796Y255935D01*
X126867Y256010D01*
X126876Y256028D01*
X126889Y256043D01*
X126928Y256139D01*
X126971Y256233D01*
X126973Y256253D01*
X126981Y256271D01*
X126999Y256438D01*
X126999Y257201D01*
X127001Y257201D01*
X127001Y256438D01*
X127004Y256418D01*
X127002Y256399D01*
X127024Y256297D01*
X127041Y256195D01*
X127050Y256178D01*
X127054Y256158D01*
X127107Y256069D01*
X127156Y255978D01*
X127170Y255964D01*
X127180Y255947D01*
X127259Y255880D01*
X127334Y255809D01*
X127352Y255800D01*
X127367Y255787D01*
X127463Y255748D01*
X127557Y255705D01*
X127577Y255703D01*
X127595Y255695D01*
X127762Y255677D01*
X137160Y255677D01*
X137180Y255680D01*
X137199Y255678D01*
X137301Y255700D01*
X137403Y255717D01*
X137420Y255726D01*
X137440Y255730D01*
X137529Y255783D01*
X137620Y255832D01*
X137634Y255846D01*
X137651Y255856D01*
X137718Y255935D01*
X137790Y256010D01*
X137798Y256028D01*
X137811Y256043D01*
X137850Y256139D01*
X137893Y256233D01*
X137895Y256253D01*
X137903Y256271D01*
X137921Y256438D01*
X137921Y257962D01*
X137920Y257971D01*
X137920Y257975D01*
X137918Y257984D01*
X137920Y258001D01*
X137898Y258103D01*
X137882Y258205D01*
X137872Y258222D01*
X137868Y258242D01*
X137815Y258331D01*
X137766Y258422D01*
X137752Y258436D01*
X137742Y258453D01*
X137663Y258520D01*
X137588Y258591D01*
X137570Y258600D01*
X137555Y258613D01*
X137459Y258652D01*
X137365Y258695D01*
X137345Y258697D01*
X137327Y258705D01*
X137160Y258723D01*
X128523Y258723D01*
X128523Y273677D01*
X137160Y273677D01*
X137180Y273680D01*
X137199Y273678D01*
X137301Y273700D01*
X137403Y273717D01*
X137420Y273726D01*
X137440Y273730D01*
X137529Y273783D01*
X137620Y273832D01*
X137634Y273846D01*
X137651Y273856D01*
X137718Y273935D01*
X137790Y274010D01*
X137798Y274028D01*
X137811Y274043D01*
X137850Y274139D01*
X137893Y274233D01*
X137895Y274253D01*
X137903Y274271D01*
X137921Y274438D01*
X137921Y275962D01*
X137918Y275982D01*
X137920Y276001D01*
X137898Y276103D01*
X137882Y276205D01*
X137872Y276222D01*
X137868Y276242D01*
X137815Y276331D01*
X137766Y276422D01*
X137752Y276436D01*
X137742Y276453D01*
X137663Y276520D01*
X137588Y276591D01*
X137570Y276600D01*
X137555Y276613D01*
X137459Y276652D01*
X137365Y276695D01*
X137345Y276697D01*
X137327Y276705D01*
X137160Y276723D01*
X127762Y276723D01*
X127742Y276720D01*
X127723Y276722D01*
X127621Y276700D01*
X127519Y276683D01*
X127502Y276674D01*
X127482Y276670D01*
X127393Y276617D01*
X127302Y276568D01*
X127288Y276554D01*
X127271Y276544D01*
X127204Y276465D01*
X127133Y276390D01*
X127124Y276372D01*
X127111Y276357D01*
X127072Y276261D01*
X127029Y276167D01*
X127027Y276147D01*
X127019Y276129D01*
X127001Y275962D01*
X127001Y275199D01*
X126999Y275199D01*
X126999Y275962D01*
X126996Y275982D01*
X126998Y276001D01*
X126976Y276103D01*
X126959Y276205D01*
X126950Y276222D01*
X126946Y276242D01*
X126893Y276331D01*
X126844Y276422D01*
X126830Y276436D01*
X126820Y276453D01*
X126741Y276520D01*
X126666Y276591D01*
X126648Y276600D01*
X126633Y276613D01*
X126537Y276652D01*
X126443Y276695D01*
X126423Y276697D01*
X126405Y276705D01*
X126238Y276723D01*
X116959Y276723D01*
X116959Y282534D01*
X117132Y283181D01*
X117467Y283760D01*
X117940Y284233D01*
X117950Y284239D01*
X118041Y284314D01*
X118135Y284388D01*
X118137Y284392D01*
X118140Y284395D01*
X118203Y284494D01*
X118268Y284595D01*
X118269Y284599D01*
X118271Y284603D01*
X118299Y284718D01*
X118328Y284834D01*
X118327Y284838D01*
X118328Y284842D01*
X118318Y284959D01*
X118309Y285079D01*
X118307Y285083D01*
X118307Y285087D01*
X118259Y285195D01*
X118212Y285305D01*
X118209Y285309D01*
X118208Y285312D01*
X118199Y285322D01*
X118107Y285436D01*
X117975Y285568D01*
X117975Y300832D01*
X118107Y300964D01*
X118176Y301059D01*
X118247Y301156D01*
X118249Y301160D01*
X118251Y301163D01*
X118286Y301277D01*
X118322Y301390D01*
X118322Y301395D01*
X118323Y301398D01*
X118320Y301517D01*
X118318Y301636D01*
X118317Y301640D01*
X118317Y301644D01*
X118277Y301755D01*
X118237Y301868D01*
X118234Y301871D01*
X118233Y301875D01*
X118158Y301968D01*
X118085Y302062D01*
X118081Y302065D01*
X118079Y302067D01*
X118067Y302075D01*
X117950Y302161D01*
X117940Y302167D01*
X117467Y302640D01*
X117132Y303219D01*
X116959Y303866D01*
X116959Y309677D01*
X126238Y309677D01*
X126258Y309680D01*
X126277Y309678D01*
X126379Y309700D01*
X126481Y309717D01*
X126498Y309726D01*
X126518Y309730D01*
X126607Y309783D01*
X126698Y309832D01*
X126712Y309846D01*
X126729Y309856D01*
X126796Y309935D01*
X126867Y310010D01*
X126876Y310028D01*
X126889Y310043D01*
X126928Y310139D01*
X126971Y310233D01*
X126973Y310253D01*
X126981Y310271D01*
X126999Y310438D01*
X126999Y311962D01*
X126996Y311982D01*
X126998Y312001D01*
X126976Y312103D01*
X126959Y312205D01*
X126950Y312222D01*
X126946Y312242D01*
X126893Y312331D01*
X126844Y312422D01*
X126830Y312436D01*
X126820Y312453D01*
X126741Y312520D01*
X126666Y312591D01*
X126648Y312600D01*
X126633Y312613D01*
X126537Y312652D01*
X126443Y312695D01*
X126423Y312697D01*
X126405Y312705D01*
X126238Y312723D01*
X116959Y312723D01*
X116959Y318534D01*
X117132Y319181D01*
X117467Y319760D01*
X117940Y320233D01*
X117950Y320239D01*
X118041Y320314D01*
X118135Y320388D01*
X118137Y320392D01*
X118140Y320395D01*
X118203Y320494D01*
X118268Y320595D01*
X118269Y320599D01*
X118271Y320603D01*
X118299Y320718D01*
X118328Y320834D01*
X118327Y320838D01*
X118328Y320842D01*
X118318Y320959D01*
X118309Y321079D01*
X118307Y321083D01*
X118307Y321087D01*
X118259Y321195D01*
X118212Y321305D01*
X118209Y321309D01*
X118208Y321312D01*
X118199Y321322D01*
X118107Y321436D01*
X117975Y321568D01*
X117975Y326136D01*
X117972Y326156D01*
X117974Y326175D01*
X117952Y326277D01*
X117936Y326379D01*
X117926Y326396D01*
X117922Y326416D01*
X117869Y326505D01*
X117820Y326596D01*
X117806Y326610D01*
X117796Y326627D01*
X117717Y326694D01*
X117642Y326766D01*
X117624Y326774D01*
X117609Y326787D01*
X117513Y326826D01*
X117419Y326869D01*
X117399Y326871D01*
X117381Y326879D01*
X117214Y326897D01*
X113538Y326897D01*
X113518Y326894D01*
X113499Y326896D01*
X113397Y326874D01*
X113295Y326858D01*
X113278Y326848D01*
X113258Y326844D01*
X113169Y326791D01*
X113078Y326742D01*
X113064Y326728D01*
X113047Y326718D01*
X112980Y326639D01*
X112908Y326564D01*
X112900Y326546D01*
X112887Y326531D01*
X112848Y326435D01*
X112805Y326341D01*
X112803Y326321D01*
X112795Y326303D01*
X112777Y326136D01*
X112777Y242316D01*
X112780Y242296D01*
X112778Y242277D01*
X112800Y242175D01*
X112816Y242073D01*
X112826Y242056D01*
X112830Y242036D01*
X112883Y241947D01*
X112932Y241856D01*
X112946Y241842D01*
X112956Y241825D01*
X113035Y241758D01*
X113110Y241686D01*
X113128Y241678D01*
X113143Y241665D01*
X113239Y241626D01*
X113333Y241583D01*
X113353Y241581D01*
X113371Y241573D01*
X113538Y241555D01*
X117214Y241555D01*
X117234Y241558D01*
G37*
%LPC*%
G36*
X19468Y117275D02*
X19468Y117275D01*
X18575Y118168D01*
X18575Y129432D01*
X19468Y130325D01*
X22860Y130325D01*
X22880Y130328D01*
X22899Y130326D01*
X23001Y130348D01*
X23103Y130364D01*
X23120Y130374D01*
X23140Y130378D01*
X23229Y130431D01*
X23320Y130480D01*
X23334Y130494D01*
X23351Y130504D01*
X23418Y130583D01*
X23490Y130658D01*
X23498Y130676D01*
X23511Y130691D01*
X23550Y130787D01*
X23593Y130881D01*
X23595Y130901D01*
X23603Y130919D01*
X23621Y131086D01*
X23621Y143114D01*
X23618Y143134D01*
X23620Y143153D01*
X23598Y143255D01*
X23582Y143357D01*
X23572Y143374D01*
X23568Y143394D01*
X23515Y143483D01*
X23466Y143574D01*
X23452Y143588D01*
X23442Y143605D01*
X23363Y143672D01*
X23288Y143744D01*
X23270Y143752D01*
X23255Y143765D01*
X23159Y143804D01*
X23065Y143847D01*
X23045Y143849D01*
X23027Y143857D01*
X22860Y143875D01*
X14468Y143875D01*
X13575Y144768D01*
X13575Y160032D01*
X14468Y160925D01*
X31732Y160925D01*
X32625Y160032D01*
X32625Y144768D01*
X31732Y143875D01*
X28956Y143875D01*
X28936Y143872D01*
X28917Y143874D01*
X28815Y143852D01*
X28713Y143836D01*
X28696Y143826D01*
X28676Y143822D01*
X28587Y143769D01*
X28496Y143720D01*
X28482Y143706D01*
X28465Y143696D01*
X28398Y143617D01*
X28326Y143542D01*
X28318Y143524D01*
X28305Y143509D01*
X28266Y143413D01*
X28223Y143319D01*
X28221Y143299D01*
X28213Y143281D01*
X28195Y143114D01*
X28195Y132588D01*
X28198Y132568D01*
X28196Y132549D01*
X28218Y132447D01*
X28234Y132345D01*
X28244Y132328D01*
X28248Y132308D01*
X28301Y132219D01*
X28350Y132128D01*
X28364Y132114D01*
X28374Y132097D01*
X28453Y132030D01*
X28528Y131958D01*
X28546Y131950D01*
X28561Y131937D01*
X28657Y131898D01*
X28751Y131855D01*
X28771Y131853D01*
X28789Y131845D01*
X28956Y131827D01*
X34091Y131827D01*
X34181Y131841D01*
X34272Y131849D01*
X34301Y131861D01*
X34333Y131866D01*
X34414Y131909D01*
X34498Y131945D01*
X34530Y131971D01*
X34551Y131982D01*
X34573Y132005D01*
X34629Y132050D01*
X37426Y134847D01*
X41822Y134847D01*
X44931Y131738D01*
X44931Y127342D01*
X41822Y124233D01*
X37426Y124233D01*
X36924Y124735D01*
X36866Y124777D01*
X36814Y124826D01*
X36767Y124848D01*
X36725Y124878D01*
X36656Y124900D01*
X36591Y124930D01*
X36539Y124935D01*
X36489Y124951D01*
X36418Y124949D01*
X36347Y124957D01*
X36296Y124946D01*
X36244Y124944D01*
X36176Y124920D01*
X36106Y124905D01*
X36061Y124878D01*
X36013Y124860D01*
X35957Y124815D01*
X35895Y124778D01*
X35861Y124739D01*
X35821Y124706D01*
X35782Y124646D01*
X35735Y124591D01*
X35716Y124543D01*
X35688Y124499D01*
X35670Y124430D01*
X35643Y124363D01*
X35635Y124292D01*
X35627Y124261D01*
X35629Y124238D01*
X35625Y124197D01*
X35625Y118168D01*
X34732Y117275D01*
X19468Y117275D01*
G37*
%LPD*%
%LPC*%
G36*
X218559Y45923D02*
X218559Y45923D01*
X218559Y51734D01*
X218732Y52381D01*
X219067Y52960D01*
X219540Y53433D01*
X219550Y53439D01*
X219642Y53514D01*
X219735Y53588D01*
X219737Y53592D01*
X219740Y53594D01*
X219803Y53695D01*
X219868Y53795D01*
X219869Y53799D01*
X219871Y53803D01*
X219899Y53919D01*
X219928Y54034D01*
X219927Y54038D01*
X219928Y54042D01*
X219918Y54162D01*
X219909Y54279D01*
X219907Y54283D01*
X219907Y54287D01*
X219858Y54397D01*
X219812Y54505D01*
X219809Y54509D01*
X219808Y54512D01*
X219799Y54522D01*
X219707Y54636D01*
X219575Y54768D01*
X219575Y70032D01*
X219707Y70164D01*
X219755Y70229D01*
X219764Y70240D01*
X219769Y70249D01*
X219776Y70259D01*
X219847Y70356D01*
X219849Y70360D01*
X219851Y70363D01*
X219886Y70477D01*
X219922Y70590D01*
X219922Y70595D01*
X219923Y70598D01*
X219920Y70717D01*
X219918Y70836D01*
X219917Y70840D01*
X219917Y70844D01*
X219876Y70955D01*
X219837Y71068D01*
X219834Y71071D01*
X219833Y71075D01*
X219758Y71168D01*
X219685Y71262D01*
X219681Y71265D01*
X219679Y71267D01*
X219667Y71275D01*
X219550Y71361D01*
X219540Y71367D01*
X219067Y71840D01*
X218732Y72419D01*
X218559Y73066D01*
X218559Y78877D01*
X227838Y78877D01*
X227858Y78880D01*
X227877Y78878D01*
X227979Y78900D01*
X228081Y78917D01*
X228098Y78926D01*
X228118Y78930D01*
X228207Y78983D01*
X228298Y79032D01*
X228312Y79046D01*
X228329Y79056D01*
X228396Y79135D01*
X228467Y79210D01*
X228476Y79228D01*
X228489Y79243D01*
X228528Y79339D01*
X228571Y79433D01*
X228573Y79453D01*
X228581Y79471D01*
X228599Y79638D01*
X228599Y80401D01*
X228601Y80401D01*
X228601Y79638D01*
X228604Y79618D01*
X228602Y79599D01*
X228624Y79497D01*
X228641Y79395D01*
X228650Y79378D01*
X228654Y79358D01*
X228707Y79269D01*
X228756Y79178D01*
X228770Y79164D01*
X228780Y79147D01*
X228859Y79080D01*
X228934Y79009D01*
X228952Y79000D01*
X228967Y78987D01*
X229063Y78948D01*
X229157Y78905D01*
X229177Y78903D01*
X229195Y78895D01*
X229362Y78877D01*
X238641Y78877D01*
X238641Y73066D01*
X238468Y72419D01*
X238133Y71840D01*
X237660Y71367D01*
X237650Y71361D01*
X237559Y71286D01*
X237465Y71212D01*
X237463Y71208D01*
X237460Y71205D01*
X237397Y71106D01*
X237332Y71005D01*
X237331Y71001D01*
X237329Y70997D01*
X237301Y70882D01*
X237272Y70766D01*
X237273Y70762D01*
X237272Y70758D01*
X237282Y70639D01*
X237291Y70521D01*
X237293Y70517D01*
X237293Y70513D01*
X237341Y70405D01*
X237388Y70295D01*
X237391Y70291D01*
X237392Y70288D01*
X237401Y70278D01*
X237493Y70164D01*
X237625Y70032D01*
X237625Y54768D01*
X237493Y54636D01*
X237424Y54541D01*
X237353Y54444D01*
X237351Y54440D01*
X237349Y54437D01*
X237314Y54323D01*
X237278Y54210D01*
X237278Y54205D01*
X237277Y54202D01*
X237280Y54082D01*
X237282Y53964D01*
X237283Y53960D01*
X237283Y53956D01*
X237324Y53845D01*
X237363Y53732D01*
X237366Y53729D01*
X237367Y53725D01*
X237442Y53632D01*
X237515Y53538D01*
X237519Y53535D01*
X237521Y53533D01*
X237533Y53525D01*
X237650Y53439D01*
X237660Y53433D01*
X238133Y52960D01*
X238468Y52381D01*
X238641Y51734D01*
X238641Y45923D01*
X230123Y45923D01*
X230123Y53114D01*
X230120Y53134D01*
X230122Y53153D01*
X230100Y53255D01*
X230083Y53357D01*
X230074Y53374D01*
X230070Y53394D01*
X230017Y53483D01*
X229968Y53574D01*
X229954Y53588D01*
X229944Y53605D01*
X229865Y53672D01*
X229790Y53744D01*
X229772Y53752D01*
X229757Y53765D01*
X229661Y53804D01*
X229567Y53847D01*
X229547Y53849D01*
X229529Y53857D01*
X229362Y53875D01*
X227838Y53875D01*
X227818Y53872D01*
X227799Y53874D01*
X227697Y53852D01*
X227595Y53836D01*
X227578Y53826D01*
X227558Y53822D01*
X227469Y53769D01*
X227378Y53720D01*
X227364Y53706D01*
X227347Y53696D01*
X227280Y53617D01*
X227209Y53542D01*
X227200Y53524D01*
X227187Y53509D01*
X227148Y53413D01*
X227105Y53319D01*
X227103Y53299D01*
X227095Y53281D01*
X227077Y53114D01*
X227077Y45923D01*
X218559Y45923D01*
G37*
%LPD*%
%LPC*%
G36*
X64043Y222848D02*
X64043Y222848D01*
X64043Y231166D01*
X77729Y231166D01*
X78376Y230993D01*
X78955Y230658D01*
X79428Y230185D01*
X79763Y229606D01*
X79936Y228959D01*
X79936Y222848D01*
X64043Y222848D01*
G37*
%LPD*%
%LPC*%
G36*
X275379Y172048D02*
X275379Y172048D01*
X275379Y178159D01*
X275552Y178806D01*
X275887Y179385D01*
X276360Y179858D01*
X276939Y180193D01*
X277586Y180366D01*
X291272Y180366D01*
X291272Y172048D01*
X275379Y172048D01*
G37*
%LPD*%
%LPC*%
G36*
X64168Y175234D02*
X64168Y175234D01*
X64168Y183552D01*
X80061Y183552D01*
X80061Y177441D01*
X79888Y176794D01*
X79553Y176215D01*
X79080Y175742D01*
X78501Y175407D01*
X77854Y175234D01*
X64168Y175234D01*
G37*
%LPD*%
%LPC*%
G36*
X277711Y124434D02*
X277711Y124434D01*
X277064Y124607D01*
X276485Y124942D01*
X276012Y125415D01*
X275677Y125994D01*
X275504Y126641D01*
X275504Y132752D01*
X291397Y132752D01*
X291397Y124434D01*
X277711Y124434D01*
G37*
%LPD*%
%LPC*%
G36*
X230123Y81923D02*
X230123Y81923D01*
X230123Y96877D01*
X238641Y96877D01*
X238641Y91066D01*
X238468Y90419D01*
X238099Y89781D01*
X238075Y89717D01*
X238042Y89658D01*
X238032Y89603D01*
X238012Y89551D01*
X238009Y89483D01*
X237997Y89417D01*
X238005Y89361D01*
X238003Y89305D01*
X238022Y89240D01*
X238031Y89173D01*
X238063Y89100D01*
X238073Y89069D01*
X238085Y89052D01*
X238099Y89019D01*
X238468Y88381D01*
X238641Y87734D01*
X238641Y81923D01*
X230123Y81923D01*
G37*
%LPD*%
%LPC*%
G36*
X116959Y258723D02*
X116959Y258723D01*
X116959Y264534D01*
X117132Y265181D01*
X117501Y265819D01*
X117525Y265883D01*
X117558Y265942D01*
X117568Y265997D01*
X117588Y266049D01*
X117591Y266117D01*
X117603Y266183D01*
X117595Y266239D01*
X117597Y266295D01*
X117578Y266360D01*
X117569Y266427D01*
X117537Y266500D01*
X117527Y266531D01*
X117515Y266548D01*
X117501Y266581D01*
X117132Y267219D01*
X116959Y267866D01*
X116959Y273677D01*
X125477Y273677D01*
X125477Y258723D01*
X116959Y258723D01*
G37*
%LPD*%
%LPC*%
G36*
X218559Y81923D02*
X218559Y81923D01*
X218559Y87734D01*
X218732Y88381D01*
X219101Y89019D01*
X219125Y89083D01*
X219158Y89142D01*
X219168Y89197D01*
X219188Y89249D01*
X219191Y89317D01*
X219203Y89383D01*
X219195Y89439D01*
X219197Y89495D01*
X219178Y89560D01*
X219169Y89627D01*
X219137Y89700D01*
X219127Y89731D01*
X219115Y89748D01*
X219101Y89781D01*
X218732Y90419D01*
X218559Y91066D01*
X218559Y96877D01*
X227077Y96877D01*
X227077Y81923D01*
X218559Y81923D01*
G37*
%LPD*%
%LPC*%
G36*
X331723Y284823D02*
X331723Y284823D01*
X331723Y293841D01*
X340034Y293841D01*
X340681Y293668D01*
X341260Y293333D01*
X341733Y292860D01*
X342068Y292281D01*
X342241Y291634D01*
X342241Y284823D01*
X331723Y284823D01*
G37*
%LPD*%
%LPC*%
G36*
X331723Y200823D02*
X331723Y200823D01*
X331723Y209841D01*
X340034Y209841D01*
X340681Y209668D01*
X341260Y209333D01*
X341733Y208860D01*
X342068Y208281D01*
X342241Y207634D01*
X342241Y200823D01*
X331723Y200823D01*
G37*
%LPD*%
%LPC*%
G36*
X331723Y197777D02*
X331723Y197777D01*
X342241Y197777D01*
X342241Y190966D01*
X342068Y190319D01*
X341733Y189740D01*
X341260Y189267D01*
X340681Y188932D01*
X340034Y188759D01*
X331723Y188759D01*
X331723Y197777D01*
G37*
%LPD*%
%LPC*%
G36*
X318159Y284823D02*
X318159Y284823D01*
X318159Y291634D01*
X318332Y292281D01*
X318667Y292860D01*
X319140Y293333D01*
X319719Y293668D01*
X320366Y293841D01*
X328677Y293841D01*
X328677Y284823D01*
X318159Y284823D01*
G37*
%LPD*%
%LPC*%
G36*
X320366Y188759D02*
X320366Y188759D01*
X319719Y188932D01*
X319140Y189267D01*
X318667Y189740D01*
X318332Y190319D01*
X318159Y190966D01*
X318159Y197777D01*
X328677Y197777D01*
X328677Y188759D01*
X320366Y188759D01*
G37*
%LPD*%
%LPC*%
G36*
X320366Y272759D02*
X320366Y272759D01*
X319719Y272932D01*
X319140Y273267D01*
X318667Y273740D01*
X318332Y274319D01*
X318159Y274966D01*
X318159Y281777D01*
X328677Y281777D01*
X328677Y272759D01*
X320366Y272759D01*
G37*
%LPD*%
G36*
X286594Y245552D02*
X286594Y245552D01*
X286665Y245558D01*
X286713Y245578D01*
X286764Y245589D01*
X286825Y245626D01*
X286891Y245654D01*
X286947Y245699D01*
X286975Y245716D01*
X286990Y245733D01*
X287022Y245759D01*
X288886Y247623D01*
X293282Y247623D01*
X293876Y247029D01*
X293934Y246987D01*
X293986Y246938D01*
X294033Y246916D01*
X294075Y246886D01*
X294144Y246864D01*
X294209Y246834D01*
X294261Y246829D01*
X294311Y246813D01*
X294382Y246815D01*
X294453Y246807D01*
X294504Y246818D01*
X294556Y246820D01*
X294624Y246844D01*
X294694Y246859D01*
X294739Y246886D01*
X294787Y246904D01*
X294843Y246949D01*
X294905Y246986D01*
X294939Y247025D01*
X294979Y247058D01*
X295018Y247118D01*
X295065Y247173D01*
X295084Y247221D01*
X295112Y247265D01*
X295130Y247334D01*
X295157Y247401D01*
X295165Y247472D01*
X295173Y247503D01*
X295171Y247526D01*
X295175Y247567D01*
X295175Y249916D01*
X295161Y250006D01*
X295153Y250097D01*
X295141Y250127D01*
X295136Y250159D01*
X295093Y250240D01*
X295057Y250324D01*
X295031Y250356D01*
X295020Y250376D01*
X294997Y250399D01*
X294952Y250455D01*
X294667Y250740D01*
X294332Y251319D01*
X294159Y251966D01*
X294159Y253301D01*
X303212Y253301D01*
X303231Y253304D01*
X303251Y253302D01*
X303353Y253324D01*
X303455Y253340D01*
X303472Y253350D01*
X303492Y253354D01*
X303581Y253407D01*
X303672Y253456D01*
X303686Y253470D01*
X303703Y253480D01*
X303770Y253559D01*
X303841Y253634D01*
X303850Y253652D01*
X303863Y253667D01*
X303901Y253763D01*
X303945Y253857D01*
X303947Y253877D01*
X303955Y253895D01*
X303973Y254062D01*
X303973Y254538D01*
X303970Y254558D01*
X303972Y254577D01*
X303950Y254679D01*
X303933Y254781D01*
X303924Y254798D01*
X303920Y254818D01*
X303867Y254907D01*
X303818Y254998D01*
X303804Y255012D01*
X303794Y255029D01*
X303715Y255096D01*
X303640Y255168D01*
X303622Y255176D01*
X303607Y255189D01*
X303510Y255228D01*
X303417Y255271D01*
X303397Y255273D01*
X303379Y255281D01*
X303212Y255299D01*
X294159Y255299D01*
X294159Y256032D01*
X294156Y256052D01*
X294158Y256071D01*
X294136Y256173D01*
X294120Y256275D01*
X294110Y256292D01*
X294106Y256312D01*
X294053Y256401D01*
X294004Y256492D01*
X293990Y256506D01*
X293980Y256523D01*
X293901Y256590D01*
X293826Y256662D01*
X293808Y256670D01*
X293793Y256683D01*
X293697Y256722D01*
X293603Y256765D01*
X293583Y256767D01*
X293565Y256775D01*
X293398Y256793D01*
X292347Y256793D01*
X292256Y256779D01*
X292166Y256771D01*
X292136Y256759D01*
X292104Y256754D01*
X292023Y256711D01*
X291939Y256675D01*
X291907Y256649D01*
X291886Y256638D01*
X291864Y256615D01*
X291808Y256570D01*
X285946Y250708D01*
X285893Y250634D01*
X285833Y250564D01*
X285821Y250534D01*
X285802Y250508D01*
X285775Y250421D01*
X285741Y250336D01*
X285737Y250295D01*
X285730Y250273D01*
X285731Y250241D01*
X285723Y250170D01*
X285723Y246297D01*
X285734Y246227D01*
X285736Y246155D01*
X285754Y246106D01*
X285762Y246055D01*
X285796Y245991D01*
X285821Y245924D01*
X285853Y245883D01*
X285878Y245837D01*
X285930Y245788D01*
X285974Y245732D01*
X286018Y245704D01*
X286056Y245668D01*
X286121Y245638D01*
X286181Y245599D01*
X286232Y245586D01*
X286279Y245564D01*
X286350Y245556D01*
X286420Y245539D01*
X286472Y245543D01*
X286523Y245537D01*
X286594Y245552D01*
G37*
%LPC*%
G36*
X24623Y77723D02*
X24623Y77723D01*
X24623Y85741D01*
X31434Y85741D01*
X32081Y85568D01*
X32660Y85233D01*
X33133Y84760D01*
X33468Y84181D01*
X33641Y83534D01*
X33641Y77723D01*
X24623Y77723D01*
G37*
%LPD*%
%LPC*%
G36*
X54623Y153923D02*
X54623Y153923D01*
X54623Y161941D01*
X61434Y161941D01*
X62081Y161768D01*
X62660Y161433D01*
X63133Y160960D01*
X63468Y160381D01*
X63641Y159734D01*
X63641Y153923D01*
X54623Y153923D01*
G37*
%LPD*%
%LPC*%
G36*
X12559Y77723D02*
X12559Y77723D01*
X12559Y83534D01*
X12732Y84181D01*
X13067Y84760D01*
X13540Y85233D01*
X14119Y85568D01*
X14766Y85741D01*
X21577Y85741D01*
X21577Y77723D01*
X12559Y77723D01*
G37*
%LPD*%
%LPC*%
G36*
X42559Y153923D02*
X42559Y153923D01*
X42559Y159734D01*
X42732Y160381D01*
X43067Y160960D01*
X43540Y161433D01*
X44119Y161768D01*
X44766Y161941D01*
X51577Y161941D01*
X51577Y153923D01*
X42559Y153923D01*
G37*
%LPD*%
%LPC*%
G36*
X24623Y66659D02*
X24623Y66659D01*
X24623Y74677D01*
X33641Y74677D01*
X33641Y68865D01*
X33468Y68219D01*
X33133Y67640D01*
X32660Y67167D01*
X32081Y66832D01*
X31434Y66659D01*
X24623Y66659D01*
G37*
%LPD*%
%LPC*%
G36*
X282559Y54623D02*
X282559Y54623D01*
X282559Y61434D01*
X282732Y62081D01*
X283067Y62660D01*
X283540Y63133D01*
X284119Y63468D01*
X284766Y63641D01*
X290577Y63641D01*
X290577Y54623D01*
X282559Y54623D01*
G37*
%LPD*%
%LPC*%
G36*
X53959Y304023D02*
X53959Y304023D01*
X53959Y310834D01*
X54132Y311481D01*
X54467Y312060D01*
X54940Y312533D01*
X55519Y312868D01*
X56166Y313041D01*
X61977Y313041D01*
X61977Y304023D01*
X53959Y304023D01*
G37*
%LPD*%
%LPC*%
G36*
X54623Y142859D02*
X54623Y142859D01*
X54623Y150877D01*
X63641Y150877D01*
X63641Y145066D01*
X63468Y144419D01*
X63133Y143840D01*
X62660Y143367D01*
X62081Y143032D01*
X61434Y142859D01*
X54623Y142859D01*
G37*
%LPD*%
%LPC*%
G36*
X14766Y66659D02*
X14766Y66659D01*
X14119Y66832D01*
X13540Y67167D01*
X13067Y67640D01*
X12732Y68219D01*
X12559Y68865D01*
X12559Y74677D01*
X21577Y74677D01*
X21577Y66659D01*
X14766Y66659D01*
G37*
%LPD*%
%LPC*%
G36*
X56166Y291959D02*
X56166Y291959D01*
X55519Y292132D01*
X54940Y292467D01*
X54467Y292940D01*
X54132Y293519D01*
X53959Y294166D01*
X53959Y300977D01*
X61977Y300977D01*
X61977Y291959D01*
X56166Y291959D01*
G37*
%LPD*%
%LPC*%
G36*
X44766Y142859D02*
X44766Y142859D01*
X44119Y143032D01*
X43540Y143367D01*
X43067Y143840D01*
X42732Y144419D01*
X42559Y145066D01*
X42559Y150877D01*
X51577Y150877D01*
X51577Y142859D01*
X44766Y142859D01*
G37*
%LPD*%
%LPC*%
G36*
X284766Y42559D02*
X284766Y42559D01*
X284119Y42732D01*
X283540Y43067D01*
X283067Y43540D01*
X282732Y44119D01*
X282559Y44766D01*
X282559Y51577D01*
X290577Y51577D01*
X290577Y42559D01*
X284766Y42559D01*
G37*
%LPD*%
%LPC*%
G36*
X28623Y106323D02*
X28623Y106323D01*
X28623Y112341D01*
X34434Y112341D01*
X35081Y112168D01*
X35660Y111833D01*
X36133Y111360D01*
X36468Y110781D01*
X36641Y110134D01*
X36641Y106323D01*
X28623Y106323D01*
G37*
%LPD*%
%LPC*%
G36*
X66723Y258723D02*
X66723Y258723D01*
X66723Y264741D01*
X72534Y264741D01*
X73181Y264568D01*
X73760Y264233D01*
X74233Y263760D01*
X74568Y263181D01*
X74741Y262534D01*
X74741Y258723D01*
X66723Y258723D01*
G37*
%LPD*%
%LPC*%
G36*
X291923Y99923D02*
X291923Y99923D01*
X291923Y105941D01*
X297734Y105941D01*
X298381Y105768D01*
X298960Y105433D01*
X299433Y104960D01*
X299768Y104381D01*
X299941Y103734D01*
X299941Y99923D01*
X291923Y99923D01*
G37*
%LPD*%
%LPC*%
G36*
X17559Y106323D02*
X17559Y106323D01*
X17559Y110134D01*
X17732Y110781D01*
X18067Y111360D01*
X18540Y111833D01*
X19119Y112168D01*
X19766Y112341D01*
X25577Y112341D01*
X25577Y106323D01*
X17559Y106323D01*
G37*
%LPD*%
%LPC*%
G36*
X55659Y258723D02*
X55659Y258723D01*
X55659Y262534D01*
X55832Y263181D01*
X56167Y263760D01*
X56640Y264233D01*
X57219Y264568D01*
X57866Y264741D01*
X63677Y264741D01*
X63677Y258723D01*
X55659Y258723D01*
G37*
%LPD*%
%LPC*%
G36*
X280859Y99923D02*
X280859Y99923D01*
X280859Y103734D01*
X281032Y104381D01*
X281367Y104960D01*
X281840Y105433D01*
X282419Y105768D01*
X283066Y105941D01*
X288877Y105941D01*
X288877Y99923D01*
X280859Y99923D01*
G37*
%LPD*%
%LPC*%
G36*
X66723Y249659D02*
X66723Y249659D01*
X66723Y255677D01*
X74741Y255677D01*
X74741Y251866D01*
X74568Y251219D01*
X74233Y250640D01*
X73760Y250167D01*
X73181Y249832D01*
X72534Y249659D01*
X66723Y249659D01*
G37*
%LPD*%
%LPC*%
G36*
X28623Y97259D02*
X28623Y97259D01*
X28623Y103277D01*
X36641Y103277D01*
X36641Y99466D01*
X36468Y98819D01*
X36133Y98240D01*
X35660Y97767D01*
X35081Y97432D01*
X34434Y97259D01*
X28623Y97259D01*
G37*
%LPD*%
%LPC*%
G36*
X19766Y97259D02*
X19766Y97259D01*
X19119Y97432D01*
X18540Y97767D01*
X18067Y98240D01*
X17732Y98819D01*
X17559Y99466D01*
X17559Y103277D01*
X25577Y103277D01*
X25577Y97259D01*
X19766Y97259D01*
G37*
%LPD*%
%LPC*%
G36*
X57866Y249659D02*
X57866Y249659D01*
X57219Y249832D01*
X56640Y250167D01*
X56167Y250640D01*
X55832Y251219D01*
X55659Y251866D01*
X55659Y255677D01*
X63677Y255677D01*
X63677Y249659D01*
X57866Y249659D01*
G37*
%LPD*%
%LPC*%
G36*
X90423Y310523D02*
X90423Y310523D01*
X90423Y317041D01*
X94235Y317041D01*
X94881Y316868D01*
X95460Y316533D01*
X95933Y316060D01*
X96268Y315481D01*
X96441Y314834D01*
X96441Y310523D01*
X90423Y310523D01*
G37*
%LPD*%
%LPC*%
G36*
X268223Y48123D02*
X268223Y48123D01*
X268223Y54641D01*
X272035Y54641D01*
X272681Y54468D01*
X273260Y54133D01*
X273733Y53660D01*
X274068Y53081D01*
X274241Y52434D01*
X274241Y48123D01*
X268223Y48123D01*
G37*
%LPD*%
%LPC*%
G36*
X268223Y38559D02*
X268223Y38559D01*
X268223Y45077D01*
X274241Y45077D01*
X274241Y40766D01*
X274068Y40119D01*
X273733Y39540D01*
X273260Y39067D01*
X272681Y38732D01*
X272034Y38559D01*
X268223Y38559D01*
G37*
%LPD*%
%LPC*%
G36*
X90423Y300959D02*
X90423Y300959D01*
X90423Y307477D01*
X96441Y307477D01*
X96441Y303166D01*
X96268Y302519D01*
X95933Y301940D01*
X95460Y301467D01*
X94881Y301132D01*
X94234Y300959D01*
X90423Y300959D01*
G37*
%LPD*%
%LPC*%
G36*
X81359Y310523D02*
X81359Y310523D01*
X81359Y314834D01*
X81532Y315481D01*
X81867Y316060D01*
X82340Y316533D01*
X82919Y316868D01*
X83566Y317041D01*
X87377Y317041D01*
X87377Y310523D01*
X81359Y310523D01*
G37*
%LPD*%
%LPC*%
G36*
X259159Y48123D02*
X259159Y48123D01*
X259159Y52434D01*
X259332Y53081D01*
X259667Y53660D01*
X260140Y54133D01*
X260719Y54468D01*
X261366Y54641D01*
X265177Y54641D01*
X265177Y48123D01*
X259159Y48123D01*
G37*
%LPD*%
%LPC*%
G36*
X83566Y300959D02*
X83566Y300959D01*
X82919Y301132D01*
X82340Y301467D01*
X81867Y301940D01*
X81532Y302519D01*
X81359Y303166D01*
X81359Y307477D01*
X87377Y307477D01*
X87377Y300959D01*
X83566Y300959D01*
G37*
%LPD*%
%LPC*%
G36*
X261366Y38559D02*
X261366Y38559D01*
X260719Y38732D01*
X260140Y39067D01*
X259667Y39540D01*
X259332Y40119D01*
X259159Y40766D01*
X259159Y45077D01*
X265177Y45077D01*
X265177Y38559D01*
X261366Y38559D01*
G37*
%LPD*%
%LPC*%
G36*
X23099Y76199D02*
X23099Y76199D01*
X23099Y76201D01*
X23101Y76201D01*
X23101Y76199D01*
X23099Y76199D01*
G37*
%LPD*%
%LPC*%
G36*
X53099Y152399D02*
X53099Y152399D01*
X53099Y152401D01*
X53101Y152401D01*
X53101Y152399D01*
X53099Y152399D01*
G37*
%LPD*%
%LPC*%
G36*
X65199Y257199D02*
X65199Y257199D01*
X65199Y257201D01*
X65201Y257201D01*
X65201Y257199D01*
X65199Y257199D01*
G37*
%LPD*%
%LPC*%
G36*
X330199Y199299D02*
X330199Y199299D01*
X330199Y199301D01*
X330201Y199301D01*
X330201Y199299D01*
X330199Y199299D01*
G37*
%LPD*%
%LPC*%
G36*
X330199Y283299D02*
X330199Y283299D01*
X330199Y283301D01*
X330201Y283301D01*
X330201Y283299D01*
X330199Y283299D01*
G37*
%LPD*%
%LPC*%
G36*
X27099Y104799D02*
X27099Y104799D01*
X27099Y104801D01*
X27101Y104801D01*
X27101Y104799D01*
X27099Y104799D01*
G37*
%LPD*%
%LPC*%
G36*
X266699Y46599D02*
X266699Y46599D01*
X266699Y46601D01*
X266701Y46601D01*
X266701Y46599D01*
X266699Y46599D01*
G37*
%LPD*%
%LPC*%
G36*
X88899Y308999D02*
X88899Y308999D01*
X88899Y309001D01*
X88901Y309001D01*
X88901Y308999D01*
X88899Y308999D01*
G37*
%LPD*%
D10*
X228600Y152400D03*
X228600Y134400D03*
X228600Y116400D03*
X228600Y98400D03*
X228600Y80400D03*
X228600Y62400D03*
X228600Y44400D03*
X228600Y26400D03*
X88600Y26400D03*
X88600Y44400D03*
X88600Y62400D03*
X88600Y80400D03*
X88600Y98400D03*
X88600Y116400D03*
X88600Y134400D03*
X88600Y152400D03*
X127000Y203200D03*
X127000Y221200D03*
X127000Y239200D03*
X127000Y257200D03*
X127000Y275200D03*
X127000Y293200D03*
X127000Y311200D03*
X127000Y329200D03*
X267000Y329200D03*
X267000Y311200D03*
X267000Y293200D03*
X267000Y275200D03*
X267000Y257200D03*
X267000Y239200D03*
X267000Y221200D03*
X267000Y203200D03*
D11*
X292670Y152400D03*
D12*
X292920Y134275D03*
X292795Y170525D03*
D13*
X330670Y174025D03*
X330670Y130775D03*
D11*
X62770Y203200D03*
D12*
X62520Y221325D03*
X62645Y185075D03*
D13*
X24770Y181575D03*
X24770Y224825D03*
D14*
X292100Y23100D03*
X292100Y53100D03*
X63500Y332500D03*
X63500Y302500D03*
D15*
X88900Y326000D03*
X88900Y309000D03*
X266700Y29600D03*
X266700Y46600D03*
D16*
X23100Y152400D03*
X53100Y152400D03*
X53100Y76200D03*
X23100Y76200D03*
D17*
X303450Y228300D03*
X303450Y234800D03*
X303450Y241300D03*
X303450Y247800D03*
X303450Y254300D03*
D18*
X330200Y250800D03*
X330200Y231800D03*
D19*
X330200Y283300D03*
X330200Y199300D03*
D20*
X268400Y88900D03*
X290400Y79400D03*
X290400Y98400D03*
X87200Y266700D03*
X65200Y276200D03*
X65200Y257200D03*
X49100Y114300D03*
X27100Y123800D03*
X27100Y104800D03*
D21*
X228725Y134275D02*
X292920Y134275D01*
X228725Y134275D02*
X228600Y134400D01*
X126875Y221325D02*
X62520Y221325D01*
X126875Y221325D02*
X127000Y221200D01*
X109728Y185075D02*
X62645Y185075D01*
X109728Y185075D02*
X138085Y185075D01*
X144780Y191770D01*
X144780Y202692D01*
X144780Y214630D01*
X138210Y221200D02*
X127000Y221200D01*
X138210Y221200D02*
X144780Y214630D01*
X217515Y170525D02*
X292795Y170525D01*
X210820Y163830D02*
X210820Y140970D01*
X217515Y134275D01*
X217932Y134275D01*
X228725Y134275D01*
X210820Y163830D02*
X217515Y170525D01*
D22*
X266700Y47244D02*
X286512Y47244D01*
X291084Y51816D01*
X266700Y47244D02*
X266700Y46600D01*
X291084Y51816D02*
X292100Y53100D01*
X266700Y45720D02*
X254508Y45720D01*
X239268Y45720D01*
X228600Y45720D01*
X228600Y44400D01*
X266700Y45720D02*
X266700Y46600D01*
X228600Y80772D02*
X228600Y98400D01*
X304800Y252984D02*
X310896Y252984D01*
X313944Y249936D01*
X313944Y225552D01*
X294132Y205740D01*
X294132Y184404D02*
X294132Y173736D01*
X294132Y184404D02*
X294132Y192024D01*
X294132Y205740D01*
X304800Y252984D02*
X303450Y254300D01*
X294132Y173736D02*
X292795Y170525D01*
X291084Y131064D02*
X291084Y113030D01*
X291084Y99060D01*
X290400Y98400D01*
X291084Y131064D02*
X292920Y134275D01*
X309372Y198120D02*
X329184Y198120D01*
X309372Y198120D02*
X303276Y192024D01*
X294132Y192024D01*
X329184Y198120D02*
X330200Y199300D01*
X228600Y99060D02*
X220980Y106680D01*
X219456Y106680D01*
X217932Y108204D01*
X217932Y134275D01*
X228600Y99060D02*
X228600Y98400D01*
X239268Y70104D02*
X239268Y45720D01*
X239268Y70104D02*
X228600Y80772D01*
X228600Y80400D01*
X330708Y233172D02*
X330708Y249936D01*
X330708Y233172D02*
X330200Y231800D01*
X330708Y249936D02*
X330200Y250800D01*
X329184Y251460D02*
X329184Y263652D01*
X329184Y281940D01*
X330200Y283300D01*
X329184Y251460D02*
X330200Y250800D01*
X329184Y263652D02*
X326136Y263652D01*
X88900Y298508D02*
X80772Y291084D01*
X88900Y298508D02*
X88900Y309000D01*
X128016Y274320D02*
X128016Y257556D01*
X127000Y257200D01*
X128016Y274320D02*
X127000Y275200D01*
X137160Y301752D02*
X128016Y310896D01*
X137160Y301752D02*
X137160Y284988D01*
X128016Y275844D01*
X128016Y310896D02*
X127000Y311200D01*
X128016Y275844D02*
X127000Y275200D01*
X25908Y103632D02*
X25908Y77724D01*
X24384Y76200D01*
X25908Y103632D02*
X27100Y104800D01*
X24384Y76200D02*
X23100Y76200D01*
X144780Y152400D02*
X144780Y169164D01*
X156972Y181356D01*
X156972Y187452D01*
X153924Y190500D01*
X147828Y190500D01*
X144780Y191770D01*
X169164Y192024D02*
X169164Y121920D01*
X169164Y192024D02*
X158496Y202692D01*
X144780Y202692D01*
X65532Y224028D02*
X65532Y246888D01*
X65532Y256032D01*
X65200Y257200D01*
X65532Y224028D02*
X62520Y221325D01*
X53340Y173736D02*
X53340Y171450D01*
X53340Y152400D01*
X53340Y173736D02*
X60960Y181356D01*
X53340Y152400D02*
X53100Y152400D01*
X60960Y181356D02*
X62645Y185075D01*
X62484Y289560D02*
X62484Y301752D01*
X62484Y289560D02*
X54864Y281940D01*
X54864Y266700D01*
X64008Y257556D01*
X62484Y301752D02*
X63500Y302500D01*
X64008Y257556D02*
X65200Y257200D01*
X27432Y108204D02*
X27432Y105156D01*
X27432Y108204D02*
X51816Y132588D01*
X51816Y152400D01*
X27432Y105156D02*
X27100Y104800D01*
X51816Y152400D02*
X53100Y152400D01*
X137160Y246888D02*
X128016Y256032D01*
X137160Y246888D02*
X137160Y224028D01*
X128016Y256032D02*
X127000Y257200D01*
X137160Y224028D02*
X138210Y221200D01*
X109728Y185075D02*
X109728Y181356D01*
D23*
X254508Y45720D03*
X294132Y184404D03*
X326136Y263652D03*
X80772Y291084D03*
X144780Y152400D03*
X169164Y121920D03*
X109728Y181356D03*
X65532Y246888D03*
D22*
X24770Y181575D02*
X34895Y171450D01*
X53340Y171450D01*
X24770Y224825D02*
X46833Y246888D01*
X65532Y246888D01*
X330670Y198830D02*
X330670Y174025D01*
X330670Y198830D02*
X330200Y199300D01*
X330670Y130775D02*
X312925Y113030D01*
X291084Y113030D01*
X340360Y189140D02*
X330200Y199300D01*
X340360Y189140D02*
X340360Y184150D01*
D23*
X340360Y184150D03*
X152400Y318770D03*
D22*
X144830Y311200D01*
X127000Y311200D01*
D23*
X173990Y22860D03*
X325120Y87630D03*
D22*
X304800Y207264D02*
X304800Y211836D01*
X316992Y224028D01*
X316992Y252984D01*
X310896Y259080D01*
X300228Y259080D02*
X291084Y259080D01*
X300228Y259080D02*
X310896Y259080D01*
X291084Y259080D02*
X280416Y248412D01*
X217932Y318516D02*
X239268Y339852D01*
X274320Y339852D01*
X277368Y336804D01*
X298704Y294840D02*
X298704Y278892D01*
X300228Y277368D01*
X300228Y259080D01*
X140208Y237490D02*
X140208Y285242D01*
X140208Y237490D02*
X145288Y232410D01*
X164846Y309880D02*
X167386Y309880D01*
X164846Y309880D02*
X140208Y285242D01*
X25908Y150876D02*
X25908Y129540D01*
X25908Y124968D01*
X25908Y150876D02*
X24384Y152400D01*
X25908Y124968D02*
X27100Y123800D01*
X24384Y152400D02*
X23100Y152400D01*
X25908Y129540D02*
X39624Y129540D01*
D23*
X304800Y207264D03*
X280416Y248412D03*
X217932Y318516D03*
X145288Y232410D03*
X167386Y309880D03*
X39624Y129540D03*
D22*
X277368Y316176D02*
X298704Y294840D01*
X277368Y316176D02*
X277368Y336804D01*
D21*
X287020Y152400D02*
X228600Y152400D01*
D22*
X287020Y152400D02*
X292670Y152400D01*
D21*
X127000Y203200D02*
X62770Y203200D01*
D22*
X291084Y228600D02*
X297180Y234696D01*
X303276Y234696D01*
X303450Y234800D01*
D23*
X291084Y228600D03*
D22*
X249936Y220980D02*
X224028Y220980D01*
X249936Y220980D02*
X252984Y224028D01*
X291084Y242316D02*
X303276Y242316D01*
X303450Y241300D01*
D23*
X224028Y220980D03*
X252984Y224028D03*
X291084Y242316D03*
D22*
X181356Y181356D02*
X181356Y106680D01*
X120396Y45720D01*
D23*
X181356Y181356D03*
X120396Y45720D03*
X208534Y208534D03*
X149634Y276860D03*
D22*
X154940Y271554D02*
X154940Y228826D01*
X149634Y223520D01*
D23*
X149634Y223520D03*
X172085Y222885D03*
D22*
X172085Y205105D01*
X182880Y194310D01*
X154940Y271554D02*
X149634Y276860D01*
X182880Y194310D02*
X194310Y194310D01*
X208534Y208534D01*
X209296Y198120D02*
X202184Y191008D01*
X180848Y191008D01*
X160782Y211074D01*
X160782Y280416D02*
X153924Y287274D01*
X160782Y280416D02*
X160782Y211074D01*
D23*
X209296Y198120D03*
X153924Y287274D03*
D22*
X217932Y181356D02*
X204216Y167640D01*
X204216Y32004D01*
X222504Y13716D01*
X278892Y13716D01*
D23*
X217932Y181356D03*
X278892Y13716D03*
D22*
X284988Y217932D02*
X284988Y220980D01*
X268224Y237744D01*
X267000Y239200D01*
X88392Y115824D02*
X80772Y108204D01*
X79248Y108204D01*
X71628Y100584D01*
X71628Y89916D01*
X137160Y57912D02*
X137160Y53340D01*
X137160Y57912D02*
X188976Y109728D01*
X188976Y153924D01*
X88600Y116400D02*
X88392Y115824D01*
D23*
X284988Y217932D03*
X71628Y89916D03*
X137160Y53340D03*
X188976Y153924D03*
D22*
X246888Y184404D02*
X257556Y184404D01*
X246888Y184404D02*
X204216Y227076D01*
X199644Y227076D01*
X196596Y230124D01*
X196596Y236220D01*
X216408Y256032D01*
X266700Y256032D01*
X267000Y257200D01*
X88392Y97536D02*
X80772Y89916D01*
X79248Y89916D01*
X77724Y88392D01*
X77724Y18288D01*
X79248Y16764D01*
X109728Y16764D01*
X198120Y105156D01*
X198120Y153924D01*
X88600Y98400D02*
X88392Y97536D01*
D23*
X257556Y184404D03*
X198120Y153924D03*
D22*
X268224Y220980D02*
X280416Y208788D01*
X268224Y220980D02*
X267000Y221200D01*
X102108Y134112D02*
X89916Y134112D01*
X128016Y117348D02*
X158496Y147828D01*
X89916Y134112D02*
X88600Y134400D01*
D23*
X280416Y208788D03*
X102108Y134112D03*
X128016Y117348D03*
X158496Y147828D03*
D22*
X155448Y193548D02*
X155448Y196596D01*
X155448Y193548D02*
X160020Y188976D01*
X160020Y158496D01*
X124968Y123444D01*
X117348Y123444D01*
X102108Y143256D02*
X99060Y143256D01*
X89916Y152400D01*
X88600Y152400D01*
D23*
X155448Y196596D03*
X117348Y123444D03*
X102108Y143256D03*
D22*
X150876Y179832D02*
X150876Y184404D01*
X150876Y179832D02*
X111252Y140208D01*
X111252Y83820D01*
X89916Y62484D01*
X88600Y62400D01*
D23*
X150876Y184404D03*
D22*
X202692Y233172D02*
X231648Y204216D01*
X266700Y204216D01*
X267000Y203200D01*
D23*
X202692Y233172D03*
D22*
X300228Y198120D02*
X304800Y198120D01*
X329184Y222504D01*
X341376Y222504D01*
X342900Y224028D01*
X342900Y259080D01*
X335280Y266700D01*
X288036Y295656D02*
X269748Y295656D01*
X268224Y294132D01*
X267000Y293200D01*
D23*
X300228Y198120D03*
X335280Y266700D03*
X288036Y295656D03*
D22*
X250444Y281940D02*
X202438Y281940D01*
D23*
X202438Y281940D03*
X250444Y281940D03*
D22*
X268224Y274320D02*
X294132Y274320D01*
X268224Y274320D02*
X267000Y275200D01*
X131064Y173736D02*
X131064Y164592D01*
X108204Y141732D01*
X108204Y99060D01*
X89916Y80772D01*
X88600Y80400D01*
X188976Y200914D02*
X188976Y267970D01*
D23*
X294132Y274320D03*
X131064Y173736D03*
X188976Y200914D03*
D22*
X196206Y275200D02*
X267000Y275200D01*
X196206Y275200D02*
X188976Y267970D01*
X259080Y123444D02*
X259080Y100584D01*
D23*
X259080Y123444D03*
X259080Y100584D03*
D22*
X164592Y339852D02*
X143256Y339852D01*
X131064Y352044D01*
X70104Y352044D01*
X64008Y345948D01*
D23*
X164592Y339852D03*
X64008Y345948D03*
D22*
X88392Y281940D02*
X88392Y266700D01*
X88392Y281940D02*
X103632Y297180D01*
X103632Y321818D01*
X104394Y342900D02*
X131064Y342900D01*
X140208Y333756D01*
X140208Y330708D02*
X140208Y318516D01*
X140208Y330708D02*
X140208Y333756D01*
X88392Y266700D02*
X87200Y266700D01*
X50292Y109728D02*
X50292Y77724D01*
X50292Y109728D02*
X50292Y114300D01*
X50292Y77724D02*
X51816Y76200D01*
X50292Y114300D02*
X49100Y114300D01*
X51816Y76200D02*
X53100Y76200D01*
X50292Y109728D02*
X70104Y109728D01*
X50292Y109728D02*
X49100Y114300D01*
X269748Y88392D02*
X301752Y88392D01*
X269748Y88392D02*
X268400Y88900D01*
X53340Y76200D02*
X53340Y38100D01*
X83820Y7620D01*
X295656Y7620D01*
X303276Y15240D01*
X303276Y41148D01*
X304800Y42672D01*
X304800Y85344D01*
X301752Y88392D01*
X53340Y76200D02*
X53100Y76200D01*
X140208Y330708D02*
X207264Y330708D01*
X225552Y348996D01*
X269748Y348996D01*
X283464Y335280D01*
X283464Y319786D01*
D23*
X103632Y321818D03*
X104394Y342900D03*
X140208Y318516D03*
X70104Y109728D03*
X301752Y88392D03*
X283464Y319786D03*
D22*
X303276Y227076D02*
X303276Y220980D01*
X260604Y178308D01*
X230124Y178308D01*
X220980Y187452D01*
X208788Y187452D01*
X175260Y153924D02*
X175260Y117348D01*
X146304Y88392D01*
X303276Y227076D02*
X303450Y228300D01*
D23*
X208788Y187452D03*
X175260Y153924D03*
X146304Y88392D03*
D22*
X266700Y28956D02*
X286512Y28956D01*
X291084Y24384D01*
X292100Y23100D01*
X291084Y73152D02*
X291084Y79248D01*
X291084Y73152D02*
X301752Y62484D01*
X301752Y44196D01*
X286512Y28956D01*
X291084Y79248D02*
X290400Y79400D01*
X286512Y28956D02*
X292100Y23100D01*
X265176Y27432D02*
X228600Y27432D01*
X265176Y27432D02*
X266700Y28956D01*
X228600Y27432D02*
X228600Y26400D01*
X266700Y28956D02*
X266700Y29600D01*
X236220Y108204D02*
X228600Y115824D01*
X236220Y108204D02*
X237744Y108204D01*
X259080Y86868D01*
X259080Y82296D01*
X260604Y80772D01*
X289560Y80772D01*
X228600Y115824D02*
X228600Y116400D01*
X289560Y80772D02*
X290400Y79400D01*
X73152Y326136D02*
X70104Y326136D01*
X73152Y326136D02*
X88392Y326136D01*
X70104Y326136D02*
X64008Y332232D01*
X88392Y326136D02*
X88900Y326000D01*
X64008Y332232D02*
X63500Y332500D01*
X73152Y292608D02*
X65532Y284988D01*
X73152Y292608D02*
X73152Y326136D01*
X65532Y284988D02*
X65200Y283820D01*
X65200Y276200D01*
X110490Y239268D02*
X126492Y239268D01*
X127000Y239200D01*
X110490Y329184D02*
X92964Y329184D01*
X110490Y329184D02*
X126492Y329184D01*
X92964Y329184D02*
X89916Y326136D01*
X126492Y329184D02*
X127000Y329200D01*
X89916Y326136D02*
X88900Y326000D01*
X110490Y329184D02*
X110490Y239268D01*
M02*
