M48
;GenerationSoftware,Autodesk,EAGLE,9.5.1*%
;CreationDate,2019-11-08T13:07:44Z*%
FMAT,2
ICI,OFF
METRIC,TZ,000.000
T2C0.350
T1C3.200
%
G90
M71
T1
X33020Y33020
X2540Y2540
X2540Y33020
X33020Y2540
T2
X14478Y15240
X16916Y12192
X10973Y18136
X6553Y24689
X34036Y18415
X15240Y31877
X17399Y2286
X32512Y8763
X30480Y20726
X28042Y24841
X21793Y31852
X14529Y23241
X16739Y30988
X3962Y12954
X29108Y22860
X22403Y22098
X25298Y22403
X29108Y24232
X18136Y18136
X12040Y4572
X20853Y20853
X14963Y27686
X14963Y22352
X17209Y22288
X20930Y19812
X15392Y28727
X21793Y18136
X27889Y1372
X28499Y21793
X7163Y8992
X13716Y5334
X18898Y15392
X25756Y18440
X19812Y15392
X28042Y20879
X10211Y13411
X12802Y11735
X15850Y14783
X15545Y19660
X11735Y12344
X10211Y14326
X15088Y18440
X20269Y23317
X30023Y19812
X33528Y26670
X28804Y29566
X20244Y28194
X25044Y28194
X29413Y27432
X25451Y4572
X18898Y20091
X25908Y12344
X25908Y10058
X16459Y33985
X6401Y34595
X10363Y32182
X10439Y34290
X14021Y31852
X13106Y17374
X30175Y8839
X28346Y31979
X20879Y18745
X17526Y15392
X14630Y8839
X29413Y18440
X32614Y26365
X8077Y29108
X7010Y10973
M30