G04 EAGLE Gerber RS-274X export*
G75*
%MOMM*%
%FSLAX34Y34*%
%LPD*%
%INSilkscreen Bottom*%
%IPPOS*%
%AMOC8*
5,1,8,0,0,1.08239X$1,22.5*%
G01*
%ADD10C,0.127000*%
%ADD11C,0.101600*%
%ADD12C,0.203200*%
%ADD13C,0.076200*%
%ADD14C,0.200000*%
%ADD15C,0.254000*%
%ADD16C,0.152400*%


D10*
X241300Y158750D02*
X75900Y158750D01*
X75900Y20050D01*
X241300Y20050D01*
X241300Y158750D01*
D11*
X240792Y161375D02*
X240792Y173059D01*
X237546Y173059D01*
X237433Y173057D01*
X237320Y173051D01*
X237207Y173041D01*
X237094Y173027D01*
X236982Y173010D01*
X236871Y172988D01*
X236761Y172963D01*
X236651Y172933D01*
X236543Y172900D01*
X236436Y172863D01*
X236330Y172823D01*
X236226Y172778D01*
X236123Y172730D01*
X236022Y172679D01*
X235923Y172624D01*
X235826Y172566D01*
X235731Y172504D01*
X235638Y172439D01*
X235548Y172371D01*
X235460Y172300D01*
X235374Y172225D01*
X235291Y172148D01*
X235211Y172068D01*
X235134Y171985D01*
X235059Y171899D01*
X234988Y171811D01*
X234920Y171721D01*
X234855Y171628D01*
X234793Y171533D01*
X234735Y171436D01*
X234680Y171337D01*
X234629Y171236D01*
X234581Y171133D01*
X234536Y171029D01*
X234496Y170923D01*
X234459Y170816D01*
X234426Y170708D01*
X234396Y170598D01*
X234371Y170488D01*
X234349Y170377D01*
X234332Y170265D01*
X234318Y170152D01*
X234308Y170039D01*
X234302Y169926D01*
X234300Y169813D01*
X234302Y169700D01*
X234308Y169587D01*
X234318Y169474D01*
X234332Y169361D01*
X234349Y169249D01*
X234371Y169138D01*
X234396Y169028D01*
X234426Y168918D01*
X234459Y168810D01*
X234496Y168703D01*
X234536Y168597D01*
X234581Y168493D01*
X234629Y168390D01*
X234680Y168289D01*
X234735Y168190D01*
X234793Y168093D01*
X234855Y167998D01*
X234920Y167905D01*
X234988Y167815D01*
X235059Y167727D01*
X235134Y167641D01*
X235211Y167558D01*
X235291Y167478D01*
X235374Y167401D01*
X235460Y167326D01*
X235548Y167255D01*
X235638Y167187D01*
X235731Y167122D01*
X235826Y167060D01*
X235923Y167002D01*
X236022Y166947D01*
X236123Y166896D01*
X236226Y166848D01*
X236330Y166803D01*
X236436Y166763D01*
X236543Y166726D01*
X236651Y166693D01*
X236761Y166663D01*
X236871Y166638D01*
X236982Y166616D01*
X237094Y166599D01*
X237207Y166585D01*
X237320Y166575D01*
X237433Y166569D01*
X237546Y166567D01*
X237546Y166568D02*
X240792Y166568D01*
X236897Y166568D02*
X234301Y161375D01*
X229032Y161375D02*
X229032Y173059D01*
X223839Y173059D01*
X223839Y167866D02*
X229032Y167866D01*
X219530Y170462D02*
X216284Y173059D01*
X216284Y161375D01*
X213039Y161375D02*
X219530Y161375D01*
D10*
X279700Y196850D02*
X114300Y196850D01*
X279700Y196850D02*
X279700Y335550D01*
X114300Y335550D01*
X114300Y196850D01*
D11*
X142561Y194225D02*
X142561Y182541D01*
X142561Y194225D02*
X139316Y194225D01*
X139316Y194226D02*
X139203Y194224D01*
X139090Y194218D01*
X138977Y194208D01*
X138864Y194194D01*
X138752Y194177D01*
X138641Y194155D01*
X138531Y194130D01*
X138421Y194100D01*
X138313Y194067D01*
X138206Y194030D01*
X138100Y193990D01*
X137996Y193945D01*
X137893Y193897D01*
X137792Y193846D01*
X137693Y193791D01*
X137596Y193733D01*
X137501Y193671D01*
X137408Y193606D01*
X137318Y193538D01*
X137230Y193467D01*
X137144Y193392D01*
X137061Y193315D01*
X136981Y193235D01*
X136904Y193152D01*
X136829Y193066D01*
X136758Y192978D01*
X136690Y192888D01*
X136625Y192795D01*
X136563Y192700D01*
X136505Y192603D01*
X136450Y192504D01*
X136399Y192403D01*
X136351Y192300D01*
X136306Y192196D01*
X136266Y192090D01*
X136229Y191983D01*
X136196Y191875D01*
X136166Y191765D01*
X136141Y191655D01*
X136119Y191544D01*
X136102Y191432D01*
X136088Y191319D01*
X136078Y191206D01*
X136072Y191093D01*
X136070Y190980D01*
X136072Y190867D01*
X136078Y190754D01*
X136088Y190641D01*
X136102Y190528D01*
X136119Y190416D01*
X136141Y190305D01*
X136166Y190195D01*
X136196Y190085D01*
X136229Y189977D01*
X136266Y189870D01*
X136306Y189764D01*
X136351Y189660D01*
X136399Y189557D01*
X136450Y189456D01*
X136505Y189357D01*
X136563Y189260D01*
X136625Y189165D01*
X136690Y189072D01*
X136758Y188982D01*
X136829Y188894D01*
X136904Y188808D01*
X136981Y188725D01*
X137061Y188645D01*
X137144Y188568D01*
X137230Y188493D01*
X137318Y188422D01*
X137408Y188354D01*
X137501Y188289D01*
X137596Y188227D01*
X137693Y188169D01*
X137792Y188114D01*
X137893Y188063D01*
X137996Y188015D01*
X138100Y187970D01*
X138206Y187930D01*
X138313Y187893D01*
X138421Y187860D01*
X138531Y187830D01*
X138641Y187805D01*
X138752Y187783D01*
X138864Y187766D01*
X138977Y187752D01*
X139090Y187742D01*
X139203Y187736D01*
X139316Y187734D01*
X142561Y187734D01*
X138667Y187734D02*
X136070Y182541D01*
X130802Y182541D02*
X130802Y194225D01*
X125609Y194225D01*
X125609Y189032D02*
X130802Y189032D01*
X117729Y194225D02*
X117622Y194223D01*
X117516Y194217D01*
X117410Y194207D01*
X117304Y194194D01*
X117198Y194176D01*
X117094Y194155D01*
X116990Y194130D01*
X116887Y194101D01*
X116786Y194069D01*
X116686Y194032D01*
X116587Y193992D01*
X116489Y193949D01*
X116393Y193902D01*
X116299Y193851D01*
X116207Y193797D01*
X116117Y193740D01*
X116029Y193680D01*
X115944Y193616D01*
X115861Y193549D01*
X115780Y193479D01*
X115702Y193407D01*
X115626Y193331D01*
X115554Y193253D01*
X115484Y193172D01*
X115417Y193089D01*
X115353Y193004D01*
X115293Y192916D01*
X115236Y192826D01*
X115182Y192734D01*
X115131Y192640D01*
X115084Y192544D01*
X115041Y192446D01*
X115001Y192347D01*
X114964Y192247D01*
X114932Y192146D01*
X114903Y192043D01*
X114878Y191939D01*
X114857Y191835D01*
X114839Y191729D01*
X114826Y191623D01*
X114816Y191517D01*
X114810Y191411D01*
X114808Y191304D01*
X117729Y194226D02*
X117850Y194224D01*
X117971Y194218D01*
X118091Y194208D01*
X118212Y194195D01*
X118331Y194177D01*
X118451Y194156D01*
X118569Y194131D01*
X118686Y194102D01*
X118803Y194069D01*
X118918Y194033D01*
X119032Y193992D01*
X119145Y193949D01*
X119257Y193901D01*
X119366Y193850D01*
X119474Y193795D01*
X119581Y193737D01*
X119685Y193676D01*
X119787Y193611D01*
X119887Y193543D01*
X119985Y193472D01*
X120081Y193398D01*
X120174Y193321D01*
X120264Y193240D01*
X120352Y193157D01*
X120437Y193071D01*
X120520Y192982D01*
X120599Y192891D01*
X120676Y192797D01*
X120749Y192701D01*
X120819Y192603D01*
X120886Y192502D01*
X120950Y192399D01*
X121011Y192294D01*
X121068Y192187D01*
X121121Y192079D01*
X121171Y191969D01*
X121217Y191857D01*
X121260Y191744D01*
X121299Y191629D01*
X115782Y189032D02*
X115703Y189110D01*
X115627Y189190D01*
X115554Y189273D01*
X115484Y189359D01*
X115417Y189446D01*
X115353Y189537D01*
X115293Y189629D01*
X115235Y189723D01*
X115181Y189820D01*
X115131Y189918D01*
X115084Y190018D01*
X115040Y190119D01*
X115000Y190222D01*
X114964Y190327D01*
X114932Y190432D01*
X114903Y190539D01*
X114878Y190646D01*
X114856Y190755D01*
X114839Y190864D01*
X114825Y190973D01*
X114816Y191083D01*
X114810Y191194D01*
X114808Y191304D01*
X115782Y189032D02*
X121299Y182541D01*
X114808Y182541D01*
D12*
X312545Y166900D02*
X312545Y137900D01*
X354420Y137250D02*
X354420Y167550D01*
D11*
X290162Y121158D02*
X282373Y132842D01*
X290162Y132842D02*
X282373Y121158D01*
X278083Y130246D02*
X274837Y132842D01*
X274837Y121158D01*
X271592Y121158D02*
X278083Y121158D01*
D12*
X42895Y188700D02*
X42895Y217700D01*
X1020Y218350D02*
X1020Y188050D01*
D11*
X64262Y235458D02*
X56473Y247142D01*
X64262Y247142D02*
X56473Y235458D01*
X45692Y244221D02*
X45694Y244328D01*
X45700Y244434D01*
X45710Y244540D01*
X45723Y244646D01*
X45741Y244752D01*
X45762Y244856D01*
X45787Y244960D01*
X45816Y245063D01*
X45848Y245164D01*
X45885Y245264D01*
X45925Y245363D01*
X45968Y245461D01*
X46015Y245557D01*
X46066Y245651D01*
X46120Y245743D01*
X46177Y245833D01*
X46237Y245921D01*
X46301Y246006D01*
X46368Y246089D01*
X46438Y246170D01*
X46510Y246248D01*
X46586Y246324D01*
X46664Y246396D01*
X46745Y246466D01*
X46828Y246533D01*
X46913Y246597D01*
X47001Y246657D01*
X47091Y246714D01*
X47183Y246768D01*
X47277Y246819D01*
X47373Y246866D01*
X47471Y246909D01*
X47570Y246949D01*
X47670Y246986D01*
X47771Y247018D01*
X47874Y247047D01*
X47978Y247072D01*
X48082Y247093D01*
X48188Y247111D01*
X48294Y247124D01*
X48400Y247134D01*
X48506Y247140D01*
X48613Y247142D01*
X48734Y247140D01*
X48855Y247134D01*
X48975Y247124D01*
X49096Y247111D01*
X49215Y247093D01*
X49335Y247072D01*
X49453Y247047D01*
X49570Y247018D01*
X49687Y246985D01*
X49802Y246949D01*
X49916Y246908D01*
X50029Y246865D01*
X50141Y246817D01*
X50250Y246766D01*
X50358Y246711D01*
X50465Y246653D01*
X50569Y246592D01*
X50671Y246527D01*
X50771Y246459D01*
X50869Y246388D01*
X50965Y246314D01*
X51058Y246237D01*
X51148Y246156D01*
X51236Y246073D01*
X51321Y245987D01*
X51404Y245898D01*
X51483Y245807D01*
X51560Y245713D01*
X51633Y245617D01*
X51703Y245519D01*
X51770Y245418D01*
X51834Y245315D01*
X51895Y245210D01*
X51952Y245103D01*
X52005Y244995D01*
X52055Y244885D01*
X52101Y244773D01*
X52144Y244660D01*
X52183Y244545D01*
X46666Y241949D02*
X46587Y242027D01*
X46511Y242107D01*
X46438Y242190D01*
X46368Y242276D01*
X46301Y242363D01*
X46237Y242454D01*
X46177Y242546D01*
X46119Y242640D01*
X46065Y242737D01*
X46015Y242835D01*
X45968Y242935D01*
X45924Y243036D01*
X45884Y243139D01*
X45848Y243244D01*
X45816Y243349D01*
X45787Y243456D01*
X45762Y243563D01*
X45740Y243672D01*
X45723Y243781D01*
X45709Y243890D01*
X45700Y244000D01*
X45694Y244111D01*
X45692Y244221D01*
X46665Y241949D02*
X52183Y235458D01*
X45692Y235458D01*
D13*
X302231Y26658D02*
X302231Y24569D01*
X302233Y24480D01*
X302239Y24392D01*
X302248Y24304D01*
X302261Y24216D01*
X302278Y24129D01*
X302298Y24043D01*
X302323Y23958D01*
X302350Y23873D01*
X302382Y23790D01*
X302416Y23709D01*
X302455Y23629D01*
X302496Y23551D01*
X302541Y23474D01*
X302589Y23400D01*
X302640Y23327D01*
X302694Y23257D01*
X302752Y23190D01*
X302812Y23124D01*
X302874Y23062D01*
X302940Y23002D01*
X303007Y22944D01*
X303077Y22890D01*
X303150Y22839D01*
X303224Y22791D01*
X303301Y22746D01*
X303379Y22705D01*
X303459Y22666D01*
X303540Y22632D01*
X303623Y22600D01*
X303708Y22573D01*
X303793Y22548D01*
X303879Y22528D01*
X303966Y22511D01*
X304054Y22498D01*
X304142Y22489D01*
X304230Y22483D01*
X304319Y22481D01*
X309541Y22481D01*
X309632Y22483D01*
X309723Y22489D01*
X309814Y22499D01*
X309904Y22513D01*
X309993Y22530D01*
X310081Y22552D01*
X310169Y22578D01*
X310255Y22607D01*
X310340Y22640D01*
X310423Y22677D01*
X310505Y22717D01*
X310585Y22761D01*
X310663Y22808D01*
X310739Y22859D01*
X310812Y22912D01*
X310883Y22969D01*
X310952Y23030D01*
X311017Y23093D01*
X311080Y23158D01*
X311140Y23227D01*
X311198Y23298D01*
X311251Y23371D01*
X311302Y23447D01*
X311349Y23525D01*
X311393Y23605D01*
X311433Y23687D01*
X311470Y23770D01*
X311503Y23855D01*
X311532Y23941D01*
X311558Y24029D01*
X311580Y24117D01*
X311597Y24206D01*
X311611Y24296D01*
X311621Y24387D01*
X311627Y24478D01*
X311629Y24569D01*
X311629Y26658D01*
X306408Y32215D02*
X306408Y35348D01*
X306408Y32215D02*
X306410Y32126D01*
X306416Y32038D01*
X306425Y31950D01*
X306438Y31862D01*
X306455Y31775D01*
X306475Y31689D01*
X306500Y31604D01*
X306527Y31519D01*
X306559Y31436D01*
X306593Y31355D01*
X306632Y31275D01*
X306673Y31197D01*
X306718Y31120D01*
X306766Y31046D01*
X306817Y30973D01*
X306871Y30903D01*
X306929Y30836D01*
X306989Y30770D01*
X307051Y30708D01*
X307117Y30648D01*
X307184Y30590D01*
X307254Y30536D01*
X307327Y30485D01*
X307401Y30437D01*
X307478Y30392D01*
X307556Y30351D01*
X307636Y30312D01*
X307717Y30278D01*
X307800Y30246D01*
X307885Y30219D01*
X307970Y30194D01*
X308056Y30174D01*
X308143Y30157D01*
X308231Y30144D01*
X308319Y30135D01*
X308407Y30129D01*
X308496Y30127D01*
X309018Y30127D01*
X309018Y30126D02*
X309119Y30128D01*
X309220Y30134D01*
X309321Y30144D01*
X309421Y30157D01*
X309521Y30175D01*
X309620Y30196D01*
X309718Y30222D01*
X309815Y30251D01*
X309911Y30283D01*
X310005Y30320D01*
X310098Y30360D01*
X310190Y30404D01*
X310279Y30451D01*
X310367Y30502D01*
X310453Y30556D01*
X310536Y30613D01*
X310618Y30673D01*
X310696Y30737D01*
X310773Y30803D01*
X310846Y30873D01*
X310917Y30945D01*
X310985Y31020D01*
X311050Y31098D01*
X311112Y31178D01*
X311171Y31260D01*
X311227Y31345D01*
X311279Y31431D01*
X311328Y31520D01*
X311374Y31611D01*
X311415Y31703D01*
X311454Y31797D01*
X311488Y31892D01*
X311519Y31988D01*
X311546Y32086D01*
X311570Y32184D01*
X311589Y32284D01*
X311605Y32384D01*
X311617Y32484D01*
X311625Y32585D01*
X311629Y32686D01*
X311629Y32788D01*
X311625Y32889D01*
X311617Y32990D01*
X311605Y33090D01*
X311589Y33190D01*
X311570Y33290D01*
X311546Y33388D01*
X311519Y33486D01*
X311488Y33582D01*
X311454Y33677D01*
X311415Y33771D01*
X311374Y33863D01*
X311328Y33954D01*
X311279Y34042D01*
X311227Y34129D01*
X311171Y34214D01*
X311112Y34296D01*
X311050Y34376D01*
X310985Y34454D01*
X310917Y34529D01*
X310846Y34601D01*
X310773Y34671D01*
X310696Y34737D01*
X310618Y34801D01*
X310536Y34861D01*
X310453Y34918D01*
X310367Y34972D01*
X310279Y35023D01*
X310190Y35070D01*
X310098Y35114D01*
X310005Y35154D01*
X309911Y35191D01*
X309815Y35223D01*
X309718Y35252D01*
X309620Y35278D01*
X309521Y35299D01*
X309421Y35317D01*
X309321Y35330D01*
X309220Y35340D01*
X309119Y35346D01*
X309018Y35348D01*
X306408Y35348D01*
X306282Y35346D01*
X306156Y35340D01*
X306030Y35331D01*
X305905Y35318D01*
X305780Y35300D01*
X305655Y35280D01*
X305531Y35255D01*
X305408Y35227D01*
X305286Y35195D01*
X305165Y35159D01*
X305045Y35120D01*
X304927Y35077D01*
X304810Y35030D01*
X304694Y34980D01*
X304579Y34926D01*
X304467Y34870D01*
X304356Y34809D01*
X304247Y34746D01*
X304140Y34679D01*
X304035Y34609D01*
X303932Y34535D01*
X303832Y34459D01*
X303734Y34380D01*
X303638Y34298D01*
X303545Y34212D01*
X303454Y34125D01*
X303367Y34034D01*
X303281Y33941D01*
X303199Y33845D01*
X303120Y33747D01*
X303044Y33647D01*
X302970Y33544D01*
X302900Y33439D01*
X302833Y33332D01*
X302770Y33223D01*
X302709Y33112D01*
X302653Y33000D01*
X302599Y32885D01*
X302549Y32769D01*
X302502Y32652D01*
X302459Y32534D01*
X302420Y32414D01*
X302384Y32293D01*
X302352Y32171D01*
X302324Y32048D01*
X302299Y31924D01*
X302279Y31799D01*
X302261Y31674D01*
X302248Y31549D01*
X302239Y31423D01*
X302233Y31297D01*
X302231Y31171D01*
X43971Y313197D02*
X43971Y315285D01*
X43971Y313197D02*
X43973Y313108D01*
X43979Y313020D01*
X43988Y312932D01*
X44001Y312844D01*
X44018Y312757D01*
X44038Y312671D01*
X44063Y312586D01*
X44090Y312501D01*
X44122Y312418D01*
X44156Y312337D01*
X44195Y312257D01*
X44236Y312179D01*
X44281Y312102D01*
X44329Y312028D01*
X44380Y311955D01*
X44434Y311885D01*
X44492Y311818D01*
X44552Y311752D01*
X44614Y311690D01*
X44680Y311630D01*
X44747Y311572D01*
X44817Y311518D01*
X44890Y311467D01*
X44964Y311419D01*
X45041Y311374D01*
X45119Y311333D01*
X45199Y311294D01*
X45280Y311260D01*
X45363Y311228D01*
X45448Y311201D01*
X45533Y311176D01*
X45619Y311156D01*
X45706Y311139D01*
X45794Y311126D01*
X45882Y311117D01*
X45970Y311111D01*
X46059Y311109D01*
X46059Y311108D02*
X51281Y311108D01*
X51281Y311109D02*
X51372Y311111D01*
X51463Y311117D01*
X51554Y311127D01*
X51644Y311141D01*
X51733Y311158D01*
X51821Y311180D01*
X51909Y311206D01*
X51995Y311235D01*
X52080Y311268D01*
X52163Y311305D01*
X52245Y311345D01*
X52325Y311389D01*
X52403Y311436D01*
X52479Y311487D01*
X52552Y311540D01*
X52623Y311597D01*
X52692Y311658D01*
X52757Y311721D01*
X52820Y311786D01*
X52880Y311855D01*
X52938Y311926D01*
X52991Y311999D01*
X53042Y312075D01*
X53089Y312153D01*
X53133Y312233D01*
X53173Y312315D01*
X53210Y312398D01*
X53243Y312483D01*
X53272Y312569D01*
X53298Y312657D01*
X53320Y312745D01*
X53337Y312834D01*
X53351Y312924D01*
X53361Y313015D01*
X53367Y313106D01*
X53369Y313197D01*
X53369Y315285D01*
X51281Y318754D02*
X53369Y321364D01*
X43971Y321364D01*
X43971Y318754D02*
X43971Y323975D01*
X48670Y327898D02*
X48855Y327900D01*
X49040Y327907D01*
X49224Y327918D01*
X49408Y327933D01*
X49592Y327953D01*
X49776Y327977D01*
X49958Y328006D01*
X50140Y328039D01*
X50321Y328076D01*
X50501Y328118D01*
X50681Y328164D01*
X50859Y328214D01*
X51035Y328268D01*
X51211Y328327D01*
X51385Y328389D01*
X51557Y328456D01*
X51728Y328527D01*
X51897Y328602D01*
X52064Y328681D01*
X52064Y328680D02*
X52144Y328710D01*
X52223Y328743D01*
X52300Y328780D01*
X52376Y328820D01*
X52450Y328863D01*
X52522Y328909D01*
X52591Y328959D01*
X52659Y329011D01*
X52724Y329067D01*
X52787Y329125D01*
X52846Y329187D01*
X52904Y329250D01*
X52958Y329317D01*
X53009Y329385D01*
X53057Y329456D01*
X53102Y329529D01*
X53144Y329603D01*
X53182Y329680D01*
X53217Y329758D01*
X53249Y329837D01*
X53277Y329918D01*
X53301Y330000D01*
X53322Y330084D01*
X53339Y330167D01*
X53352Y330252D01*
X53361Y330337D01*
X53367Y330422D01*
X53369Y330508D01*
X53367Y330594D01*
X53361Y330679D01*
X53352Y330764D01*
X53339Y330849D01*
X53322Y330932D01*
X53301Y331016D01*
X53277Y331098D01*
X53249Y331179D01*
X53217Y331258D01*
X53182Y331336D01*
X53144Y331413D01*
X53102Y331487D01*
X53057Y331560D01*
X53009Y331631D01*
X52958Y331699D01*
X52904Y331766D01*
X52846Y331829D01*
X52787Y331891D01*
X52724Y331949D01*
X52659Y332005D01*
X52591Y332057D01*
X52522Y332107D01*
X52450Y332153D01*
X52376Y332196D01*
X52300Y332236D01*
X52223Y332273D01*
X52144Y332306D01*
X52064Y332336D01*
X51897Y332415D01*
X51728Y332490D01*
X51557Y332561D01*
X51385Y332628D01*
X51211Y332690D01*
X51035Y332749D01*
X50859Y332803D01*
X50681Y332853D01*
X50501Y332899D01*
X50321Y332941D01*
X50140Y332978D01*
X49958Y333011D01*
X49776Y333040D01*
X49592Y333064D01*
X49408Y333084D01*
X49224Y333099D01*
X49040Y333110D01*
X48855Y333117D01*
X48670Y333119D01*
X48670Y327898D02*
X48485Y327900D01*
X48300Y327907D01*
X48116Y327918D01*
X47932Y327933D01*
X47748Y327953D01*
X47564Y327977D01*
X47382Y328006D01*
X47200Y328039D01*
X47019Y328076D01*
X46839Y328118D01*
X46659Y328164D01*
X46481Y328214D01*
X46305Y328268D01*
X46129Y328327D01*
X45955Y328389D01*
X45783Y328456D01*
X45612Y328527D01*
X45443Y328602D01*
X45276Y328681D01*
X45276Y328680D02*
X45196Y328710D01*
X45117Y328743D01*
X45040Y328780D01*
X44964Y328820D01*
X44890Y328863D01*
X44818Y328909D01*
X44749Y328959D01*
X44681Y329012D01*
X44616Y329067D01*
X44553Y329126D01*
X44494Y329187D01*
X44436Y329250D01*
X44382Y329317D01*
X44331Y329385D01*
X44283Y329456D01*
X44238Y329529D01*
X44196Y329603D01*
X44158Y329680D01*
X44123Y329758D01*
X44091Y329837D01*
X44063Y329918D01*
X44039Y330000D01*
X44018Y330084D01*
X44001Y330167D01*
X43988Y330252D01*
X43979Y330337D01*
X43973Y330422D01*
X43971Y330508D01*
X45276Y332336D02*
X45443Y332415D01*
X45612Y332490D01*
X45783Y332561D01*
X45955Y332628D01*
X46129Y332690D01*
X46305Y332749D01*
X46481Y332803D01*
X46659Y332853D01*
X46839Y332899D01*
X47019Y332941D01*
X47200Y332978D01*
X47382Y333011D01*
X47564Y333040D01*
X47748Y333064D01*
X47932Y333084D01*
X48116Y333099D01*
X48300Y333110D01*
X48485Y333117D01*
X48670Y333119D01*
X45276Y332336D02*
X45196Y332306D01*
X45117Y332273D01*
X45040Y332236D01*
X44964Y332196D01*
X44890Y332153D01*
X44818Y332107D01*
X44749Y332057D01*
X44681Y332005D01*
X44616Y331949D01*
X44553Y331891D01*
X44494Y331829D01*
X44436Y331766D01*
X44382Y331699D01*
X44331Y331631D01*
X44283Y331560D01*
X44238Y331487D01*
X44196Y331413D01*
X44158Y331336D01*
X44123Y331258D01*
X44091Y331179D01*
X44063Y331098D01*
X44039Y331016D01*
X44018Y330932D01*
X44001Y330849D01*
X43988Y330764D01*
X43979Y330679D01*
X43973Y330594D01*
X43971Y330508D01*
X46059Y328420D02*
X51281Y332597D01*
D11*
X70358Y301056D02*
X70358Y298459D01*
X70360Y298360D01*
X70366Y298260D01*
X70375Y298161D01*
X70388Y298063D01*
X70405Y297965D01*
X70426Y297867D01*
X70451Y297771D01*
X70479Y297676D01*
X70511Y297582D01*
X70546Y297489D01*
X70585Y297397D01*
X70628Y297307D01*
X70673Y297219D01*
X70723Y297132D01*
X70775Y297048D01*
X70831Y296965D01*
X70889Y296885D01*
X70951Y296807D01*
X71016Y296732D01*
X71084Y296659D01*
X71154Y296589D01*
X71227Y296521D01*
X71302Y296456D01*
X71380Y296394D01*
X71460Y296336D01*
X71543Y296280D01*
X71627Y296228D01*
X71714Y296178D01*
X71802Y296133D01*
X71892Y296090D01*
X71984Y296051D01*
X72077Y296016D01*
X72171Y295984D01*
X72266Y295956D01*
X72362Y295931D01*
X72460Y295910D01*
X72558Y295893D01*
X72656Y295880D01*
X72755Y295871D01*
X72855Y295865D01*
X72954Y295863D01*
X79446Y295863D01*
X79545Y295865D01*
X79645Y295871D01*
X79744Y295880D01*
X79842Y295893D01*
X79940Y295910D01*
X80038Y295931D01*
X80134Y295956D01*
X80229Y295984D01*
X80323Y296016D01*
X80416Y296051D01*
X80508Y296090D01*
X80598Y296133D01*
X80686Y296178D01*
X80773Y296228D01*
X80857Y296280D01*
X80940Y296336D01*
X81020Y296394D01*
X81098Y296456D01*
X81173Y296521D01*
X81246Y296589D01*
X81316Y296659D01*
X81384Y296732D01*
X81449Y296807D01*
X81511Y296885D01*
X81569Y296965D01*
X81625Y297048D01*
X81677Y297132D01*
X81727Y297219D01*
X81772Y297307D01*
X81815Y297397D01*
X81854Y297489D01*
X81889Y297581D01*
X81921Y297676D01*
X81949Y297771D01*
X81974Y297867D01*
X81995Y297965D01*
X82012Y298063D01*
X82025Y298161D01*
X82034Y298260D01*
X82040Y298360D01*
X82042Y298459D01*
X82042Y301056D01*
X79446Y305421D02*
X82042Y308666D01*
X70358Y308666D01*
X70358Y305421D02*
X70358Y311912D01*
X70358Y316851D02*
X70358Y320096D01*
X70360Y320209D01*
X70366Y320322D01*
X70376Y320435D01*
X70390Y320548D01*
X70407Y320660D01*
X70429Y320771D01*
X70454Y320881D01*
X70484Y320991D01*
X70517Y321099D01*
X70554Y321206D01*
X70594Y321312D01*
X70639Y321416D01*
X70687Y321519D01*
X70738Y321620D01*
X70793Y321719D01*
X70851Y321816D01*
X70913Y321911D01*
X70978Y322004D01*
X71046Y322094D01*
X71117Y322182D01*
X71192Y322268D01*
X71269Y322351D01*
X71349Y322431D01*
X71432Y322508D01*
X71518Y322583D01*
X71606Y322654D01*
X71696Y322722D01*
X71789Y322787D01*
X71884Y322849D01*
X71981Y322907D01*
X72080Y322962D01*
X72181Y323013D01*
X72284Y323061D01*
X72388Y323106D01*
X72494Y323146D01*
X72601Y323183D01*
X72709Y323216D01*
X72819Y323246D01*
X72929Y323271D01*
X73040Y323293D01*
X73152Y323310D01*
X73265Y323324D01*
X73378Y323334D01*
X73491Y323340D01*
X73604Y323342D01*
X73717Y323340D01*
X73830Y323334D01*
X73943Y323324D01*
X74056Y323310D01*
X74168Y323293D01*
X74279Y323271D01*
X74389Y323246D01*
X74499Y323216D01*
X74607Y323183D01*
X74714Y323146D01*
X74820Y323106D01*
X74924Y323061D01*
X75027Y323013D01*
X75128Y322962D01*
X75227Y322907D01*
X75324Y322849D01*
X75419Y322787D01*
X75512Y322722D01*
X75602Y322654D01*
X75690Y322583D01*
X75776Y322508D01*
X75859Y322431D01*
X75939Y322351D01*
X76016Y322268D01*
X76091Y322182D01*
X76162Y322094D01*
X76230Y322004D01*
X76295Y321911D01*
X76357Y321816D01*
X76415Y321719D01*
X76470Y321620D01*
X76521Y321519D01*
X76569Y321416D01*
X76614Y321312D01*
X76654Y321206D01*
X76691Y321099D01*
X76724Y320991D01*
X76754Y320881D01*
X76779Y320771D01*
X76801Y320660D01*
X76818Y320548D01*
X76832Y320435D01*
X76842Y320322D01*
X76848Y320209D01*
X76850Y320096D01*
X82042Y320746D02*
X82042Y316851D01*
X82042Y320746D02*
X82040Y320847D01*
X82034Y320947D01*
X82024Y321047D01*
X82011Y321147D01*
X81993Y321246D01*
X81972Y321345D01*
X81947Y321442D01*
X81918Y321539D01*
X81885Y321634D01*
X81849Y321728D01*
X81809Y321820D01*
X81766Y321911D01*
X81719Y322000D01*
X81669Y322087D01*
X81615Y322173D01*
X81558Y322256D01*
X81498Y322336D01*
X81435Y322415D01*
X81368Y322491D01*
X81299Y322564D01*
X81227Y322634D01*
X81153Y322702D01*
X81076Y322767D01*
X80996Y322828D01*
X80914Y322887D01*
X80830Y322942D01*
X80744Y322994D01*
X80656Y323043D01*
X80566Y323088D01*
X80474Y323130D01*
X80381Y323168D01*
X80286Y323202D01*
X80191Y323233D01*
X80094Y323260D01*
X79996Y323283D01*
X79897Y323303D01*
X79797Y323318D01*
X79697Y323330D01*
X79597Y323338D01*
X79496Y323342D01*
X79396Y323342D01*
X79295Y323338D01*
X79195Y323330D01*
X79095Y323318D01*
X78995Y323303D01*
X78896Y323283D01*
X78798Y323260D01*
X78701Y323233D01*
X78606Y323202D01*
X78511Y323168D01*
X78418Y323130D01*
X78326Y323088D01*
X78236Y323043D01*
X78148Y322994D01*
X78062Y322942D01*
X77978Y322887D01*
X77896Y322828D01*
X77816Y322767D01*
X77739Y322702D01*
X77665Y322634D01*
X77593Y322564D01*
X77524Y322491D01*
X77457Y322415D01*
X77394Y322336D01*
X77334Y322256D01*
X77277Y322173D01*
X77223Y322087D01*
X77173Y322000D01*
X77126Y321911D01*
X77083Y321820D01*
X77043Y321728D01*
X77007Y321634D01*
X76974Y321539D01*
X76945Y321442D01*
X76920Y321345D01*
X76899Y321246D01*
X76881Y321147D01*
X76868Y321047D01*
X76858Y320947D01*
X76852Y320847D01*
X76850Y320746D01*
X76849Y320746D02*
X76849Y318149D01*
X273558Y37451D02*
X273558Y34854D01*
X273560Y34755D01*
X273566Y34655D01*
X273575Y34556D01*
X273588Y34458D01*
X273605Y34360D01*
X273626Y34262D01*
X273651Y34166D01*
X273679Y34071D01*
X273711Y33977D01*
X273746Y33884D01*
X273785Y33792D01*
X273828Y33702D01*
X273873Y33614D01*
X273923Y33527D01*
X273975Y33443D01*
X274031Y33360D01*
X274089Y33280D01*
X274151Y33202D01*
X274216Y33127D01*
X274284Y33054D01*
X274354Y32984D01*
X274427Y32916D01*
X274502Y32851D01*
X274580Y32789D01*
X274660Y32731D01*
X274743Y32675D01*
X274827Y32623D01*
X274914Y32573D01*
X275002Y32528D01*
X275092Y32485D01*
X275184Y32446D01*
X275277Y32411D01*
X275371Y32379D01*
X275466Y32351D01*
X275562Y32326D01*
X275660Y32305D01*
X275758Y32288D01*
X275856Y32275D01*
X275955Y32266D01*
X276055Y32260D01*
X276154Y32258D01*
X282646Y32258D01*
X282745Y32260D01*
X282845Y32266D01*
X282944Y32275D01*
X283042Y32288D01*
X283140Y32305D01*
X283238Y32326D01*
X283334Y32351D01*
X283429Y32379D01*
X283523Y32411D01*
X283616Y32446D01*
X283708Y32485D01*
X283798Y32528D01*
X283886Y32573D01*
X283973Y32623D01*
X284057Y32675D01*
X284140Y32731D01*
X284220Y32789D01*
X284298Y32851D01*
X284373Y32916D01*
X284446Y32984D01*
X284516Y33054D01*
X284584Y33127D01*
X284649Y33202D01*
X284711Y33280D01*
X284769Y33360D01*
X284825Y33443D01*
X284877Y33527D01*
X284927Y33614D01*
X284972Y33702D01*
X285015Y33792D01*
X285054Y33884D01*
X285089Y33976D01*
X285121Y34071D01*
X285149Y34166D01*
X285174Y34262D01*
X285195Y34360D01*
X285212Y34458D01*
X285225Y34556D01*
X285234Y34655D01*
X285240Y34755D01*
X285242Y34854D01*
X285242Y37451D01*
X282646Y41816D02*
X285242Y45062D01*
X273558Y45062D01*
X273558Y48307D02*
X273558Y41816D01*
X273558Y53246D02*
X273558Y57141D01*
X273560Y57240D01*
X273566Y57340D01*
X273575Y57439D01*
X273588Y57537D01*
X273605Y57635D01*
X273626Y57733D01*
X273651Y57829D01*
X273679Y57924D01*
X273711Y58018D01*
X273746Y58111D01*
X273785Y58203D01*
X273828Y58293D01*
X273873Y58381D01*
X273923Y58468D01*
X273975Y58552D01*
X274031Y58635D01*
X274089Y58715D01*
X274151Y58793D01*
X274216Y58868D01*
X274284Y58941D01*
X274354Y59011D01*
X274427Y59079D01*
X274502Y59144D01*
X274580Y59206D01*
X274660Y59264D01*
X274743Y59320D01*
X274827Y59372D01*
X274914Y59422D01*
X275002Y59467D01*
X275092Y59510D01*
X275184Y59549D01*
X275277Y59584D01*
X275371Y59616D01*
X275466Y59644D01*
X275562Y59669D01*
X275660Y59690D01*
X275758Y59707D01*
X275856Y59720D01*
X275955Y59729D01*
X276055Y59735D01*
X276154Y59737D01*
X277453Y59737D01*
X277552Y59735D01*
X277652Y59729D01*
X277751Y59720D01*
X277849Y59707D01*
X277947Y59690D01*
X278045Y59669D01*
X278141Y59644D01*
X278236Y59616D01*
X278330Y59584D01*
X278423Y59549D01*
X278515Y59510D01*
X278605Y59467D01*
X278693Y59422D01*
X278780Y59372D01*
X278864Y59320D01*
X278947Y59264D01*
X279027Y59206D01*
X279105Y59144D01*
X279180Y59079D01*
X279253Y59011D01*
X279323Y58941D01*
X279391Y58868D01*
X279456Y58793D01*
X279518Y58715D01*
X279576Y58635D01*
X279632Y58552D01*
X279684Y58468D01*
X279734Y58381D01*
X279779Y58293D01*
X279822Y58203D01*
X279861Y58111D01*
X279896Y58018D01*
X279928Y57924D01*
X279956Y57829D01*
X279981Y57733D01*
X280002Y57635D01*
X280019Y57537D01*
X280032Y57439D01*
X280041Y57340D01*
X280047Y57240D01*
X280049Y57141D01*
X280049Y53246D01*
X285242Y53246D01*
X285242Y59737D01*
D13*
X33259Y132871D02*
X31171Y132871D01*
X33259Y132871D02*
X33348Y132873D01*
X33436Y132879D01*
X33524Y132888D01*
X33612Y132901D01*
X33699Y132918D01*
X33785Y132938D01*
X33870Y132963D01*
X33955Y132990D01*
X34038Y133022D01*
X34119Y133056D01*
X34199Y133095D01*
X34277Y133136D01*
X34354Y133181D01*
X34428Y133229D01*
X34501Y133280D01*
X34571Y133334D01*
X34638Y133392D01*
X34704Y133452D01*
X34766Y133514D01*
X34826Y133580D01*
X34884Y133647D01*
X34938Y133717D01*
X34989Y133790D01*
X35037Y133864D01*
X35082Y133941D01*
X35123Y134019D01*
X35162Y134099D01*
X35196Y134180D01*
X35228Y134263D01*
X35255Y134348D01*
X35280Y134433D01*
X35300Y134519D01*
X35317Y134606D01*
X35330Y134694D01*
X35339Y134782D01*
X35345Y134870D01*
X35347Y134959D01*
X35348Y134959D02*
X35348Y140181D01*
X35347Y140181D02*
X35345Y140270D01*
X35339Y140358D01*
X35330Y140446D01*
X35317Y140534D01*
X35300Y140621D01*
X35280Y140707D01*
X35255Y140792D01*
X35228Y140877D01*
X35196Y140960D01*
X35162Y141041D01*
X35123Y141121D01*
X35082Y141199D01*
X35037Y141276D01*
X34989Y141350D01*
X34938Y141423D01*
X34884Y141493D01*
X34826Y141560D01*
X34766Y141626D01*
X34704Y141688D01*
X34638Y141748D01*
X34571Y141806D01*
X34501Y141860D01*
X34428Y141911D01*
X34354Y141959D01*
X34277Y142004D01*
X34199Y142045D01*
X34119Y142084D01*
X34038Y142118D01*
X33955Y142150D01*
X33870Y142177D01*
X33785Y142202D01*
X33699Y142222D01*
X33612Y142239D01*
X33524Y142252D01*
X33436Y142261D01*
X33348Y142267D01*
X33259Y142269D01*
X31171Y142269D01*
X27702Y142269D02*
X27702Y141225D01*
X27702Y142269D02*
X22481Y142269D01*
X25092Y132871D01*
X49542Y86331D02*
X51631Y86331D01*
X51720Y86333D01*
X51808Y86339D01*
X51896Y86348D01*
X51984Y86361D01*
X52071Y86378D01*
X52157Y86398D01*
X52242Y86423D01*
X52327Y86450D01*
X52410Y86482D01*
X52491Y86516D01*
X52571Y86555D01*
X52649Y86596D01*
X52726Y86641D01*
X52800Y86689D01*
X52873Y86740D01*
X52943Y86794D01*
X53010Y86852D01*
X53076Y86912D01*
X53138Y86974D01*
X53198Y87040D01*
X53256Y87107D01*
X53310Y87177D01*
X53361Y87250D01*
X53409Y87324D01*
X53454Y87401D01*
X53495Y87479D01*
X53534Y87559D01*
X53568Y87640D01*
X53600Y87723D01*
X53627Y87808D01*
X53652Y87893D01*
X53672Y87979D01*
X53689Y88066D01*
X53702Y88154D01*
X53711Y88242D01*
X53717Y88330D01*
X53719Y88419D01*
X53719Y93641D01*
X53717Y93730D01*
X53711Y93818D01*
X53702Y93906D01*
X53689Y93994D01*
X53672Y94081D01*
X53652Y94167D01*
X53627Y94252D01*
X53600Y94337D01*
X53568Y94420D01*
X53534Y94501D01*
X53495Y94581D01*
X53454Y94659D01*
X53409Y94736D01*
X53361Y94810D01*
X53310Y94883D01*
X53256Y94953D01*
X53198Y95020D01*
X53138Y95086D01*
X53076Y95148D01*
X53010Y95208D01*
X52943Y95266D01*
X52873Y95320D01*
X52800Y95371D01*
X52726Y95419D01*
X52649Y95464D01*
X52571Y95505D01*
X52491Y95544D01*
X52410Y95578D01*
X52327Y95610D01*
X52242Y95637D01*
X52157Y95662D01*
X52071Y95682D01*
X51984Y95699D01*
X51896Y95712D01*
X51808Y95721D01*
X51720Y95727D01*
X51631Y95729D01*
X49542Y95729D01*
X46074Y88942D02*
X46072Y89043D01*
X46066Y89144D01*
X46056Y89245D01*
X46043Y89345D01*
X46025Y89445D01*
X46004Y89544D01*
X45978Y89642D01*
X45949Y89739D01*
X45917Y89835D01*
X45880Y89929D01*
X45840Y90022D01*
X45796Y90114D01*
X45749Y90203D01*
X45698Y90291D01*
X45644Y90377D01*
X45587Y90460D01*
X45527Y90542D01*
X45463Y90620D01*
X45397Y90697D01*
X45327Y90770D01*
X45255Y90841D01*
X45180Y90909D01*
X45102Y90974D01*
X45022Y91036D01*
X44940Y91095D01*
X44855Y91151D01*
X44769Y91203D01*
X44680Y91252D01*
X44589Y91298D01*
X44497Y91339D01*
X44403Y91378D01*
X44308Y91412D01*
X44212Y91443D01*
X44114Y91470D01*
X44016Y91494D01*
X43916Y91513D01*
X43816Y91529D01*
X43716Y91541D01*
X43615Y91549D01*
X43514Y91553D01*
X43412Y91553D01*
X43311Y91549D01*
X43210Y91541D01*
X43110Y91529D01*
X43010Y91513D01*
X42910Y91494D01*
X42812Y91470D01*
X42714Y91443D01*
X42618Y91412D01*
X42523Y91378D01*
X42429Y91339D01*
X42337Y91298D01*
X42246Y91252D01*
X42158Y91203D01*
X42071Y91151D01*
X41986Y91095D01*
X41904Y91036D01*
X41824Y90974D01*
X41746Y90909D01*
X41671Y90841D01*
X41599Y90770D01*
X41529Y90697D01*
X41463Y90620D01*
X41399Y90542D01*
X41339Y90460D01*
X41282Y90377D01*
X41228Y90291D01*
X41177Y90203D01*
X41130Y90114D01*
X41086Y90022D01*
X41046Y89929D01*
X41009Y89835D01*
X40977Y89739D01*
X40948Y89642D01*
X40922Y89544D01*
X40901Y89445D01*
X40883Y89345D01*
X40870Y89245D01*
X40860Y89144D01*
X40854Y89043D01*
X40852Y88942D01*
X40854Y88841D01*
X40860Y88740D01*
X40870Y88639D01*
X40883Y88539D01*
X40901Y88439D01*
X40922Y88340D01*
X40948Y88242D01*
X40977Y88145D01*
X41009Y88049D01*
X41046Y87955D01*
X41086Y87862D01*
X41130Y87770D01*
X41177Y87681D01*
X41228Y87593D01*
X41282Y87507D01*
X41339Y87424D01*
X41399Y87342D01*
X41463Y87264D01*
X41529Y87187D01*
X41599Y87114D01*
X41671Y87043D01*
X41746Y86975D01*
X41824Y86910D01*
X41904Y86848D01*
X41986Y86789D01*
X42071Y86733D01*
X42157Y86681D01*
X42246Y86632D01*
X42337Y86586D01*
X42429Y86545D01*
X42523Y86506D01*
X42618Y86472D01*
X42714Y86441D01*
X42812Y86414D01*
X42910Y86390D01*
X43010Y86371D01*
X43110Y86355D01*
X43210Y86343D01*
X43311Y86335D01*
X43412Y86331D01*
X43514Y86331D01*
X43615Y86335D01*
X43716Y86343D01*
X43816Y86355D01*
X43916Y86371D01*
X44016Y86390D01*
X44114Y86414D01*
X44212Y86441D01*
X44308Y86472D01*
X44403Y86506D01*
X44497Y86545D01*
X44589Y86586D01*
X44680Y86632D01*
X44768Y86681D01*
X44855Y86733D01*
X44940Y86789D01*
X45022Y86848D01*
X45102Y86910D01*
X45180Y86975D01*
X45255Y87043D01*
X45327Y87114D01*
X45397Y87187D01*
X45463Y87264D01*
X45527Y87342D01*
X45587Y87424D01*
X45644Y87507D01*
X45698Y87593D01*
X45749Y87681D01*
X45796Y87770D01*
X45840Y87862D01*
X45880Y87955D01*
X45917Y88049D01*
X45949Y88145D01*
X45978Y88242D01*
X46004Y88340D01*
X46025Y88439D01*
X46043Y88539D01*
X46056Y88639D01*
X46066Y88740D01*
X46072Y88841D01*
X46074Y88942D01*
X45551Y93641D02*
X45549Y93731D01*
X45543Y93820D01*
X45534Y93910D01*
X45520Y93999D01*
X45503Y94087D01*
X45482Y94174D01*
X45457Y94261D01*
X45428Y94346D01*
X45396Y94430D01*
X45361Y94512D01*
X45321Y94593D01*
X45279Y94672D01*
X45233Y94749D01*
X45183Y94824D01*
X45131Y94897D01*
X45075Y94968D01*
X45017Y95036D01*
X44955Y95101D01*
X44891Y95164D01*
X44824Y95224D01*
X44755Y95281D01*
X44683Y95335D01*
X44609Y95386D01*
X44533Y95434D01*
X44455Y95478D01*
X44375Y95519D01*
X44293Y95557D01*
X44210Y95591D01*
X44125Y95621D01*
X44039Y95648D01*
X43953Y95671D01*
X43865Y95690D01*
X43776Y95705D01*
X43687Y95717D01*
X43598Y95725D01*
X43508Y95729D01*
X43418Y95729D01*
X43328Y95725D01*
X43239Y95717D01*
X43150Y95705D01*
X43061Y95690D01*
X42973Y95671D01*
X42887Y95648D01*
X42801Y95621D01*
X42716Y95591D01*
X42633Y95557D01*
X42551Y95519D01*
X42471Y95478D01*
X42393Y95434D01*
X42317Y95386D01*
X42243Y95335D01*
X42171Y95281D01*
X42102Y95224D01*
X42035Y95164D01*
X41971Y95101D01*
X41909Y95036D01*
X41851Y94968D01*
X41795Y94897D01*
X41743Y94824D01*
X41693Y94749D01*
X41647Y94672D01*
X41605Y94593D01*
X41565Y94512D01*
X41530Y94430D01*
X41498Y94346D01*
X41469Y94261D01*
X41444Y94174D01*
X41423Y94087D01*
X41406Y93999D01*
X41392Y93910D01*
X41383Y93820D01*
X41377Y93731D01*
X41375Y93641D01*
X41377Y93551D01*
X41383Y93462D01*
X41392Y93372D01*
X41406Y93283D01*
X41423Y93195D01*
X41444Y93108D01*
X41469Y93021D01*
X41498Y92936D01*
X41530Y92852D01*
X41565Y92770D01*
X41605Y92689D01*
X41647Y92610D01*
X41693Y92533D01*
X41743Y92458D01*
X41795Y92385D01*
X41851Y92314D01*
X41909Y92246D01*
X41971Y92181D01*
X42035Y92118D01*
X42102Y92058D01*
X42171Y92001D01*
X42243Y91947D01*
X42317Y91896D01*
X42393Y91848D01*
X42471Y91804D01*
X42551Y91763D01*
X42633Y91725D01*
X42716Y91691D01*
X42801Y91661D01*
X42887Y91634D01*
X42973Y91611D01*
X43061Y91592D01*
X43150Y91577D01*
X43239Y91565D01*
X43328Y91557D01*
X43418Y91553D01*
X43508Y91553D01*
X43598Y91557D01*
X43687Y91565D01*
X43776Y91577D01*
X43865Y91592D01*
X43953Y91611D01*
X44039Y91634D01*
X44125Y91661D01*
X44210Y91691D01*
X44293Y91725D01*
X44375Y91763D01*
X44455Y91804D01*
X44533Y91848D01*
X44609Y91896D01*
X44683Y91947D01*
X44755Y92001D01*
X44824Y92058D01*
X44891Y92118D01*
X44955Y92181D01*
X45017Y92246D01*
X45075Y92314D01*
X45131Y92385D01*
X45183Y92458D01*
X45233Y92533D01*
X45279Y92610D01*
X45321Y92689D01*
X45361Y92770D01*
X45396Y92852D01*
X45428Y92936D01*
X45457Y93021D01*
X45482Y93108D01*
X45503Y93195D01*
X45520Y93283D01*
X45534Y93372D01*
X45543Y93462D01*
X45549Y93551D01*
X45551Y93641D01*
D14*
X291184Y228300D02*
X291186Y228363D01*
X291192Y228426D01*
X291202Y228489D01*
X291215Y228550D01*
X291233Y228611D01*
X291254Y228670D01*
X291279Y228729D01*
X291307Y228785D01*
X291339Y228840D01*
X291374Y228892D01*
X291413Y228942D01*
X291454Y228990D01*
X291499Y229035D01*
X291546Y229077D01*
X291595Y229116D01*
X291647Y229152D01*
X291701Y229185D01*
X291757Y229214D01*
X291815Y229240D01*
X291874Y229262D01*
X291934Y229281D01*
X291996Y229295D01*
X292058Y229306D01*
X292121Y229313D01*
X292184Y229316D01*
X292247Y229315D01*
X292310Y229310D01*
X292373Y229301D01*
X292435Y229288D01*
X292496Y229272D01*
X292556Y229252D01*
X292614Y229228D01*
X292671Y229200D01*
X292726Y229169D01*
X292779Y229135D01*
X292830Y229097D01*
X292878Y229056D01*
X292924Y229013D01*
X292967Y228966D01*
X293007Y228917D01*
X293044Y228866D01*
X293077Y228813D01*
X293107Y228757D01*
X293134Y228700D01*
X293157Y228641D01*
X293176Y228581D01*
X293192Y228519D01*
X293204Y228457D01*
X293212Y228395D01*
X293216Y228332D01*
X293216Y228268D01*
X293212Y228205D01*
X293204Y228143D01*
X293192Y228081D01*
X293176Y228019D01*
X293157Y227959D01*
X293134Y227900D01*
X293107Y227843D01*
X293077Y227787D01*
X293044Y227734D01*
X293007Y227683D01*
X292967Y227634D01*
X292924Y227587D01*
X292878Y227544D01*
X292830Y227503D01*
X292779Y227465D01*
X292726Y227431D01*
X292671Y227400D01*
X292614Y227372D01*
X292556Y227348D01*
X292496Y227328D01*
X292435Y227312D01*
X292373Y227299D01*
X292310Y227290D01*
X292247Y227285D01*
X292184Y227284D01*
X292121Y227287D01*
X292058Y227294D01*
X291996Y227305D01*
X291934Y227319D01*
X291874Y227338D01*
X291815Y227360D01*
X291757Y227386D01*
X291701Y227415D01*
X291647Y227448D01*
X291595Y227484D01*
X291546Y227523D01*
X291499Y227565D01*
X291454Y227610D01*
X291413Y227658D01*
X291374Y227708D01*
X291339Y227760D01*
X291307Y227815D01*
X291279Y227871D01*
X291254Y227930D01*
X291233Y227989D01*
X291215Y228050D01*
X291202Y228111D01*
X291192Y228174D01*
X291186Y228237D01*
X291184Y228300D01*
X302450Y278300D02*
X318200Y278300D01*
X318200Y204300D02*
X302450Y204300D01*
X302450Y223300D01*
X302450Y259300D02*
X302450Y278300D01*
D15*
X280488Y272230D02*
X266645Y272230D01*
X280488Y272230D02*
X280612Y272232D01*
X280736Y272238D01*
X280860Y272248D01*
X280984Y272261D01*
X281107Y272279D01*
X281229Y272300D01*
X281351Y272325D01*
X281472Y272354D01*
X281591Y272387D01*
X281710Y272424D01*
X281828Y272464D01*
X281944Y272508D01*
X282059Y272555D01*
X282172Y272606D01*
X282284Y272661D01*
X282393Y272719D01*
X282501Y272781D01*
X282607Y272846D01*
X282711Y272914D01*
X282813Y272985D01*
X282912Y273060D01*
X283009Y273138D01*
X283103Y273218D01*
X283195Y273302D01*
X283285Y273388D01*
X283371Y273478D01*
X283455Y273570D01*
X283535Y273664D01*
X283613Y273761D01*
X283688Y273860D01*
X283759Y273962D01*
X283827Y274066D01*
X283892Y274172D01*
X283954Y274280D01*
X284012Y274389D01*
X284067Y274501D01*
X284118Y274614D01*
X284165Y274729D01*
X284209Y274845D01*
X284249Y274963D01*
X284286Y275082D01*
X284319Y275201D01*
X284348Y275322D01*
X284373Y275444D01*
X284394Y275566D01*
X284412Y275689D01*
X284425Y275813D01*
X284435Y275937D01*
X284441Y276061D01*
X284443Y276185D01*
X284443Y278162D01*
X266646Y258672D02*
X266648Y258540D01*
X266654Y258408D01*
X266664Y258277D01*
X266677Y258146D01*
X266695Y258015D01*
X266716Y257885D01*
X266741Y257756D01*
X266770Y257627D01*
X266803Y257499D01*
X266840Y257373D01*
X266880Y257247D01*
X266924Y257123D01*
X266972Y257000D01*
X267024Y256879D01*
X267078Y256759D01*
X267137Y256640D01*
X267199Y256524D01*
X267264Y256410D01*
X267333Y256297D01*
X267405Y256187D01*
X267480Y256078D01*
X267559Y255972D01*
X267640Y255869D01*
X267725Y255768D01*
X267812Y255669D01*
X267903Y255573D01*
X267996Y255480D01*
X268092Y255389D01*
X268191Y255302D01*
X268292Y255217D01*
X268395Y255136D01*
X268501Y255057D01*
X268610Y254982D01*
X268720Y254910D01*
X268833Y254841D01*
X268947Y254776D01*
X269063Y254714D01*
X269182Y254655D01*
X269302Y254601D01*
X269423Y254549D01*
X269546Y254501D01*
X269670Y254457D01*
X269796Y254417D01*
X269922Y254380D01*
X270050Y254347D01*
X270179Y254318D01*
X270308Y254293D01*
X270438Y254272D01*
X270569Y254254D01*
X270700Y254241D01*
X270831Y254231D01*
X270963Y254225D01*
X271095Y254223D01*
X266645Y258672D02*
X266647Y258822D01*
X266653Y258971D01*
X266663Y259121D01*
X266676Y259270D01*
X266694Y259419D01*
X266715Y259567D01*
X266741Y259714D01*
X266770Y259861D01*
X266803Y260007D01*
X266840Y260153D01*
X266881Y260297D01*
X266925Y260440D01*
X266973Y260581D01*
X267025Y260722D01*
X267081Y260861D01*
X267140Y260999D01*
X267203Y261135D01*
X267269Y261269D01*
X267339Y261401D01*
X267412Y261532D01*
X267489Y261661D01*
X267569Y261787D01*
X267652Y261912D01*
X267738Y262034D01*
X267828Y262154D01*
X267921Y262272D01*
X268017Y262387D01*
X268115Y262499D01*
X268217Y262609D01*
X268322Y262716D01*
X268429Y262821D01*
X268539Y262922D01*
X268652Y263021D01*
X268767Y263117D01*
X268885Y263209D01*
X269005Y263299D01*
X269127Y263385D01*
X269251Y263468D01*
X269378Y263548D01*
X269507Y263624D01*
X269638Y263698D01*
X269770Y263767D01*
X269905Y263833D01*
X270041Y263896D01*
X270178Y263955D01*
X270317Y264010D01*
X270458Y264062D01*
X270600Y264110D01*
X274556Y255705D02*
X274462Y255610D01*
X274366Y255517D01*
X274268Y255427D01*
X274167Y255340D01*
X274063Y255256D01*
X273958Y255174D01*
X273850Y255096D01*
X273740Y255020D01*
X273627Y254948D01*
X273513Y254879D01*
X273397Y254813D01*
X273279Y254750D01*
X273160Y254691D01*
X273039Y254635D01*
X272916Y254583D01*
X272792Y254533D01*
X272667Y254488D01*
X272540Y254446D01*
X272412Y254407D01*
X272283Y254372D01*
X272154Y254341D01*
X272023Y254313D01*
X271892Y254289D01*
X271760Y254269D01*
X271628Y254252D01*
X271495Y254239D01*
X271362Y254229D01*
X271228Y254224D01*
X271095Y254222D01*
X274555Y255706D02*
X284443Y264110D01*
X284443Y254223D01*
D16*
X280920Y103120D02*
X272800Y103120D01*
X272800Y97540D01*
X272800Y80260D02*
X272800Y74680D01*
X280920Y74680D01*
D11*
X259842Y85527D02*
X248158Y85527D01*
X248158Y84229D02*
X248158Y86826D01*
X259842Y86826D02*
X259842Y84229D01*
X248158Y93989D02*
X248158Y96586D01*
X248158Y93989D02*
X248160Y93890D01*
X248166Y93790D01*
X248175Y93691D01*
X248188Y93593D01*
X248205Y93495D01*
X248226Y93397D01*
X248251Y93301D01*
X248279Y93206D01*
X248311Y93112D01*
X248346Y93019D01*
X248385Y92927D01*
X248428Y92837D01*
X248473Y92749D01*
X248523Y92662D01*
X248575Y92578D01*
X248631Y92495D01*
X248689Y92415D01*
X248751Y92337D01*
X248816Y92262D01*
X248884Y92189D01*
X248954Y92119D01*
X249027Y92051D01*
X249102Y91986D01*
X249180Y91924D01*
X249260Y91866D01*
X249343Y91810D01*
X249427Y91758D01*
X249514Y91708D01*
X249602Y91663D01*
X249692Y91620D01*
X249784Y91581D01*
X249877Y91546D01*
X249971Y91514D01*
X250066Y91486D01*
X250162Y91461D01*
X250260Y91440D01*
X250358Y91423D01*
X250456Y91410D01*
X250555Y91401D01*
X250655Y91395D01*
X250754Y91393D01*
X257246Y91393D01*
X257345Y91395D01*
X257445Y91401D01*
X257544Y91410D01*
X257642Y91423D01*
X257740Y91440D01*
X257838Y91461D01*
X257934Y91486D01*
X258029Y91514D01*
X258123Y91546D01*
X258216Y91581D01*
X258308Y91620D01*
X258398Y91663D01*
X258486Y91708D01*
X258573Y91758D01*
X258657Y91810D01*
X258740Y91866D01*
X258820Y91924D01*
X258898Y91986D01*
X258973Y92051D01*
X259046Y92119D01*
X259116Y92189D01*
X259184Y92262D01*
X259249Y92337D01*
X259311Y92415D01*
X259369Y92495D01*
X259425Y92578D01*
X259477Y92662D01*
X259527Y92749D01*
X259572Y92837D01*
X259615Y92927D01*
X259654Y93019D01*
X259689Y93111D01*
X259721Y93206D01*
X259749Y93301D01*
X259774Y93397D01*
X259795Y93495D01*
X259812Y93593D01*
X259825Y93691D01*
X259834Y93790D01*
X259840Y93890D01*
X259842Y93989D01*
X259842Y96586D01*
X259842Y104521D02*
X259840Y104628D01*
X259834Y104734D01*
X259824Y104840D01*
X259811Y104946D01*
X259793Y105052D01*
X259772Y105156D01*
X259747Y105260D01*
X259718Y105363D01*
X259686Y105464D01*
X259649Y105564D01*
X259609Y105663D01*
X259566Y105761D01*
X259519Y105857D01*
X259468Y105951D01*
X259414Y106043D01*
X259357Y106133D01*
X259297Y106221D01*
X259233Y106306D01*
X259166Y106389D01*
X259096Y106470D01*
X259024Y106548D01*
X258948Y106624D01*
X258870Y106696D01*
X258789Y106766D01*
X258706Y106833D01*
X258621Y106897D01*
X258533Y106957D01*
X258443Y107014D01*
X258351Y107068D01*
X258257Y107119D01*
X258161Y107166D01*
X258063Y107209D01*
X257964Y107249D01*
X257864Y107286D01*
X257763Y107318D01*
X257660Y107347D01*
X257556Y107372D01*
X257452Y107393D01*
X257346Y107411D01*
X257240Y107424D01*
X257134Y107434D01*
X257028Y107440D01*
X256921Y107442D01*
X259842Y104521D02*
X259840Y104400D01*
X259834Y104279D01*
X259824Y104159D01*
X259811Y104038D01*
X259793Y103919D01*
X259772Y103799D01*
X259747Y103681D01*
X259718Y103564D01*
X259685Y103447D01*
X259649Y103332D01*
X259608Y103218D01*
X259565Y103105D01*
X259517Y102993D01*
X259466Y102884D01*
X259411Y102776D01*
X259353Y102669D01*
X259292Y102565D01*
X259227Y102463D01*
X259159Y102363D01*
X259088Y102265D01*
X259014Y102169D01*
X258937Y102076D01*
X258856Y101986D01*
X258773Y101898D01*
X258687Y101813D01*
X258598Y101730D01*
X258507Y101651D01*
X258413Y101574D01*
X258317Y101501D01*
X258219Y101431D01*
X258118Y101364D01*
X258015Y101300D01*
X257910Y101240D01*
X257803Y101183D01*
X257695Y101129D01*
X257585Y101079D01*
X257473Y101033D01*
X257360Y100990D01*
X257245Y100951D01*
X254649Y106469D02*
X254726Y106548D01*
X254807Y106624D01*
X254890Y106697D01*
X254975Y106767D01*
X255063Y106834D01*
X255153Y106898D01*
X255245Y106958D01*
X255340Y107015D01*
X255436Y107069D01*
X255534Y107120D01*
X255634Y107167D01*
X255736Y107211D01*
X255839Y107251D01*
X255943Y107287D01*
X256049Y107319D01*
X256155Y107348D01*
X256263Y107373D01*
X256371Y107395D01*
X256481Y107412D01*
X256590Y107426D01*
X256700Y107435D01*
X256811Y107441D01*
X256921Y107443D01*
X254649Y106468D02*
X248158Y100951D01*
X248158Y107442D01*
D16*
X82800Y252480D02*
X74680Y252480D01*
X82800Y252480D02*
X82800Y258060D01*
X82800Y275340D02*
X82800Y280920D01*
X74680Y280920D01*
D11*
X95758Y249456D02*
X107442Y249456D01*
X95758Y248158D02*
X95758Y250754D01*
X107442Y250754D02*
X107442Y248158D01*
X95758Y257918D02*
X95758Y260514D01*
X95758Y257918D02*
X95760Y257819D01*
X95766Y257719D01*
X95775Y257620D01*
X95788Y257522D01*
X95805Y257424D01*
X95826Y257326D01*
X95851Y257230D01*
X95879Y257135D01*
X95911Y257041D01*
X95946Y256948D01*
X95985Y256856D01*
X96028Y256766D01*
X96073Y256678D01*
X96123Y256591D01*
X96175Y256507D01*
X96231Y256424D01*
X96289Y256344D01*
X96351Y256266D01*
X96416Y256191D01*
X96484Y256118D01*
X96554Y256048D01*
X96627Y255980D01*
X96702Y255915D01*
X96780Y255853D01*
X96860Y255795D01*
X96943Y255739D01*
X97027Y255687D01*
X97114Y255637D01*
X97202Y255592D01*
X97292Y255549D01*
X97384Y255510D01*
X97477Y255475D01*
X97571Y255443D01*
X97666Y255415D01*
X97762Y255390D01*
X97860Y255369D01*
X97958Y255352D01*
X98056Y255339D01*
X98155Y255330D01*
X98255Y255324D01*
X98354Y255322D01*
X98354Y255321D02*
X104846Y255321D01*
X104846Y255322D02*
X104945Y255324D01*
X105045Y255330D01*
X105144Y255339D01*
X105242Y255352D01*
X105340Y255369D01*
X105438Y255390D01*
X105534Y255415D01*
X105629Y255443D01*
X105723Y255475D01*
X105816Y255510D01*
X105908Y255549D01*
X105998Y255592D01*
X106086Y255637D01*
X106173Y255687D01*
X106257Y255739D01*
X106340Y255795D01*
X106420Y255853D01*
X106498Y255915D01*
X106573Y255980D01*
X106646Y256048D01*
X106716Y256118D01*
X106784Y256191D01*
X106849Y256266D01*
X106911Y256344D01*
X106969Y256424D01*
X107025Y256507D01*
X107077Y256591D01*
X107127Y256678D01*
X107172Y256766D01*
X107215Y256856D01*
X107254Y256948D01*
X107289Y257040D01*
X107321Y257135D01*
X107349Y257230D01*
X107374Y257326D01*
X107395Y257424D01*
X107412Y257522D01*
X107425Y257620D01*
X107434Y257719D01*
X107440Y257819D01*
X107442Y257918D01*
X107442Y260514D01*
X95758Y264880D02*
X95758Y268125D01*
X95760Y268238D01*
X95766Y268351D01*
X95776Y268464D01*
X95790Y268577D01*
X95807Y268689D01*
X95829Y268800D01*
X95854Y268910D01*
X95884Y269020D01*
X95917Y269128D01*
X95954Y269235D01*
X95994Y269341D01*
X96039Y269445D01*
X96087Y269548D01*
X96138Y269649D01*
X96193Y269748D01*
X96251Y269845D01*
X96313Y269940D01*
X96378Y270033D01*
X96446Y270123D01*
X96517Y270211D01*
X96592Y270297D01*
X96669Y270380D01*
X96749Y270460D01*
X96832Y270537D01*
X96918Y270612D01*
X97006Y270683D01*
X97096Y270751D01*
X97189Y270816D01*
X97284Y270878D01*
X97381Y270936D01*
X97480Y270991D01*
X97581Y271042D01*
X97684Y271090D01*
X97788Y271135D01*
X97894Y271175D01*
X98001Y271212D01*
X98109Y271245D01*
X98219Y271275D01*
X98329Y271300D01*
X98440Y271322D01*
X98552Y271339D01*
X98665Y271353D01*
X98778Y271363D01*
X98891Y271369D01*
X99004Y271371D01*
X99117Y271369D01*
X99230Y271363D01*
X99343Y271353D01*
X99456Y271339D01*
X99568Y271322D01*
X99679Y271300D01*
X99789Y271275D01*
X99899Y271245D01*
X100007Y271212D01*
X100114Y271175D01*
X100220Y271135D01*
X100324Y271090D01*
X100427Y271042D01*
X100528Y270991D01*
X100627Y270936D01*
X100724Y270878D01*
X100819Y270816D01*
X100912Y270751D01*
X101002Y270683D01*
X101090Y270612D01*
X101176Y270537D01*
X101259Y270460D01*
X101339Y270380D01*
X101416Y270297D01*
X101491Y270211D01*
X101562Y270123D01*
X101630Y270033D01*
X101695Y269940D01*
X101757Y269845D01*
X101815Y269748D01*
X101870Y269649D01*
X101921Y269548D01*
X101969Y269445D01*
X102014Y269341D01*
X102054Y269235D01*
X102091Y269128D01*
X102124Y269020D01*
X102154Y268910D01*
X102179Y268800D01*
X102201Y268689D01*
X102218Y268577D01*
X102232Y268464D01*
X102242Y268351D01*
X102248Y268238D01*
X102250Y268125D01*
X107442Y268774D02*
X107442Y264880D01*
X107442Y268774D02*
X107440Y268875D01*
X107434Y268975D01*
X107424Y269075D01*
X107411Y269175D01*
X107393Y269274D01*
X107372Y269373D01*
X107347Y269470D01*
X107318Y269567D01*
X107285Y269662D01*
X107249Y269756D01*
X107209Y269848D01*
X107166Y269939D01*
X107119Y270028D01*
X107069Y270115D01*
X107015Y270201D01*
X106958Y270284D01*
X106898Y270364D01*
X106835Y270443D01*
X106768Y270519D01*
X106699Y270592D01*
X106627Y270662D01*
X106553Y270730D01*
X106476Y270795D01*
X106396Y270856D01*
X106314Y270915D01*
X106230Y270970D01*
X106144Y271022D01*
X106056Y271071D01*
X105966Y271116D01*
X105874Y271158D01*
X105781Y271196D01*
X105686Y271230D01*
X105591Y271261D01*
X105494Y271288D01*
X105396Y271311D01*
X105297Y271331D01*
X105197Y271346D01*
X105097Y271358D01*
X104997Y271366D01*
X104896Y271370D01*
X104796Y271370D01*
X104695Y271366D01*
X104595Y271358D01*
X104495Y271346D01*
X104395Y271331D01*
X104296Y271311D01*
X104198Y271288D01*
X104101Y271261D01*
X104006Y271230D01*
X103911Y271196D01*
X103818Y271158D01*
X103726Y271116D01*
X103636Y271071D01*
X103548Y271022D01*
X103462Y270970D01*
X103378Y270915D01*
X103296Y270856D01*
X103216Y270795D01*
X103139Y270730D01*
X103065Y270662D01*
X102993Y270592D01*
X102924Y270519D01*
X102857Y270443D01*
X102794Y270364D01*
X102734Y270284D01*
X102677Y270201D01*
X102623Y270115D01*
X102573Y270028D01*
X102526Y269939D01*
X102483Y269848D01*
X102443Y269756D01*
X102407Y269662D01*
X102374Y269567D01*
X102345Y269470D01*
X102320Y269373D01*
X102299Y269274D01*
X102281Y269175D01*
X102268Y269075D01*
X102258Y268975D01*
X102252Y268875D01*
X102250Y268774D01*
X102249Y268774D02*
X102249Y266178D01*
D16*
X44700Y100080D02*
X36580Y100080D01*
X44700Y100080D02*
X44700Y105660D01*
X44700Y122940D02*
X44700Y128520D01*
X36580Y128520D01*
D11*
X57658Y97056D02*
X69342Y97056D01*
X57658Y95758D02*
X57658Y98354D01*
X69342Y98354D02*
X69342Y95758D01*
X57658Y105518D02*
X57658Y108114D01*
X57658Y105518D02*
X57660Y105419D01*
X57666Y105319D01*
X57675Y105220D01*
X57688Y105122D01*
X57705Y105024D01*
X57726Y104926D01*
X57751Y104830D01*
X57779Y104735D01*
X57811Y104641D01*
X57846Y104548D01*
X57885Y104456D01*
X57928Y104366D01*
X57973Y104278D01*
X58023Y104191D01*
X58075Y104107D01*
X58131Y104024D01*
X58189Y103944D01*
X58251Y103866D01*
X58316Y103791D01*
X58384Y103718D01*
X58454Y103648D01*
X58527Y103580D01*
X58602Y103515D01*
X58680Y103453D01*
X58760Y103395D01*
X58843Y103339D01*
X58927Y103287D01*
X59014Y103237D01*
X59102Y103192D01*
X59192Y103149D01*
X59284Y103110D01*
X59377Y103075D01*
X59471Y103043D01*
X59566Y103015D01*
X59662Y102990D01*
X59760Y102969D01*
X59858Y102952D01*
X59956Y102939D01*
X60055Y102930D01*
X60155Y102924D01*
X60254Y102922D01*
X60254Y102921D02*
X66746Y102921D01*
X66746Y102922D02*
X66845Y102924D01*
X66945Y102930D01*
X67044Y102939D01*
X67142Y102952D01*
X67240Y102969D01*
X67338Y102990D01*
X67434Y103015D01*
X67529Y103043D01*
X67623Y103075D01*
X67716Y103110D01*
X67808Y103149D01*
X67898Y103192D01*
X67986Y103237D01*
X68073Y103287D01*
X68157Y103339D01*
X68240Y103395D01*
X68320Y103453D01*
X68398Y103515D01*
X68473Y103580D01*
X68546Y103648D01*
X68616Y103718D01*
X68684Y103791D01*
X68749Y103866D01*
X68811Y103944D01*
X68869Y104024D01*
X68925Y104107D01*
X68977Y104191D01*
X69027Y104278D01*
X69072Y104366D01*
X69115Y104456D01*
X69154Y104548D01*
X69189Y104640D01*
X69221Y104735D01*
X69249Y104830D01*
X69274Y104926D01*
X69295Y105024D01*
X69312Y105122D01*
X69325Y105220D01*
X69334Y105319D01*
X69340Y105419D01*
X69342Y105518D01*
X69342Y108114D01*
X69342Y115076D02*
X60254Y112480D01*
X60254Y118971D01*
X57658Y117023D02*
X62851Y117023D01*
M02*
