G04 EAGLE Gerber RS-274X export*
G75*
%MOMM*%
%FSLAX34Y34*%
%LPD*%
%INSilkscreen Top*%
%IPPOS*%
%AMOC8*
5,1,8,0,0,1.08239X$1,22.5*%
G01*
%ADD10C,0.203200*%
%ADD11C,0.127000*%
%ADD12C,0.200000*%
%ADD13C,0.101600*%
%ADD14C,0.076200*%
%ADD15C,0.406400*%
%ADD16C,0.152400*%


D10*
X218800Y241500D02*
X228800Y241500D01*
X228800Y231500D01*
X228800Y149500D02*
X228800Y139500D01*
X218800Y139500D01*
X126800Y231500D02*
X136800Y241500D01*
X126800Y149500D02*
X126800Y139500D01*
X136800Y139500D01*
D11*
X171247Y262326D02*
X171247Y265811D01*
X171247Y262326D02*
X171249Y262255D01*
X171255Y262183D01*
X171264Y262113D01*
X171277Y262043D01*
X171294Y261973D01*
X171315Y261905D01*
X171339Y261838D01*
X171367Y261772D01*
X171398Y261708D01*
X171433Y261645D01*
X171471Y261585D01*
X171512Y261526D01*
X171556Y261470D01*
X171603Y261416D01*
X171652Y261365D01*
X171705Y261317D01*
X171760Y261271D01*
X171817Y261229D01*
X171877Y261189D01*
X171938Y261153D01*
X172002Y261120D01*
X172067Y261091D01*
X172133Y261065D01*
X172201Y261042D01*
X172270Y261023D01*
X172340Y261008D01*
X172410Y260997D01*
X172481Y260989D01*
X172552Y260985D01*
X172624Y260985D01*
X172695Y260989D01*
X172766Y260997D01*
X172836Y261008D01*
X172906Y261023D01*
X172975Y261042D01*
X173043Y261065D01*
X173109Y261091D01*
X173174Y261120D01*
X173238Y261153D01*
X173299Y261189D01*
X173359Y261229D01*
X173416Y261271D01*
X173471Y261317D01*
X173524Y261365D01*
X173573Y261416D01*
X173620Y261470D01*
X173664Y261526D01*
X173705Y261585D01*
X173743Y261645D01*
X173778Y261708D01*
X173809Y261772D01*
X173837Y261838D01*
X173861Y261905D01*
X173882Y261973D01*
X173899Y262043D01*
X173912Y262113D01*
X173921Y262183D01*
X173927Y262255D01*
X173929Y262326D01*
X173929Y265811D01*
X177891Y265811D02*
X177891Y260985D01*
X177891Y263398D02*
X177221Y263800D01*
X177174Y263830D01*
X177130Y263864D01*
X177088Y263900D01*
X177049Y263939D01*
X177012Y263980D01*
X176979Y264025D01*
X176949Y264071D01*
X176921Y264119D01*
X176898Y264169D01*
X176878Y264221D01*
X176861Y264274D01*
X176848Y264327D01*
X176839Y264382D01*
X176834Y264437D01*
X176832Y264493D01*
X176834Y264548D01*
X176840Y264603D01*
X176850Y264657D01*
X176864Y264711D01*
X176881Y264764D01*
X176902Y264815D01*
X176927Y264865D01*
X176954Y264913D01*
X176985Y264958D01*
X177020Y265002D01*
X177057Y265043D01*
X177096Y265082D01*
X177139Y265117D01*
X177184Y265150D01*
X177230Y265180D01*
X177279Y265206D01*
X177330Y265228D01*
X177382Y265248D01*
X177435Y265263D01*
X177489Y265275D01*
X177489Y265274D02*
X177578Y265289D01*
X177668Y265299D01*
X177758Y265306D01*
X177848Y265309D01*
X177938Y265308D01*
X178028Y265303D01*
X178117Y265295D01*
X178207Y265282D01*
X178295Y265266D01*
X178383Y265246D01*
X178470Y265223D01*
X178556Y265196D01*
X178640Y265165D01*
X178724Y265130D01*
X178805Y265092D01*
X178886Y265051D01*
X178964Y265006D01*
X177891Y263398D02*
X178562Y262996D01*
X178609Y262966D01*
X178653Y262932D01*
X178695Y262896D01*
X178734Y262857D01*
X178771Y262816D01*
X178804Y262771D01*
X178834Y262725D01*
X178862Y262677D01*
X178885Y262627D01*
X178905Y262575D01*
X178922Y262522D01*
X178935Y262469D01*
X178944Y262414D01*
X178949Y262359D01*
X178951Y262303D01*
X178949Y262248D01*
X178943Y262193D01*
X178933Y262139D01*
X178919Y262085D01*
X178902Y262032D01*
X178881Y261981D01*
X178856Y261931D01*
X178829Y261883D01*
X178798Y261837D01*
X178763Y261794D01*
X178726Y261753D01*
X178687Y261714D01*
X178644Y261679D01*
X178599Y261646D01*
X178552Y261616D01*
X178504Y261590D01*
X178453Y261568D01*
X178401Y261548D01*
X178348Y261533D01*
X178294Y261521D01*
X178294Y261522D02*
X178205Y261507D01*
X178115Y261497D01*
X178025Y261490D01*
X177935Y261487D01*
X177845Y261488D01*
X177755Y261493D01*
X177666Y261501D01*
X177576Y261514D01*
X177488Y261530D01*
X177400Y261550D01*
X177313Y261573D01*
X177227Y261600D01*
X177143Y261631D01*
X177059Y261666D01*
X176978Y261704D01*
X176898Y261745D01*
X176819Y261790D01*
X181672Y260985D02*
X183012Y260985D01*
X183083Y260987D01*
X183155Y260993D01*
X183225Y261002D01*
X183295Y261015D01*
X183365Y261032D01*
X183433Y261053D01*
X183500Y261077D01*
X183566Y261105D01*
X183630Y261136D01*
X183693Y261171D01*
X183753Y261209D01*
X183812Y261250D01*
X183868Y261294D01*
X183922Y261341D01*
X183973Y261390D01*
X184021Y261443D01*
X184067Y261498D01*
X184109Y261555D01*
X184149Y261615D01*
X184185Y261676D01*
X184218Y261740D01*
X184247Y261805D01*
X184273Y261871D01*
X184296Y261939D01*
X184315Y262008D01*
X184330Y262078D01*
X184341Y262148D01*
X184349Y262219D01*
X184353Y262290D01*
X184353Y262362D01*
X184349Y262433D01*
X184341Y262504D01*
X184330Y262574D01*
X184315Y262644D01*
X184296Y262713D01*
X184273Y262781D01*
X184247Y262847D01*
X184218Y262912D01*
X184185Y262976D01*
X184149Y263037D01*
X184109Y263097D01*
X184067Y263154D01*
X184021Y263209D01*
X183973Y263262D01*
X183922Y263311D01*
X183868Y263358D01*
X183812Y263402D01*
X183753Y263443D01*
X183693Y263481D01*
X183630Y263516D01*
X183566Y263547D01*
X183500Y263575D01*
X183433Y263599D01*
X183365Y263620D01*
X183295Y263637D01*
X183225Y263650D01*
X183155Y263659D01*
X183083Y263665D01*
X183012Y263667D01*
X183280Y265811D02*
X181672Y265811D01*
X183280Y265811D02*
X183345Y265809D01*
X183409Y265803D01*
X183473Y265793D01*
X183537Y265780D01*
X183599Y265762D01*
X183660Y265741D01*
X183720Y265717D01*
X183778Y265688D01*
X183835Y265656D01*
X183889Y265621D01*
X183941Y265583D01*
X183991Y265541D01*
X184038Y265497D01*
X184082Y265450D01*
X184124Y265400D01*
X184162Y265348D01*
X184197Y265294D01*
X184229Y265237D01*
X184258Y265179D01*
X184282Y265119D01*
X184303Y265058D01*
X184321Y264996D01*
X184334Y264932D01*
X184344Y264868D01*
X184350Y264804D01*
X184352Y264739D01*
X184350Y264674D01*
X184344Y264610D01*
X184334Y264546D01*
X184321Y264482D01*
X184303Y264420D01*
X184282Y264359D01*
X184258Y264299D01*
X184229Y264241D01*
X184197Y264184D01*
X184162Y264130D01*
X184124Y264078D01*
X184082Y264028D01*
X184038Y263981D01*
X183991Y263937D01*
X183941Y263895D01*
X183889Y263857D01*
X183835Y263822D01*
X183778Y263790D01*
X183720Y263761D01*
X183660Y263737D01*
X183599Y263716D01*
X183537Y263698D01*
X183473Y263685D01*
X183409Y263675D01*
X183345Y263669D01*
X183280Y263667D01*
X183280Y263666D02*
X182208Y263666D01*
X145800Y47550D02*
X137800Y47550D01*
X137800Y24800D01*
X209800Y47550D02*
X217800Y47550D01*
X217800Y24800D01*
X205800Y5050D02*
X149800Y5050D01*
D12*
X143800Y55800D02*
X143802Y55863D01*
X143808Y55925D01*
X143818Y55987D01*
X143831Y56049D01*
X143849Y56109D01*
X143870Y56168D01*
X143895Y56226D01*
X143924Y56282D01*
X143956Y56336D01*
X143991Y56388D01*
X144029Y56437D01*
X144071Y56485D01*
X144115Y56529D01*
X144163Y56571D01*
X144212Y56609D01*
X144264Y56644D01*
X144318Y56676D01*
X144374Y56705D01*
X144432Y56730D01*
X144491Y56751D01*
X144551Y56769D01*
X144613Y56782D01*
X144675Y56792D01*
X144737Y56798D01*
X144800Y56800D01*
X144863Y56798D01*
X144925Y56792D01*
X144987Y56782D01*
X145049Y56769D01*
X145109Y56751D01*
X145168Y56730D01*
X145226Y56705D01*
X145282Y56676D01*
X145336Y56644D01*
X145388Y56609D01*
X145437Y56571D01*
X145485Y56529D01*
X145529Y56485D01*
X145571Y56437D01*
X145609Y56388D01*
X145644Y56336D01*
X145676Y56282D01*
X145705Y56226D01*
X145730Y56168D01*
X145751Y56109D01*
X145769Y56049D01*
X145782Y55987D01*
X145792Y55925D01*
X145798Y55863D01*
X145800Y55800D01*
X145798Y55737D01*
X145792Y55675D01*
X145782Y55613D01*
X145769Y55551D01*
X145751Y55491D01*
X145730Y55432D01*
X145705Y55374D01*
X145676Y55318D01*
X145644Y55264D01*
X145609Y55212D01*
X145571Y55163D01*
X145529Y55115D01*
X145485Y55071D01*
X145437Y55029D01*
X145388Y54991D01*
X145336Y54956D01*
X145282Y54924D01*
X145226Y54895D01*
X145168Y54870D01*
X145109Y54849D01*
X145049Y54831D01*
X144987Y54818D01*
X144925Y54808D01*
X144863Y54802D01*
X144800Y54800D01*
X144737Y54802D01*
X144675Y54808D01*
X144613Y54818D01*
X144551Y54831D01*
X144491Y54849D01*
X144432Y54870D01*
X144374Y54895D01*
X144318Y54924D01*
X144264Y54956D01*
X144212Y54991D01*
X144163Y55029D01*
X144115Y55071D01*
X144071Y55115D01*
X144029Y55163D01*
X143991Y55212D01*
X143956Y55264D01*
X143924Y55318D01*
X143895Y55374D01*
X143870Y55432D01*
X143849Y55491D01*
X143831Y55551D01*
X143818Y55613D01*
X143808Y55675D01*
X143802Y55737D01*
X143800Y55800D01*
D13*
X142203Y66304D02*
X142203Y75392D01*
X142202Y66304D02*
X142200Y66205D01*
X142194Y66105D01*
X142185Y66006D01*
X142172Y65908D01*
X142155Y65810D01*
X142134Y65712D01*
X142109Y65616D01*
X142081Y65521D01*
X142049Y65427D01*
X142014Y65334D01*
X141975Y65242D01*
X141932Y65152D01*
X141887Y65064D01*
X141837Y64977D01*
X141785Y64893D01*
X141729Y64810D01*
X141671Y64730D01*
X141609Y64652D01*
X141544Y64577D01*
X141476Y64504D01*
X141406Y64434D01*
X141333Y64366D01*
X141258Y64301D01*
X141180Y64239D01*
X141100Y64181D01*
X141017Y64125D01*
X140933Y64073D01*
X140846Y64023D01*
X140758Y63978D01*
X140668Y63935D01*
X140576Y63896D01*
X140483Y63861D01*
X140389Y63829D01*
X140294Y63801D01*
X140198Y63776D01*
X140100Y63755D01*
X140002Y63738D01*
X139904Y63725D01*
X139805Y63716D01*
X139705Y63710D01*
X139606Y63708D01*
X138308Y63708D01*
X147476Y72796D02*
X150722Y75392D01*
X150722Y63708D01*
X153967Y63708D02*
X147476Y63708D01*
X159019Y68252D02*
X166808Y68252D01*
X172264Y63708D02*
X172264Y75392D01*
X177457Y75392D01*
X177457Y70199D02*
X172264Y70199D01*
X184329Y63708D02*
X186926Y63708D01*
X184329Y63708D02*
X184230Y63710D01*
X184130Y63716D01*
X184031Y63725D01*
X183933Y63738D01*
X183835Y63755D01*
X183737Y63776D01*
X183641Y63801D01*
X183546Y63829D01*
X183452Y63861D01*
X183359Y63896D01*
X183267Y63935D01*
X183177Y63978D01*
X183089Y64023D01*
X183002Y64073D01*
X182918Y64125D01*
X182835Y64181D01*
X182755Y64239D01*
X182677Y64301D01*
X182602Y64366D01*
X182529Y64434D01*
X182459Y64504D01*
X182391Y64577D01*
X182326Y64652D01*
X182264Y64730D01*
X182206Y64810D01*
X182150Y64893D01*
X182098Y64977D01*
X182048Y65064D01*
X182003Y65152D01*
X181960Y65242D01*
X181921Y65334D01*
X181886Y65427D01*
X181854Y65521D01*
X181826Y65616D01*
X181801Y65712D01*
X181780Y65810D01*
X181763Y65908D01*
X181750Y66006D01*
X181741Y66105D01*
X181735Y66205D01*
X181733Y66304D01*
X181733Y72796D01*
X181735Y72895D01*
X181741Y72995D01*
X181750Y73094D01*
X181763Y73192D01*
X181780Y73290D01*
X181801Y73388D01*
X181826Y73484D01*
X181854Y73579D01*
X181886Y73673D01*
X181921Y73766D01*
X181960Y73858D01*
X182003Y73948D01*
X182048Y74036D01*
X182098Y74123D01*
X182150Y74207D01*
X182206Y74290D01*
X182264Y74370D01*
X182326Y74448D01*
X182391Y74523D01*
X182459Y74596D01*
X182529Y74666D01*
X182602Y74734D01*
X182677Y74799D01*
X182755Y74861D01*
X182835Y74919D01*
X182918Y74975D01*
X183002Y75027D01*
X183089Y75077D01*
X183177Y75122D01*
X183267Y75165D01*
X183359Y75204D01*
X183451Y75239D01*
X183546Y75271D01*
X183641Y75299D01*
X183737Y75324D01*
X183835Y75345D01*
X183933Y75362D01*
X184031Y75375D01*
X184130Y75384D01*
X184230Y75390D01*
X184329Y75392D01*
X186926Y75392D01*
D11*
X273300Y308050D02*
X281300Y308050D01*
X281300Y330800D01*
X209300Y308050D02*
X201300Y308050D01*
X201300Y330800D01*
X213300Y350550D02*
X269300Y350550D01*
D12*
X273300Y299800D02*
X273302Y299863D01*
X273308Y299925D01*
X273318Y299987D01*
X273331Y300049D01*
X273349Y300109D01*
X273370Y300168D01*
X273395Y300226D01*
X273424Y300282D01*
X273456Y300336D01*
X273491Y300388D01*
X273529Y300437D01*
X273571Y300485D01*
X273615Y300529D01*
X273663Y300571D01*
X273712Y300609D01*
X273764Y300644D01*
X273818Y300676D01*
X273874Y300705D01*
X273932Y300730D01*
X273991Y300751D01*
X274051Y300769D01*
X274113Y300782D01*
X274175Y300792D01*
X274237Y300798D01*
X274300Y300800D01*
X274363Y300798D01*
X274425Y300792D01*
X274487Y300782D01*
X274549Y300769D01*
X274609Y300751D01*
X274668Y300730D01*
X274726Y300705D01*
X274782Y300676D01*
X274836Y300644D01*
X274888Y300609D01*
X274937Y300571D01*
X274985Y300529D01*
X275029Y300485D01*
X275071Y300437D01*
X275109Y300388D01*
X275144Y300336D01*
X275176Y300282D01*
X275205Y300226D01*
X275230Y300168D01*
X275251Y300109D01*
X275269Y300049D01*
X275282Y299987D01*
X275292Y299925D01*
X275298Y299863D01*
X275300Y299800D01*
X275298Y299737D01*
X275292Y299675D01*
X275282Y299613D01*
X275269Y299551D01*
X275251Y299491D01*
X275230Y299432D01*
X275205Y299374D01*
X275176Y299318D01*
X275144Y299264D01*
X275109Y299212D01*
X275071Y299163D01*
X275029Y299115D01*
X274985Y299071D01*
X274937Y299029D01*
X274888Y298991D01*
X274836Y298956D01*
X274782Y298924D01*
X274726Y298895D01*
X274668Y298870D01*
X274609Y298849D01*
X274549Y298831D01*
X274487Y298818D01*
X274425Y298808D01*
X274363Y298802D01*
X274300Y298800D01*
X274237Y298802D01*
X274175Y298808D01*
X274113Y298818D01*
X274051Y298831D01*
X273991Y298849D01*
X273932Y298870D01*
X273874Y298895D01*
X273818Y298924D01*
X273764Y298956D01*
X273712Y298991D01*
X273663Y299029D01*
X273615Y299071D01*
X273571Y299115D01*
X273529Y299163D01*
X273491Y299212D01*
X273456Y299264D01*
X273424Y299318D01*
X273395Y299374D01*
X273370Y299432D01*
X273349Y299491D01*
X273331Y299551D01*
X273318Y299613D01*
X273308Y299675D01*
X273302Y299737D01*
X273300Y299800D01*
D13*
X221403Y291892D02*
X221403Y282804D01*
X221402Y282804D02*
X221400Y282705D01*
X221394Y282605D01*
X221385Y282506D01*
X221372Y282408D01*
X221355Y282310D01*
X221334Y282212D01*
X221309Y282116D01*
X221281Y282021D01*
X221249Y281927D01*
X221214Y281834D01*
X221175Y281742D01*
X221132Y281652D01*
X221087Y281564D01*
X221037Y281477D01*
X220985Y281393D01*
X220929Y281310D01*
X220871Y281230D01*
X220809Y281152D01*
X220744Y281077D01*
X220676Y281004D01*
X220606Y280934D01*
X220533Y280866D01*
X220458Y280801D01*
X220380Y280739D01*
X220300Y280681D01*
X220217Y280625D01*
X220133Y280573D01*
X220046Y280523D01*
X219958Y280478D01*
X219868Y280435D01*
X219776Y280396D01*
X219683Y280361D01*
X219589Y280329D01*
X219494Y280301D01*
X219398Y280276D01*
X219300Y280255D01*
X219202Y280238D01*
X219104Y280225D01*
X219005Y280216D01*
X218905Y280210D01*
X218806Y280208D01*
X217508Y280208D01*
X230246Y291892D02*
X230353Y291890D01*
X230459Y291884D01*
X230565Y291874D01*
X230671Y291861D01*
X230777Y291843D01*
X230881Y291822D01*
X230985Y291797D01*
X231088Y291768D01*
X231189Y291736D01*
X231289Y291699D01*
X231388Y291659D01*
X231486Y291616D01*
X231582Y291569D01*
X231676Y291518D01*
X231768Y291464D01*
X231858Y291407D01*
X231946Y291347D01*
X232031Y291283D01*
X232114Y291216D01*
X232195Y291146D01*
X232273Y291074D01*
X232349Y290998D01*
X232421Y290920D01*
X232491Y290839D01*
X232558Y290756D01*
X232622Y290671D01*
X232682Y290583D01*
X232739Y290493D01*
X232793Y290401D01*
X232844Y290307D01*
X232891Y290211D01*
X232934Y290113D01*
X232974Y290014D01*
X233011Y289914D01*
X233043Y289813D01*
X233072Y289710D01*
X233097Y289606D01*
X233118Y289502D01*
X233136Y289396D01*
X233149Y289290D01*
X233159Y289184D01*
X233165Y289078D01*
X233167Y288971D01*
X230246Y291892D02*
X230125Y291890D01*
X230004Y291884D01*
X229884Y291874D01*
X229763Y291861D01*
X229644Y291843D01*
X229524Y291822D01*
X229406Y291797D01*
X229289Y291768D01*
X229172Y291735D01*
X229057Y291699D01*
X228943Y291658D01*
X228830Y291615D01*
X228718Y291567D01*
X228609Y291516D01*
X228501Y291461D01*
X228394Y291403D01*
X228290Y291342D01*
X228188Y291277D01*
X228088Y291209D01*
X227990Y291138D01*
X227894Y291064D01*
X227801Y290987D01*
X227711Y290906D01*
X227623Y290823D01*
X227538Y290737D01*
X227455Y290648D01*
X227376Y290557D01*
X227299Y290463D01*
X227226Y290367D01*
X227156Y290269D01*
X227089Y290168D01*
X227025Y290065D01*
X226965Y289960D01*
X226908Y289853D01*
X226854Y289745D01*
X226804Y289635D01*
X226758Y289523D01*
X226715Y289410D01*
X226676Y289295D01*
X232194Y286699D02*
X232273Y286776D01*
X232349Y286857D01*
X232422Y286940D01*
X232492Y287025D01*
X232559Y287113D01*
X232623Y287203D01*
X232683Y287295D01*
X232740Y287390D01*
X232794Y287486D01*
X232845Y287584D01*
X232892Y287684D01*
X232936Y287786D01*
X232976Y287889D01*
X233012Y287993D01*
X233044Y288099D01*
X233073Y288205D01*
X233098Y288313D01*
X233120Y288421D01*
X233137Y288531D01*
X233151Y288640D01*
X233160Y288750D01*
X233166Y288861D01*
X233168Y288971D01*
X232193Y286699D02*
X226676Y280208D01*
X233167Y280208D01*
X238219Y284752D02*
X246008Y284752D01*
X255985Y286699D02*
X257932Y286699D01*
X257932Y280208D01*
X254037Y280208D01*
X253938Y280210D01*
X253838Y280216D01*
X253739Y280225D01*
X253641Y280238D01*
X253543Y280255D01*
X253445Y280276D01*
X253349Y280301D01*
X253254Y280329D01*
X253160Y280361D01*
X253067Y280396D01*
X252975Y280435D01*
X252885Y280478D01*
X252797Y280523D01*
X252710Y280573D01*
X252626Y280625D01*
X252543Y280681D01*
X252463Y280739D01*
X252385Y280801D01*
X252310Y280866D01*
X252237Y280934D01*
X252167Y281004D01*
X252099Y281077D01*
X252034Y281152D01*
X251972Y281230D01*
X251914Y281310D01*
X251858Y281393D01*
X251806Y281477D01*
X251756Y281564D01*
X251711Y281652D01*
X251668Y281742D01*
X251629Y281834D01*
X251594Y281927D01*
X251562Y282021D01*
X251534Y282116D01*
X251509Y282212D01*
X251488Y282310D01*
X251471Y282408D01*
X251458Y282506D01*
X251449Y282605D01*
X251443Y282705D01*
X251441Y282804D01*
X251441Y289296D01*
X251443Y289395D01*
X251449Y289495D01*
X251458Y289594D01*
X251471Y289692D01*
X251488Y289790D01*
X251509Y289888D01*
X251534Y289984D01*
X251562Y290079D01*
X251594Y290173D01*
X251629Y290266D01*
X251668Y290358D01*
X251711Y290448D01*
X251756Y290536D01*
X251806Y290623D01*
X251858Y290707D01*
X251914Y290790D01*
X251972Y290870D01*
X252034Y290948D01*
X252099Y291023D01*
X252167Y291096D01*
X252237Y291166D01*
X252310Y291234D01*
X252385Y291299D01*
X252463Y291361D01*
X252543Y291419D01*
X252626Y291475D01*
X252710Y291527D01*
X252797Y291577D01*
X252885Y291622D01*
X252975Y291665D01*
X253067Y291704D01*
X253159Y291739D01*
X253254Y291771D01*
X253349Y291799D01*
X253445Y291824D01*
X253543Y291845D01*
X253641Y291862D01*
X253739Y291875D01*
X253838Y291884D01*
X253938Y291890D01*
X254037Y291892D01*
X257932Y291892D01*
X263802Y291892D02*
X263802Y280208D01*
X263802Y291892D02*
X267048Y291892D01*
X267161Y291890D01*
X267274Y291884D01*
X267387Y291874D01*
X267500Y291860D01*
X267612Y291843D01*
X267723Y291821D01*
X267833Y291796D01*
X267943Y291766D01*
X268051Y291733D01*
X268158Y291696D01*
X268264Y291656D01*
X268368Y291611D01*
X268471Y291563D01*
X268572Y291512D01*
X268671Y291457D01*
X268768Y291399D01*
X268863Y291337D01*
X268956Y291272D01*
X269046Y291204D01*
X269134Y291133D01*
X269220Y291058D01*
X269303Y290981D01*
X269383Y290901D01*
X269460Y290818D01*
X269535Y290732D01*
X269606Y290644D01*
X269674Y290554D01*
X269739Y290461D01*
X269801Y290366D01*
X269859Y290269D01*
X269914Y290170D01*
X269965Y290069D01*
X270013Y289966D01*
X270058Y289862D01*
X270098Y289756D01*
X270135Y289649D01*
X270168Y289541D01*
X270198Y289431D01*
X270223Y289321D01*
X270245Y289210D01*
X270262Y289098D01*
X270276Y288985D01*
X270286Y288872D01*
X270292Y288759D01*
X270294Y288646D01*
X270292Y288533D01*
X270286Y288420D01*
X270276Y288307D01*
X270262Y288194D01*
X270245Y288082D01*
X270223Y287971D01*
X270198Y287861D01*
X270168Y287751D01*
X270135Y287643D01*
X270098Y287536D01*
X270058Y287430D01*
X270013Y287326D01*
X269965Y287223D01*
X269914Y287122D01*
X269859Y287023D01*
X269801Y286926D01*
X269739Y286831D01*
X269674Y286738D01*
X269606Y286648D01*
X269535Y286560D01*
X269460Y286474D01*
X269383Y286391D01*
X269303Y286311D01*
X269220Y286234D01*
X269134Y286159D01*
X269046Y286088D01*
X268956Y286020D01*
X268863Y285955D01*
X268768Y285893D01*
X268671Y285835D01*
X268572Y285780D01*
X268471Y285729D01*
X268368Y285681D01*
X268264Y285636D01*
X268158Y285596D01*
X268051Y285559D01*
X267943Y285526D01*
X267833Y285496D01*
X267723Y285471D01*
X267612Y285449D01*
X267500Y285432D01*
X267387Y285418D01*
X267274Y285408D01*
X267161Y285402D01*
X267048Y285400D01*
X267048Y285401D02*
X263802Y285401D01*
X278196Y280208D02*
X278295Y280210D01*
X278395Y280216D01*
X278494Y280225D01*
X278592Y280238D01*
X278690Y280255D01*
X278788Y280276D01*
X278884Y280301D01*
X278979Y280329D01*
X279073Y280361D01*
X279166Y280396D01*
X279258Y280435D01*
X279348Y280478D01*
X279436Y280523D01*
X279523Y280573D01*
X279607Y280625D01*
X279690Y280681D01*
X279770Y280739D01*
X279848Y280801D01*
X279923Y280866D01*
X279996Y280934D01*
X280066Y281004D01*
X280134Y281077D01*
X280199Y281152D01*
X280261Y281230D01*
X280319Y281310D01*
X280375Y281393D01*
X280427Y281477D01*
X280477Y281564D01*
X280522Y281652D01*
X280565Y281742D01*
X280604Y281834D01*
X280639Y281927D01*
X280671Y282021D01*
X280699Y282116D01*
X280724Y282212D01*
X280745Y282310D01*
X280762Y282408D01*
X280775Y282506D01*
X280784Y282605D01*
X280790Y282705D01*
X280792Y282804D01*
X278196Y280208D02*
X278052Y280210D01*
X277907Y280216D01*
X277763Y280225D01*
X277620Y280238D01*
X277476Y280255D01*
X277333Y280276D01*
X277191Y280301D01*
X277050Y280329D01*
X276909Y280361D01*
X276769Y280397D01*
X276630Y280436D01*
X276492Y280479D01*
X276356Y280526D01*
X276220Y280576D01*
X276086Y280630D01*
X275954Y280687D01*
X275823Y280748D01*
X275694Y280812D01*
X275566Y280880D01*
X275440Y280950D01*
X275316Y281025D01*
X275195Y281102D01*
X275075Y281183D01*
X274957Y281266D01*
X274842Y281353D01*
X274729Y281443D01*
X274618Y281536D01*
X274510Y281631D01*
X274404Y281730D01*
X274301Y281831D01*
X274626Y289296D02*
X274628Y289395D01*
X274634Y289495D01*
X274643Y289594D01*
X274656Y289692D01*
X274673Y289790D01*
X274694Y289888D01*
X274719Y289984D01*
X274747Y290079D01*
X274779Y290173D01*
X274814Y290266D01*
X274853Y290358D01*
X274896Y290448D01*
X274941Y290536D01*
X274991Y290623D01*
X275043Y290707D01*
X275099Y290790D01*
X275157Y290870D01*
X275219Y290948D01*
X275284Y291023D01*
X275352Y291096D01*
X275422Y291166D01*
X275495Y291234D01*
X275570Y291299D01*
X275648Y291361D01*
X275728Y291419D01*
X275811Y291475D01*
X275895Y291527D01*
X275982Y291577D01*
X276070Y291622D01*
X276160Y291665D01*
X276252Y291704D01*
X276345Y291739D01*
X276439Y291771D01*
X276534Y291799D01*
X276631Y291824D01*
X276728Y291845D01*
X276826Y291862D01*
X276924Y291875D01*
X277023Y291884D01*
X277123Y291890D01*
X277222Y291892D01*
X277358Y291890D01*
X277494Y291884D01*
X277630Y291875D01*
X277766Y291862D01*
X277901Y291844D01*
X278035Y291824D01*
X278169Y291799D01*
X278303Y291771D01*
X278435Y291738D01*
X278566Y291703D01*
X278697Y291663D01*
X278826Y291620D01*
X278954Y291574D01*
X279080Y291523D01*
X279206Y291470D01*
X279329Y291412D01*
X279451Y291352D01*
X279571Y291288D01*
X279690Y291220D01*
X279806Y291150D01*
X279920Y291076D01*
X280033Y290999D01*
X280143Y290918D01*
X275923Y287024D02*
X275837Y287077D01*
X275753Y287134D01*
X275671Y287193D01*
X275591Y287256D01*
X275514Y287322D01*
X275439Y287390D01*
X275367Y287462D01*
X275298Y287536D01*
X275232Y287613D01*
X275169Y287692D01*
X275109Y287774D01*
X275052Y287858D01*
X274998Y287944D01*
X274948Y288032D01*
X274901Y288122D01*
X274857Y288213D01*
X274818Y288307D01*
X274781Y288401D01*
X274749Y288497D01*
X274720Y288595D01*
X274695Y288693D01*
X274674Y288792D01*
X274656Y288892D01*
X274643Y288992D01*
X274633Y289093D01*
X274627Y289195D01*
X274625Y289296D01*
X279494Y285076D02*
X279580Y285023D01*
X279664Y284966D01*
X279746Y284907D01*
X279826Y284844D01*
X279903Y284778D01*
X279978Y284710D01*
X280050Y284638D01*
X280119Y284564D01*
X280185Y284487D01*
X280248Y284408D01*
X280308Y284326D01*
X280365Y284242D01*
X280419Y284156D01*
X280469Y284068D01*
X280516Y283978D01*
X280560Y283887D01*
X280599Y283793D01*
X280636Y283699D01*
X280668Y283603D01*
X280697Y283505D01*
X280722Y283407D01*
X280743Y283308D01*
X280761Y283208D01*
X280774Y283108D01*
X280784Y283007D01*
X280790Y282905D01*
X280792Y282804D01*
X279494Y285076D02*
X275924Y287024D01*
D11*
X308050Y209300D02*
X308050Y201300D01*
X330800Y201300D01*
X308050Y273300D02*
X308050Y281300D01*
X330800Y281300D01*
X350550Y269300D02*
X350550Y213300D01*
D12*
X298800Y208300D02*
X298802Y208363D01*
X298808Y208425D01*
X298818Y208487D01*
X298831Y208549D01*
X298849Y208609D01*
X298870Y208668D01*
X298895Y208726D01*
X298924Y208782D01*
X298956Y208836D01*
X298991Y208888D01*
X299029Y208937D01*
X299071Y208985D01*
X299115Y209029D01*
X299163Y209071D01*
X299212Y209109D01*
X299264Y209144D01*
X299318Y209176D01*
X299374Y209205D01*
X299432Y209230D01*
X299491Y209251D01*
X299551Y209269D01*
X299613Y209282D01*
X299675Y209292D01*
X299737Y209298D01*
X299800Y209300D01*
X299863Y209298D01*
X299925Y209292D01*
X299987Y209282D01*
X300049Y209269D01*
X300109Y209251D01*
X300168Y209230D01*
X300226Y209205D01*
X300282Y209176D01*
X300336Y209144D01*
X300388Y209109D01*
X300437Y209071D01*
X300485Y209029D01*
X300529Y208985D01*
X300571Y208937D01*
X300609Y208888D01*
X300644Y208836D01*
X300676Y208782D01*
X300705Y208726D01*
X300730Y208668D01*
X300751Y208609D01*
X300769Y208549D01*
X300782Y208487D01*
X300792Y208425D01*
X300798Y208363D01*
X300800Y208300D01*
X300798Y208237D01*
X300792Y208175D01*
X300782Y208113D01*
X300769Y208051D01*
X300751Y207991D01*
X300730Y207932D01*
X300705Y207874D01*
X300676Y207818D01*
X300644Y207764D01*
X300609Y207712D01*
X300571Y207663D01*
X300529Y207615D01*
X300485Y207571D01*
X300437Y207529D01*
X300388Y207491D01*
X300336Y207456D01*
X300282Y207424D01*
X300226Y207395D01*
X300168Y207370D01*
X300109Y207349D01*
X300049Y207331D01*
X299987Y207318D01*
X299925Y207308D01*
X299863Y207302D01*
X299800Y207300D01*
X299737Y207302D01*
X299675Y207308D01*
X299613Y207318D01*
X299551Y207331D01*
X299491Y207349D01*
X299432Y207370D01*
X299374Y207395D01*
X299318Y207424D01*
X299264Y207456D01*
X299212Y207491D01*
X299163Y207529D01*
X299115Y207571D01*
X299071Y207615D01*
X299029Y207663D01*
X298991Y207712D01*
X298956Y207764D01*
X298924Y207818D01*
X298895Y207874D01*
X298870Y207932D01*
X298849Y207991D01*
X298831Y208051D01*
X298818Y208113D01*
X298808Y208175D01*
X298802Y208237D01*
X298800Y208300D01*
D13*
X289296Y205703D02*
X280208Y205703D01*
X289296Y205702D02*
X289395Y205700D01*
X289495Y205694D01*
X289594Y205685D01*
X289692Y205672D01*
X289790Y205655D01*
X289888Y205634D01*
X289984Y205609D01*
X290079Y205581D01*
X290173Y205549D01*
X290266Y205514D01*
X290358Y205475D01*
X290448Y205432D01*
X290536Y205387D01*
X290623Y205337D01*
X290707Y205285D01*
X290790Y205229D01*
X290870Y205171D01*
X290948Y205109D01*
X291023Y205044D01*
X291096Y204976D01*
X291166Y204906D01*
X291234Y204833D01*
X291299Y204758D01*
X291361Y204680D01*
X291419Y204600D01*
X291475Y204517D01*
X291527Y204433D01*
X291577Y204346D01*
X291622Y204258D01*
X291665Y204168D01*
X291704Y204076D01*
X291739Y203983D01*
X291771Y203889D01*
X291799Y203794D01*
X291824Y203698D01*
X291845Y203600D01*
X291862Y203502D01*
X291875Y203404D01*
X291884Y203305D01*
X291890Y203205D01*
X291892Y203106D01*
X291892Y201808D01*
X291892Y210976D02*
X291892Y214222D01*
X291890Y214335D01*
X291884Y214448D01*
X291874Y214561D01*
X291860Y214674D01*
X291843Y214786D01*
X291821Y214897D01*
X291796Y215007D01*
X291766Y215117D01*
X291733Y215225D01*
X291696Y215332D01*
X291656Y215438D01*
X291611Y215542D01*
X291563Y215645D01*
X291512Y215746D01*
X291457Y215845D01*
X291399Y215942D01*
X291337Y216037D01*
X291272Y216130D01*
X291204Y216220D01*
X291133Y216308D01*
X291058Y216394D01*
X290981Y216477D01*
X290901Y216557D01*
X290818Y216634D01*
X290732Y216709D01*
X290644Y216780D01*
X290554Y216848D01*
X290461Y216913D01*
X290366Y216975D01*
X290269Y217033D01*
X290170Y217088D01*
X290069Y217139D01*
X289966Y217187D01*
X289862Y217232D01*
X289756Y217272D01*
X289649Y217309D01*
X289541Y217342D01*
X289431Y217372D01*
X289321Y217397D01*
X289210Y217419D01*
X289098Y217436D01*
X288985Y217450D01*
X288872Y217460D01*
X288759Y217466D01*
X288646Y217468D01*
X288533Y217466D01*
X288420Y217460D01*
X288307Y217450D01*
X288194Y217436D01*
X288082Y217419D01*
X287971Y217397D01*
X287861Y217372D01*
X287751Y217342D01*
X287643Y217309D01*
X287536Y217272D01*
X287430Y217232D01*
X287326Y217187D01*
X287223Y217139D01*
X287122Y217088D01*
X287023Y217033D01*
X286926Y216975D01*
X286831Y216913D01*
X286738Y216848D01*
X286648Y216780D01*
X286560Y216709D01*
X286474Y216634D01*
X286391Y216557D01*
X286311Y216477D01*
X286234Y216394D01*
X286159Y216308D01*
X286088Y216220D01*
X286020Y216130D01*
X285955Y216037D01*
X285893Y215942D01*
X285835Y215845D01*
X285780Y215746D01*
X285729Y215645D01*
X285681Y215542D01*
X285636Y215438D01*
X285596Y215332D01*
X285559Y215225D01*
X285526Y215117D01*
X285496Y215007D01*
X285471Y214897D01*
X285449Y214786D01*
X285432Y214674D01*
X285418Y214561D01*
X285408Y214448D01*
X285402Y214335D01*
X285400Y214222D01*
X280208Y214871D02*
X280208Y210976D01*
X280208Y214871D02*
X280210Y214972D01*
X280216Y215072D01*
X280226Y215172D01*
X280239Y215272D01*
X280257Y215371D01*
X280278Y215470D01*
X280303Y215567D01*
X280332Y215664D01*
X280365Y215759D01*
X280401Y215853D01*
X280441Y215945D01*
X280484Y216036D01*
X280531Y216125D01*
X280581Y216212D01*
X280635Y216298D01*
X280692Y216381D01*
X280752Y216461D01*
X280815Y216540D01*
X280882Y216616D01*
X280951Y216689D01*
X281023Y216759D01*
X281097Y216827D01*
X281174Y216892D01*
X281254Y216953D01*
X281336Y217012D01*
X281420Y217067D01*
X281506Y217119D01*
X281594Y217168D01*
X281684Y217213D01*
X281776Y217255D01*
X281869Y217293D01*
X281964Y217327D01*
X282059Y217358D01*
X282156Y217385D01*
X282254Y217408D01*
X282353Y217428D01*
X282453Y217443D01*
X282553Y217455D01*
X282653Y217463D01*
X282754Y217467D01*
X282854Y217467D01*
X282955Y217463D01*
X283055Y217455D01*
X283155Y217443D01*
X283255Y217428D01*
X283354Y217408D01*
X283452Y217385D01*
X283549Y217358D01*
X283644Y217327D01*
X283739Y217293D01*
X283832Y217255D01*
X283924Y217213D01*
X284014Y217168D01*
X284102Y217119D01*
X284188Y217067D01*
X284272Y217012D01*
X284354Y216953D01*
X284434Y216892D01*
X284511Y216827D01*
X284585Y216759D01*
X284657Y216689D01*
X284726Y216616D01*
X284793Y216540D01*
X284856Y216461D01*
X284916Y216381D01*
X284973Y216298D01*
X285027Y216212D01*
X285077Y216125D01*
X285124Y216036D01*
X285167Y215945D01*
X285207Y215853D01*
X285243Y215759D01*
X285276Y215664D01*
X285305Y215567D01*
X285330Y215470D01*
X285351Y215371D01*
X285369Y215272D01*
X285382Y215172D01*
X285392Y215072D01*
X285398Y214972D01*
X285400Y214871D01*
X285401Y214871D02*
X285401Y212274D01*
X287348Y222519D02*
X287348Y230308D01*
X291892Y235741D02*
X280208Y235741D01*
X280208Y238987D01*
X280210Y239100D01*
X280216Y239213D01*
X280226Y239326D01*
X280240Y239439D01*
X280257Y239551D01*
X280279Y239662D01*
X280304Y239772D01*
X280334Y239882D01*
X280367Y239990D01*
X280404Y240097D01*
X280444Y240203D01*
X280489Y240307D01*
X280537Y240410D01*
X280588Y240511D01*
X280643Y240610D01*
X280701Y240707D01*
X280763Y240802D01*
X280828Y240895D01*
X280896Y240985D01*
X280967Y241073D01*
X281042Y241159D01*
X281119Y241242D01*
X281199Y241322D01*
X281282Y241399D01*
X281368Y241474D01*
X281456Y241545D01*
X281546Y241613D01*
X281639Y241678D01*
X281734Y241740D01*
X281831Y241798D01*
X281930Y241853D01*
X282031Y241904D01*
X282134Y241952D01*
X282238Y241997D01*
X282344Y242037D01*
X282451Y242074D01*
X282559Y242107D01*
X282669Y242137D01*
X282779Y242162D01*
X282890Y242184D01*
X283002Y242201D01*
X283115Y242215D01*
X283228Y242225D01*
X283341Y242231D01*
X283454Y242233D01*
X283454Y242232D02*
X288646Y242232D01*
X288646Y242233D02*
X288759Y242231D01*
X288872Y242225D01*
X288985Y242215D01*
X289098Y242201D01*
X289210Y242184D01*
X289321Y242162D01*
X289431Y242137D01*
X289541Y242107D01*
X289649Y242074D01*
X289756Y242037D01*
X289862Y241997D01*
X289966Y241952D01*
X290069Y241904D01*
X290170Y241853D01*
X290269Y241798D01*
X290366Y241740D01*
X290461Y241678D01*
X290554Y241613D01*
X290644Y241545D01*
X290732Y241474D01*
X290818Y241399D01*
X290901Y241322D01*
X290981Y241242D01*
X291058Y241159D01*
X291133Y241073D01*
X291204Y240985D01*
X291272Y240895D01*
X291337Y240802D01*
X291399Y240707D01*
X291457Y240610D01*
X291512Y240511D01*
X291563Y240410D01*
X291611Y240307D01*
X291656Y240203D01*
X291696Y240097D01*
X291733Y239990D01*
X291766Y239882D01*
X291796Y239772D01*
X291821Y239662D01*
X291843Y239551D01*
X291860Y239439D01*
X291874Y239326D01*
X291884Y239213D01*
X291890Y239100D01*
X291892Y238987D01*
X291892Y235741D01*
X291892Y247956D02*
X291892Y253148D01*
X291892Y247956D02*
X280208Y247956D01*
X280208Y253148D01*
X285401Y251850D02*
X285401Y247956D01*
X285401Y258008D02*
X285401Y261254D01*
X285400Y261254D02*
X285402Y261367D01*
X285408Y261480D01*
X285418Y261593D01*
X285432Y261706D01*
X285449Y261818D01*
X285471Y261929D01*
X285496Y262039D01*
X285526Y262149D01*
X285559Y262257D01*
X285596Y262364D01*
X285636Y262470D01*
X285681Y262574D01*
X285729Y262677D01*
X285780Y262778D01*
X285835Y262877D01*
X285893Y262974D01*
X285955Y263069D01*
X286020Y263162D01*
X286088Y263252D01*
X286159Y263340D01*
X286234Y263426D01*
X286311Y263509D01*
X286391Y263589D01*
X286474Y263666D01*
X286560Y263741D01*
X286648Y263812D01*
X286738Y263880D01*
X286831Y263945D01*
X286926Y264007D01*
X287023Y264065D01*
X287122Y264120D01*
X287223Y264171D01*
X287326Y264219D01*
X287430Y264264D01*
X287536Y264304D01*
X287643Y264341D01*
X287751Y264374D01*
X287861Y264404D01*
X287971Y264429D01*
X288082Y264451D01*
X288194Y264468D01*
X288307Y264482D01*
X288420Y264492D01*
X288533Y264498D01*
X288646Y264500D01*
X288759Y264498D01*
X288872Y264492D01*
X288985Y264482D01*
X289098Y264468D01*
X289210Y264451D01*
X289321Y264429D01*
X289431Y264404D01*
X289541Y264374D01*
X289649Y264341D01*
X289756Y264304D01*
X289862Y264264D01*
X289966Y264219D01*
X290069Y264171D01*
X290170Y264120D01*
X290269Y264065D01*
X290366Y264007D01*
X290461Y263945D01*
X290554Y263880D01*
X290644Y263812D01*
X290732Y263741D01*
X290818Y263666D01*
X290901Y263589D01*
X290981Y263509D01*
X291058Y263426D01*
X291133Y263340D01*
X291204Y263252D01*
X291272Y263162D01*
X291337Y263069D01*
X291399Y262974D01*
X291457Y262877D01*
X291512Y262778D01*
X291563Y262677D01*
X291611Y262574D01*
X291656Y262470D01*
X291696Y262364D01*
X291733Y262257D01*
X291766Y262149D01*
X291796Y262039D01*
X291821Y261929D01*
X291843Y261818D01*
X291860Y261706D01*
X291874Y261593D01*
X291884Y261480D01*
X291890Y261367D01*
X291892Y261254D01*
X291892Y258008D01*
X280208Y258008D01*
X280208Y261254D01*
X280210Y261355D01*
X280216Y261455D01*
X280226Y261555D01*
X280239Y261655D01*
X280257Y261754D01*
X280278Y261853D01*
X280303Y261950D01*
X280332Y262047D01*
X280365Y262142D01*
X280401Y262236D01*
X280441Y262328D01*
X280484Y262419D01*
X280531Y262508D01*
X280581Y262595D01*
X280635Y262681D01*
X280692Y262764D01*
X280752Y262844D01*
X280815Y262923D01*
X280882Y262999D01*
X280951Y263072D01*
X281023Y263142D01*
X281097Y263210D01*
X281174Y263275D01*
X281254Y263336D01*
X281336Y263395D01*
X281420Y263450D01*
X281506Y263502D01*
X281594Y263551D01*
X281684Y263596D01*
X281776Y263638D01*
X281869Y263676D01*
X281964Y263710D01*
X282059Y263741D01*
X282156Y263768D01*
X282254Y263791D01*
X282353Y263811D01*
X282453Y263826D01*
X282553Y263838D01*
X282653Y263846D01*
X282754Y263850D01*
X282854Y263850D01*
X282955Y263846D01*
X283055Y263838D01*
X283155Y263826D01*
X283255Y263811D01*
X283354Y263791D01*
X283452Y263768D01*
X283549Y263741D01*
X283644Y263710D01*
X283739Y263676D01*
X283832Y263638D01*
X283924Y263596D01*
X284014Y263551D01*
X284102Y263502D01*
X284188Y263450D01*
X284272Y263395D01*
X284354Y263336D01*
X284434Y263275D01*
X284511Y263210D01*
X284585Y263142D01*
X284657Y263072D01*
X284726Y262999D01*
X284793Y262923D01*
X284856Y262844D01*
X284916Y262764D01*
X284973Y262681D01*
X285027Y262595D01*
X285077Y262508D01*
X285124Y262419D01*
X285167Y262328D01*
X285207Y262236D01*
X285243Y262142D01*
X285276Y262047D01*
X285305Y261950D01*
X285330Y261853D01*
X285351Y261754D01*
X285369Y261655D01*
X285382Y261555D01*
X285392Y261455D01*
X285398Y261355D01*
X285400Y261254D01*
X288646Y269269D02*
X280208Y269269D01*
X288646Y269269D02*
X288759Y269271D01*
X288872Y269277D01*
X288985Y269287D01*
X289098Y269301D01*
X289210Y269318D01*
X289321Y269340D01*
X289431Y269365D01*
X289541Y269395D01*
X289649Y269428D01*
X289756Y269465D01*
X289862Y269505D01*
X289966Y269550D01*
X290069Y269598D01*
X290170Y269649D01*
X290269Y269704D01*
X290366Y269762D01*
X290461Y269824D01*
X290554Y269889D01*
X290644Y269957D01*
X290732Y270028D01*
X290818Y270103D01*
X290901Y270180D01*
X290981Y270260D01*
X291058Y270343D01*
X291133Y270429D01*
X291204Y270517D01*
X291272Y270607D01*
X291337Y270700D01*
X291399Y270795D01*
X291457Y270892D01*
X291512Y270991D01*
X291563Y271092D01*
X291611Y271195D01*
X291656Y271299D01*
X291696Y271405D01*
X291733Y271512D01*
X291766Y271620D01*
X291796Y271730D01*
X291821Y271840D01*
X291843Y271951D01*
X291860Y272063D01*
X291874Y272176D01*
X291884Y272289D01*
X291890Y272402D01*
X291892Y272515D01*
X291890Y272628D01*
X291884Y272741D01*
X291874Y272854D01*
X291860Y272967D01*
X291843Y273079D01*
X291821Y273190D01*
X291796Y273300D01*
X291766Y273410D01*
X291733Y273518D01*
X291696Y273625D01*
X291656Y273731D01*
X291611Y273835D01*
X291563Y273938D01*
X291512Y274039D01*
X291457Y274138D01*
X291399Y274235D01*
X291337Y274330D01*
X291272Y274423D01*
X291204Y274513D01*
X291133Y274601D01*
X291058Y274687D01*
X290981Y274770D01*
X290901Y274850D01*
X290818Y274927D01*
X290732Y275002D01*
X290644Y275073D01*
X290554Y275141D01*
X290461Y275206D01*
X290366Y275268D01*
X290269Y275326D01*
X290170Y275381D01*
X290069Y275432D01*
X289966Y275480D01*
X289862Y275525D01*
X289756Y275565D01*
X289649Y275602D01*
X289541Y275635D01*
X289431Y275665D01*
X289321Y275690D01*
X289210Y275712D01*
X289098Y275729D01*
X288985Y275743D01*
X288872Y275753D01*
X288759Y275759D01*
X288646Y275761D01*
X288646Y275760D02*
X280208Y275760D01*
X285401Y286005D02*
X285401Y287952D01*
X291892Y287952D01*
X291892Y284057D01*
X291890Y283958D01*
X291884Y283858D01*
X291875Y283759D01*
X291862Y283661D01*
X291845Y283563D01*
X291824Y283465D01*
X291799Y283369D01*
X291771Y283274D01*
X291739Y283180D01*
X291704Y283087D01*
X291665Y282995D01*
X291622Y282905D01*
X291577Y282817D01*
X291527Y282730D01*
X291475Y282646D01*
X291419Y282563D01*
X291361Y282483D01*
X291299Y282405D01*
X291234Y282330D01*
X291166Y282257D01*
X291096Y282187D01*
X291023Y282119D01*
X290948Y282054D01*
X290870Y281992D01*
X290790Y281934D01*
X290707Y281878D01*
X290623Y281826D01*
X290536Y281776D01*
X290448Y281731D01*
X290358Y281688D01*
X290266Y281649D01*
X290173Y281614D01*
X290079Y281582D01*
X289984Y281554D01*
X289888Y281529D01*
X289790Y281508D01*
X289692Y281491D01*
X289594Y281478D01*
X289495Y281469D01*
X289395Y281463D01*
X289296Y281461D01*
X282804Y281461D01*
X282804Y281460D02*
X282705Y281462D01*
X282605Y281468D01*
X282506Y281477D01*
X282408Y281490D01*
X282310Y281508D01*
X282212Y281528D01*
X282116Y281553D01*
X282020Y281581D01*
X281926Y281613D01*
X281833Y281648D01*
X281742Y281687D01*
X281652Y281730D01*
X281563Y281775D01*
X281477Y281825D01*
X281392Y281877D01*
X281310Y281933D01*
X281230Y281992D01*
X281152Y282053D01*
X281076Y282118D01*
X281003Y282186D01*
X280933Y282256D01*
X280865Y282329D01*
X280800Y282405D01*
X280739Y282483D01*
X280680Y282563D01*
X280624Y282645D01*
X280572Y282730D01*
X280523Y282816D01*
X280477Y282905D01*
X280434Y282995D01*
X280395Y283086D01*
X280360Y283179D01*
X280328Y283273D01*
X280300Y283369D01*
X280275Y283465D01*
X280255Y283563D01*
X280237Y283661D01*
X280224Y283759D01*
X280215Y283858D01*
X280209Y283957D01*
X280207Y284057D01*
X280208Y284057D02*
X280208Y287952D01*
X32258Y162052D02*
X32258Y150368D01*
X32258Y162052D02*
X35504Y162052D01*
X35617Y162050D01*
X35730Y162044D01*
X35843Y162034D01*
X35956Y162020D01*
X36068Y162003D01*
X36179Y161981D01*
X36289Y161956D01*
X36399Y161926D01*
X36507Y161893D01*
X36614Y161856D01*
X36720Y161816D01*
X36824Y161771D01*
X36927Y161723D01*
X37028Y161672D01*
X37127Y161617D01*
X37224Y161559D01*
X37319Y161497D01*
X37412Y161432D01*
X37502Y161364D01*
X37590Y161293D01*
X37676Y161218D01*
X37759Y161141D01*
X37839Y161061D01*
X37916Y160978D01*
X37991Y160892D01*
X38062Y160804D01*
X38130Y160714D01*
X38195Y160621D01*
X38257Y160526D01*
X38315Y160429D01*
X38370Y160330D01*
X38421Y160229D01*
X38469Y160126D01*
X38514Y160022D01*
X38554Y159916D01*
X38591Y159809D01*
X38624Y159701D01*
X38654Y159591D01*
X38679Y159481D01*
X38701Y159370D01*
X38718Y159258D01*
X38732Y159145D01*
X38742Y159032D01*
X38748Y158919D01*
X38750Y158806D01*
X38748Y158693D01*
X38742Y158580D01*
X38732Y158467D01*
X38718Y158354D01*
X38701Y158242D01*
X38679Y158131D01*
X38654Y158021D01*
X38624Y157911D01*
X38591Y157803D01*
X38554Y157696D01*
X38514Y157590D01*
X38469Y157486D01*
X38421Y157383D01*
X38370Y157282D01*
X38315Y157183D01*
X38257Y157086D01*
X38195Y156991D01*
X38130Y156898D01*
X38062Y156808D01*
X37991Y156720D01*
X37916Y156634D01*
X37839Y156551D01*
X37759Y156471D01*
X37676Y156394D01*
X37590Y156319D01*
X37502Y156248D01*
X37412Y156180D01*
X37319Y156115D01*
X37224Y156053D01*
X37127Y155995D01*
X37028Y155940D01*
X36927Y155889D01*
X36824Y155841D01*
X36720Y155796D01*
X36614Y155756D01*
X36507Y155719D01*
X36399Y155686D01*
X36289Y155656D01*
X36179Y155631D01*
X36068Y155609D01*
X35956Y155592D01*
X35843Y155578D01*
X35730Y155568D01*
X35617Y155562D01*
X35504Y155560D01*
X35504Y155561D02*
X32258Y155561D01*
X36153Y155561D02*
X38749Y150368D01*
X43614Y159456D02*
X46860Y162052D01*
X46860Y150368D01*
X50105Y150368D02*
X43614Y150368D01*
X250754Y32258D02*
X253351Y32258D01*
X250754Y32258D02*
X250655Y32260D01*
X250555Y32266D01*
X250456Y32275D01*
X250358Y32288D01*
X250260Y32305D01*
X250162Y32326D01*
X250066Y32351D01*
X249971Y32379D01*
X249877Y32411D01*
X249784Y32446D01*
X249692Y32485D01*
X249602Y32528D01*
X249514Y32573D01*
X249427Y32623D01*
X249343Y32675D01*
X249260Y32731D01*
X249180Y32789D01*
X249102Y32851D01*
X249027Y32916D01*
X248954Y32984D01*
X248884Y33054D01*
X248816Y33127D01*
X248751Y33202D01*
X248689Y33280D01*
X248631Y33360D01*
X248575Y33443D01*
X248523Y33527D01*
X248473Y33614D01*
X248428Y33702D01*
X248385Y33792D01*
X248346Y33884D01*
X248311Y33977D01*
X248279Y34071D01*
X248251Y34166D01*
X248226Y34262D01*
X248205Y34360D01*
X248188Y34458D01*
X248175Y34556D01*
X248166Y34655D01*
X248160Y34755D01*
X248158Y34854D01*
X248158Y41346D01*
X248160Y41445D01*
X248166Y41545D01*
X248175Y41644D01*
X248188Y41742D01*
X248205Y41840D01*
X248226Y41938D01*
X248251Y42034D01*
X248279Y42129D01*
X248311Y42223D01*
X248346Y42316D01*
X248385Y42408D01*
X248428Y42498D01*
X248473Y42586D01*
X248523Y42673D01*
X248575Y42757D01*
X248631Y42840D01*
X248689Y42920D01*
X248751Y42998D01*
X248816Y43073D01*
X248884Y43146D01*
X248954Y43216D01*
X249027Y43284D01*
X249102Y43349D01*
X249180Y43411D01*
X249260Y43469D01*
X249343Y43525D01*
X249427Y43577D01*
X249514Y43627D01*
X249602Y43672D01*
X249692Y43715D01*
X249784Y43754D01*
X249876Y43789D01*
X249971Y43821D01*
X250066Y43849D01*
X250162Y43874D01*
X250260Y43895D01*
X250358Y43912D01*
X250456Y43925D01*
X250555Y43934D01*
X250655Y43940D01*
X250754Y43942D01*
X253351Y43942D01*
X257716Y41346D02*
X260962Y43942D01*
X260962Y32258D01*
X264207Y32258D02*
X257716Y32258D01*
X82042Y149154D02*
X82042Y151751D01*
X82042Y149154D02*
X82040Y149055D01*
X82034Y148955D01*
X82025Y148856D01*
X82012Y148758D01*
X81995Y148660D01*
X81974Y148562D01*
X81949Y148466D01*
X81921Y148371D01*
X81889Y148277D01*
X81854Y148184D01*
X81815Y148092D01*
X81772Y148002D01*
X81727Y147914D01*
X81677Y147827D01*
X81625Y147743D01*
X81569Y147660D01*
X81511Y147580D01*
X81449Y147502D01*
X81384Y147427D01*
X81316Y147354D01*
X81246Y147284D01*
X81173Y147216D01*
X81098Y147151D01*
X81020Y147089D01*
X80940Y147031D01*
X80857Y146975D01*
X80773Y146923D01*
X80686Y146873D01*
X80598Y146828D01*
X80508Y146785D01*
X80416Y146746D01*
X80323Y146711D01*
X80229Y146679D01*
X80134Y146651D01*
X80038Y146626D01*
X79940Y146605D01*
X79842Y146588D01*
X79744Y146575D01*
X79645Y146566D01*
X79545Y146560D01*
X79446Y146558D01*
X72954Y146558D01*
X72855Y146560D01*
X72755Y146566D01*
X72656Y146575D01*
X72558Y146588D01*
X72460Y146606D01*
X72362Y146626D01*
X72266Y146651D01*
X72170Y146679D01*
X72076Y146711D01*
X71983Y146746D01*
X71892Y146785D01*
X71802Y146828D01*
X71713Y146873D01*
X71627Y146923D01*
X71542Y146975D01*
X71460Y147031D01*
X71380Y147090D01*
X71302Y147151D01*
X71226Y147216D01*
X71153Y147284D01*
X71083Y147354D01*
X71015Y147427D01*
X70950Y147503D01*
X70889Y147581D01*
X70830Y147661D01*
X70774Y147743D01*
X70722Y147828D01*
X70673Y147914D01*
X70627Y148003D01*
X70584Y148093D01*
X70545Y148184D01*
X70510Y148277D01*
X70478Y148371D01*
X70450Y148467D01*
X70425Y148563D01*
X70405Y148661D01*
X70387Y148759D01*
X70374Y148857D01*
X70365Y148956D01*
X70359Y149055D01*
X70357Y149155D01*
X70358Y149154D02*
X70358Y151751D01*
X70358Y159686D02*
X70360Y159793D01*
X70366Y159899D01*
X70376Y160005D01*
X70389Y160111D01*
X70407Y160217D01*
X70428Y160321D01*
X70453Y160425D01*
X70482Y160528D01*
X70514Y160629D01*
X70551Y160729D01*
X70591Y160828D01*
X70634Y160926D01*
X70681Y161022D01*
X70732Y161116D01*
X70786Y161208D01*
X70843Y161298D01*
X70903Y161386D01*
X70967Y161471D01*
X71034Y161554D01*
X71104Y161635D01*
X71176Y161713D01*
X71252Y161789D01*
X71330Y161861D01*
X71411Y161931D01*
X71494Y161998D01*
X71579Y162062D01*
X71667Y162122D01*
X71757Y162179D01*
X71849Y162233D01*
X71943Y162284D01*
X72039Y162331D01*
X72137Y162374D01*
X72236Y162414D01*
X72336Y162451D01*
X72437Y162483D01*
X72540Y162512D01*
X72644Y162537D01*
X72748Y162558D01*
X72854Y162576D01*
X72960Y162589D01*
X73066Y162599D01*
X73172Y162605D01*
X73279Y162607D01*
X70358Y159686D02*
X70360Y159565D01*
X70366Y159444D01*
X70376Y159324D01*
X70389Y159203D01*
X70407Y159084D01*
X70428Y158964D01*
X70453Y158846D01*
X70482Y158729D01*
X70515Y158612D01*
X70551Y158497D01*
X70592Y158383D01*
X70635Y158270D01*
X70683Y158158D01*
X70734Y158049D01*
X70789Y157941D01*
X70847Y157834D01*
X70908Y157730D01*
X70973Y157628D01*
X71041Y157528D01*
X71112Y157430D01*
X71186Y157334D01*
X71263Y157241D01*
X71344Y157151D01*
X71427Y157063D01*
X71513Y156978D01*
X71602Y156895D01*
X71693Y156816D01*
X71787Y156739D01*
X71883Y156666D01*
X71981Y156596D01*
X72082Y156529D01*
X72185Y156465D01*
X72290Y156405D01*
X72397Y156347D01*
X72505Y156294D01*
X72615Y156244D01*
X72727Y156198D01*
X72840Y156155D01*
X72955Y156116D01*
X75551Y161633D02*
X75473Y161712D01*
X75393Y161788D01*
X75310Y161861D01*
X75224Y161931D01*
X75137Y161998D01*
X75046Y162062D01*
X74954Y162122D01*
X74860Y162180D01*
X74763Y162234D01*
X74665Y162284D01*
X74565Y162331D01*
X74464Y162375D01*
X74361Y162415D01*
X74256Y162451D01*
X74151Y162483D01*
X74044Y162512D01*
X73937Y162537D01*
X73828Y162559D01*
X73719Y162576D01*
X73610Y162590D01*
X73500Y162599D01*
X73389Y162605D01*
X73279Y162607D01*
X75551Y161634D02*
X82042Y156116D01*
X82042Y162607D01*
X172014Y116078D02*
X174611Y116078D01*
X172014Y116078D02*
X171915Y116080D01*
X171815Y116086D01*
X171716Y116095D01*
X171618Y116108D01*
X171520Y116125D01*
X171422Y116146D01*
X171326Y116171D01*
X171231Y116199D01*
X171137Y116231D01*
X171044Y116266D01*
X170952Y116305D01*
X170862Y116348D01*
X170774Y116393D01*
X170687Y116443D01*
X170603Y116495D01*
X170520Y116551D01*
X170440Y116609D01*
X170362Y116671D01*
X170287Y116736D01*
X170214Y116804D01*
X170144Y116874D01*
X170076Y116947D01*
X170011Y117022D01*
X169949Y117100D01*
X169891Y117180D01*
X169835Y117263D01*
X169783Y117347D01*
X169733Y117434D01*
X169688Y117522D01*
X169645Y117612D01*
X169606Y117704D01*
X169571Y117797D01*
X169539Y117891D01*
X169511Y117986D01*
X169486Y118082D01*
X169465Y118180D01*
X169448Y118278D01*
X169435Y118376D01*
X169426Y118475D01*
X169420Y118575D01*
X169418Y118674D01*
X169418Y125166D01*
X169420Y125265D01*
X169426Y125365D01*
X169435Y125464D01*
X169448Y125562D01*
X169465Y125660D01*
X169486Y125758D01*
X169511Y125854D01*
X169539Y125949D01*
X169571Y126043D01*
X169606Y126136D01*
X169645Y126228D01*
X169688Y126318D01*
X169733Y126406D01*
X169783Y126493D01*
X169835Y126577D01*
X169891Y126660D01*
X169949Y126740D01*
X170011Y126818D01*
X170076Y126893D01*
X170144Y126966D01*
X170214Y127036D01*
X170287Y127104D01*
X170362Y127169D01*
X170440Y127231D01*
X170520Y127289D01*
X170603Y127345D01*
X170687Y127397D01*
X170774Y127447D01*
X170862Y127492D01*
X170952Y127535D01*
X171044Y127574D01*
X171136Y127609D01*
X171231Y127641D01*
X171326Y127669D01*
X171422Y127694D01*
X171520Y127715D01*
X171618Y127732D01*
X171716Y127745D01*
X171815Y127754D01*
X171915Y127760D01*
X172014Y127762D01*
X174611Y127762D01*
X178976Y116078D02*
X182222Y116078D01*
X182335Y116080D01*
X182448Y116086D01*
X182561Y116096D01*
X182674Y116110D01*
X182786Y116127D01*
X182897Y116149D01*
X183007Y116174D01*
X183117Y116204D01*
X183225Y116237D01*
X183332Y116274D01*
X183438Y116314D01*
X183542Y116359D01*
X183645Y116407D01*
X183746Y116458D01*
X183845Y116513D01*
X183942Y116571D01*
X184037Y116633D01*
X184130Y116698D01*
X184220Y116766D01*
X184308Y116837D01*
X184394Y116912D01*
X184477Y116989D01*
X184557Y117069D01*
X184634Y117152D01*
X184709Y117238D01*
X184780Y117326D01*
X184848Y117416D01*
X184913Y117509D01*
X184975Y117604D01*
X185033Y117701D01*
X185088Y117800D01*
X185139Y117901D01*
X185187Y118004D01*
X185232Y118108D01*
X185272Y118214D01*
X185309Y118321D01*
X185342Y118429D01*
X185372Y118539D01*
X185397Y118649D01*
X185419Y118760D01*
X185436Y118872D01*
X185450Y118985D01*
X185460Y119098D01*
X185466Y119211D01*
X185468Y119324D01*
X185466Y119437D01*
X185460Y119550D01*
X185450Y119663D01*
X185436Y119776D01*
X185419Y119888D01*
X185397Y119999D01*
X185372Y120109D01*
X185342Y120219D01*
X185309Y120327D01*
X185272Y120434D01*
X185232Y120540D01*
X185187Y120644D01*
X185139Y120747D01*
X185088Y120848D01*
X185033Y120947D01*
X184975Y121044D01*
X184913Y121139D01*
X184848Y121232D01*
X184780Y121322D01*
X184709Y121410D01*
X184634Y121496D01*
X184557Y121579D01*
X184477Y121659D01*
X184394Y121736D01*
X184308Y121811D01*
X184220Y121882D01*
X184130Y121950D01*
X184037Y122015D01*
X183942Y122077D01*
X183845Y122135D01*
X183746Y122190D01*
X183645Y122241D01*
X183542Y122289D01*
X183438Y122334D01*
X183332Y122374D01*
X183225Y122411D01*
X183117Y122444D01*
X183007Y122474D01*
X182897Y122499D01*
X182786Y122521D01*
X182674Y122538D01*
X182561Y122552D01*
X182448Y122562D01*
X182335Y122568D01*
X182222Y122570D01*
X182871Y127762D02*
X178976Y127762D01*
X182871Y127762D02*
X182972Y127760D01*
X183072Y127754D01*
X183172Y127744D01*
X183272Y127731D01*
X183371Y127713D01*
X183470Y127692D01*
X183567Y127667D01*
X183664Y127638D01*
X183759Y127605D01*
X183853Y127569D01*
X183945Y127529D01*
X184036Y127486D01*
X184125Y127439D01*
X184212Y127389D01*
X184298Y127335D01*
X184381Y127278D01*
X184461Y127218D01*
X184540Y127155D01*
X184616Y127088D01*
X184689Y127019D01*
X184759Y126947D01*
X184827Y126873D01*
X184892Y126796D01*
X184953Y126716D01*
X185012Y126634D01*
X185067Y126550D01*
X185119Y126464D01*
X185168Y126376D01*
X185213Y126286D01*
X185255Y126194D01*
X185293Y126101D01*
X185327Y126006D01*
X185358Y125911D01*
X185385Y125814D01*
X185408Y125716D01*
X185428Y125617D01*
X185443Y125517D01*
X185455Y125417D01*
X185463Y125317D01*
X185467Y125216D01*
X185467Y125116D01*
X185463Y125015D01*
X185455Y124915D01*
X185443Y124815D01*
X185428Y124715D01*
X185408Y124616D01*
X185385Y124518D01*
X185358Y124421D01*
X185327Y124326D01*
X185293Y124231D01*
X185255Y124138D01*
X185213Y124046D01*
X185168Y123956D01*
X185119Y123868D01*
X185067Y123782D01*
X185012Y123698D01*
X184953Y123616D01*
X184892Y123536D01*
X184827Y123459D01*
X184759Y123385D01*
X184689Y123313D01*
X184616Y123244D01*
X184540Y123177D01*
X184461Y123114D01*
X184381Y123054D01*
X184298Y122997D01*
X184212Y122943D01*
X184125Y122893D01*
X184036Y122846D01*
X183945Y122803D01*
X183853Y122763D01*
X183759Y122727D01*
X183664Y122694D01*
X183567Y122665D01*
X183470Y122640D01*
X183371Y122619D01*
X183272Y122601D01*
X183172Y122588D01*
X183072Y122578D01*
X182972Y122572D01*
X182871Y122570D01*
X182871Y122569D02*
X180274Y122569D01*
X234442Y250754D02*
X234442Y253351D01*
X234442Y250754D02*
X234440Y250655D01*
X234434Y250555D01*
X234425Y250456D01*
X234412Y250358D01*
X234395Y250260D01*
X234374Y250162D01*
X234349Y250066D01*
X234321Y249971D01*
X234289Y249877D01*
X234254Y249784D01*
X234215Y249692D01*
X234172Y249602D01*
X234127Y249514D01*
X234077Y249427D01*
X234025Y249343D01*
X233969Y249260D01*
X233911Y249180D01*
X233849Y249102D01*
X233784Y249027D01*
X233716Y248954D01*
X233646Y248884D01*
X233573Y248816D01*
X233498Y248751D01*
X233420Y248689D01*
X233340Y248631D01*
X233257Y248575D01*
X233173Y248523D01*
X233086Y248473D01*
X232998Y248428D01*
X232908Y248385D01*
X232816Y248346D01*
X232723Y248311D01*
X232629Y248279D01*
X232534Y248251D01*
X232438Y248226D01*
X232340Y248205D01*
X232242Y248188D01*
X232144Y248175D01*
X232045Y248166D01*
X231945Y248160D01*
X231846Y248158D01*
X225354Y248158D01*
X225255Y248160D01*
X225155Y248166D01*
X225056Y248175D01*
X224958Y248188D01*
X224860Y248206D01*
X224762Y248226D01*
X224666Y248251D01*
X224570Y248279D01*
X224476Y248311D01*
X224383Y248346D01*
X224292Y248385D01*
X224202Y248428D01*
X224113Y248473D01*
X224027Y248523D01*
X223942Y248575D01*
X223860Y248631D01*
X223780Y248690D01*
X223702Y248751D01*
X223626Y248816D01*
X223553Y248884D01*
X223483Y248954D01*
X223415Y249027D01*
X223350Y249103D01*
X223289Y249181D01*
X223230Y249261D01*
X223174Y249343D01*
X223122Y249428D01*
X223073Y249514D01*
X223027Y249603D01*
X222984Y249693D01*
X222945Y249784D01*
X222910Y249877D01*
X222878Y249971D01*
X222850Y250067D01*
X222825Y250163D01*
X222805Y250261D01*
X222787Y250359D01*
X222774Y250457D01*
X222765Y250556D01*
X222759Y250655D01*
X222757Y250755D01*
X222758Y250754D02*
X222758Y253351D01*
X222758Y260313D02*
X231846Y257716D01*
X231846Y264207D01*
X229249Y262260D02*
X234442Y262260D01*
X84582Y267264D02*
X84582Y269861D01*
X84582Y267264D02*
X84580Y267165D01*
X84574Y267065D01*
X84565Y266966D01*
X84552Y266868D01*
X84535Y266770D01*
X84514Y266672D01*
X84489Y266576D01*
X84461Y266481D01*
X84429Y266387D01*
X84394Y266294D01*
X84355Y266202D01*
X84312Y266112D01*
X84267Y266024D01*
X84217Y265937D01*
X84165Y265853D01*
X84109Y265770D01*
X84051Y265690D01*
X83989Y265612D01*
X83924Y265537D01*
X83856Y265464D01*
X83786Y265394D01*
X83713Y265326D01*
X83638Y265261D01*
X83560Y265199D01*
X83480Y265141D01*
X83397Y265085D01*
X83313Y265033D01*
X83226Y264983D01*
X83138Y264938D01*
X83048Y264895D01*
X82956Y264856D01*
X82863Y264821D01*
X82769Y264789D01*
X82674Y264761D01*
X82578Y264736D01*
X82480Y264715D01*
X82382Y264698D01*
X82284Y264685D01*
X82185Y264676D01*
X82085Y264670D01*
X81986Y264668D01*
X75494Y264668D01*
X75395Y264670D01*
X75295Y264676D01*
X75196Y264685D01*
X75098Y264698D01*
X75000Y264716D01*
X74902Y264736D01*
X74806Y264761D01*
X74710Y264789D01*
X74616Y264821D01*
X74523Y264856D01*
X74432Y264895D01*
X74342Y264938D01*
X74253Y264983D01*
X74167Y265033D01*
X74082Y265085D01*
X74000Y265141D01*
X73920Y265200D01*
X73842Y265261D01*
X73766Y265326D01*
X73693Y265394D01*
X73623Y265464D01*
X73555Y265537D01*
X73490Y265613D01*
X73429Y265691D01*
X73370Y265771D01*
X73314Y265853D01*
X73262Y265938D01*
X73213Y266024D01*
X73167Y266113D01*
X73124Y266203D01*
X73085Y266294D01*
X73050Y266387D01*
X73018Y266481D01*
X72990Y266577D01*
X72965Y266673D01*
X72945Y266771D01*
X72927Y266869D01*
X72914Y266967D01*
X72905Y267066D01*
X72899Y267165D01*
X72897Y267265D01*
X72898Y267264D02*
X72898Y269861D01*
X84582Y274226D02*
X84582Y278121D01*
X84580Y278220D01*
X84574Y278320D01*
X84565Y278419D01*
X84552Y278517D01*
X84535Y278615D01*
X84514Y278713D01*
X84489Y278809D01*
X84461Y278904D01*
X84429Y278998D01*
X84394Y279091D01*
X84355Y279183D01*
X84312Y279273D01*
X84267Y279361D01*
X84217Y279448D01*
X84165Y279532D01*
X84109Y279615D01*
X84051Y279695D01*
X83989Y279773D01*
X83924Y279848D01*
X83856Y279921D01*
X83786Y279991D01*
X83713Y280059D01*
X83638Y280124D01*
X83560Y280186D01*
X83480Y280244D01*
X83397Y280300D01*
X83313Y280352D01*
X83226Y280402D01*
X83138Y280447D01*
X83048Y280490D01*
X82956Y280529D01*
X82863Y280564D01*
X82769Y280596D01*
X82674Y280624D01*
X82578Y280649D01*
X82480Y280670D01*
X82382Y280687D01*
X82284Y280700D01*
X82185Y280709D01*
X82085Y280715D01*
X81986Y280717D01*
X80687Y280717D01*
X80588Y280715D01*
X80488Y280709D01*
X80389Y280700D01*
X80291Y280687D01*
X80193Y280670D01*
X80095Y280649D01*
X79999Y280624D01*
X79904Y280596D01*
X79810Y280564D01*
X79717Y280529D01*
X79625Y280490D01*
X79535Y280447D01*
X79447Y280402D01*
X79360Y280352D01*
X79276Y280300D01*
X79193Y280244D01*
X79113Y280186D01*
X79035Y280124D01*
X78960Y280059D01*
X78887Y279991D01*
X78817Y279921D01*
X78749Y279848D01*
X78684Y279773D01*
X78622Y279695D01*
X78564Y279615D01*
X78508Y279532D01*
X78456Y279448D01*
X78406Y279361D01*
X78361Y279273D01*
X78318Y279183D01*
X78279Y279091D01*
X78244Y278998D01*
X78212Y278904D01*
X78184Y278809D01*
X78159Y278713D01*
X78138Y278615D01*
X78121Y278517D01*
X78108Y278419D01*
X78099Y278320D01*
X78093Y278220D01*
X78091Y278121D01*
X78091Y274226D01*
X72898Y274226D01*
X72898Y280717D01*
X238054Y121158D02*
X240651Y121158D01*
X238054Y121158D02*
X237955Y121160D01*
X237855Y121166D01*
X237756Y121175D01*
X237658Y121188D01*
X237560Y121205D01*
X237462Y121226D01*
X237366Y121251D01*
X237271Y121279D01*
X237177Y121311D01*
X237084Y121346D01*
X236992Y121385D01*
X236902Y121428D01*
X236814Y121473D01*
X236727Y121523D01*
X236643Y121575D01*
X236560Y121631D01*
X236480Y121689D01*
X236402Y121751D01*
X236327Y121816D01*
X236254Y121884D01*
X236184Y121954D01*
X236116Y122027D01*
X236051Y122102D01*
X235989Y122180D01*
X235931Y122260D01*
X235875Y122343D01*
X235823Y122427D01*
X235773Y122514D01*
X235728Y122602D01*
X235685Y122692D01*
X235646Y122784D01*
X235611Y122877D01*
X235579Y122971D01*
X235551Y123066D01*
X235526Y123162D01*
X235505Y123260D01*
X235488Y123358D01*
X235475Y123456D01*
X235466Y123555D01*
X235460Y123655D01*
X235458Y123754D01*
X235458Y130246D01*
X235460Y130345D01*
X235466Y130445D01*
X235475Y130544D01*
X235488Y130642D01*
X235505Y130740D01*
X235526Y130838D01*
X235551Y130934D01*
X235579Y131029D01*
X235611Y131123D01*
X235646Y131216D01*
X235685Y131308D01*
X235728Y131398D01*
X235773Y131486D01*
X235823Y131573D01*
X235875Y131657D01*
X235931Y131740D01*
X235989Y131820D01*
X236051Y131898D01*
X236116Y131973D01*
X236184Y132046D01*
X236254Y132116D01*
X236327Y132184D01*
X236402Y132249D01*
X236480Y132311D01*
X236560Y132369D01*
X236643Y132425D01*
X236727Y132477D01*
X236814Y132527D01*
X236902Y132572D01*
X236992Y132615D01*
X237084Y132654D01*
X237176Y132689D01*
X237271Y132721D01*
X237366Y132749D01*
X237462Y132774D01*
X237560Y132795D01*
X237658Y132812D01*
X237756Y132825D01*
X237855Y132834D01*
X237955Y132840D01*
X238054Y132842D01*
X240651Y132842D01*
X245016Y127649D02*
X248911Y127649D01*
X249010Y127647D01*
X249110Y127641D01*
X249209Y127632D01*
X249307Y127619D01*
X249405Y127602D01*
X249503Y127581D01*
X249599Y127556D01*
X249694Y127528D01*
X249788Y127496D01*
X249881Y127461D01*
X249973Y127422D01*
X250063Y127379D01*
X250151Y127334D01*
X250238Y127284D01*
X250322Y127232D01*
X250405Y127176D01*
X250485Y127118D01*
X250563Y127056D01*
X250638Y126991D01*
X250711Y126923D01*
X250781Y126853D01*
X250849Y126780D01*
X250914Y126705D01*
X250976Y126627D01*
X251034Y126547D01*
X251090Y126464D01*
X251142Y126380D01*
X251192Y126293D01*
X251237Y126205D01*
X251280Y126115D01*
X251319Y126023D01*
X251354Y125930D01*
X251386Y125836D01*
X251414Y125741D01*
X251439Y125645D01*
X251460Y125547D01*
X251477Y125449D01*
X251490Y125351D01*
X251499Y125252D01*
X251505Y125152D01*
X251507Y125053D01*
X251507Y124404D01*
X251508Y124404D02*
X251506Y124291D01*
X251500Y124178D01*
X251490Y124065D01*
X251476Y123952D01*
X251459Y123840D01*
X251437Y123729D01*
X251412Y123619D01*
X251382Y123509D01*
X251349Y123401D01*
X251312Y123294D01*
X251272Y123188D01*
X251227Y123084D01*
X251179Y122981D01*
X251128Y122880D01*
X251073Y122781D01*
X251015Y122684D01*
X250953Y122589D01*
X250888Y122496D01*
X250820Y122406D01*
X250749Y122318D01*
X250674Y122232D01*
X250597Y122149D01*
X250517Y122069D01*
X250434Y121992D01*
X250348Y121917D01*
X250260Y121846D01*
X250170Y121778D01*
X250077Y121713D01*
X249982Y121651D01*
X249885Y121593D01*
X249786Y121538D01*
X249685Y121487D01*
X249582Y121439D01*
X249478Y121394D01*
X249372Y121354D01*
X249265Y121317D01*
X249157Y121284D01*
X249047Y121254D01*
X248937Y121229D01*
X248826Y121207D01*
X248714Y121190D01*
X248601Y121176D01*
X248488Y121166D01*
X248375Y121160D01*
X248262Y121158D01*
X248149Y121160D01*
X248036Y121166D01*
X247923Y121176D01*
X247810Y121190D01*
X247698Y121207D01*
X247587Y121229D01*
X247477Y121254D01*
X247367Y121284D01*
X247259Y121317D01*
X247152Y121354D01*
X247046Y121394D01*
X246942Y121439D01*
X246839Y121487D01*
X246738Y121538D01*
X246639Y121593D01*
X246542Y121651D01*
X246447Y121713D01*
X246354Y121778D01*
X246264Y121846D01*
X246176Y121917D01*
X246090Y121992D01*
X246007Y122069D01*
X245927Y122149D01*
X245850Y122232D01*
X245775Y122318D01*
X245704Y122406D01*
X245636Y122496D01*
X245571Y122589D01*
X245509Y122684D01*
X245451Y122781D01*
X245396Y122880D01*
X245345Y122981D01*
X245297Y123084D01*
X245252Y123188D01*
X245212Y123294D01*
X245175Y123401D01*
X245142Y123509D01*
X245112Y123619D01*
X245087Y123729D01*
X245065Y123840D01*
X245048Y123952D01*
X245034Y124065D01*
X245024Y124178D01*
X245018Y124291D01*
X245016Y124404D01*
X245016Y127649D01*
X245018Y127792D01*
X245024Y127935D01*
X245034Y128078D01*
X245048Y128220D01*
X245065Y128362D01*
X245087Y128504D01*
X245112Y128645D01*
X245142Y128785D01*
X245175Y128924D01*
X245212Y129062D01*
X245253Y129199D01*
X245297Y129335D01*
X245346Y129470D01*
X245398Y129603D01*
X245453Y129735D01*
X245513Y129865D01*
X245576Y129994D01*
X245642Y130121D01*
X245712Y130245D01*
X245785Y130368D01*
X245862Y130489D01*
X245942Y130608D01*
X246025Y130724D01*
X246111Y130839D01*
X246200Y130950D01*
X246293Y131060D01*
X246388Y131166D01*
X246487Y131270D01*
X246588Y131371D01*
X246692Y131470D01*
X246798Y131565D01*
X246908Y131658D01*
X247019Y131747D01*
X247134Y131833D01*
X247250Y131916D01*
X247369Y131996D01*
X247490Y132073D01*
X247612Y132146D01*
X247737Y132216D01*
X247864Y132282D01*
X247993Y132345D01*
X248123Y132405D01*
X248255Y132460D01*
X248388Y132512D01*
X248523Y132561D01*
X248659Y132605D01*
X248796Y132646D01*
X248934Y132683D01*
X249073Y132716D01*
X249213Y132746D01*
X249354Y132771D01*
X249496Y132793D01*
X249638Y132810D01*
X249780Y132824D01*
X249923Y132834D01*
X250066Y132840D01*
X250209Y132842D01*
D14*
X222729Y89225D02*
X222729Y87137D01*
X222727Y87048D01*
X222721Y86960D01*
X222712Y86872D01*
X222699Y86784D01*
X222682Y86697D01*
X222662Y86611D01*
X222637Y86526D01*
X222610Y86441D01*
X222578Y86358D01*
X222544Y86277D01*
X222505Y86197D01*
X222464Y86119D01*
X222419Y86042D01*
X222371Y85968D01*
X222320Y85895D01*
X222266Y85825D01*
X222208Y85758D01*
X222148Y85692D01*
X222086Y85630D01*
X222020Y85570D01*
X221953Y85512D01*
X221883Y85458D01*
X221810Y85407D01*
X221736Y85359D01*
X221659Y85314D01*
X221581Y85273D01*
X221501Y85234D01*
X221420Y85200D01*
X221337Y85168D01*
X221252Y85141D01*
X221167Y85116D01*
X221081Y85096D01*
X220994Y85079D01*
X220906Y85066D01*
X220818Y85057D01*
X220730Y85051D01*
X220641Y85049D01*
X220641Y85048D02*
X215419Y85048D01*
X215328Y85050D01*
X215237Y85056D01*
X215146Y85066D01*
X215056Y85080D01*
X214967Y85098D01*
X214878Y85119D01*
X214791Y85145D01*
X214705Y85174D01*
X214620Y85207D01*
X214536Y85244D01*
X214454Y85284D01*
X214375Y85328D01*
X214297Y85375D01*
X214221Y85426D01*
X214147Y85480D01*
X214076Y85537D01*
X214008Y85597D01*
X213942Y85660D01*
X213879Y85726D01*
X213819Y85794D01*
X213762Y85865D01*
X213708Y85939D01*
X213657Y86015D01*
X213610Y86092D01*
X213566Y86172D01*
X213526Y86254D01*
X213489Y86338D01*
X213456Y86422D01*
X213427Y86509D01*
X213401Y86596D01*
X213380Y86685D01*
X213362Y86774D01*
X213348Y86864D01*
X213338Y86955D01*
X213332Y87046D01*
X213330Y87137D01*
X213331Y87137D02*
X213331Y89225D01*
X215419Y92694D02*
X213331Y95304D01*
X222729Y95304D01*
X222729Y92694D02*
X222729Y97915D01*
X215419Y101838D02*
X213331Y104448D01*
X222729Y104448D01*
X222729Y101838D02*
X222729Y107059D01*
X256569Y240469D02*
X256569Y242558D01*
X256569Y240469D02*
X256567Y240380D01*
X256561Y240292D01*
X256552Y240204D01*
X256539Y240116D01*
X256522Y240029D01*
X256502Y239943D01*
X256477Y239858D01*
X256450Y239773D01*
X256418Y239690D01*
X256384Y239609D01*
X256345Y239529D01*
X256304Y239451D01*
X256259Y239374D01*
X256211Y239300D01*
X256160Y239227D01*
X256106Y239157D01*
X256048Y239090D01*
X255988Y239024D01*
X255926Y238962D01*
X255860Y238902D01*
X255793Y238844D01*
X255723Y238790D01*
X255650Y238739D01*
X255576Y238691D01*
X255499Y238646D01*
X255421Y238605D01*
X255341Y238566D01*
X255260Y238532D01*
X255177Y238500D01*
X255092Y238473D01*
X255007Y238448D01*
X254921Y238428D01*
X254834Y238411D01*
X254746Y238398D01*
X254658Y238389D01*
X254570Y238383D01*
X254481Y238381D01*
X249259Y238381D01*
X249168Y238383D01*
X249077Y238389D01*
X248986Y238399D01*
X248896Y238413D01*
X248807Y238431D01*
X248718Y238452D01*
X248631Y238478D01*
X248545Y238507D01*
X248460Y238540D01*
X248376Y238577D01*
X248294Y238617D01*
X248215Y238661D01*
X248137Y238708D01*
X248061Y238759D01*
X247987Y238813D01*
X247916Y238870D01*
X247848Y238930D01*
X247782Y238993D01*
X247719Y239059D01*
X247659Y239127D01*
X247602Y239198D01*
X247548Y239272D01*
X247497Y239348D01*
X247450Y239425D01*
X247406Y239505D01*
X247366Y239587D01*
X247329Y239671D01*
X247296Y239755D01*
X247267Y239842D01*
X247241Y239929D01*
X247220Y240018D01*
X247202Y240107D01*
X247188Y240197D01*
X247178Y240288D01*
X247172Y240379D01*
X247170Y240470D01*
X247171Y240469D02*
X247171Y242558D01*
X249259Y246027D02*
X247171Y248637D01*
X256569Y248637D01*
X256569Y246027D02*
X256569Y251248D01*
X249521Y260392D02*
X249426Y260390D01*
X249332Y260384D01*
X249238Y260375D01*
X249144Y260362D01*
X249051Y260345D01*
X248959Y260324D01*
X248867Y260299D01*
X248777Y260271D01*
X248688Y260239D01*
X248600Y260204D01*
X248514Y260165D01*
X248429Y260123D01*
X248346Y260077D01*
X248265Y260028D01*
X248186Y259976D01*
X248109Y259921D01*
X248035Y259862D01*
X247963Y259801D01*
X247893Y259737D01*
X247826Y259670D01*
X247762Y259600D01*
X247701Y259528D01*
X247642Y259454D01*
X247587Y259377D01*
X247535Y259298D01*
X247486Y259217D01*
X247440Y259134D01*
X247398Y259049D01*
X247359Y258963D01*
X247324Y258875D01*
X247292Y258786D01*
X247264Y258696D01*
X247239Y258604D01*
X247218Y258512D01*
X247201Y258419D01*
X247188Y258325D01*
X247179Y258231D01*
X247173Y258137D01*
X247171Y258042D01*
X247173Y257934D01*
X247179Y257825D01*
X247189Y257717D01*
X247202Y257610D01*
X247220Y257503D01*
X247241Y257396D01*
X247266Y257291D01*
X247295Y257186D01*
X247327Y257083D01*
X247364Y256981D01*
X247404Y256880D01*
X247447Y256781D01*
X247494Y256683D01*
X247545Y256587D01*
X247599Y256493D01*
X247656Y256401D01*
X247717Y256311D01*
X247781Y256223D01*
X247847Y256138D01*
X247917Y256055D01*
X247990Y255975D01*
X248066Y255897D01*
X248144Y255822D01*
X248225Y255750D01*
X248309Y255681D01*
X248395Y255615D01*
X248483Y255552D01*
X248574Y255493D01*
X248666Y255436D01*
X248761Y255383D01*
X248858Y255334D01*
X248956Y255288D01*
X249055Y255245D01*
X249157Y255206D01*
X249259Y255171D01*
X251349Y259609D02*
X251280Y259678D01*
X251209Y259744D01*
X251136Y259808D01*
X251060Y259869D01*
X250981Y259927D01*
X250901Y259981D01*
X250818Y260033D01*
X250734Y260081D01*
X250648Y260127D01*
X250560Y260168D01*
X250470Y260207D01*
X250379Y260242D01*
X250287Y260273D01*
X250194Y260301D01*
X250100Y260325D01*
X250005Y260345D01*
X249909Y260362D01*
X249812Y260375D01*
X249715Y260384D01*
X249618Y260390D01*
X249521Y260392D01*
X251348Y259609D02*
X256569Y255171D01*
X256569Y260392D01*
D10*
X291338Y64008D02*
X293878Y64008D01*
X291338Y64008D02*
X291338Y64516D01*
X291389Y64516D01*
X291389Y114021D01*
X293700Y114021D01*
X340690Y63805D02*
X343408Y63805D01*
X343408Y64313D01*
X343433Y64313D01*
X343433Y113995D01*
X341173Y113995D01*
X326390Y63500D02*
X309372Y63500D01*
X308864Y114300D02*
X317500Y114300D01*
X326136Y114300D01*
X317500Y114300D02*
X342900Y88900D01*
D15*
X346075Y117475D03*
D11*
X346075Y84725D02*
X350901Y84725D01*
X346075Y84725D02*
X346075Y86065D01*
X346077Y86135D01*
X346082Y86205D01*
X346092Y86275D01*
X346104Y86344D01*
X346121Y86412D01*
X346141Y86479D01*
X346164Y86546D01*
X346191Y86610D01*
X346221Y86674D01*
X346255Y86736D01*
X346291Y86795D01*
X346331Y86853D01*
X346374Y86909D01*
X346419Y86962D01*
X346468Y87013D01*
X346519Y87062D01*
X346572Y87107D01*
X346628Y87150D01*
X346686Y87190D01*
X346746Y87226D01*
X346807Y87260D01*
X346871Y87290D01*
X346935Y87317D01*
X347002Y87340D01*
X347069Y87360D01*
X347137Y87377D01*
X347206Y87389D01*
X347276Y87399D01*
X347346Y87404D01*
X347416Y87406D01*
X349560Y87406D01*
X349630Y87404D01*
X349700Y87399D01*
X349770Y87389D01*
X349839Y87377D01*
X349907Y87360D01*
X349974Y87340D01*
X350041Y87317D01*
X350105Y87290D01*
X350169Y87260D01*
X350231Y87226D01*
X350290Y87190D01*
X350348Y87150D01*
X350404Y87107D01*
X350457Y87062D01*
X350508Y87013D01*
X350557Y86962D01*
X350602Y86909D01*
X350645Y86853D01*
X350685Y86795D01*
X350721Y86735D01*
X350755Y86674D01*
X350785Y86610D01*
X350812Y86546D01*
X350835Y86479D01*
X350855Y86412D01*
X350872Y86344D01*
X350884Y86275D01*
X350894Y86205D01*
X350899Y86135D01*
X350901Y86065D01*
X350901Y84725D01*
X347147Y90394D02*
X346075Y91735D01*
X350901Y91735D01*
X350901Y93075D02*
X350901Y90394D01*
X154300Y308050D02*
X146300Y308050D01*
X154300Y308050D02*
X154300Y330800D01*
X82300Y308050D02*
X74300Y308050D01*
X74300Y330800D01*
X86300Y350550D02*
X142300Y350550D01*
D12*
X146300Y299800D02*
X146302Y299863D01*
X146308Y299925D01*
X146318Y299987D01*
X146331Y300049D01*
X146349Y300109D01*
X146370Y300168D01*
X146395Y300226D01*
X146424Y300282D01*
X146456Y300336D01*
X146491Y300388D01*
X146529Y300437D01*
X146571Y300485D01*
X146615Y300529D01*
X146663Y300571D01*
X146712Y300609D01*
X146764Y300644D01*
X146818Y300676D01*
X146874Y300705D01*
X146932Y300730D01*
X146991Y300751D01*
X147051Y300769D01*
X147113Y300782D01*
X147175Y300792D01*
X147237Y300798D01*
X147300Y300800D01*
X147363Y300798D01*
X147425Y300792D01*
X147487Y300782D01*
X147549Y300769D01*
X147609Y300751D01*
X147668Y300730D01*
X147726Y300705D01*
X147782Y300676D01*
X147836Y300644D01*
X147888Y300609D01*
X147937Y300571D01*
X147985Y300529D01*
X148029Y300485D01*
X148071Y300437D01*
X148109Y300388D01*
X148144Y300336D01*
X148176Y300282D01*
X148205Y300226D01*
X148230Y300168D01*
X148251Y300109D01*
X148269Y300049D01*
X148282Y299987D01*
X148292Y299925D01*
X148298Y299863D01*
X148300Y299800D01*
X148298Y299737D01*
X148292Y299675D01*
X148282Y299613D01*
X148269Y299551D01*
X148251Y299491D01*
X148230Y299432D01*
X148205Y299374D01*
X148176Y299318D01*
X148144Y299264D01*
X148109Y299212D01*
X148071Y299163D01*
X148029Y299115D01*
X147985Y299071D01*
X147937Y299029D01*
X147888Y298991D01*
X147836Y298956D01*
X147782Y298924D01*
X147726Y298895D01*
X147668Y298870D01*
X147609Y298849D01*
X147549Y298831D01*
X147487Y298818D01*
X147425Y298808D01*
X147363Y298802D01*
X147300Y298800D01*
X147237Y298802D01*
X147175Y298808D01*
X147113Y298818D01*
X147051Y298831D01*
X146991Y298849D01*
X146932Y298870D01*
X146874Y298895D01*
X146818Y298924D01*
X146764Y298956D01*
X146712Y298991D01*
X146663Y299029D01*
X146615Y299071D01*
X146571Y299115D01*
X146529Y299163D01*
X146491Y299212D01*
X146456Y299264D01*
X146424Y299318D01*
X146395Y299374D01*
X146370Y299432D01*
X146349Y299491D01*
X146331Y299551D01*
X146318Y299613D01*
X146308Y299675D01*
X146302Y299737D01*
X146300Y299800D01*
D13*
X60499Y359004D02*
X60499Y368092D01*
X60499Y359004D02*
X60497Y358905D01*
X60491Y358805D01*
X60482Y358706D01*
X60469Y358608D01*
X60452Y358510D01*
X60431Y358412D01*
X60406Y358316D01*
X60378Y358221D01*
X60346Y358127D01*
X60311Y358034D01*
X60272Y357942D01*
X60229Y357852D01*
X60184Y357764D01*
X60134Y357677D01*
X60082Y357593D01*
X60026Y357510D01*
X59968Y357430D01*
X59906Y357352D01*
X59841Y357277D01*
X59773Y357204D01*
X59703Y357134D01*
X59630Y357066D01*
X59555Y357001D01*
X59477Y356939D01*
X59397Y356881D01*
X59314Y356825D01*
X59230Y356773D01*
X59143Y356723D01*
X59055Y356678D01*
X58965Y356635D01*
X58873Y356596D01*
X58780Y356561D01*
X58686Y356529D01*
X58591Y356501D01*
X58495Y356476D01*
X58397Y356455D01*
X58299Y356438D01*
X58201Y356425D01*
X58102Y356416D01*
X58002Y356410D01*
X57903Y356408D01*
X56605Y356408D01*
X65773Y365496D02*
X69018Y368092D01*
X69018Y356408D01*
X65773Y356408D02*
X72264Y356408D01*
X77316Y360952D02*
X85105Y360952D01*
X93670Y356408D02*
X93769Y356410D01*
X93869Y356416D01*
X93968Y356425D01*
X94066Y356438D01*
X94164Y356455D01*
X94262Y356476D01*
X94358Y356501D01*
X94453Y356529D01*
X94547Y356561D01*
X94640Y356596D01*
X94732Y356635D01*
X94822Y356678D01*
X94910Y356723D01*
X94997Y356773D01*
X95081Y356825D01*
X95164Y356881D01*
X95244Y356939D01*
X95322Y357001D01*
X95397Y357066D01*
X95470Y357134D01*
X95540Y357204D01*
X95608Y357277D01*
X95673Y357352D01*
X95735Y357430D01*
X95793Y357510D01*
X95849Y357593D01*
X95901Y357677D01*
X95951Y357764D01*
X95996Y357852D01*
X96039Y357942D01*
X96078Y358034D01*
X96113Y358127D01*
X96145Y358221D01*
X96173Y358316D01*
X96198Y358412D01*
X96219Y358510D01*
X96236Y358608D01*
X96249Y358706D01*
X96258Y358805D01*
X96264Y358905D01*
X96266Y359004D01*
X93670Y356408D02*
X93526Y356410D01*
X93381Y356416D01*
X93237Y356425D01*
X93094Y356438D01*
X92950Y356455D01*
X92807Y356476D01*
X92665Y356501D01*
X92524Y356529D01*
X92383Y356561D01*
X92243Y356597D01*
X92104Y356636D01*
X91966Y356679D01*
X91830Y356726D01*
X91694Y356776D01*
X91560Y356830D01*
X91428Y356887D01*
X91297Y356948D01*
X91168Y357012D01*
X91040Y357080D01*
X90914Y357150D01*
X90790Y357225D01*
X90669Y357302D01*
X90549Y357383D01*
X90431Y357466D01*
X90316Y357553D01*
X90203Y357643D01*
X90092Y357736D01*
X89984Y357831D01*
X89878Y357930D01*
X89775Y358031D01*
X90101Y365496D02*
X90103Y365595D01*
X90109Y365695D01*
X90118Y365794D01*
X90131Y365892D01*
X90148Y365990D01*
X90169Y366088D01*
X90194Y366184D01*
X90222Y366279D01*
X90254Y366373D01*
X90289Y366466D01*
X90328Y366558D01*
X90371Y366648D01*
X90416Y366736D01*
X90466Y366823D01*
X90518Y366907D01*
X90574Y366990D01*
X90632Y367070D01*
X90694Y367148D01*
X90759Y367223D01*
X90827Y367296D01*
X90897Y367366D01*
X90970Y367434D01*
X91045Y367499D01*
X91123Y367561D01*
X91203Y367619D01*
X91286Y367675D01*
X91370Y367727D01*
X91457Y367777D01*
X91545Y367822D01*
X91635Y367865D01*
X91727Y367904D01*
X91820Y367939D01*
X91914Y367971D01*
X92009Y367999D01*
X92106Y368024D01*
X92203Y368045D01*
X92301Y368062D01*
X92399Y368075D01*
X92498Y368084D01*
X92598Y368090D01*
X92697Y368092D01*
X92833Y368090D01*
X92969Y368084D01*
X93105Y368075D01*
X93241Y368062D01*
X93376Y368044D01*
X93510Y368024D01*
X93644Y367999D01*
X93778Y367971D01*
X93910Y367938D01*
X94041Y367903D01*
X94172Y367863D01*
X94301Y367820D01*
X94429Y367774D01*
X94555Y367723D01*
X94681Y367670D01*
X94804Y367612D01*
X94926Y367552D01*
X95046Y367488D01*
X95165Y367420D01*
X95281Y367350D01*
X95395Y367276D01*
X95508Y367199D01*
X95618Y367118D01*
X91398Y363224D02*
X91312Y363277D01*
X91228Y363334D01*
X91146Y363393D01*
X91066Y363456D01*
X90989Y363522D01*
X90914Y363590D01*
X90842Y363662D01*
X90773Y363736D01*
X90707Y363813D01*
X90644Y363892D01*
X90584Y363974D01*
X90527Y364058D01*
X90473Y364144D01*
X90423Y364232D01*
X90376Y364322D01*
X90332Y364413D01*
X90293Y364507D01*
X90256Y364601D01*
X90224Y364697D01*
X90195Y364795D01*
X90170Y364893D01*
X90149Y364992D01*
X90131Y365092D01*
X90118Y365192D01*
X90108Y365293D01*
X90102Y365395D01*
X90100Y365496D01*
X94969Y361276D02*
X95055Y361223D01*
X95139Y361166D01*
X95221Y361107D01*
X95301Y361044D01*
X95378Y360978D01*
X95453Y360910D01*
X95525Y360838D01*
X95594Y360764D01*
X95660Y360687D01*
X95723Y360608D01*
X95783Y360526D01*
X95840Y360442D01*
X95894Y360356D01*
X95944Y360268D01*
X95991Y360178D01*
X96035Y360087D01*
X96074Y359993D01*
X96111Y359899D01*
X96143Y359803D01*
X96172Y359705D01*
X96197Y359607D01*
X96218Y359508D01*
X96236Y359408D01*
X96249Y359308D01*
X96259Y359207D01*
X96265Y359105D01*
X96267Y359004D01*
X94969Y361276D02*
X91398Y363224D01*
X101375Y368092D02*
X101375Y356408D01*
X101375Y368092D02*
X104620Y368092D01*
X104733Y368090D01*
X104846Y368084D01*
X104959Y368074D01*
X105072Y368060D01*
X105184Y368043D01*
X105295Y368021D01*
X105405Y367996D01*
X105515Y367966D01*
X105623Y367933D01*
X105730Y367896D01*
X105836Y367856D01*
X105940Y367811D01*
X106043Y367763D01*
X106144Y367712D01*
X106243Y367657D01*
X106340Y367599D01*
X106435Y367537D01*
X106528Y367472D01*
X106618Y367404D01*
X106706Y367333D01*
X106792Y367258D01*
X106875Y367181D01*
X106955Y367101D01*
X107032Y367018D01*
X107107Y366932D01*
X107178Y366844D01*
X107246Y366754D01*
X107311Y366661D01*
X107373Y366566D01*
X107431Y366469D01*
X107486Y366370D01*
X107537Y366269D01*
X107585Y366166D01*
X107630Y366062D01*
X107670Y365956D01*
X107707Y365849D01*
X107740Y365741D01*
X107770Y365631D01*
X107795Y365521D01*
X107817Y365410D01*
X107834Y365298D01*
X107848Y365185D01*
X107858Y365072D01*
X107864Y364959D01*
X107866Y364846D01*
X107864Y364733D01*
X107858Y364620D01*
X107848Y364507D01*
X107834Y364394D01*
X107817Y364282D01*
X107795Y364171D01*
X107770Y364061D01*
X107740Y363951D01*
X107707Y363843D01*
X107670Y363736D01*
X107630Y363630D01*
X107585Y363526D01*
X107537Y363423D01*
X107486Y363322D01*
X107431Y363223D01*
X107373Y363126D01*
X107311Y363031D01*
X107246Y362938D01*
X107178Y362848D01*
X107107Y362760D01*
X107032Y362674D01*
X106955Y362591D01*
X106875Y362511D01*
X106792Y362434D01*
X106706Y362359D01*
X106618Y362288D01*
X106528Y362220D01*
X106435Y362155D01*
X106340Y362093D01*
X106243Y362035D01*
X106144Y361980D01*
X106043Y361929D01*
X105940Y361881D01*
X105836Y361836D01*
X105730Y361796D01*
X105623Y361759D01*
X105515Y361726D01*
X105405Y361696D01*
X105295Y361671D01*
X105184Y361649D01*
X105072Y361632D01*
X104959Y361618D01*
X104846Y361608D01*
X104733Y361602D01*
X104620Y361600D01*
X104620Y361601D02*
X101375Y361601D01*
X111605Y356408D02*
X115500Y368092D01*
X119395Y356408D01*
X118421Y359329D02*
X112579Y359329D01*
X124139Y356408D02*
X124139Y368092D01*
X127385Y368092D01*
X127498Y368090D01*
X127611Y368084D01*
X127724Y368074D01*
X127837Y368060D01*
X127949Y368043D01*
X128060Y368021D01*
X128170Y367996D01*
X128280Y367966D01*
X128388Y367933D01*
X128495Y367896D01*
X128601Y367856D01*
X128705Y367811D01*
X128808Y367763D01*
X128909Y367712D01*
X129008Y367657D01*
X129105Y367599D01*
X129200Y367537D01*
X129293Y367472D01*
X129383Y367404D01*
X129471Y367333D01*
X129557Y367258D01*
X129640Y367181D01*
X129720Y367101D01*
X129797Y367018D01*
X129872Y366932D01*
X129943Y366844D01*
X130011Y366754D01*
X130076Y366661D01*
X130138Y366566D01*
X130196Y366469D01*
X130251Y366370D01*
X130302Y366269D01*
X130350Y366166D01*
X130395Y366062D01*
X130435Y365956D01*
X130472Y365849D01*
X130505Y365741D01*
X130535Y365631D01*
X130560Y365521D01*
X130582Y365410D01*
X130599Y365298D01*
X130613Y365185D01*
X130623Y365072D01*
X130629Y364959D01*
X130631Y364846D01*
X130629Y364733D01*
X130623Y364620D01*
X130613Y364507D01*
X130599Y364394D01*
X130582Y364282D01*
X130560Y364171D01*
X130535Y364061D01*
X130505Y363951D01*
X130472Y363843D01*
X130435Y363736D01*
X130395Y363630D01*
X130350Y363526D01*
X130302Y363423D01*
X130251Y363322D01*
X130196Y363223D01*
X130138Y363126D01*
X130076Y363031D01*
X130011Y362938D01*
X129943Y362848D01*
X129872Y362760D01*
X129797Y362674D01*
X129720Y362591D01*
X129640Y362511D01*
X129557Y362434D01*
X129471Y362359D01*
X129383Y362288D01*
X129293Y362220D01*
X129200Y362155D01*
X129105Y362093D01*
X129008Y362035D01*
X128909Y361980D01*
X128808Y361929D01*
X128705Y361881D01*
X128601Y361836D01*
X128495Y361796D01*
X128388Y361759D01*
X128280Y361726D01*
X128170Y361696D01*
X128060Y361671D01*
X127949Y361649D01*
X127837Y361632D01*
X127724Y361618D01*
X127611Y361608D01*
X127498Y361602D01*
X127385Y361600D01*
X127385Y361601D02*
X124139Y361601D01*
X128034Y361601D02*
X130630Y356408D01*
X135899Y356408D02*
X141092Y356408D01*
X135899Y356408D02*
X135899Y368092D01*
X141092Y368092D01*
X139794Y362899D02*
X135899Y362899D01*
D16*
X19050Y284480D02*
X19050Y256540D01*
X36830Y254000D02*
X36930Y254002D01*
X37029Y254008D01*
X37129Y254018D01*
X37227Y254031D01*
X37326Y254049D01*
X37423Y254070D01*
X37519Y254095D01*
X37615Y254124D01*
X37709Y254157D01*
X37802Y254193D01*
X37893Y254233D01*
X37983Y254277D01*
X38071Y254324D01*
X38157Y254374D01*
X38241Y254428D01*
X38323Y254485D01*
X38402Y254545D01*
X38480Y254609D01*
X38554Y254675D01*
X38626Y254744D01*
X38695Y254816D01*
X38761Y254890D01*
X38825Y254968D01*
X38885Y255047D01*
X38942Y255129D01*
X38996Y255213D01*
X39046Y255299D01*
X39093Y255387D01*
X39137Y255477D01*
X39177Y255568D01*
X39213Y255661D01*
X39246Y255755D01*
X39275Y255851D01*
X39300Y255947D01*
X39321Y256044D01*
X39339Y256143D01*
X39352Y256241D01*
X39362Y256341D01*
X39368Y256440D01*
X39370Y256540D01*
X39370Y284480D02*
X39368Y284580D01*
X39362Y284679D01*
X39352Y284779D01*
X39339Y284877D01*
X39321Y284976D01*
X39300Y285073D01*
X39275Y285169D01*
X39246Y285265D01*
X39213Y285359D01*
X39177Y285452D01*
X39137Y285543D01*
X39093Y285633D01*
X39046Y285721D01*
X38996Y285807D01*
X38942Y285891D01*
X38885Y285973D01*
X38825Y286052D01*
X38761Y286130D01*
X38695Y286204D01*
X38626Y286276D01*
X38554Y286345D01*
X38480Y286411D01*
X38402Y286475D01*
X38323Y286535D01*
X38241Y286592D01*
X38157Y286646D01*
X38071Y286696D01*
X37983Y286743D01*
X37893Y286787D01*
X37802Y286827D01*
X37709Y286863D01*
X37615Y286896D01*
X37519Y286925D01*
X37423Y286950D01*
X37326Y286971D01*
X37227Y286989D01*
X37129Y287002D01*
X37029Y287012D01*
X36930Y287018D01*
X36830Y287020D01*
X21590Y287020D02*
X21490Y287018D01*
X21391Y287012D01*
X21291Y287002D01*
X21193Y286989D01*
X21094Y286971D01*
X20997Y286950D01*
X20901Y286925D01*
X20805Y286896D01*
X20711Y286863D01*
X20618Y286827D01*
X20527Y286787D01*
X20437Y286743D01*
X20349Y286696D01*
X20263Y286646D01*
X20179Y286592D01*
X20097Y286535D01*
X20018Y286475D01*
X19940Y286411D01*
X19866Y286345D01*
X19794Y286276D01*
X19725Y286204D01*
X19659Y286130D01*
X19595Y286052D01*
X19535Y285973D01*
X19478Y285891D01*
X19424Y285807D01*
X19374Y285721D01*
X19327Y285633D01*
X19283Y285543D01*
X19243Y285452D01*
X19207Y285359D01*
X19174Y285265D01*
X19145Y285169D01*
X19120Y285073D01*
X19099Y284976D01*
X19081Y284877D01*
X19068Y284779D01*
X19058Y284679D01*
X19052Y284580D01*
X19050Y284480D01*
X19050Y256540D02*
X19052Y256440D01*
X19058Y256341D01*
X19068Y256241D01*
X19081Y256143D01*
X19099Y256044D01*
X19120Y255947D01*
X19145Y255851D01*
X19174Y255755D01*
X19207Y255661D01*
X19243Y255568D01*
X19283Y255477D01*
X19327Y255387D01*
X19374Y255299D01*
X19424Y255213D01*
X19478Y255129D01*
X19535Y255047D01*
X19595Y254968D01*
X19659Y254890D01*
X19725Y254816D01*
X19794Y254744D01*
X19866Y254675D01*
X19940Y254609D01*
X20018Y254545D01*
X20097Y254485D01*
X20179Y254428D01*
X20263Y254374D01*
X20349Y254324D01*
X20437Y254277D01*
X20527Y254233D01*
X20618Y254193D01*
X20711Y254157D01*
X20805Y254124D01*
X20901Y254095D01*
X20997Y254070D01*
X21094Y254049D01*
X21193Y254031D01*
X21291Y254018D01*
X21391Y254008D01*
X21490Y254002D01*
X21590Y254000D01*
X36830Y254000D01*
X36830Y287020D02*
X21590Y287020D01*
X39370Y284480D02*
X39370Y256540D01*
D11*
X50165Y267335D02*
X50265Y267333D01*
X50364Y267327D01*
X50464Y267317D01*
X50562Y267304D01*
X50661Y267286D01*
X50758Y267265D01*
X50854Y267240D01*
X50950Y267211D01*
X51044Y267178D01*
X51137Y267142D01*
X51228Y267102D01*
X51318Y267058D01*
X51406Y267011D01*
X51492Y266961D01*
X51576Y266907D01*
X51658Y266850D01*
X51737Y266790D01*
X51815Y266726D01*
X51889Y266660D01*
X51961Y266591D01*
X52030Y266519D01*
X52096Y266445D01*
X52160Y266367D01*
X52220Y266288D01*
X52277Y266206D01*
X52331Y266122D01*
X52381Y266036D01*
X52428Y265948D01*
X52472Y265858D01*
X52512Y265767D01*
X52548Y265674D01*
X52581Y265580D01*
X52610Y265484D01*
X52635Y265388D01*
X52656Y265291D01*
X52674Y265192D01*
X52687Y265094D01*
X52697Y264994D01*
X52703Y264895D01*
X52705Y264795D01*
X52703Y264654D01*
X52698Y264513D01*
X52688Y264372D01*
X52675Y264231D01*
X52659Y264091D01*
X52638Y263951D01*
X52614Y263812D01*
X52586Y263673D01*
X52555Y263536D01*
X52520Y263399D01*
X52482Y263263D01*
X52440Y263128D01*
X52394Y262995D01*
X52345Y262862D01*
X52292Y262731D01*
X52236Y262602D01*
X52177Y262473D01*
X52114Y262347D01*
X52048Y262222D01*
X51979Y262099D01*
X51906Y261978D01*
X51830Y261859D01*
X51751Y261741D01*
X51670Y261626D01*
X51585Y261514D01*
X51497Y261403D01*
X51406Y261295D01*
X51313Y261189D01*
X51216Y261086D01*
X51117Y260985D01*
X43815Y261303D02*
X43715Y261305D01*
X43616Y261311D01*
X43516Y261321D01*
X43418Y261334D01*
X43319Y261352D01*
X43222Y261373D01*
X43126Y261398D01*
X43030Y261427D01*
X42936Y261460D01*
X42843Y261496D01*
X42752Y261536D01*
X42662Y261580D01*
X42574Y261627D01*
X42488Y261677D01*
X42404Y261731D01*
X42322Y261788D01*
X42243Y261848D01*
X42165Y261912D01*
X42091Y261978D01*
X42019Y262047D01*
X41950Y262119D01*
X41884Y262193D01*
X41820Y262271D01*
X41760Y262350D01*
X41703Y262432D01*
X41649Y262516D01*
X41599Y262602D01*
X41552Y262690D01*
X41508Y262780D01*
X41468Y262871D01*
X41432Y262964D01*
X41399Y263058D01*
X41370Y263154D01*
X41345Y263250D01*
X41324Y263347D01*
X41306Y263446D01*
X41293Y263544D01*
X41283Y263644D01*
X41277Y263743D01*
X41275Y263843D01*
X41277Y263976D01*
X41282Y264109D01*
X41292Y264242D01*
X41305Y264375D01*
X41322Y264507D01*
X41342Y264639D01*
X41366Y264770D01*
X41394Y264900D01*
X41425Y265030D01*
X41460Y265158D01*
X41499Y265286D01*
X41541Y265412D01*
X41587Y265537D01*
X41636Y265661D01*
X41688Y265784D01*
X41744Y265905D01*
X41804Y266024D01*
X41866Y266142D01*
X41932Y266257D01*
X42001Y266371D01*
X42074Y266483D01*
X42149Y266593D01*
X42228Y266701D01*
X46038Y262572D02*
X45986Y262488D01*
X45931Y262405D01*
X45872Y262325D01*
X45811Y262247D01*
X45747Y262172D01*
X45679Y262099D01*
X45609Y262028D01*
X45537Y261961D01*
X45462Y261896D01*
X45384Y261834D01*
X45304Y261775D01*
X45222Y261719D01*
X45138Y261667D01*
X45052Y261618D01*
X44964Y261572D01*
X44874Y261529D01*
X44783Y261490D01*
X44690Y261455D01*
X44596Y261423D01*
X44501Y261395D01*
X44405Y261370D01*
X44308Y261350D01*
X44210Y261332D01*
X44112Y261319D01*
X44013Y261310D01*
X43914Y261304D01*
X43815Y261302D01*
X47942Y266065D02*
X47994Y266149D01*
X48049Y266232D01*
X48108Y266312D01*
X48169Y266390D01*
X48233Y266465D01*
X48301Y266538D01*
X48371Y266609D01*
X48443Y266676D01*
X48518Y266741D01*
X48596Y266803D01*
X48676Y266862D01*
X48758Y266918D01*
X48842Y266970D01*
X48928Y267019D01*
X49016Y267065D01*
X49106Y267108D01*
X49197Y267147D01*
X49290Y267182D01*
X49384Y267214D01*
X49479Y267242D01*
X49575Y267267D01*
X49672Y267287D01*
X49770Y267305D01*
X49868Y267318D01*
X49967Y267327D01*
X50066Y267333D01*
X50165Y267335D01*
X47943Y266065D02*
X46038Y262573D01*
X50165Y274626D02*
X41275Y274626D01*
X50165Y274626D02*
X50265Y274624D01*
X50364Y274618D01*
X50464Y274608D01*
X50562Y274595D01*
X50661Y274577D01*
X50758Y274556D01*
X50854Y274531D01*
X50950Y274502D01*
X51044Y274469D01*
X51137Y274433D01*
X51228Y274393D01*
X51318Y274349D01*
X51406Y274302D01*
X51492Y274252D01*
X51576Y274198D01*
X51658Y274141D01*
X51737Y274081D01*
X51815Y274017D01*
X51889Y273951D01*
X51961Y273882D01*
X52030Y273810D01*
X52096Y273736D01*
X52160Y273658D01*
X52220Y273579D01*
X52277Y273497D01*
X52331Y273413D01*
X52381Y273327D01*
X52428Y273239D01*
X52472Y273149D01*
X52512Y273058D01*
X52548Y272965D01*
X52581Y272871D01*
X52610Y272775D01*
X52635Y272679D01*
X52656Y272582D01*
X52674Y272483D01*
X52687Y272385D01*
X52697Y272285D01*
X52703Y272186D01*
X52705Y272086D01*
X52705Y270816D01*
X43815Y280035D02*
X41275Y283210D01*
X52705Y283210D01*
X52705Y280035D02*
X52705Y286385D01*
D13*
X21656Y146558D02*
X19059Y146558D01*
X18960Y146560D01*
X18860Y146566D01*
X18761Y146575D01*
X18663Y146588D01*
X18565Y146605D01*
X18467Y146626D01*
X18371Y146651D01*
X18276Y146679D01*
X18182Y146711D01*
X18089Y146746D01*
X17997Y146785D01*
X17907Y146828D01*
X17819Y146873D01*
X17732Y146923D01*
X17648Y146975D01*
X17565Y147031D01*
X17485Y147089D01*
X17407Y147151D01*
X17332Y147216D01*
X17259Y147284D01*
X17189Y147354D01*
X17121Y147427D01*
X17056Y147502D01*
X16994Y147580D01*
X16936Y147660D01*
X16880Y147743D01*
X16828Y147827D01*
X16778Y147914D01*
X16733Y148002D01*
X16690Y148092D01*
X16651Y148184D01*
X16616Y148277D01*
X16584Y148371D01*
X16556Y148466D01*
X16531Y148562D01*
X16510Y148660D01*
X16493Y148758D01*
X16480Y148856D01*
X16471Y148955D01*
X16465Y149055D01*
X16463Y149154D01*
X16463Y155646D01*
X16465Y155745D01*
X16471Y155845D01*
X16480Y155944D01*
X16493Y156042D01*
X16510Y156140D01*
X16531Y156238D01*
X16556Y156334D01*
X16584Y156429D01*
X16616Y156523D01*
X16651Y156616D01*
X16690Y156708D01*
X16733Y156798D01*
X16778Y156886D01*
X16828Y156973D01*
X16880Y157057D01*
X16936Y157140D01*
X16994Y157220D01*
X17056Y157298D01*
X17121Y157373D01*
X17189Y157446D01*
X17259Y157516D01*
X17332Y157584D01*
X17407Y157649D01*
X17485Y157711D01*
X17565Y157769D01*
X17648Y157825D01*
X17732Y157877D01*
X17819Y157927D01*
X17907Y157972D01*
X17997Y158015D01*
X18089Y158054D01*
X18181Y158089D01*
X18276Y158121D01*
X18371Y158149D01*
X18467Y158174D01*
X18565Y158195D01*
X18663Y158212D01*
X18761Y158225D01*
X18860Y158234D01*
X18960Y158240D01*
X19059Y158242D01*
X21656Y158242D01*
X26021Y155646D02*
X29266Y158242D01*
X29266Y146558D01*
X26021Y146558D02*
X32512Y146558D01*
X37451Y149154D02*
X40047Y158242D01*
X37451Y149154D02*
X43942Y149154D01*
X41995Y151751D02*
X41995Y146558D01*
D16*
X112776Y95504D02*
X112776Y87376D01*
X112776Y95504D02*
X118364Y95504D01*
X141224Y95504D02*
X141224Y87376D01*
X141224Y95504D02*
X135636Y95504D01*
D13*
X108458Y108458D02*
X108458Y120142D01*
X111704Y120142D01*
X111817Y120140D01*
X111930Y120134D01*
X112043Y120124D01*
X112156Y120110D01*
X112268Y120093D01*
X112379Y120071D01*
X112489Y120046D01*
X112599Y120016D01*
X112707Y119983D01*
X112814Y119946D01*
X112920Y119906D01*
X113024Y119861D01*
X113127Y119813D01*
X113228Y119762D01*
X113327Y119707D01*
X113424Y119649D01*
X113519Y119587D01*
X113612Y119522D01*
X113702Y119454D01*
X113790Y119383D01*
X113876Y119308D01*
X113959Y119231D01*
X114039Y119151D01*
X114116Y119068D01*
X114191Y118982D01*
X114262Y118894D01*
X114330Y118804D01*
X114395Y118711D01*
X114457Y118616D01*
X114515Y118519D01*
X114570Y118420D01*
X114621Y118319D01*
X114669Y118216D01*
X114714Y118112D01*
X114754Y118006D01*
X114791Y117899D01*
X114824Y117791D01*
X114854Y117681D01*
X114879Y117571D01*
X114901Y117460D01*
X114918Y117348D01*
X114932Y117235D01*
X114942Y117122D01*
X114948Y117009D01*
X114950Y116896D01*
X114949Y116896D02*
X114949Y111704D01*
X114950Y111704D02*
X114948Y111591D01*
X114942Y111478D01*
X114932Y111365D01*
X114918Y111252D01*
X114901Y111140D01*
X114879Y111029D01*
X114854Y110919D01*
X114824Y110809D01*
X114791Y110701D01*
X114754Y110594D01*
X114714Y110488D01*
X114669Y110384D01*
X114621Y110281D01*
X114570Y110180D01*
X114515Y110081D01*
X114457Y109984D01*
X114395Y109889D01*
X114330Y109796D01*
X114262Y109706D01*
X114191Y109618D01*
X114116Y109532D01*
X114039Y109449D01*
X113959Y109369D01*
X113876Y109292D01*
X113790Y109217D01*
X113702Y109146D01*
X113612Y109078D01*
X113519Y109013D01*
X113424Y108951D01*
X113327Y108893D01*
X113228Y108838D01*
X113127Y108787D01*
X113024Y108739D01*
X112920Y108694D01*
X112814Y108654D01*
X112707Y108617D01*
X112599Y108584D01*
X112489Y108554D01*
X112379Y108529D01*
X112268Y108507D01*
X112156Y108490D01*
X112043Y108476D01*
X111930Y108466D01*
X111817Y108460D01*
X111704Y108458D01*
X108458Y108458D01*
X120269Y108458D02*
X123515Y108458D01*
X123628Y108460D01*
X123741Y108466D01*
X123854Y108476D01*
X123967Y108490D01*
X124079Y108507D01*
X124190Y108529D01*
X124300Y108554D01*
X124410Y108584D01*
X124518Y108617D01*
X124625Y108654D01*
X124731Y108694D01*
X124835Y108739D01*
X124938Y108787D01*
X125039Y108838D01*
X125138Y108893D01*
X125235Y108951D01*
X125330Y109013D01*
X125423Y109078D01*
X125513Y109146D01*
X125601Y109217D01*
X125687Y109292D01*
X125770Y109369D01*
X125850Y109449D01*
X125927Y109532D01*
X126002Y109618D01*
X126073Y109706D01*
X126141Y109796D01*
X126206Y109889D01*
X126268Y109984D01*
X126326Y110081D01*
X126381Y110180D01*
X126432Y110281D01*
X126480Y110384D01*
X126525Y110488D01*
X126565Y110594D01*
X126602Y110701D01*
X126635Y110809D01*
X126665Y110919D01*
X126690Y111029D01*
X126712Y111140D01*
X126729Y111252D01*
X126743Y111365D01*
X126753Y111478D01*
X126759Y111591D01*
X126761Y111704D01*
X126759Y111817D01*
X126753Y111930D01*
X126743Y112043D01*
X126729Y112156D01*
X126712Y112268D01*
X126690Y112379D01*
X126665Y112489D01*
X126635Y112599D01*
X126602Y112707D01*
X126565Y112814D01*
X126525Y112920D01*
X126480Y113024D01*
X126432Y113127D01*
X126381Y113228D01*
X126326Y113327D01*
X126268Y113424D01*
X126206Y113519D01*
X126141Y113612D01*
X126073Y113702D01*
X126002Y113790D01*
X125927Y113876D01*
X125850Y113959D01*
X125770Y114039D01*
X125687Y114116D01*
X125601Y114191D01*
X125513Y114262D01*
X125423Y114330D01*
X125330Y114395D01*
X125235Y114457D01*
X125138Y114515D01*
X125039Y114570D01*
X124938Y114621D01*
X124835Y114669D01*
X124731Y114714D01*
X124625Y114754D01*
X124518Y114791D01*
X124410Y114824D01*
X124300Y114854D01*
X124190Y114879D01*
X124079Y114901D01*
X123967Y114918D01*
X123854Y114932D01*
X123741Y114942D01*
X123628Y114948D01*
X123515Y114950D01*
X124164Y120142D02*
X120269Y120142D01*
X124164Y120142D02*
X124265Y120140D01*
X124365Y120134D01*
X124465Y120124D01*
X124565Y120111D01*
X124664Y120093D01*
X124763Y120072D01*
X124860Y120047D01*
X124957Y120018D01*
X125052Y119985D01*
X125146Y119949D01*
X125238Y119909D01*
X125329Y119866D01*
X125418Y119819D01*
X125505Y119769D01*
X125591Y119715D01*
X125674Y119658D01*
X125754Y119598D01*
X125833Y119535D01*
X125909Y119468D01*
X125982Y119399D01*
X126052Y119327D01*
X126120Y119253D01*
X126185Y119176D01*
X126246Y119096D01*
X126305Y119014D01*
X126360Y118930D01*
X126412Y118844D01*
X126461Y118756D01*
X126506Y118666D01*
X126548Y118574D01*
X126586Y118481D01*
X126620Y118386D01*
X126651Y118291D01*
X126678Y118194D01*
X126701Y118096D01*
X126721Y117997D01*
X126736Y117897D01*
X126748Y117797D01*
X126756Y117697D01*
X126760Y117596D01*
X126760Y117496D01*
X126756Y117395D01*
X126748Y117295D01*
X126736Y117195D01*
X126721Y117095D01*
X126701Y116996D01*
X126678Y116898D01*
X126651Y116801D01*
X126620Y116706D01*
X126586Y116611D01*
X126548Y116518D01*
X126506Y116426D01*
X126461Y116336D01*
X126412Y116248D01*
X126360Y116162D01*
X126305Y116078D01*
X126246Y115996D01*
X126185Y115916D01*
X126120Y115839D01*
X126052Y115765D01*
X125982Y115693D01*
X125909Y115624D01*
X125833Y115557D01*
X125754Y115494D01*
X125674Y115434D01*
X125591Y115377D01*
X125505Y115323D01*
X125418Y115273D01*
X125329Y115226D01*
X125238Y115183D01*
X125146Y115143D01*
X125052Y115107D01*
X124957Y115074D01*
X124860Y115045D01*
X124763Y115020D01*
X124664Y114999D01*
X124565Y114981D01*
X124465Y114968D01*
X124365Y114958D01*
X124265Y114952D01*
X124164Y114950D01*
X124164Y114949D02*
X121567Y114949D01*
X57912Y264668D02*
X46228Y264668D01*
X46228Y267914D01*
X46230Y268027D01*
X46236Y268140D01*
X46246Y268253D01*
X46260Y268366D01*
X46277Y268478D01*
X46299Y268589D01*
X46324Y268699D01*
X46354Y268809D01*
X46387Y268917D01*
X46424Y269024D01*
X46464Y269130D01*
X46509Y269234D01*
X46557Y269337D01*
X46608Y269438D01*
X46663Y269537D01*
X46721Y269634D01*
X46783Y269729D01*
X46848Y269822D01*
X46916Y269912D01*
X46987Y270000D01*
X47062Y270086D01*
X47139Y270169D01*
X47219Y270249D01*
X47302Y270326D01*
X47388Y270401D01*
X47476Y270472D01*
X47566Y270540D01*
X47659Y270605D01*
X47754Y270667D01*
X47851Y270725D01*
X47950Y270780D01*
X48051Y270831D01*
X48154Y270879D01*
X48258Y270924D01*
X48364Y270964D01*
X48471Y271001D01*
X48579Y271034D01*
X48689Y271064D01*
X48799Y271089D01*
X48910Y271111D01*
X49022Y271128D01*
X49135Y271142D01*
X49248Y271152D01*
X49361Y271158D01*
X49474Y271160D01*
X49587Y271158D01*
X49700Y271152D01*
X49813Y271142D01*
X49926Y271128D01*
X50038Y271111D01*
X50149Y271089D01*
X50259Y271064D01*
X50369Y271034D01*
X50477Y271001D01*
X50584Y270964D01*
X50690Y270924D01*
X50794Y270879D01*
X50897Y270831D01*
X50998Y270780D01*
X51097Y270725D01*
X51194Y270667D01*
X51289Y270605D01*
X51382Y270540D01*
X51472Y270472D01*
X51560Y270401D01*
X51646Y270326D01*
X51729Y270249D01*
X51809Y270169D01*
X51886Y270086D01*
X51961Y270000D01*
X52032Y269912D01*
X52100Y269822D01*
X52165Y269729D01*
X52227Y269634D01*
X52285Y269537D01*
X52340Y269438D01*
X52391Y269337D01*
X52439Y269234D01*
X52484Y269130D01*
X52524Y269024D01*
X52561Y268917D01*
X52594Y268809D01*
X52624Y268699D01*
X52649Y268589D01*
X52671Y268478D01*
X52688Y268366D01*
X52702Y268253D01*
X52712Y268140D01*
X52718Y268027D01*
X52720Y267914D01*
X52719Y267914D02*
X52719Y264668D01*
X52719Y268563D02*
X57912Y271159D01*
X49149Y282515D02*
X49042Y282513D01*
X48936Y282507D01*
X48830Y282497D01*
X48724Y282484D01*
X48618Y282466D01*
X48514Y282445D01*
X48410Y282420D01*
X48307Y282391D01*
X48206Y282359D01*
X48106Y282322D01*
X48007Y282282D01*
X47909Y282239D01*
X47813Y282192D01*
X47719Y282141D01*
X47627Y282087D01*
X47537Y282030D01*
X47449Y281970D01*
X47364Y281906D01*
X47281Y281839D01*
X47200Y281769D01*
X47122Y281697D01*
X47046Y281621D01*
X46974Y281543D01*
X46904Y281462D01*
X46837Y281379D01*
X46773Y281294D01*
X46713Y281206D01*
X46656Y281116D01*
X46602Y281024D01*
X46551Y280930D01*
X46504Y280834D01*
X46461Y280736D01*
X46421Y280637D01*
X46384Y280537D01*
X46352Y280436D01*
X46323Y280333D01*
X46298Y280229D01*
X46277Y280125D01*
X46259Y280019D01*
X46246Y279913D01*
X46236Y279807D01*
X46230Y279701D01*
X46228Y279594D01*
X46230Y279473D01*
X46236Y279352D01*
X46246Y279232D01*
X46259Y279111D01*
X46277Y278992D01*
X46298Y278872D01*
X46323Y278754D01*
X46352Y278637D01*
X46385Y278520D01*
X46421Y278405D01*
X46462Y278291D01*
X46505Y278178D01*
X46553Y278066D01*
X46604Y277957D01*
X46659Y277849D01*
X46717Y277742D01*
X46778Y277638D01*
X46843Y277536D01*
X46911Y277436D01*
X46982Y277338D01*
X47056Y277242D01*
X47133Y277149D01*
X47214Y277059D01*
X47297Y276971D01*
X47383Y276886D01*
X47472Y276803D01*
X47563Y276724D01*
X47657Y276647D01*
X47753Y276574D01*
X47851Y276504D01*
X47952Y276437D01*
X48055Y276373D01*
X48160Y276313D01*
X48267Y276255D01*
X48375Y276202D01*
X48485Y276152D01*
X48597Y276106D01*
X48710Y276063D01*
X48825Y276024D01*
X51421Y281541D02*
X51343Y281620D01*
X51263Y281696D01*
X51180Y281769D01*
X51094Y281839D01*
X51007Y281906D01*
X50916Y281970D01*
X50824Y282030D01*
X50730Y282088D01*
X50633Y282142D01*
X50535Y282192D01*
X50435Y282239D01*
X50334Y282283D01*
X50231Y282323D01*
X50126Y282359D01*
X50021Y282391D01*
X49914Y282420D01*
X49807Y282445D01*
X49698Y282467D01*
X49589Y282484D01*
X49480Y282498D01*
X49370Y282507D01*
X49259Y282513D01*
X49149Y282515D01*
X51421Y281542D02*
X57912Y276024D01*
X57912Y282515D01*
X273558Y140395D02*
X285242Y140395D01*
X273558Y140395D02*
X273558Y143640D01*
X273560Y143753D01*
X273566Y143866D01*
X273576Y143979D01*
X273590Y144092D01*
X273607Y144204D01*
X273629Y144315D01*
X273654Y144425D01*
X273684Y144535D01*
X273717Y144643D01*
X273754Y144750D01*
X273794Y144856D01*
X273839Y144960D01*
X273887Y145063D01*
X273938Y145164D01*
X273993Y145263D01*
X274051Y145360D01*
X274113Y145455D01*
X274178Y145548D01*
X274246Y145638D01*
X274317Y145726D01*
X274392Y145812D01*
X274469Y145895D01*
X274549Y145975D01*
X274632Y146052D01*
X274718Y146127D01*
X274806Y146198D01*
X274896Y146266D01*
X274989Y146331D01*
X275084Y146393D01*
X275181Y146451D01*
X275280Y146506D01*
X275381Y146557D01*
X275484Y146605D01*
X275588Y146650D01*
X275694Y146690D01*
X275801Y146727D01*
X275909Y146760D01*
X276019Y146790D01*
X276129Y146815D01*
X276240Y146837D01*
X276352Y146854D01*
X276465Y146868D01*
X276578Y146878D01*
X276691Y146884D01*
X276804Y146886D01*
X276917Y146884D01*
X277030Y146878D01*
X277143Y146868D01*
X277256Y146854D01*
X277368Y146837D01*
X277479Y146815D01*
X277589Y146790D01*
X277699Y146760D01*
X277807Y146727D01*
X277914Y146690D01*
X278020Y146650D01*
X278124Y146605D01*
X278227Y146557D01*
X278328Y146506D01*
X278427Y146451D01*
X278524Y146393D01*
X278619Y146331D01*
X278712Y146266D01*
X278802Y146198D01*
X278890Y146127D01*
X278976Y146052D01*
X279059Y145975D01*
X279139Y145895D01*
X279216Y145812D01*
X279291Y145726D01*
X279362Y145638D01*
X279430Y145548D01*
X279495Y145455D01*
X279557Y145360D01*
X279615Y145263D01*
X279670Y145164D01*
X279721Y145063D01*
X279769Y144960D01*
X279814Y144856D01*
X279854Y144750D01*
X279891Y144643D01*
X279924Y144535D01*
X279954Y144425D01*
X279979Y144315D01*
X280001Y144204D01*
X280018Y144092D01*
X280032Y143979D01*
X280042Y143866D01*
X280048Y143753D01*
X280050Y143640D01*
X280049Y143640D02*
X280049Y140395D01*
X280049Y144289D02*
X285242Y146886D01*
X285242Y151751D02*
X285242Y154996D01*
X285240Y155109D01*
X285234Y155222D01*
X285224Y155335D01*
X285210Y155448D01*
X285193Y155560D01*
X285171Y155671D01*
X285146Y155781D01*
X285116Y155891D01*
X285083Y155999D01*
X285046Y156106D01*
X285006Y156212D01*
X284961Y156316D01*
X284913Y156419D01*
X284862Y156520D01*
X284807Y156619D01*
X284749Y156716D01*
X284687Y156811D01*
X284622Y156904D01*
X284554Y156994D01*
X284483Y157082D01*
X284408Y157168D01*
X284331Y157251D01*
X284251Y157331D01*
X284168Y157408D01*
X284082Y157483D01*
X283994Y157554D01*
X283904Y157622D01*
X283811Y157687D01*
X283716Y157749D01*
X283619Y157807D01*
X283520Y157862D01*
X283419Y157913D01*
X283316Y157961D01*
X283212Y158006D01*
X283106Y158046D01*
X282999Y158083D01*
X282891Y158116D01*
X282781Y158146D01*
X282671Y158171D01*
X282560Y158193D01*
X282448Y158210D01*
X282335Y158224D01*
X282222Y158234D01*
X282109Y158240D01*
X281996Y158242D01*
X281883Y158240D01*
X281770Y158234D01*
X281657Y158224D01*
X281544Y158210D01*
X281432Y158193D01*
X281321Y158171D01*
X281211Y158146D01*
X281101Y158116D01*
X280993Y158083D01*
X280886Y158046D01*
X280780Y158006D01*
X280676Y157961D01*
X280573Y157913D01*
X280472Y157862D01*
X280373Y157807D01*
X280276Y157749D01*
X280181Y157687D01*
X280088Y157622D01*
X279998Y157554D01*
X279910Y157483D01*
X279824Y157408D01*
X279741Y157331D01*
X279661Y157251D01*
X279584Y157168D01*
X279509Y157082D01*
X279438Y156994D01*
X279370Y156904D01*
X279305Y156811D01*
X279243Y156716D01*
X279185Y156619D01*
X279130Y156520D01*
X279079Y156419D01*
X279031Y156316D01*
X278986Y156212D01*
X278946Y156106D01*
X278909Y155999D01*
X278876Y155891D01*
X278846Y155781D01*
X278821Y155671D01*
X278799Y155560D01*
X278782Y155448D01*
X278768Y155335D01*
X278758Y155222D01*
X278752Y155109D01*
X278750Y154996D01*
X273558Y155646D02*
X273558Y151751D01*
X273558Y155646D02*
X273560Y155747D01*
X273566Y155847D01*
X273576Y155947D01*
X273589Y156047D01*
X273607Y156146D01*
X273628Y156245D01*
X273653Y156342D01*
X273682Y156439D01*
X273715Y156534D01*
X273751Y156628D01*
X273791Y156720D01*
X273834Y156811D01*
X273881Y156900D01*
X273931Y156987D01*
X273985Y157073D01*
X274042Y157156D01*
X274102Y157236D01*
X274165Y157315D01*
X274232Y157391D01*
X274301Y157464D01*
X274373Y157534D01*
X274447Y157602D01*
X274524Y157667D01*
X274604Y157728D01*
X274686Y157787D01*
X274770Y157842D01*
X274856Y157894D01*
X274944Y157943D01*
X275034Y157988D01*
X275126Y158030D01*
X275219Y158068D01*
X275314Y158102D01*
X275409Y158133D01*
X275506Y158160D01*
X275604Y158183D01*
X275703Y158203D01*
X275803Y158218D01*
X275903Y158230D01*
X276003Y158238D01*
X276104Y158242D01*
X276204Y158242D01*
X276305Y158238D01*
X276405Y158230D01*
X276505Y158218D01*
X276605Y158203D01*
X276704Y158183D01*
X276802Y158160D01*
X276899Y158133D01*
X276994Y158102D01*
X277089Y158068D01*
X277182Y158030D01*
X277274Y157988D01*
X277364Y157943D01*
X277452Y157894D01*
X277538Y157842D01*
X277622Y157787D01*
X277704Y157728D01*
X277784Y157667D01*
X277861Y157602D01*
X277935Y157534D01*
X278007Y157464D01*
X278076Y157391D01*
X278143Y157315D01*
X278206Y157236D01*
X278266Y157156D01*
X278323Y157073D01*
X278377Y156987D01*
X278427Y156900D01*
X278474Y156811D01*
X278517Y156720D01*
X278557Y156628D01*
X278593Y156534D01*
X278626Y156439D01*
X278655Y156342D01*
X278680Y156245D01*
X278701Y156146D01*
X278719Y156047D01*
X278732Y155947D01*
X278742Y155847D01*
X278748Y155747D01*
X278750Y155646D01*
X278751Y155646D02*
X278751Y153049D01*
X170942Y286258D02*
X159258Y286258D01*
X159258Y289504D01*
X159260Y289617D01*
X159266Y289730D01*
X159276Y289843D01*
X159290Y289956D01*
X159307Y290068D01*
X159329Y290179D01*
X159354Y290289D01*
X159384Y290399D01*
X159417Y290507D01*
X159454Y290614D01*
X159494Y290720D01*
X159539Y290824D01*
X159587Y290927D01*
X159638Y291028D01*
X159693Y291127D01*
X159751Y291224D01*
X159813Y291319D01*
X159878Y291412D01*
X159946Y291502D01*
X160017Y291590D01*
X160092Y291676D01*
X160169Y291759D01*
X160249Y291839D01*
X160332Y291916D01*
X160418Y291991D01*
X160506Y292062D01*
X160596Y292130D01*
X160689Y292195D01*
X160784Y292257D01*
X160881Y292315D01*
X160980Y292370D01*
X161081Y292421D01*
X161184Y292469D01*
X161288Y292514D01*
X161394Y292554D01*
X161501Y292591D01*
X161609Y292624D01*
X161719Y292654D01*
X161829Y292679D01*
X161940Y292701D01*
X162052Y292718D01*
X162165Y292732D01*
X162278Y292742D01*
X162391Y292748D01*
X162504Y292750D01*
X162617Y292748D01*
X162730Y292742D01*
X162843Y292732D01*
X162956Y292718D01*
X163068Y292701D01*
X163179Y292679D01*
X163289Y292654D01*
X163399Y292624D01*
X163507Y292591D01*
X163614Y292554D01*
X163720Y292514D01*
X163824Y292469D01*
X163927Y292421D01*
X164028Y292370D01*
X164127Y292315D01*
X164224Y292257D01*
X164319Y292195D01*
X164412Y292130D01*
X164502Y292062D01*
X164590Y291991D01*
X164676Y291916D01*
X164759Y291839D01*
X164839Y291759D01*
X164916Y291676D01*
X164991Y291590D01*
X165062Y291502D01*
X165130Y291412D01*
X165195Y291319D01*
X165257Y291224D01*
X165315Y291127D01*
X165370Y291028D01*
X165421Y290927D01*
X165469Y290824D01*
X165514Y290720D01*
X165554Y290614D01*
X165591Y290507D01*
X165624Y290399D01*
X165654Y290289D01*
X165679Y290179D01*
X165701Y290068D01*
X165718Y289956D01*
X165732Y289843D01*
X165742Y289730D01*
X165748Y289617D01*
X165750Y289504D01*
X165749Y289504D02*
X165749Y286258D01*
X165749Y290153D02*
X170942Y292749D01*
X168346Y297614D02*
X159258Y300211D01*
X168346Y297614D02*
X168346Y304105D01*
X165749Y302158D02*
X170942Y302158D01*
X184658Y314385D02*
X196342Y314385D01*
X184658Y314385D02*
X184658Y317630D01*
X184660Y317743D01*
X184666Y317856D01*
X184676Y317969D01*
X184690Y318082D01*
X184707Y318194D01*
X184729Y318305D01*
X184754Y318415D01*
X184784Y318525D01*
X184817Y318633D01*
X184854Y318740D01*
X184894Y318846D01*
X184939Y318950D01*
X184987Y319053D01*
X185038Y319154D01*
X185093Y319253D01*
X185151Y319350D01*
X185213Y319445D01*
X185278Y319538D01*
X185346Y319628D01*
X185417Y319716D01*
X185492Y319802D01*
X185569Y319885D01*
X185649Y319965D01*
X185732Y320042D01*
X185818Y320117D01*
X185906Y320188D01*
X185996Y320256D01*
X186089Y320321D01*
X186184Y320383D01*
X186281Y320441D01*
X186380Y320496D01*
X186481Y320547D01*
X186584Y320595D01*
X186688Y320640D01*
X186794Y320680D01*
X186901Y320717D01*
X187009Y320750D01*
X187119Y320780D01*
X187229Y320805D01*
X187340Y320827D01*
X187452Y320844D01*
X187565Y320858D01*
X187678Y320868D01*
X187791Y320874D01*
X187904Y320876D01*
X188017Y320874D01*
X188130Y320868D01*
X188243Y320858D01*
X188356Y320844D01*
X188468Y320827D01*
X188579Y320805D01*
X188689Y320780D01*
X188799Y320750D01*
X188907Y320717D01*
X189014Y320680D01*
X189120Y320640D01*
X189224Y320595D01*
X189327Y320547D01*
X189428Y320496D01*
X189527Y320441D01*
X189624Y320383D01*
X189719Y320321D01*
X189812Y320256D01*
X189902Y320188D01*
X189990Y320117D01*
X190076Y320042D01*
X190159Y319965D01*
X190239Y319885D01*
X190316Y319802D01*
X190391Y319716D01*
X190462Y319628D01*
X190530Y319538D01*
X190595Y319445D01*
X190657Y319350D01*
X190715Y319253D01*
X190770Y319154D01*
X190821Y319053D01*
X190869Y318950D01*
X190914Y318846D01*
X190954Y318740D01*
X190991Y318633D01*
X191024Y318525D01*
X191054Y318415D01*
X191079Y318305D01*
X191101Y318194D01*
X191118Y318082D01*
X191132Y317969D01*
X191142Y317856D01*
X191148Y317743D01*
X191150Y317630D01*
X191149Y317630D02*
X191149Y314385D01*
X191149Y318279D02*
X196342Y320876D01*
X196342Y325741D02*
X196342Y329636D01*
X196340Y329735D01*
X196334Y329835D01*
X196325Y329934D01*
X196312Y330032D01*
X196295Y330130D01*
X196274Y330228D01*
X196249Y330324D01*
X196221Y330419D01*
X196189Y330513D01*
X196154Y330606D01*
X196115Y330698D01*
X196072Y330788D01*
X196027Y330876D01*
X195977Y330963D01*
X195925Y331047D01*
X195869Y331130D01*
X195811Y331210D01*
X195749Y331288D01*
X195684Y331363D01*
X195616Y331436D01*
X195546Y331506D01*
X195473Y331574D01*
X195398Y331639D01*
X195320Y331701D01*
X195240Y331759D01*
X195157Y331815D01*
X195073Y331867D01*
X194986Y331917D01*
X194898Y331962D01*
X194808Y332005D01*
X194716Y332044D01*
X194623Y332079D01*
X194529Y332111D01*
X194434Y332139D01*
X194338Y332164D01*
X194240Y332185D01*
X194142Y332202D01*
X194044Y332215D01*
X193945Y332224D01*
X193845Y332230D01*
X193746Y332232D01*
X192447Y332232D01*
X192348Y332230D01*
X192248Y332224D01*
X192149Y332215D01*
X192051Y332202D01*
X191953Y332185D01*
X191855Y332164D01*
X191759Y332139D01*
X191664Y332111D01*
X191570Y332079D01*
X191477Y332044D01*
X191385Y332005D01*
X191295Y331962D01*
X191207Y331917D01*
X191120Y331867D01*
X191036Y331815D01*
X190953Y331759D01*
X190873Y331701D01*
X190795Y331639D01*
X190720Y331574D01*
X190647Y331506D01*
X190577Y331436D01*
X190509Y331363D01*
X190444Y331288D01*
X190382Y331210D01*
X190324Y331130D01*
X190268Y331047D01*
X190216Y330963D01*
X190166Y330876D01*
X190121Y330788D01*
X190078Y330698D01*
X190039Y330606D01*
X190004Y330513D01*
X189972Y330419D01*
X189944Y330324D01*
X189919Y330228D01*
X189898Y330130D01*
X189881Y330032D01*
X189868Y329934D01*
X189859Y329835D01*
X189853Y329735D01*
X189851Y329636D01*
X189851Y325741D01*
X184658Y325741D01*
X184658Y332232D01*
D16*
X239780Y71600D02*
X239780Y55400D01*
X268220Y55400D02*
X268220Y71600D01*
X259220Y55400D02*
X248780Y55400D01*
X258280Y71600D02*
X259220Y71600D01*
X249720Y71600D02*
X248780Y71600D01*
X267280Y71600D02*
X268220Y71600D01*
X240720Y71600D02*
X239780Y71600D01*
X239780Y55400D02*
X240720Y55400D01*
X267280Y55400D02*
X268220Y55400D01*
D13*
X250627Y43942D02*
X250627Y32258D01*
X249329Y32258D02*
X251926Y32258D01*
X251926Y43942D02*
X249329Y43942D01*
X259089Y32258D02*
X261686Y32258D01*
X259089Y32258D02*
X258990Y32260D01*
X258890Y32266D01*
X258791Y32275D01*
X258693Y32288D01*
X258595Y32305D01*
X258497Y32326D01*
X258401Y32351D01*
X258306Y32379D01*
X258212Y32411D01*
X258119Y32446D01*
X258027Y32485D01*
X257937Y32528D01*
X257849Y32573D01*
X257762Y32623D01*
X257678Y32675D01*
X257595Y32731D01*
X257515Y32789D01*
X257437Y32851D01*
X257362Y32916D01*
X257289Y32984D01*
X257219Y33054D01*
X257151Y33127D01*
X257086Y33202D01*
X257024Y33280D01*
X256966Y33360D01*
X256910Y33443D01*
X256858Y33527D01*
X256808Y33614D01*
X256763Y33702D01*
X256720Y33792D01*
X256681Y33884D01*
X256646Y33977D01*
X256614Y34071D01*
X256586Y34166D01*
X256561Y34262D01*
X256540Y34360D01*
X256523Y34458D01*
X256510Y34556D01*
X256501Y34655D01*
X256495Y34755D01*
X256493Y34854D01*
X256493Y41346D01*
X256495Y41445D01*
X256501Y41545D01*
X256510Y41644D01*
X256523Y41742D01*
X256540Y41840D01*
X256561Y41938D01*
X256586Y42034D01*
X256614Y42129D01*
X256646Y42223D01*
X256681Y42316D01*
X256720Y42408D01*
X256763Y42498D01*
X256808Y42586D01*
X256858Y42673D01*
X256910Y42757D01*
X256966Y42840D01*
X257024Y42920D01*
X257086Y42998D01*
X257151Y43073D01*
X257219Y43146D01*
X257289Y43216D01*
X257362Y43284D01*
X257437Y43349D01*
X257515Y43411D01*
X257595Y43469D01*
X257678Y43525D01*
X257762Y43577D01*
X257849Y43627D01*
X257937Y43672D01*
X258027Y43715D01*
X258119Y43754D01*
X258211Y43789D01*
X258306Y43821D01*
X258401Y43849D01*
X258497Y43874D01*
X258595Y43895D01*
X258693Y43912D01*
X258791Y43925D01*
X258890Y43934D01*
X258990Y43940D01*
X259089Y43942D01*
X261686Y43942D01*
X266051Y32258D02*
X269946Y32258D01*
X270045Y32260D01*
X270145Y32266D01*
X270244Y32275D01*
X270342Y32288D01*
X270440Y32305D01*
X270538Y32326D01*
X270634Y32351D01*
X270729Y32379D01*
X270823Y32411D01*
X270916Y32446D01*
X271008Y32485D01*
X271098Y32528D01*
X271186Y32573D01*
X271273Y32623D01*
X271357Y32675D01*
X271440Y32731D01*
X271520Y32789D01*
X271598Y32851D01*
X271673Y32916D01*
X271746Y32984D01*
X271816Y33054D01*
X271884Y33127D01*
X271949Y33202D01*
X272011Y33280D01*
X272069Y33360D01*
X272125Y33443D01*
X272177Y33527D01*
X272227Y33614D01*
X272272Y33702D01*
X272315Y33792D01*
X272354Y33884D01*
X272389Y33977D01*
X272421Y34071D01*
X272449Y34166D01*
X272474Y34262D01*
X272495Y34360D01*
X272512Y34458D01*
X272525Y34556D01*
X272534Y34655D01*
X272540Y34755D01*
X272542Y34854D01*
X272542Y36153D01*
X272540Y36252D01*
X272534Y36352D01*
X272525Y36451D01*
X272512Y36549D01*
X272495Y36647D01*
X272474Y36745D01*
X272449Y36841D01*
X272421Y36936D01*
X272389Y37030D01*
X272354Y37123D01*
X272315Y37215D01*
X272272Y37305D01*
X272227Y37393D01*
X272177Y37480D01*
X272125Y37564D01*
X272069Y37647D01*
X272011Y37727D01*
X271949Y37805D01*
X271884Y37880D01*
X271816Y37953D01*
X271746Y38023D01*
X271673Y38091D01*
X271598Y38156D01*
X271520Y38218D01*
X271440Y38276D01*
X271357Y38332D01*
X271273Y38384D01*
X271186Y38434D01*
X271098Y38479D01*
X271008Y38522D01*
X270916Y38561D01*
X270823Y38596D01*
X270729Y38628D01*
X270634Y38656D01*
X270538Y38681D01*
X270440Y38702D01*
X270342Y38719D01*
X270244Y38732D01*
X270145Y38741D01*
X270045Y38747D01*
X269946Y38749D01*
X266051Y38749D01*
X266051Y43942D01*
X272542Y43942D01*
X75551Y235458D02*
X72954Y235458D01*
X72855Y235460D01*
X72755Y235466D01*
X72656Y235475D01*
X72558Y235488D01*
X72460Y235505D01*
X72362Y235526D01*
X72266Y235551D01*
X72171Y235579D01*
X72077Y235611D01*
X71984Y235646D01*
X71892Y235685D01*
X71802Y235728D01*
X71714Y235773D01*
X71627Y235823D01*
X71543Y235875D01*
X71460Y235931D01*
X71380Y235989D01*
X71302Y236051D01*
X71227Y236116D01*
X71154Y236184D01*
X71084Y236254D01*
X71016Y236327D01*
X70951Y236402D01*
X70889Y236480D01*
X70831Y236560D01*
X70775Y236643D01*
X70723Y236727D01*
X70673Y236814D01*
X70628Y236902D01*
X70585Y236992D01*
X70546Y237084D01*
X70511Y237177D01*
X70479Y237271D01*
X70451Y237366D01*
X70426Y237462D01*
X70405Y237560D01*
X70388Y237658D01*
X70375Y237756D01*
X70366Y237855D01*
X70360Y237955D01*
X70358Y238054D01*
X70358Y244546D01*
X70360Y244645D01*
X70366Y244745D01*
X70375Y244844D01*
X70388Y244942D01*
X70405Y245040D01*
X70426Y245138D01*
X70451Y245234D01*
X70479Y245329D01*
X70511Y245423D01*
X70546Y245516D01*
X70585Y245608D01*
X70628Y245698D01*
X70673Y245786D01*
X70723Y245873D01*
X70775Y245957D01*
X70831Y246040D01*
X70889Y246120D01*
X70951Y246198D01*
X71016Y246273D01*
X71084Y246346D01*
X71154Y246416D01*
X71227Y246484D01*
X71302Y246549D01*
X71380Y246611D01*
X71460Y246669D01*
X71543Y246725D01*
X71627Y246777D01*
X71714Y246827D01*
X71802Y246872D01*
X71892Y246915D01*
X71984Y246954D01*
X72076Y246989D01*
X72171Y247021D01*
X72266Y247049D01*
X72362Y247074D01*
X72460Y247095D01*
X72558Y247112D01*
X72656Y247125D01*
X72755Y247134D01*
X72855Y247140D01*
X72954Y247142D01*
X75551Y247142D01*
X79916Y244546D02*
X83162Y247142D01*
X83162Y235458D01*
X86407Y235458D02*
X79916Y235458D01*
X91346Y241949D02*
X95241Y241949D01*
X95340Y241947D01*
X95440Y241941D01*
X95539Y241932D01*
X95637Y241919D01*
X95735Y241902D01*
X95833Y241881D01*
X95929Y241856D01*
X96024Y241828D01*
X96118Y241796D01*
X96211Y241761D01*
X96303Y241722D01*
X96393Y241679D01*
X96481Y241634D01*
X96568Y241584D01*
X96652Y241532D01*
X96735Y241476D01*
X96815Y241418D01*
X96893Y241356D01*
X96968Y241291D01*
X97041Y241223D01*
X97111Y241153D01*
X97179Y241080D01*
X97244Y241005D01*
X97306Y240927D01*
X97364Y240847D01*
X97420Y240764D01*
X97472Y240680D01*
X97522Y240593D01*
X97567Y240505D01*
X97610Y240415D01*
X97649Y240323D01*
X97684Y240230D01*
X97716Y240136D01*
X97744Y240041D01*
X97769Y239945D01*
X97790Y239847D01*
X97807Y239749D01*
X97820Y239651D01*
X97829Y239552D01*
X97835Y239452D01*
X97837Y239353D01*
X97837Y238704D01*
X97838Y238704D02*
X97836Y238591D01*
X97830Y238478D01*
X97820Y238365D01*
X97806Y238252D01*
X97789Y238140D01*
X97767Y238029D01*
X97742Y237919D01*
X97712Y237809D01*
X97679Y237701D01*
X97642Y237594D01*
X97602Y237488D01*
X97557Y237384D01*
X97509Y237281D01*
X97458Y237180D01*
X97403Y237081D01*
X97345Y236984D01*
X97283Y236889D01*
X97218Y236796D01*
X97150Y236706D01*
X97079Y236618D01*
X97004Y236532D01*
X96927Y236449D01*
X96847Y236369D01*
X96764Y236292D01*
X96678Y236217D01*
X96590Y236146D01*
X96500Y236078D01*
X96407Y236013D01*
X96312Y235951D01*
X96215Y235893D01*
X96116Y235838D01*
X96015Y235787D01*
X95912Y235739D01*
X95808Y235694D01*
X95702Y235654D01*
X95595Y235617D01*
X95487Y235584D01*
X95377Y235554D01*
X95267Y235529D01*
X95156Y235507D01*
X95044Y235490D01*
X94931Y235476D01*
X94818Y235466D01*
X94705Y235460D01*
X94592Y235458D01*
X94479Y235460D01*
X94366Y235466D01*
X94253Y235476D01*
X94140Y235490D01*
X94028Y235507D01*
X93917Y235529D01*
X93807Y235554D01*
X93697Y235584D01*
X93589Y235617D01*
X93482Y235654D01*
X93376Y235694D01*
X93272Y235739D01*
X93169Y235787D01*
X93068Y235838D01*
X92969Y235893D01*
X92872Y235951D01*
X92777Y236013D01*
X92684Y236078D01*
X92594Y236146D01*
X92506Y236217D01*
X92420Y236292D01*
X92337Y236369D01*
X92257Y236449D01*
X92180Y236532D01*
X92105Y236618D01*
X92034Y236706D01*
X91966Y236796D01*
X91901Y236889D01*
X91839Y236984D01*
X91781Y237081D01*
X91726Y237180D01*
X91675Y237281D01*
X91627Y237384D01*
X91582Y237488D01*
X91542Y237594D01*
X91505Y237701D01*
X91472Y237809D01*
X91442Y237919D01*
X91417Y238029D01*
X91395Y238140D01*
X91378Y238252D01*
X91364Y238365D01*
X91354Y238478D01*
X91348Y238591D01*
X91346Y238704D01*
X91346Y241949D01*
X91348Y242092D01*
X91354Y242235D01*
X91364Y242378D01*
X91378Y242520D01*
X91395Y242662D01*
X91417Y242804D01*
X91442Y242945D01*
X91472Y243085D01*
X91505Y243224D01*
X91542Y243362D01*
X91583Y243499D01*
X91627Y243635D01*
X91676Y243770D01*
X91728Y243903D01*
X91783Y244035D01*
X91843Y244165D01*
X91906Y244294D01*
X91972Y244421D01*
X92042Y244545D01*
X92115Y244668D01*
X92192Y244789D01*
X92272Y244908D01*
X92355Y245024D01*
X92441Y245139D01*
X92530Y245250D01*
X92623Y245360D01*
X92718Y245466D01*
X92817Y245570D01*
X92918Y245671D01*
X93022Y245770D01*
X93128Y245865D01*
X93238Y245958D01*
X93349Y246047D01*
X93464Y246133D01*
X93580Y246216D01*
X93699Y246296D01*
X93820Y246373D01*
X93942Y246446D01*
X94067Y246516D01*
X94194Y246582D01*
X94323Y246645D01*
X94453Y246705D01*
X94585Y246760D01*
X94718Y246812D01*
X94853Y246861D01*
X94989Y246905D01*
X95126Y246946D01*
X95264Y246983D01*
X95403Y247016D01*
X95543Y247046D01*
X95684Y247071D01*
X95826Y247093D01*
X95968Y247110D01*
X96110Y247124D01*
X96253Y247134D01*
X96396Y247140D01*
X96539Y247142D01*
X13208Y138769D02*
X13208Y130330D01*
X13210Y130217D01*
X13216Y130104D01*
X13226Y129991D01*
X13240Y129878D01*
X13257Y129766D01*
X13279Y129655D01*
X13304Y129545D01*
X13334Y129435D01*
X13367Y129327D01*
X13404Y129220D01*
X13444Y129114D01*
X13489Y129010D01*
X13537Y128907D01*
X13588Y128806D01*
X13643Y128707D01*
X13701Y128610D01*
X13763Y128515D01*
X13828Y128422D01*
X13896Y128332D01*
X13967Y128244D01*
X14042Y128158D01*
X14119Y128075D01*
X14199Y127995D01*
X14282Y127918D01*
X14368Y127843D01*
X14456Y127772D01*
X14546Y127704D01*
X14639Y127639D01*
X14734Y127577D01*
X14831Y127519D01*
X14930Y127464D01*
X15031Y127413D01*
X15134Y127365D01*
X15238Y127320D01*
X15344Y127280D01*
X15451Y127243D01*
X15559Y127210D01*
X15669Y127180D01*
X15779Y127155D01*
X15890Y127133D01*
X16002Y127116D01*
X16115Y127102D01*
X16228Y127092D01*
X16341Y127086D01*
X16454Y127084D01*
X16567Y127086D01*
X16680Y127092D01*
X16793Y127102D01*
X16906Y127116D01*
X17018Y127133D01*
X17129Y127155D01*
X17239Y127180D01*
X17349Y127210D01*
X17457Y127243D01*
X17564Y127280D01*
X17670Y127320D01*
X17774Y127365D01*
X17877Y127413D01*
X17978Y127464D01*
X18077Y127519D01*
X18174Y127577D01*
X18269Y127639D01*
X18362Y127704D01*
X18452Y127772D01*
X18540Y127843D01*
X18626Y127918D01*
X18709Y127995D01*
X18789Y128075D01*
X18866Y128158D01*
X18941Y128244D01*
X19012Y128332D01*
X19080Y128422D01*
X19145Y128515D01*
X19207Y128610D01*
X19265Y128707D01*
X19320Y128806D01*
X19371Y128907D01*
X19419Y129010D01*
X19464Y129114D01*
X19504Y129220D01*
X19541Y129327D01*
X19574Y129435D01*
X19604Y129545D01*
X19629Y129655D01*
X19651Y129766D01*
X19668Y129878D01*
X19682Y129991D01*
X19692Y130104D01*
X19698Y130217D01*
X19700Y130330D01*
X19699Y130330D02*
X19699Y138769D01*
X27503Y138769D02*
X27503Y127085D01*
X27503Y132927D02*
X25880Y133900D01*
X25879Y133900D02*
X25806Y133947D01*
X25735Y133996D01*
X25665Y134049D01*
X25599Y134105D01*
X25535Y134164D01*
X25473Y134225D01*
X25415Y134289D01*
X25359Y134356D01*
X25307Y134425D01*
X25257Y134497D01*
X25211Y134571D01*
X25168Y134646D01*
X25129Y134724D01*
X25093Y134803D01*
X25061Y134884D01*
X25032Y134966D01*
X25007Y135049D01*
X24986Y135133D01*
X24969Y135218D01*
X24955Y135304D01*
X24946Y135390D01*
X24940Y135477D01*
X24938Y135564D01*
X24940Y135651D01*
X24946Y135738D01*
X24956Y135824D01*
X24969Y135910D01*
X24987Y135995D01*
X25008Y136079D01*
X25033Y136162D01*
X25062Y136245D01*
X25094Y136325D01*
X25130Y136404D01*
X25169Y136482D01*
X25212Y136557D01*
X25259Y136631D01*
X25308Y136702D01*
X25361Y136772D01*
X25416Y136838D01*
X25475Y136902D01*
X25536Y136964D01*
X25601Y137023D01*
X25667Y137078D01*
X25736Y137131D01*
X25808Y137181D01*
X25881Y137227D01*
X25957Y137270D01*
X26034Y137309D01*
X26113Y137345D01*
X26194Y137378D01*
X26276Y137406D01*
X26359Y137432D01*
X26443Y137453D01*
X26529Y137470D01*
X26669Y137494D01*
X26811Y137514D01*
X26952Y137530D01*
X27094Y137541D01*
X27237Y137549D01*
X27379Y137553D01*
X27522Y137554D01*
X27665Y137550D01*
X27807Y137542D01*
X27949Y137530D01*
X28091Y137514D01*
X28232Y137495D01*
X28373Y137471D01*
X28513Y137444D01*
X28652Y137412D01*
X28790Y137377D01*
X28928Y137338D01*
X29064Y137295D01*
X29198Y137249D01*
X29332Y137198D01*
X29464Y137145D01*
X29594Y137087D01*
X29723Y137026D01*
X29850Y136961D01*
X29976Y136893D01*
X30099Y136821D01*
X27503Y132927D02*
X29125Y131953D01*
X29126Y131953D02*
X29199Y131906D01*
X29270Y131857D01*
X29340Y131804D01*
X29406Y131748D01*
X29470Y131689D01*
X29532Y131628D01*
X29590Y131564D01*
X29646Y131497D01*
X29698Y131428D01*
X29748Y131356D01*
X29794Y131282D01*
X29837Y131207D01*
X29876Y131129D01*
X29912Y131050D01*
X29944Y130969D01*
X29973Y130887D01*
X29998Y130804D01*
X30019Y130720D01*
X30036Y130635D01*
X30050Y130549D01*
X30059Y130463D01*
X30065Y130376D01*
X30067Y130289D01*
X30065Y130202D01*
X30059Y130115D01*
X30049Y130029D01*
X30036Y129943D01*
X30018Y129858D01*
X29997Y129774D01*
X29972Y129691D01*
X29943Y129608D01*
X29911Y129528D01*
X29875Y129449D01*
X29836Y129371D01*
X29793Y129296D01*
X29746Y129222D01*
X29697Y129151D01*
X29644Y129081D01*
X29589Y129015D01*
X29530Y128951D01*
X29469Y128889D01*
X29404Y128830D01*
X29338Y128775D01*
X29269Y128722D01*
X29197Y128672D01*
X29124Y128626D01*
X29048Y128583D01*
X28971Y128544D01*
X28892Y128508D01*
X28811Y128475D01*
X28729Y128447D01*
X28646Y128421D01*
X28562Y128400D01*
X28477Y128383D01*
X28476Y128383D02*
X28336Y128359D01*
X28194Y128339D01*
X28053Y128323D01*
X27911Y128312D01*
X27768Y128304D01*
X27626Y128300D01*
X27483Y128299D01*
X27340Y128303D01*
X27198Y128311D01*
X27056Y128323D01*
X26914Y128339D01*
X26773Y128358D01*
X26632Y128382D01*
X26492Y128409D01*
X26353Y128441D01*
X26215Y128476D01*
X26077Y128515D01*
X25941Y128558D01*
X25807Y128604D01*
X25673Y128655D01*
X25541Y128708D01*
X25411Y128766D01*
X25282Y128827D01*
X25155Y128892D01*
X25029Y128960D01*
X24906Y129032D01*
X34925Y136172D02*
X38171Y138769D01*
X38171Y127085D01*
X41416Y127085D02*
X34925Y127085D01*
X57658Y53396D02*
X57658Y48204D01*
X57658Y53396D02*
X57660Y53509D01*
X57666Y53622D01*
X57676Y53735D01*
X57690Y53848D01*
X57707Y53960D01*
X57729Y54071D01*
X57754Y54181D01*
X57784Y54291D01*
X57817Y54399D01*
X57854Y54506D01*
X57894Y54612D01*
X57939Y54716D01*
X57987Y54819D01*
X58038Y54920D01*
X58093Y55019D01*
X58151Y55116D01*
X58213Y55211D01*
X58278Y55304D01*
X58346Y55394D01*
X58417Y55482D01*
X58492Y55568D01*
X58569Y55651D01*
X58649Y55731D01*
X58732Y55808D01*
X58818Y55883D01*
X58906Y55954D01*
X58996Y56022D01*
X59089Y56087D01*
X59184Y56149D01*
X59281Y56207D01*
X59380Y56262D01*
X59481Y56313D01*
X59584Y56361D01*
X59688Y56406D01*
X59794Y56446D01*
X59901Y56483D01*
X60009Y56516D01*
X60119Y56546D01*
X60229Y56571D01*
X60340Y56593D01*
X60452Y56610D01*
X60565Y56624D01*
X60678Y56634D01*
X60791Y56640D01*
X60904Y56642D01*
X61017Y56640D01*
X61130Y56634D01*
X61243Y56624D01*
X61356Y56610D01*
X61468Y56593D01*
X61579Y56571D01*
X61689Y56546D01*
X61799Y56516D01*
X61907Y56483D01*
X62014Y56446D01*
X62120Y56406D01*
X62224Y56361D01*
X62327Y56313D01*
X62428Y56262D01*
X62527Y56207D01*
X62624Y56149D01*
X62719Y56087D01*
X62812Y56022D01*
X62902Y55954D01*
X62990Y55883D01*
X63076Y55808D01*
X63159Y55731D01*
X63239Y55651D01*
X63316Y55568D01*
X63391Y55482D01*
X63462Y55394D01*
X63530Y55304D01*
X63595Y55211D01*
X63657Y55116D01*
X63715Y55019D01*
X63770Y54920D01*
X63821Y54819D01*
X63869Y54716D01*
X63914Y54612D01*
X63954Y54506D01*
X63991Y54399D01*
X64024Y54291D01*
X64054Y54181D01*
X64079Y54071D01*
X64101Y53960D01*
X64118Y53848D01*
X64132Y53735D01*
X64142Y53622D01*
X64148Y53509D01*
X64150Y53396D01*
X64149Y53396D02*
X64149Y48204D01*
X64150Y48204D02*
X64148Y48091D01*
X64142Y47978D01*
X64132Y47865D01*
X64118Y47752D01*
X64101Y47640D01*
X64079Y47529D01*
X64054Y47419D01*
X64024Y47309D01*
X63991Y47201D01*
X63954Y47094D01*
X63914Y46988D01*
X63869Y46884D01*
X63821Y46781D01*
X63770Y46680D01*
X63715Y46581D01*
X63657Y46484D01*
X63595Y46389D01*
X63530Y46296D01*
X63462Y46206D01*
X63391Y46118D01*
X63316Y46032D01*
X63239Y45949D01*
X63159Y45869D01*
X63076Y45792D01*
X62990Y45717D01*
X62902Y45646D01*
X62812Y45578D01*
X62719Y45513D01*
X62624Y45451D01*
X62527Y45393D01*
X62428Y45338D01*
X62327Y45287D01*
X62224Y45239D01*
X62120Y45194D01*
X62014Y45154D01*
X61907Y45117D01*
X61799Y45084D01*
X61689Y45054D01*
X61579Y45029D01*
X61468Y45007D01*
X61356Y44990D01*
X61243Y44976D01*
X61130Y44966D01*
X61017Y44960D01*
X60904Y44958D01*
X60791Y44960D01*
X60678Y44966D01*
X60565Y44976D01*
X60452Y44990D01*
X60340Y45007D01*
X60229Y45029D01*
X60119Y45054D01*
X60009Y45084D01*
X59901Y45117D01*
X59794Y45154D01*
X59688Y45194D01*
X59584Y45239D01*
X59481Y45287D01*
X59380Y45338D01*
X59281Y45393D01*
X59184Y45451D01*
X59089Y45513D01*
X58996Y45578D01*
X58906Y45646D01*
X58818Y45717D01*
X58732Y45792D01*
X58649Y45869D01*
X58569Y45949D01*
X58492Y46032D01*
X58417Y46118D01*
X58346Y46206D01*
X58278Y46296D01*
X58213Y46389D01*
X58151Y46484D01*
X58093Y46581D01*
X58038Y46680D01*
X57987Y46781D01*
X57939Y46884D01*
X57894Y46988D01*
X57854Y47094D01*
X57817Y47201D01*
X57784Y47309D01*
X57754Y47419D01*
X57729Y47529D01*
X57707Y47640D01*
X57690Y47752D01*
X57676Y47865D01*
X57666Y47978D01*
X57660Y48091D01*
X57658Y48204D01*
X62851Y47554D02*
X65447Y44958D01*
X75293Y53721D02*
X75291Y53828D01*
X75285Y53934D01*
X75275Y54040D01*
X75262Y54146D01*
X75244Y54252D01*
X75223Y54356D01*
X75198Y54460D01*
X75169Y54563D01*
X75137Y54664D01*
X75100Y54764D01*
X75060Y54863D01*
X75017Y54961D01*
X74970Y55057D01*
X74919Y55151D01*
X74865Y55243D01*
X74808Y55333D01*
X74748Y55421D01*
X74684Y55506D01*
X74617Y55589D01*
X74547Y55670D01*
X74475Y55748D01*
X74399Y55824D01*
X74321Y55896D01*
X74240Y55966D01*
X74157Y56033D01*
X74072Y56097D01*
X73984Y56157D01*
X73894Y56214D01*
X73802Y56268D01*
X73708Y56319D01*
X73612Y56366D01*
X73514Y56409D01*
X73415Y56449D01*
X73315Y56486D01*
X73214Y56518D01*
X73111Y56547D01*
X73007Y56572D01*
X72903Y56593D01*
X72797Y56611D01*
X72691Y56624D01*
X72585Y56634D01*
X72479Y56640D01*
X72372Y56642D01*
X72251Y56640D01*
X72130Y56634D01*
X72010Y56624D01*
X71889Y56611D01*
X71770Y56593D01*
X71650Y56572D01*
X71532Y56547D01*
X71415Y56518D01*
X71298Y56485D01*
X71183Y56449D01*
X71069Y56408D01*
X70956Y56365D01*
X70844Y56317D01*
X70735Y56266D01*
X70627Y56211D01*
X70520Y56153D01*
X70416Y56092D01*
X70314Y56027D01*
X70214Y55959D01*
X70116Y55888D01*
X70020Y55814D01*
X69927Y55737D01*
X69837Y55656D01*
X69749Y55573D01*
X69664Y55487D01*
X69581Y55398D01*
X69502Y55307D01*
X69425Y55213D01*
X69352Y55117D01*
X69282Y55019D01*
X69215Y54918D01*
X69151Y54815D01*
X69091Y54710D01*
X69034Y54603D01*
X68980Y54495D01*
X68930Y54385D01*
X68884Y54273D01*
X68841Y54160D01*
X68802Y54045D01*
X74319Y51449D02*
X74398Y51526D01*
X74474Y51607D01*
X74547Y51690D01*
X74617Y51775D01*
X74684Y51863D01*
X74748Y51953D01*
X74808Y52045D01*
X74865Y52140D01*
X74919Y52236D01*
X74970Y52334D01*
X75017Y52434D01*
X75061Y52536D01*
X75101Y52639D01*
X75137Y52743D01*
X75169Y52849D01*
X75198Y52955D01*
X75223Y53063D01*
X75245Y53171D01*
X75262Y53281D01*
X75276Y53390D01*
X75285Y53500D01*
X75291Y53611D01*
X75293Y53721D01*
X74319Y51449D02*
X68802Y44958D01*
X75293Y44958D01*
X95758Y19558D02*
X107442Y19558D01*
X95758Y19558D02*
X95758Y22804D01*
X95760Y22917D01*
X95766Y23030D01*
X95776Y23143D01*
X95790Y23256D01*
X95807Y23368D01*
X95829Y23479D01*
X95854Y23589D01*
X95884Y23699D01*
X95917Y23807D01*
X95954Y23914D01*
X95994Y24020D01*
X96039Y24124D01*
X96087Y24227D01*
X96138Y24328D01*
X96193Y24427D01*
X96251Y24524D01*
X96313Y24619D01*
X96378Y24712D01*
X96446Y24802D01*
X96517Y24890D01*
X96592Y24976D01*
X96669Y25059D01*
X96749Y25139D01*
X96832Y25216D01*
X96918Y25291D01*
X97006Y25362D01*
X97096Y25430D01*
X97189Y25495D01*
X97284Y25557D01*
X97381Y25615D01*
X97480Y25670D01*
X97581Y25721D01*
X97684Y25769D01*
X97788Y25814D01*
X97894Y25854D01*
X98001Y25891D01*
X98109Y25924D01*
X98219Y25954D01*
X98329Y25979D01*
X98440Y26001D01*
X98552Y26018D01*
X98665Y26032D01*
X98778Y26042D01*
X98891Y26048D01*
X99004Y26050D01*
X99117Y26048D01*
X99230Y26042D01*
X99343Y26032D01*
X99456Y26018D01*
X99568Y26001D01*
X99679Y25979D01*
X99789Y25954D01*
X99899Y25924D01*
X100007Y25891D01*
X100114Y25854D01*
X100220Y25814D01*
X100324Y25769D01*
X100427Y25721D01*
X100528Y25670D01*
X100627Y25615D01*
X100724Y25557D01*
X100819Y25495D01*
X100912Y25430D01*
X101002Y25362D01*
X101090Y25291D01*
X101176Y25216D01*
X101259Y25139D01*
X101339Y25059D01*
X101416Y24976D01*
X101491Y24890D01*
X101562Y24802D01*
X101630Y24712D01*
X101695Y24619D01*
X101757Y24524D01*
X101815Y24427D01*
X101870Y24328D01*
X101921Y24227D01*
X101969Y24124D01*
X102014Y24020D01*
X102054Y23914D01*
X102091Y23807D01*
X102124Y23699D01*
X102154Y23589D01*
X102179Y23479D01*
X102201Y23368D01*
X102218Y23256D01*
X102232Y23143D01*
X102242Y23030D01*
X102248Y22917D01*
X102250Y22804D01*
X102249Y22804D02*
X102249Y19558D01*
X102249Y23453D02*
X107442Y26049D01*
X100951Y30914D02*
X100951Y34809D01*
X100953Y34908D01*
X100959Y35008D01*
X100968Y35107D01*
X100981Y35205D01*
X100998Y35303D01*
X101019Y35401D01*
X101044Y35497D01*
X101072Y35592D01*
X101104Y35686D01*
X101139Y35779D01*
X101178Y35871D01*
X101221Y35961D01*
X101266Y36049D01*
X101316Y36136D01*
X101368Y36220D01*
X101424Y36303D01*
X101482Y36383D01*
X101544Y36461D01*
X101609Y36536D01*
X101677Y36609D01*
X101747Y36679D01*
X101820Y36747D01*
X101895Y36812D01*
X101973Y36874D01*
X102053Y36932D01*
X102136Y36988D01*
X102220Y37040D01*
X102307Y37090D01*
X102395Y37135D01*
X102485Y37178D01*
X102577Y37217D01*
X102670Y37252D01*
X102764Y37284D01*
X102859Y37312D01*
X102955Y37337D01*
X103053Y37358D01*
X103151Y37375D01*
X103249Y37388D01*
X103348Y37397D01*
X103448Y37403D01*
X103547Y37405D01*
X104196Y37405D01*
X104196Y37406D02*
X104309Y37404D01*
X104422Y37398D01*
X104535Y37388D01*
X104648Y37374D01*
X104760Y37357D01*
X104871Y37335D01*
X104981Y37310D01*
X105091Y37280D01*
X105199Y37247D01*
X105306Y37210D01*
X105412Y37170D01*
X105516Y37125D01*
X105619Y37077D01*
X105720Y37026D01*
X105819Y36971D01*
X105916Y36913D01*
X106011Y36851D01*
X106104Y36786D01*
X106194Y36718D01*
X106282Y36647D01*
X106368Y36572D01*
X106451Y36495D01*
X106531Y36415D01*
X106608Y36332D01*
X106683Y36246D01*
X106754Y36158D01*
X106822Y36068D01*
X106887Y35975D01*
X106949Y35880D01*
X107007Y35783D01*
X107062Y35684D01*
X107113Y35583D01*
X107161Y35480D01*
X107206Y35376D01*
X107246Y35270D01*
X107283Y35163D01*
X107316Y35055D01*
X107346Y34945D01*
X107371Y34835D01*
X107393Y34724D01*
X107410Y34612D01*
X107424Y34499D01*
X107434Y34386D01*
X107440Y34273D01*
X107442Y34160D01*
X107440Y34047D01*
X107434Y33934D01*
X107424Y33821D01*
X107410Y33708D01*
X107393Y33596D01*
X107371Y33485D01*
X107346Y33375D01*
X107316Y33265D01*
X107283Y33157D01*
X107246Y33050D01*
X107206Y32944D01*
X107161Y32840D01*
X107113Y32737D01*
X107062Y32636D01*
X107007Y32537D01*
X106949Y32440D01*
X106887Y32345D01*
X106822Y32252D01*
X106754Y32162D01*
X106683Y32074D01*
X106608Y31988D01*
X106531Y31905D01*
X106451Y31825D01*
X106368Y31748D01*
X106282Y31673D01*
X106194Y31602D01*
X106104Y31534D01*
X106011Y31469D01*
X105916Y31407D01*
X105819Y31349D01*
X105720Y31294D01*
X105619Y31243D01*
X105516Y31195D01*
X105412Y31150D01*
X105306Y31110D01*
X105199Y31073D01*
X105091Y31040D01*
X104981Y31010D01*
X104871Y30985D01*
X104760Y30963D01*
X104648Y30946D01*
X104535Y30932D01*
X104422Y30922D01*
X104309Y30916D01*
X104196Y30914D01*
X100951Y30914D01*
X100808Y30916D01*
X100665Y30922D01*
X100522Y30932D01*
X100380Y30946D01*
X100238Y30963D01*
X100096Y30985D01*
X99955Y31010D01*
X99815Y31040D01*
X99676Y31073D01*
X99538Y31110D01*
X99401Y31151D01*
X99265Y31195D01*
X99130Y31244D01*
X98997Y31296D01*
X98865Y31351D01*
X98735Y31411D01*
X98606Y31474D01*
X98479Y31540D01*
X98355Y31610D01*
X98232Y31683D01*
X98111Y31760D01*
X97992Y31839D01*
X97876Y31923D01*
X97761Y32009D01*
X97650Y32098D01*
X97541Y32191D01*
X97434Y32286D01*
X97330Y32385D01*
X97229Y32486D01*
X97130Y32590D01*
X97035Y32696D01*
X96942Y32806D01*
X96853Y32917D01*
X96767Y33031D01*
X96684Y33148D01*
X96604Y33267D01*
X96527Y33388D01*
X96454Y33510D01*
X96384Y33635D01*
X96318Y33762D01*
X96255Y33891D01*
X96195Y34021D01*
X96140Y34153D01*
X96088Y34286D01*
X96039Y34421D01*
X95995Y34557D01*
X95954Y34694D01*
X95917Y34832D01*
X95884Y34971D01*
X95854Y35111D01*
X95829Y35252D01*
X95807Y35394D01*
X95790Y35536D01*
X95776Y35678D01*
X95766Y35821D01*
X95760Y35964D01*
X95758Y36107D01*
D11*
X101470Y214630D02*
X52070Y214630D01*
X101470Y214630D02*
X101470Y182930D01*
X52070Y182930D01*
X52070Y214630D01*
D13*
X52578Y220500D02*
X52578Y228939D01*
X52578Y220500D02*
X52580Y220387D01*
X52586Y220274D01*
X52596Y220161D01*
X52610Y220048D01*
X52627Y219936D01*
X52649Y219825D01*
X52674Y219715D01*
X52704Y219605D01*
X52737Y219497D01*
X52774Y219390D01*
X52814Y219284D01*
X52859Y219180D01*
X52907Y219077D01*
X52958Y218976D01*
X53013Y218877D01*
X53071Y218780D01*
X53133Y218685D01*
X53198Y218592D01*
X53266Y218502D01*
X53337Y218414D01*
X53412Y218328D01*
X53489Y218245D01*
X53569Y218165D01*
X53652Y218088D01*
X53738Y218013D01*
X53826Y217942D01*
X53916Y217874D01*
X54009Y217809D01*
X54104Y217747D01*
X54201Y217689D01*
X54300Y217634D01*
X54401Y217583D01*
X54504Y217535D01*
X54608Y217490D01*
X54714Y217450D01*
X54821Y217413D01*
X54929Y217380D01*
X55039Y217350D01*
X55149Y217325D01*
X55260Y217303D01*
X55372Y217286D01*
X55485Y217272D01*
X55598Y217262D01*
X55711Y217256D01*
X55824Y217254D01*
X55937Y217256D01*
X56050Y217262D01*
X56163Y217272D01*
X56276Y217286D01*
X56388Y217303D01*
X56499Y217325D01*
X56609Y217350D01*
X56719Y217380D01*
X56827Y217413D01*
X56934Y217450D01*
X57040Y217490D01*
X57144Y217535D01*
X57247Y217583D01*
X57348Y217634D01*
X57447Y217689D01*
X57544Y217747D01*
X57639Y217809D01*
X57732Y217874D01*
X57822Y217942D01*
X57910Y218013D01*
X57996Y218088D01*
X58079Y218165D01*
X58159Y218245D01*
X58236Y218328D01*
X58311Y218414D01*
X58382Y218502D01*
X58450Y218592D01*
X58515Y218685D01*
X58577Y218780D01*
X58635Y218877D01*
X58690Y218976D01*
X58741Y219077D01*
X58789Y219180D01*
X58834Y219284D01*
X58874Y219390D01*
X58911Y219497D01*
X58944Y219605D01*
X58974Y219715D01*
X58999Y219825D01*
X59021Y219936D01*
X59038Y220048D01*
X59052Y220161D01*
X59062Y220274D01*
X59068Y220387D01*
X59070Y220500D01*
X59069Y220500D02*
X59069Y228939D01*
X66873Y228939D02*
X66873Y217255D01*
X66873Y223097D02*
X65250Y224070D01*
X65249Y224070D02*
X65176Y224117D01*
X65105Y224166D01*
X65035Y224219D01*
X64969Y224275D01*
X64905Y224334D01*
X64843Y224395D01*
X64785Y224459D01*
X64729Y224526D01*
X64677Y224595D01*
X64627Y224667D01*
X64581Y224741D01*
X64538Y224816D01*
X64499Y224894D01*
X64463Y224973D01*
X64431Y225054D01*
X64402Y225136D01*
X64377Y225219D01*
X64356Y225303D01*
X64339Y225388D01*
X64325Y225474D01*
X64316Y225560D01*
X64310Y225647D01*
X64308Y225734D01*
X64310Y225821D01*
X64316Y225908D01*
X64326Y225994D01*
X64339Y226080D01*
X64357Y226165D01*
X64378Y226249D01*
X64403Y226332D01*
X64432Y226415D01*
X64464Y226495D01*
X64500Y226574D01*
X64539Y226652D01*
X64582Y226727D01*
X64629Y226801D01*
X64678Y226872D01*
X64731Y226942D01*
X64786Y227008D01*
X64845Y227072D01*
X64906Y227134D01*
X64971Y227193D01*
X65037Y227248D01*
X65106Y227301D01*
X65178Y227351D01*
X65251Y227397D01*
X65327Y227440D01*
X65404Y227479D01*
X65483Y227515D01*
X65564Y227548D01*
X65646Y227576D01*
X65729Y227602D01*
X65813Y227623D01*
X65899Y227640D01*
X66039Y227664D01*
X66181Y227684D01*
X66322Y227700D01*
X66464Y227711D01*
X66607Y227719D01*
X66749Y227723D01*
X66892Y227724D01*
X67035Y227720D01*
X67177Y227712D01*
X67319Y227700D01*
X67461Y227684D01*
X67602Y227665D01*
X67743Y227641D01*
X67883Y227614D01*
X68022Y227582D01*
X68160Y227547D01*
X68298Y227508D01*
X68434Y227465D01*
X68568Y227419D01*
X68702Y227368D01*
X68834Y227315D01*
X68964Y227257D01*
X69093Y227196D01*
X69220Y227131D01*
X69346Y227063D01*
X69469Y226991D01*
X66873Y223097D02*
X68495Y222123D01*
X68496Y222123D02*
X68569Y222076D01*
X68640Y222027D01*
X68710Y221974D01*
X68776Y221918D01*
X68840Y221859D01*
X68902Y221798D01*
X68960Y221734D01*
X69016Y221667D01*
X69068Y221598D01*
X69118Y221526D01*
X69164Y221452D01*
X69207Y221377D01*
X69246Y221299D01*
X69282Y221220D01*
X69314Y221139D01*
X69343Y221057D01*
X69368Y220974D01*
X69389Y220890D01*
X69406Y220805D01*
X69420Y220719D01*
X69429Y220633D01*
X69435Y220546D01*
X69437Y220459D01*
X69435Y220372D01*
X69429Y220285D01*
X69419Y220199D01*
X69406Y220113D01*
X69388Y220028D01*
X69367Y219944D01*
X69342Y219861D01*
X69313Y219778D01*
X69281Y219698D01*
X69245Y219619D01*
X69206Y219541D01*
X69163Y219466D01*
X69116Y219392D01*
X69067Y219321D01*
X69014Y219251D01*
X68959Y219185D01*
X68900Y219121D01*
X68839Y219059D01*
X68774Y219000D01*
X68708Y218945D01*
X68639Y218892D01*
X68567Y218842D01*
X68494Y218796D01*
X68418Y218753D01*
X68341Y218714D01*
X68262Y218678D01*
X68181Y218645D01*
X68099Y218617D01*
X68016Y218591D01*
X67932Y218570D01*
X67847Y218553D01*
X67846Y218553D02*
X67706Y218529D01*
X67564Y218509D01*
X67423Y218493D01*
X67281Y218482D01*
X67138Y218474D01*
X66996Y218470D01*
X66853Y218469D01*
X66710Y218473D01*
X66568Y218481D01*
X66426Y218493D01*
X66284Y218509D01*
X66143Y218528D01*
X66002Y218552D01*
X65862Y218579D01*
X65723Y218611D01*
X65585Y218646D01*
X65447Y218685D01*
X65311Y218728D01*
X65177Y218774D01*
X65043Y218825D01*
X64911Y218878D01*
X64781Y218936D01*
X64652Y218997D01*
X64525Y219062D01*
X64399Y219130D01*
X64276Y219202D01*
X74295Y219851D02*
X76891Y228939D01*
X74295Y219851D02*
X80786Y219851D01*
X78839Y222448D02*
X78839Y217255D01*
M02*
