G04 EAGLE Gerber RS-274X export*
G75*
%MOMM*%
%FSLAX34Y34*%
%LPD*%
%INSolderpaste Bottom*%
%IPPOS*%
%AMOC8*
5,1,8,0,0,1.08239X$1,22.5*%
G01*
%ADD10R,1.500000X1.400000*%
%ADD11R,2.975000X1.400000*%
%ADD12R,2.975000X1.460000*%
%ADD13R,4.700000X0.760000*%
%ADD14R,1.400000X1.600000*%
%ADD15R,1.000000X1.100000*%
%ADD16R,1.600000X1.400000*%
%ADD17R,1.350000X0.400000*%
%ADD18R,1.900000X1.400000*%
%ADD19R,1.900000X1.600000*%
%ADD20R,1.400000X1.000000*%


D10*
X228600Y152400D03*
X228600Y134400D03*
X228600Y116400D03*
X228600Y98400D03*
X228600Y80400D03*
X228600Y62400D03*
X228600Y44400D03*
X228600Y26400D03*
X88600Y26400D03*
X88600Y44400D03*
X88600Y62400D03*
X88600Y80400D03*
X88600Y98400D03*
X88600Y116400D03*
X88600Y134400D03*
X88600Y152400D03*
X127000Y203200D03*
X127000Y221200D03*
X127000Y239200D03*
X127000Y257200D03*
X127000Y275200D03*
X127000Y293200D03*
X127000Y311200D03*
X127000Y329200D03*
X267000Y329200D03*
X267000Y311200D03*
X267000Y293200D03*
X267000Y275200D03*
X267000Y257200D03*
X267000Y239200D03*
X267000Y221200D03*
X267000Y203200D03*
D11*
X292670Y152400D03*
D12*
X292920Y134275D03*
X292795Y170525D03*
D13*
X330670Y174025D03*
X330670Y130775D03*
D11*
X62770Y203200D03*
D12*
X62520Y221325D03*
X62645Y185075D03*
D13*
X24770Y181575D03*
X24770Y224825D03*
D14*
X292100Y23100D03*
X292100Y53100D03*
X63500Y332500D03*
X63500Y302500D03*
D15*
X88900Y326000D03*
X88900Y309000D03*
X266700Y29600D03*
X266700Y46600D03*
D16*
X23100Y152400D03*
X53100Y152400D03*
X53100Y76200D03*
X23100Y76200D03*
D17*
X303450Y228300D03*
X303450Y234800D03*
X303450Y241300D03*
X303450Y247800D03*
X303450Y254300D03*
D18*
X330200Y250800D03*
X330200Y231800D03*
D19*
X330200Y283300D03*
X330200Y199300D03*
D20*
X268400Y88900D03*
X290400Y79400D03*
X290400Y98400D03*
X87200Y266700D03*
X65200Y276200D03*
X65200Y257200D03*
X49100Y114300D03*
X27100Y123800D03*
X27100Y104800D03*
M02*
