G04 EAGLE Gerber RS-274X export*
G75*
%MOMM*%
%FSLAX34Y34*%
%LPD*%
%INSoldermask Top*%
%IPPOS*%
%AMOC8*
5,1,8,0,0,1.08239X$1,22.5*%
G01*
%ADD10C,3.403200*%
%ADD11R,1.203200X0.423200*%
%ADD12R,0.423200X1.203200*%
%ADD13R,0.803200X1.753200*%
%ADD14R,1.403200X2.003200*%
%ADD15R,1.753200X0.803200*%
%ADD16R,2.003200X1.403200*%
%ADD17R,1.203200X1.303200*%
%ADD18R,1.303200X1.203200*%
%ADD19R,1.603200X1.803200*%
%ADD20R,1.203200X1.854200*%
%ADD21R,1.803400X1.371600*%
%ADD22R,1.828800X0.152400*%
%ADD23R,1.203200X1.603200*%
%ADD24R,0.753200X1.403200*%
%ADD25R,1.983200X1.353200*%
%ADD26R,1.603200X1.403200*%
%ADD27C,0.959600*%


D10*
X25400Y25400D03*
X25400Y330200D03*
X330200Y25400D03*
X330200Y330200D03*
D11*
X120300Y193000D03*
X120300Y188000D03*
X120300Y203000D03*
X120300Y213000D03*
X120300Y223000D03*
X120300Y198000D03*
X120300Y208000D03*
X120300Y218000D03*
X120300Y228000D03*
X120300Y178000D03*
X120300Y168000D03*
X120300Y158000D03*
X120300Y153000D03*
X120300Y163000D03*
X120300Y173000D03*
X120300Y183000D03*
D12*
X175300Y133000D03*
X180300Y133000D03*
X165300Y133000D03*
X155300Y133000D03*
X145300Y133000D03*
X170300Y133000D03*
X160300Y133000D03*
X150300Y133000D03*
X140300Y133000D03*
X190300Y133000D03*
X200300Y133000D03*
X210300Y133000D03*
X215300Y133000D03*
X205300Y133000D03*
X195300Y133000D03*
X185300Y133000D03*
D11*
X235300Y188000D03*
X235300Y193000D03*
X235300Y178000D03*
X235300Y168000D03*
X235300Y158000D03*
X235300Y183000D03*
X235300Y173000D03*
X235300Y163000D03*
X235300Y153000D03*
X235300Y203000D03*
X235300Y213000D03*
X235300Y223000D03*
X235300Y228000D03*
X235300Y218000D03*
X235300Y208000D03*
X235300Y198000D03*
D12*
X180300Y248000D03*
X175300Y248000D03*
X190300Y248000D03*
X200300Y248000D03*
X210300Y248000D03*
X185300Y248000D03*
X195300Y248000D03*
X205300Y248000D03*
X215300Y248000D03*
X165300Y248000D03*
X155300Y248000D03*
X145300Y248000D03*
X140300Y248000D03*
X150300Y248000D03*
X160300Y248000D03*
X170300Y248000D03*
D13*
X202800Y50800D03*
X152800Y50800D03*
X162800Y50800D03*
X172800Y50800D03*
X182800Y50800D03*
X192800Y50800D03*
D14*
X139800Y12050D03*
X215800Y12050D03*
D13*
X216300Y304800D03*
X266300Y304800D03*
X256300Y304800D03*
X246300Y304800D03*
X236300Y304800D03*
X226300Y304800D03*
D14*
X279300Y343550D03*
X203300Y343550D03*
D15*
X304800Y266300D03*
X304800Y216300D03*
X304800Y226300D03*
X304800Y236300D03*
X304800Y246300D03*
X304800Y256300D03*
D16*
X343550Y203300D03*
X343550Y279300D03*
D17*
X29600Y143510D03*
X46600Y143510D03*
D18*
X245500Y25400D03*
X262500Y25400D03*
D17*
X88900Y143900D03*
X88900Y160900D03*
D18*
X166760Y109220D03*
X183760Y109220D03*
D17*
X241300Y245500D03*
X241300Y262500D03*
X91440Y262010D03*
X91440Y279010D03*
D18*
X232800Y114300D03*
X249800Y114300D03*
D19*
X203200Y106440D03*
X203200Y76440D03*
X266700Y239000D03*
X266700Y269000D03*
D20*
X301500Y63130D03*
X301500Y114670D03*
X333500Y114670D03*
X333500Y63130D03*
D13*
X89300Y304800D03*
X139300Y304800D03*
X129300Y304800D03*
X119300Y304800D03*
X109300Y304800D03*
X99300Y304800D03*
D14*
X152300Y343550D03*
X76300Y343550D03*
D21*
X29210Y278130D03*
X29210Y262890D03*
D22*
X29210Y270510D03*
D18*
X46600Y165100D03*
X29600Y165100D03*
D23*
X127000Y99900D03*
X136500Y77900D03*
X117500Y77900D03*
D18*
X64770Y262010D03*
X64770Y279010D03*
X266700Y160900D03*
X266700Y143900D03*
X177800Y283600D03*
X177800Y300600D03*
X177800Y334890D03*
X177800Y317890D03*
D24*
X263500Y76500D03*
X254000Y76500D03*
X244500Y76500D03*
X244500Y50500D03*
X263500Y50500D03*
D18*
X67700Y228600D03*
X84700Y228600D03*
D25*
X25400Y118110D03*
X25400Y58510D03*
X101300Y58510D03*
X101300Y118110D03*
D23*
X76200Y37400D03*
X85700Y13400D03*
X66700Y13400D03*
D18*
X114300Y16900D03*
X114300Y33900D03*
D26*
X64770Y208280D03*
X64770Y189280D03*
X88770Y189280D03*
X88770Y208280D03*
D27*
X254508Y45720D03*
X294132Y184404D03*
X326136Y263652D03*
X80772Y291084D03*
X144780Y152400D03*
X169164Y121920D03*
X109728Y181356D03*
X65532Y246888D03*
X340360Y184150D03*
X152400Y318770D03*
X173990Y22860D03*
X325120Y87630D03*
X304800Y207264D03*
X280416Y248412D03*
X217932Y318516D03*
X145288Y232410D03*
X167386Y309880D03*
X39624Y129540D03*
X291084Y228600D03*
X224028Y220980D03*
X252984Y224028D03*
X291084Y242316D03*
X181356Y181356D03*
X120396Y45720D03*
X208534Y208534D03*
X149634Y276860D03*
X149634Y223520D03*
X172085Y222885D03*
X209296Y198120D03*
X153924Y287274D03*
X217932Y181356D03*
X278892Y13716D03*
X284988Y217932D03*
X71628Y89916D03*
X137160Y53340D03*
X188976Y153924D03*
X257556Y184404D03*
X198120Y153924D03*
X280416Y208788D03*
X102108Y134112D03*
X128016Y117348D03*
X158496Y147828D03*
X155448Y196596D03*
X117348Y123444D03*
X102108Y143256D03*
X150876Y184404D03*
X202692Y233172D03*
X300228Y198120D03*
X335280Y266700D03*
X288036Y295656D03*
X202438Y281940D03*
X250444Y281940D03*
X294132Y274320D03*
X131064Y173736D03*
X188976Y200914D03*
X259080Y123444D03*
X259080Y100584D03*
X164592Y339852D03*
X64008Y345948D03*
X103632Y321818D03*
X104394Y342900D03*
X140208Y318516D03*
X70104Y109728D03*
X301752Y88392D03*
X283464Y319786D03*
X208788Y187452D03*
X175260Y153924D03*
X146304Y88392D03*
M02*
