G04 EAGLE Gerber RS-274X export*
G75*
%MOMM*%
%FSLAX34Y34*%
%LPD*%
%INSolderpaste Top*%
%IPPOS*%
%AMOC8*
5,1,8,0,0,1.08239X$1,22.5*%
G01*
%ADD10R,1.000000X0.220000*%
%ADD11R,0.220000X1.000000*%
%ADD12R,0.600000X1.550000*%
%ADD13R,1.200000X1.800000*%
%ADD14R,1.550000X0.600000*%
%ADD15R,1.800000X1.200000*%
%ADD16R,1.000000X1.100000*%
%ADD17R,1.100000X1.000000*%
%ADD18R,1.400000X1.600000*%
%ADD19R,1.000000X1.651000*%
%ADD20R,1.600200X1.168400*%
%ADD21R,1.000000X1.400000*%
%ADD22R,0.550000X1.200000*%
%ADD23R,1.780000X1.150000*%
%ADD24R,1.400000X1.200000*%


D10*
X120300Y193000D03*
X120300Y188000D03*
X120300Y203000D03*
X120300Y213000D03*
X120300Y223000D03*
X120300Y198000D03*
X120300Y208000D03*
X120300Y218000D03*
X120300Y228000D03*
X120300Y178000D03*
X120300Y168000D03*
X120300Y158000D03*
X120300Y153000D03*
X120300Y163000D03*
X120300Y173000D03*
X120300Y183000D03*
D11*
X175300Y133000D03*
X180300Y133000D03*
X165300Y133000D03*
X155300Y133000D03*
X145300Y133000D03*
X170300Y133000D03*
X160300Y133000D03*
X150300Y133000D03*
X140300Y133000D03*
X190300Y133000D03*
X200300Y133000D03*
X210300Y133000D03*
X215300Y133000D03*
X205300Y133000D03*
X195300Y133000D03*
X185300Y133000D03*
D10*
X235300Y188000D03*
X235300Y193000D03*
X235300Y178000D03*
X235300Y168000D03*
X235300Y158000D03*
X235300Y183000D03*
X235300Y173000D03*
X235300Y163000D03*
X235300Y153000D03*
X235300Y203000D03*
X235300Y213000D03*
X235300Y223000D03*
X235300Y228000D03*
X235300Y218000D03*
X235300Y208000D03*
X235300Y198000D03*
D11*
X180300Y248000D03*
X175300Y248000D03*
X190300Y248000D03*
X200300Y248000D03*
X210300Y248000D03*
X185300Y248000D03*
X195300Y248000D03*
X205300Y248000D03*
X215300Y248000D03*
X165300Y248000D03*
X155300Y248000D03*
X145300Y248000D03*
X140300Y248000D03*
X150300Y248000D03*
X160300Y248000D03*
X170300Y248000D03*
D12*
X202800Y50800D03*
X152800Y50800D03*
X162800Y50800D03*
X172800Y50800D03*
X182800Y50800D03*
X192800Y50800D03*
D13*
X139800Y12050D03*
X215800Y12050D03*
D12*
X216300Y304800D03*
X266300Y304800D03*
X256300Y304800D03*
X246300Y304800D03*
X236300Y304800D03*
X226300Y304800D03*
D13*
X279300Y343550D03*
X203300Y343550D03*
D14*
X304800Y266300D03*
X304800Y216300D03*
X304800Y226300D03*
X304800Y236300D03*
X304800Y246300D03*
X304800Y256300D03*
D15*
X343550Y203300D03*
X343550Y279300D03*
D16*
X29600Y143510D03*
X46600Y143510D03*
D17*
X245500Y25400D03*
X262500Y25400D03*
D16*
X88900Y143900D03*
X88900Y160900D03*
D17*
X166760Y109220D03*
X183760Y109220D03*
D16*
X241300Y245500D03*
X241300Y262500D03*
X91440Y262010D03*
X91440Y279010D03*
D17*
X232800Y114300D03*
X249800Y114300D03*
D18*
X203200Y106440D03*
X203200Y76440D03*
X266700Y239000D03*
X266700Y269000D03*
D19*
X301500Y63130D03*
X301500Y114670D03*
X333500Y114670D03*
X333500Y63130D03*
D12*
X89300Y304800D03*
X139300Y304800D03*
X129300Y304800D03*
X119300Y304800D03*
X109300Y304800D03*
X99300Y304800D03*
D13*
X152300Y343550D03*
X76300Y343550D03*
D20*
X29210Y278130D03*
X29210Y262890D03*
D17*
X46600Y165100D03*
X29600Y165100D03*
D21*
X127000Y99900D03*
X136500Y77900D03*
X117500Y77900D03*
D17*
X64770Y262010D03*
X64770Y279010D03*
X266700Y160900D03*
X266700Y143900D03*
X177800Y283600D03*
X177800Y300600D03*
X177800Y334890D03*
X177800Y317890D03*
D22*
X263500Y76500D03*
X254000Y76500D03*
X244500Y76500D03*
X244500Y50500D03*
X263500Y50500D03*
D17*
X67700Y228600D03*
X84700Y228600D03*
D23*
X25400Y118110D03*
X25400Y58510D03*
X101300Y58510D03*
X101300Y118110D03*
D21*
X76200Y37400D03*
X85700Y13400D03*
X66700Y13400D03*
D17*
X114300Y16900D03*
X114300Y33900D03*
D24*
X64770Y208280D03*
X64770Y189280D03*
X88770Y189280D03*
X88770Y208280D03*
M02*
